G04*
G04 #@! TF.GenerationSoftware,Altium Limited,Altium Designer,24.1.2 (44)*
G04*
G04 Layer_Color=10151133*
%FSLAX44Y44*%
%MOMM*%
G71*
G04*
G04 #@! TF.SameCoordinates,4227E7B6-EBC9-4803-BC49-DE6AE7B22491*
G04*
G04*
G04 #@! TF.FilePolarity,Positive*
G04*
G01*
G75*
%ADD10C,0.2000*%
%ADD14C,0.1500*%
%ADD60C,0.1000*%
%ADD61C,0.1270*%
G36*
X599000Y718006D02*
X592993D01*
Y702000D01*
X599000D01*
Y718006D01*
D02*
G37*
D10*
X466000Y452500D02*
G03*
X466000Y452500I-1000J0D01*
G01*
X761697Y694930D02*
G03*
X751697Y684930I0J-10000D01*
G01*
X761534Y628816D02*
G03*
X777857Y628818I8161J5671D01*
G01*
X786177Y643630D02*
G03*
X787697Y648930I-8480J5300D01*
G01*
X751697D02*
G03*
X753217Y643630I10000J0D01*
G01*
X787697Y684930D02*
G03*
X777697Y694930I-10000J0D01*
G01*
X624000Y738500D02*
G03*
X624000Y738500I-1000J0D01*
G01*
X532500Y653000D02*
G03*
X532500Y653000I-1000J0D01*
G01*
X761697Y694930D02*
X777697D01*
X751697Y684930D02*
X751697Y648930D01*
X777857Y628818D02*
X786177Y643630D01*
X787697Y648930D02*
Y684930D01*
X753217Y643630D02*
X761536Y628818D01*
X274976Y78921D02*
X278308D01*
X276642D01*
Y70591D01*
X278308Y68924D01*
X279974D01*
X281640Y70591D01*
X266645Y68924D02*
X269977D01*
X271644Y70591D01*
Y73923D01*
X269977Y75589D01*
X266645D01*
X264979Y73923D01*
Y72257D01*
X271644D01*
X261647Y75589D02*
Y70591D01*
X259981Y68924D01*
X254982D01*
Y75589D01*
X234989Y78921D02*
Y68924D01*
X239987D01*
X241653Y70591D01*
Y73923D01*
X239987Y75589D01*
X234989D01*
X231656D02*
Y70591D01*
X229990Y68924D01*
X224992D01*
Y75589D01*
X211663Y68924D02*
Y78921D01*
X208331Y75589D01*
X204998Y78921D01*
Y68924D01*
X200000D02*
X196668D01*
X195002Y70591D01*
Y73923D01*
X196668Y75589D01*
X200000D01*
X201666Y73923D01*
Y70591D01*
X200000Y68924D01*
X191669Y75589D02*
Y70591D01*
X190003Y68924D01*
X185005D01*
Y75589D01*
X181673Y68924D02*
X178340D01*
X180006D01*
Y78921D01*
X181673D01*
X173342Y68924D02*
X170010D01*
X171676D01*
Y75589D01*
X173342D01*
X165011Y68924D02*
Y75589D01*
X160013D01*
X158347Y73923D01*
Y68924D01*
X138353Y78921D02*
X145018D01*
Y68924D01*
X138353D01*
X145018Y73923D02*
X141685D01*
X135021Y68924D02*
Y78921D01*
X131689Y75589D01*
X128356Y78921D01*
Y68924D01*
X118360Y78921D02*
X125024D01*
Y73923D01*
X121692D01*
X125024D01*
Y68924D01*
X302467Y52128D02*
Y58793D01*
X299135Y62125D01*
X295802Y58793D01*
Y52128D01*
Y57127D01*
X302467D01*
X292470Y52128D02*
X289138D01*
X290804D01*
Y62125D01*
X292470D01*
X279141Y52128D02*
X282473D01*
X284140Y53794D01*
Y57127D01*
X282473Y58793D01*
X279141D01*
X277475Y57127D01*
Y55461D01*
X284140D01*
X274143Y58793D02*
X267478Y52128D01*
X270811Y55461D01*
X267478Y58793D01*
X274143Y52128D01*
X262480Y58793D02*
X259148D01*
X257481Y57127D01*
Y52128D01*
X262480D01*
X264146Y53794D01*
X262480Y55461D01*
X257481D01*
X254149Y52128D02*
Y58793D01*
X249151D01*
X247485Y57127D01*
Y52128D01*
X237488Y62125D02*
Y52128D01*
X242486D01*
X244152Y53794D01*
Y57127D01*
X242486Y58793D01*
X237488D01*
X234156D02*
Y52128D01*
Y55461D01*
X232489Y57127D01*
X230823Y58793D01*
X229157D01*
X219160Y52128D02*
X222493D01*
X224159Y53794D01*
Y57127D01*
X222493Y58793D01*
X219160D01*
X217494Y57127D01*
Y55461D01*
X224159D01*
X204165Y62125D02*
Y52128D01*
X199167D01*
X197501Y53794D01*
Y55461D01*
X199167Y57127D01*
X204165D01*
X199167D01*
X197501Y58793D01*
Y60459D01*
X199167Y62125D01*
X204165D01*
X192502Y52128D02*
X189170D01*
X187504Y53794D01*
Y57127D01*
X189170Y58793D01*
X192502D01*
X194168Y57127D01*
Y53794D01*
X192502Y52128D01*
X184172Y58793D02*
Y53794D01*
X182506Y52128D01*
X177507D01*
Y58793D01*
X174175D02*
Y52128D01*
Y55461D01*
X172509Y57127D01*
X170843Y58793D01*
X169177D01*
X157514Y48796D02*
Y58793D01*
X162512D01*
X164178Y57127D01*
Y53794D01*
X162512Y52128D01*
X157514D01*
X154181Y58793D02*
Y53794D01*
X152515Y52128D01*
X147517D01*
Y58793D01*
X139186Y52128D02*
X142519D01*
X144185Y53794D01*
Y57127D01*
X142519Y58793D01*
X139186D01*
X137520Y57127D01*
Y55461D01*
X144185D01*
X134188Y52128D02*
Y58793D01*
X129190D01*
X127523Y57127D01*
Y52128D01*
X122525D02*
X119193D01*
X117527Y53794D01*
Y57127D01*
X119193Y58793D01*
X122525D01*
X124191Y57127D01*
Y53794D01*
X122525Y52128D01*
X114194Y58793D02*
Y53794D01*
X112528Y52128D01*
X107530D01*
Y58793D01*
X97533Y62125D02*
Y52128D01*
X102531D01*
X104198Y53794D01*
Y57127D01*
X102531Y58793D01*
X97533D01*
X232489Y41997D02*
X225825D01*
X229157D01*
Y32000D01*
X222493D02*
Y41997D01*
X217494D01*
X215828Y40331D01*
Y36998D01*
X217494Y35332D01*
X222493D01*
X212496Y41997D02*
X209164D01*
X210830D01*
Y32000D01*
X212496D01*
X209164D01*
X187504D02*
X194168D01*
X187504Y38665D01*
Y40331D01*
X189170Y41997D01*
X192502D01*
X194168Y40331D01*
X184172D02*
X182506Y41997D01*
X179173D01*
X177507Y40331D01*
Y33666D01*
X179173Y32000D01*
X182506D01*
X184172Y33666D01*
Y40331D01*
X167511Y32000D02*
X174175D01*
X167511Y38665D01*
Y40331D01*
X169177Y41997D01*
X172509D01*
X174175Y40331D01*
X157514Y41997D02*
X164178D01*
Y36998D01*
X160846Y38665D01*
X159180D01*
X157514Y36998D01*
Y33666D01*
X159180Y32000D01*
X162512D01*
X164178Y33666D01*
D14*
X345804Y384040D02*
X363582D01*
X345804Y401544D02*
X363582D01*
X345804Y384040D02*
Y401544D01*
X363582Y384040D02*
Y401544D01*
X483726Y324604D02*
X501503D01*
X483726Y342108D02*
X501503D01*
X483726Y324604D02*
Y342108D01*
X501503Y324604D02*
Y342108D01*
X501966Y366356D02*
X519743D01*
X501966Y383859D02*
X519743D01*
X501966Y366356D02*
Y383859D01*
X519743Y366356D02*
Y383859D01*
X572880Y343400D02*
X590658D01*
X572880Y360904D02*
X590658D01*
X572880Y343400D02*
Y360904D01*
X590658Y343400D02*
Y360904D01*
X687709Y176553D02*
Y178909D01*
X690065Y181265D01*
X692421D01*
X697134Y176553D01*
Y174196D01*
X694778Y171840D01*
X692421D01*
X690065Y174196D01*
X692421Y176553D01*
X197709Y421552D02*
Y423909D01*
X200065Y426265D01*
X202421D01*
X207134Y421552D01*
Y419196D01*
X204778Y416840D01*
X202421D01*
X200065Y419196D01*
X202421Y421552D01*
X158080Y672828D02*
X151011Y679897D01*
X147476Y676363D01*
Y674007D01*
X149833Y671650D01*
X152189D01*
X155723Y675185D01*
X153367Y672828D02*
Y668116D01*
X442709Y46553D02*
Y48909D01*
X445065Y51265D01*
X447421D01*
X452134Y46553D01*
Y44196D01*
X449778Y41840D01*
X447421D01*
X445065Y44196D01*
X447421Y46553D01*
X67709Y796553D02*
Y798909D01*
X70065Y801265D01*
X72421D01*
X77134Y796553D01*
Y794196D01*
X74778Y791840D01*
X72421D01*
X70065Y794196D01*
X72421Y796553D01*
X158080Y427828D02*
X151011Y434897D01*
X147476Y431363D01*
Y429007D01*
X149833Y426650D01*
X152189D01*
X155723Y430185D01*
X153367Y427828D02*
Y423116D01*
X407291Y803447D02*
Y801091D01*
X404935Y798735D01*
X402578D01*
X397866Y803447D01*
Y805804D01*
X400222Y808160D01*
X402578D01*
X404935Y805804D01*
X402578Y803447D01*
X288080Y542828D02*
X281011Y549897D01*
X277476Y546363D01*
Y544007D01*
X279833Y541650D01*
X282189D01*
X285723Y545185D01*
X283367Y542828D02*
Y538116D01*
X403080Y182828D02*
X396011Y189897D01*
X392476Y186363D01*
Y184007D01*
X394833Y181650D01*
X397189D01*
X400723Y185185D01*
X398367Y182828D02*
Y178116D01*
X193613Y168160D02*
X194791Y170201D01*
X198009Y171063D01*
X200050Y169885D01*
X201775Y163447D01*
X200597Y161407D01*
X197378Y160544D01*
X195338Y161723D01*
X194475Y164941D01*
X197694Y165804D01*
X162431Y193410D02*
X159843Y203066D01*
X155015Y201772D01*
X153837Y199732D01*
X154700Y196513D01*
X156740Y195335D01*
X161568Y196628D01*
X158350Y195766D02*
X155993Y191685D01*
X648080Y672828D02*
X641011Y679897D01*
X637476Y676363D01*
Y674007D01*
X639833Y671650D01*
X642189D01*
X645723Y675185D01*
X643367Y672828D02*
Y668116D01*
X648080Y427828D02*
X641011Y434897D01*
X637476Y431363D01*
Y429007D01*
X639833Y426650D01*
X642189D01*
X645723Y430185D01*
X643367Y427828D02*
Y423116D01*
X687709Y666553D02*
Y668909D01*
X690065Y671265D01*
X692421D01*
X697134Y666553D01*
Y664196D01*
X694778Y661840D01*
X692421D01*
X690065Y664196D01*
X692421Y666553D01*
X821920Y422172D02*
X828989Y415103D01*
X832523Y418637D01*
Y420993D01*
X830167Y423350D01*
X827811D01*
X824277Y419815D01*
X826633Y422172D02*
Y426884D01*
X67709Y421552D02*
Y423909D01*
X70065Y426265D01*
X72421D01*
X77134Y421552D01*
Y419196D01*
X74778Y416840D01*
X72421D01*
X70065Y419196D01*
X72421Y421552D01*
X442709Y306553D02*
Y308909D01*
X445065Y311265D01*
X447421D01*
X452134Y306553D01*
Y304196D01*
X449778Y301840D01*
X447421D01*
X445065Y304196D01*
X447421Y306553D01*
X518080Y312828D02*
X511011Y319897D01*
X507477Y316363D01*
Y314007D01*
X509833Y311650D01*
X512189D01*
X515723Y315185D01*
X513367Y312828D02*
Y308116D01*
X403080Y542828D02*
X396011Y549897D01*
X392476Y546363D01*
Y544007D01*
X394833Y541650D01*
X397189D01*
X400723Y545185D01*
X398367Y542828D02*
Y538116D01*
X288080Y312828D02*
X281011Y319897D01*
X277476Y316363D01*
Y314007D01*
X279833Y311650D01*
X282189D01*
X285723Y315185D01*
X283367Y312828D02*
Y308116D01*
X687709Y421553D02*
Y423909D01*
X690065Y426265D01*
X692421D01*
X697134Y421553D01*
Y419196D01*
X694778Y416840D01*
X692421D01*
X690065Y419196D01*
X692421Y421553D01*
X197709Y666553D02*
Y668909D01*
X200065Y671265D01*
X202421D01*
X207134Y666553D01*
Y664196D01*
X204778Y661840D01*
X202421D01*
X200065Y664196D01*
X202421Y666553D01*
X817709Y46553D02*
Y48909D01*
X820065Y51265D01*
X822421D01*
X827134Y46553D01*
Y44196D01*
X824778Y41840D01*
X822421D01*
X820065Y44196D01*
X822421Y46553D01*
X782291Y803447D02*
Y801091D01*
X779935Y798735D01*
X777579D01*
X772866Y803447D01*
Y805804D01*
X775222Y808160D01*
X777579D01*
X779935Y805804D01*
X777579Y803447D01*
X442709Y536553D02*
Y538909D01*
X445065Y541265D01*
X447421D01*
X452134Y536553D01*
Y534196D01*
X449778Y531840D01*
X447421D01*
X445065Y534196D01*
X447421Y536553D01*
X327709Y306553D02*
Y308909D01*
X330065Y311265D01*
X332421D01*
X337134Y306553D01*
Y304196D01*
X334778Y301840D01*
X332421D01*
X330065Y304196D01*
X332421Y306553D01*
X782291Y428447D02*
Y426091D01*
X779935Y423735D01*
X777579D01*
X772866Y428447D01*
Y430804D01*
X775222Y433160D01*
X777579D01*
X779935Y430804D01*
X777579Y428447D01*
X778080Y52828D02*
X771011Y59897D01*
X767476Y56363D01*
Y54007D01*
X769833Y51650D01*
X772189D01*
X775723Y55185D01*
X773367Y52828D02*
Y48116D01*
X442709Y176553D02*
Y178909D01*
X445065Y181265D01*
X447421D01*
X452134Y176553D01*
Y174196D01*
X449778Y171840D01*
X447421D01*
X445065Y174196D01*
X447421Y176553D01*
X648080Y182828D02*
X641011Y189897D01*
X637476Y186363D01*
Y184007D01*
X639833Y181650D01*
X642189D01*
X645723Y185185D01*
X643367Y182828D02*
Y178116D01*
X561920Y422172D02*
X568989Y415103D01*
X572523Y418637D01*
Y420993D01*
X570167Y423350D01*
X567811D01*
X564277Y419815D01*
X566633Y422172D02*
Y426884D01*
X28080Y52828D02*
X21011Y59897D01*
X17476Y56363D01*
Y54007D01*
X19833Y51650D01*
X22189D01*
X25723Y55185D01*
X23367Y52828D02*
Y48116D01*
X67709Y46553D02*
Y48909D01*
X70065Y51265D01*
X72421D01*
X77134Y46553D01*
Y44196D01*
X74778Y41840D01*
X72421D01*
X70065Y44196D01*
X72421Y46553D01*
X403080Y312828D02*
X396011Y319897D01*
X392476Y316363D01*
Y314007D01*
X394833Y311650D01*
X397189D01*
X400723Y315185D01*
X398367Y312828D02*
Y308116D01*
X327709Y421552D02*
Y423909D01*
X330065Y426265D01*
X332421D01*
X337134Y421552D01*
Y419196D01*
X334778Y416840D01*
X332421D01*
X330065Y419196D01*
X332421Y421552D01*
X522291Y428447D02*
Y426091D01*
X519935Y423735D01*
X517579D01*
X512866Y428447D01*
Y430804D01*
X515222Y433160D01*
X517579D01*
X519935Y430804D01*
X517579Y428447D01*
X518080Y542828D02*
X511011Y549897D01*
X507477Y546363D01*
Y544007D01*
X509833Y541650D01*
X512189D01*
X515723Y545185D01*
X513367Y542828D02*
Y538116D01*
X403080Y52828D02*
X396011Y59897D01*
X392476Y56363D01*
Y54007D01*
X394833Y51650D01*
X397189D01*
X400723Y55185D01*
X398367Y52828D02*
Y48116D01*
X446920Y797172D02*
X453989Y790103D01*
X457523Y793637D01*
Y795993D01*
X455167Y798350D01*
X452811D01*
X449277Y794815D01*
X451633Y797172D02*
Y801884D01*
X28080Y427828D02*
X21011Y434897D01*
X17476Y431363D01*
Y429007D01*
X19833Y426650D01*
X22189D01*
X25723Y430185D01*
X23367Y427828D02*
Y423116D01*
X442709Y666553D02*
Y668909D01*
X445065Y671265D01*
X447421D01*
X452134Y666553D01*
Y664196D01*
X449778Y661840D01*
X447421D01*
X445065Y664196D01*
X447421Y666553D01*
X28080Y802828D02*
X21011Y809897D01*
X17476Y806363D01*
Y804007D01*
X19833Y801650D01*
X22189D01*
X25723Y805185D01*
X23367Y802828D02*
Y798116D01*
X327709Y536553D02*
Y538909D01*
X330065Y541265D01*
X332421D01*
X337134Y536553D01*
Y534196D01*
X334778Y531840D01*
X332421D01*
X330065Y534196D01*
X332421Y536553D01*
X557709Y306553D02*
Y308909D01*
X560065Y311265D01*
X562421D01*
X567134Y306553D01*
Y304196D01*
X564778Y301840D01*
X562421D01*
X560065Y304196D01*
X562421Y306553D01*
X288080Y427828D02*
X281011Y434897D01*
X277476Y431363D01*
Y429007D01*
X279833Y426650D01*
X282189D01*
X285723Y430185D01*
X283367Y427828D02*
Y423116D01*
X821920Y797172D02*
X828989Y790103D01*
X832523Y793637D01*
Y795993D01*
X830167Y798350D01*
X827811D01*
X824277Y794815D01*
X826633Y797172D02*
Y801884D01*
X403080Y672828D02*
X396011Y679897D01*
X392476Y676363D01*
Y674007D01*
X394833Y671650D01*
X397189D01*
X400723Y675185D01*
X398367Y672828D02*
Y668116D01*
X557709Y536553D02*
Y538909D01*
X560065Y541265D01*
X562421D01*
X567134Y536553D01*
Y534196D01*
X564778Y531840D01*
X562421D01*
X560065Y534196D01*
X562421Y536553D01*
X565504Y718500D02*
X575500D01*
X572168D01*
X565504Y711836D01*
X570502Y716834D01*
X575500Y711836D01*
Y708503D02*
X573834D01*
Y706837D01*
X575500D01*
Y708503D01*
X758620Y730610D02*
X751956Y720613D01*
Y730610D02*
X758620Y720613D01*
X748623D02*
X745291D01*
X746957D01*
Y730610D01*
X748623Y728943D01*
X368382Y407791D02*
Y401127D01*
Y404459D01*
X378378D01*
Y397794D02*
X368382D01*
Y392796D01*
X370048Y391130D01*
X373380D01*
X375046Y392796D01*
Y397794D01*
X368382Y381133D02*
X370048Y384465D01*
X373380Y387798D01*
X376712D01*
X378378Y386131D01*
Y382799D01*
X376712Y381133D01*
X375046D01*
X373380Y382799D01*
Y387798D01*
X496183Y320212D02*
X489519D01*
X492851D01*
Y310216D01*
X486186D02*
Y320212D01*
X481188D01*
X479522Y318546D01*
Y315214D01*
X481188Y313548D01*
X486186D01*
X469525Y320212D02*
X476189D01*
Y315214D01*
X472857Y316880D01*
X471191D01*
X469525Y315214D01*
Y311882D01*
X471191Y310216D01*
X474523D01*
X476189Y311882D01*
X523329Y359998D02*
X516665D01*
X519997D01*
Y350002D01*
X513332D02*
Y359998D01*
X508334D01*
X506668Y358332D01*
Y355000D01*
X508334Y353334D01*
X513332D01*
X498337Y350002D02*
Y359998D01*
X503335Y355000D01*
X496671D01*
X595243Y374042D02*
X588578D01*
X591911D01*
Y364046D01*
X585246D02*
Y374042D01*
X580248D01*
X578582Y372376D01*
Y369044D01*
X580248Y367378D01*
X585246D01*
X575249Y372376D02*
X573583Y374042D01*
X570251D01*
X568585Y372376D01*
Y370710D01*
X570251Y369044D01*
X571917D01*
X570251D01*
X568585Y367378D01*
Y365712D01*
X570251Y364046D01*
X573583D01*
X575249Y365712D01*
X547329Y598002D02*
Y607998D01*
X542331D01*
X540664Y606332D01*
Y603000D01*
X542331Y601334D01*
X547329D01*
X543997D02*
X540664Y598002D01*
X530668D02*
X537332D01*
X530668Y604666D01*
Y606332D01*
X532334Y607998D01*
X535666D01*
X537332Y606332D01*
X527336Y607998D02*
X520671D01*
Y606332D01*
X527336Y599668D01*
Y598002D01*
X652498Y483329D02*
X642502D01*
Y478331D01*
X644168Y476665D01*
X647500D01*
X649166Y478331D01*
Y483329D01*
Y479997D02*
X652498Y476665D01*
Y466668D02*
Y473332D01*
X645834Y466668D01*
X644168D01*
X642502Y468334D01*
Y471666D01*
X644168Y473332D01*
X642502Y456671D02*
X644168Y460003D01*
X647500Y463335D01*
X650832D01*
X652498Y461669D01*
Y458337D01*
X650832Y456671D01*
X649166D01*
X647500Y458337D01*
Y463335D01*
X640829Y317502D02*
Y327498D01*
X635831D01*
X634165Y325832D01*
Y322500D01*
X635831Y320834D01*
X640829D01*
X637497D02*
X634165Y317502D01*
X624168D02*
X630832D01*
X624168Y324166D01*
Y325832D01*
X625834Y327498D01*
X629166D01*
X630832Y325832D01*
X614171Y327498D02*
X620835D01*
Y322500D01*
X617503Y324166D01*
X615837D01*
X614171Y322500D01*
Y319168D01*
X615837Y317502D01*
X619169D01*
X620835Y319168D01*
X496998Y222329D02*
X487002D01*
Y217331D01*
X488668Y215665D01*
X492000D01*
X493666Y217331D01*
Y222329D01*
Y218997D02*
X496998Y215665D01*
Y205668D02*
Y212332D01*
X490334Y205668D01*
X488668D01*
X487002Y207334D01*
Y210666D01*
X488668Y212332D01*
X496998Y197337D02*
X487002D01*
X492000Y202335D01*
Y195671D01*
X365998Y248329D02*
X356002D01*
Y243331D01*
X357668Y241665D01*
X361000D01*
X362666Y243331D01*
Y248329D01*
Y244997D02*
X365998Y241665D01*
Y231668D02*
Y238332D01*
X359334Y231668D01*
X357668D01*
X356002Y233334D01*
Y236666D01*
X357668Y238332D01*
Y228335D02*
X356002Y226669D01*
Y223337D01*
X357668Y221671D01*
X359334D01*
X361000Y223337D01*
Y225003D01*
Y223337D01*
X362666Y221671D01*
X364332D01*
X365998Y223337D01*
Y226669D01*
X364332Y228335D01*
X260329Y481002D02*
Y490998D01*
X255331D01*
X253664Y489332D01*
Y486000D01*
X255331Y484334D01*
X260329D01*
X256997D02*
X253664Y481002D01*
X243668D02*
X250332D01*
X243668Y487666D01*
Y489332D01*
X245334Y490998D01*
X248666D01*
X250332Y489332D01*
X233671Y481002D02*
X240336D01*
X233671Y487666D01*
Y489332D01*
X235337Y490998D01*
X238669D01*
X240336Y489332D01*
X374998Y591663D02*
X365002D01*
Y586665D01*
X366668Y584998D01*
X370000D01*
X371666Y586665D01*
Y591663D01*
Y588331D02*
X374998Y584998D01*
Y575002D02*
Y581666D01*
X368334Y575002D01*
X366668D01*
X365002Y576668D01*
Y580000D01*
X366668Y581666D01*
X374998Y571669D02*
Y568337D01*
Y570003D01*
X365002D01*
X366668Y571669D01*
X394998Y633329D02*
X385002D01*
Y628331D01*
X386668Y626665D01*
X390000D01*
X391666Y628331D01*
Y633329D01*
Y629997D02*
X394998Y626665D01*
Y616668D02*
Y623332D01*
X388334Y616668D01*
X386668D01*
X385002Y618334D01*
Y621666D01*
X386668Y623332D01*
Y613335D02*
X385002Y611669D01*
Y608337D01*
X386668Y606671D01*
X393332D01*
X394998Y608337D01*
Y611669D01*
X393332Y613335D01*
X386668D01*
X362998Y506996D02*
X353002D01*
Y501998D01*
X354668Y500331D01*
X358000D01*
X359666Y501998D01*
Y506996D01*
Y503664D02*
X362998Y500331D01*
Y496999D02*
Y493667D01*
Y495333D01*
X353002D01*
X354668Y496999D01*
X361332Y488669D02*
X362998Y487002D01*
Y483670D01*
X361332Y482004D01*
X354668D01*
X353002Y483670D01*
Y487002D01*
X354668Y488669D01*
X356334D01*
X358000Y487002D01*
Y482004D01*
X344998Y637496D02*
X335002D01*
Y632497D01*
X336668Y630831D01*
X340000D01*
X341666Y632497D01*
Y637496D01*
Y634164D02*
X344998Y630831D01*
Y627499D02*
Y624167D01*
Y625833D01*
X335002D01*
X336668Y627499D01*
Y619169D02*
X335002Y617502D01*
Y614170D01*
X336668Y612504D01*
X338334D01*
X340000Y614170D01*
X341666Y612504D01*
X343332D01*
X344998Y614170D01*
Y617502D01*
X343332Y619169D01*
X341666D01*
X340000Y617502D01*
X338334Y619169D01*
X336668D01*
X340000Y617502D02*
Y614170D01*
X322498Y382320D02*
X312502D01*
Y377322D01*
X314168Y375656D01*
X317500D01*
X319166Y377322D01*
Y382320D01*
Y378988D02*
X322498Y375656D01*
Y372323D02*
Y368991D01*
Y370657D01*
X312502D01*
X314168Y372323D01*
X312502Y363993D02*
Y357328D01*
X314168D01*
X320832Y363993D01*
X322498D01*
X651998Y768496D02*
X642002D01*
Y763498D01*
X643668Y761832D01*
X647000D01*
X648666Y763498D01*
Y768496D01*
Y765164D02*
X651998Y761832D01*
Y758499D02*
Y755167D01*
Y756833D01*
X642002D01*
X643668Y758499D01*
X642002Y743504D02*
X643668Y746836D01*
X647000Y750169D01*
X650332D01*
X651998Y748502D01*
Y745170D01*
X650332Y743504D01*
X648666D01*
X647000Y745170D01*
Y750169D01*
X681998Y767496D02*
X672002D01*
Y762497D01*
X673668Y760831D01*
X677000D01*
X678666Y762497D01*
Y767496D01*
Y764164D02*
X681998Y760831D01*
Y757499D02*
Y754167D01*
Y755833D01*
X672002D01*
X673668Y757499D01*
X672002Y742504D02*
Y749168D01*
X677000D01*
X675334Y745836D01*
Y744170D01*
X677000Y742504D01*
X680332D01*
X681998Y744170D01*
Y747502D01*
X680332Y749168D01*
X686496Y722002D02*
Y731998D01*
X681498D01*
X679831Y730332D01*
Y727000D01*
X681498Y725334D01*
X686496D01*
X683164D02*
X679831Y722002D01*
X676499D02*
X673167D01*
X674833D01*
Y731998D01*
X676499Y730332D01*
X663170Y722002D02*
Y731998D01*
X668168Y727000D01*
X661504D01*
X616998Y526496D02*
X607002D01*
Y521498D01*
X608668Y519832D01*
X612000D01*
X613666Y521498D01*
Y526496D01*
Y523164D02*
X616998Y519832D01*
Y516499D02*
Y513167D01*
Y514833D01*
X607002D01*
X608668Y516499D01*
Y508169D02*
X607002Y506502D01*
Y503170D01*
X608668Y501504D01*
X610334D01*
X612000Y503170D01*
Y504836D01*
Y503170D01*
X613666Y501504D01*
X615332D01*
X616998Y503170D01*
Y506502D01*
X615332Y508169D01*
X612998Y399496D02*
X603002D01*
Y394498D01*
X604668Y392831D01*
X608000D01*
X609666Y394498D01*
Y399496D01*
Y396164D02*
X612998Y392831D01*
Y389499D02*
Y386167D01*
Y387833D01*
X603002D01*
X604668Y389499D01*
X612998Y374504D02*
Y381169D01*
X606334Y374504D01*
X604668D01*
X603002Y376170D01*
Y379502D01*
X604668Y381169D01*
X531538Y235764D02*
Y245760D01*
X526539D01*
X524873Y244094D01*
Y240762D01*
X526539Y239096D01*
X531538D01*
X528206D02*
X524873Y235764D01*
X521541D02*
X518209D01*
X519875D01*
Y245760D01*
X521541Y244094D01*
X513210Y235764D02*
X509878D01*
X511544D01*
Y245760D01*
X513210Y244094D01*
X474998Y282496D02*
X465002D01*
Y277498D01*
X466668Y275831D01*
X470000D01*
X471666Y277498D01*
Y282496D01*
Y279164D02*
X474998Y275831D01*
Y272499D02*
Y269167D01*
Y270833D01*
X465002D01*
X466668Y272499D01*
Y264168D02*
X465002Y262502D01*
Y259170D01*
X466668Y257504D01*
X473332D01*
X474998Y259170D01*
Y262502D01*
X473332Y264168D01*
X466668D01*
X253331Y297502D02*
Y307498D01*
X248332D01*
X246666Y305832D01*
Y302500D01*
X248332Y300834D01*
X253331D01*
X249998D02*
X246666Y297502D01*
X243334Y299168D02*
X241668Y297502D01*
X238335D01*
X236669Y299168D01*
Y305832D01*
X238335Y307498D01*
X241668D01*
X243334Y305832D01*
Y304166D01*
X241668Y302500D01*
X236669D01*
X484270Y393312D02*
Y403309D01*
X479272D01*
X477606Y401643D01*
Y398311D01*
X479272Y396645D01*
X484270D01*
X480938D02*
X477606Y393312D01*
X474273Y401643D02*
X472607Y403309D01*
X469275D01*
X467609Y401643D01*
Y399977D01*
X469275Y398311D01*
X467609Y396645D01*
Y394978D01*
X469275Y393312D01*
X472607D01*
X474273Y394978D01*
Y396645D01*
X472607Y398311D01*
X474273Y399977D01*
Y401643D01*
X472607Y398311D02*
X469275D01*
X253331Y392502D02*
Y402498D01*
X248332D01*
X246666Y400832D01*
Y397500D01*
X248332Y395834D01*
X253331D01*
X249998D02*
X246666Y392502D01*
X243334Y402498D02*
X236669D01*
Y400832D01*
X243334Y394168D01*
Y392502D01*
X610331Y466002D02*
Y475998D01*
X605332D01*
X603666Y474332D01*
Y471000D01*
X605332Y469334D01*
X610331D01*
X606998D02*
X603666Y466002D01*
X593669Y475998D02*
X597002Y474332D01*
X600334Y471000D01*
Y467668D01*
X598668Y466002D01*
X595336D01*
X593669Y467668D01*
Y469334D01*
X595336Y471000D01*
X600334D01*
X317998Y496831D02*
X308002D01*
Y491832D01*
X309668Y490166D01*
X313000D01*
X314666Y491832D01*
Y496831D01*
Y493498D02*
X317998Y490166D01*
X308002Y480169D02*
Y486834D01*
X313000D01*
X311334Y483502D01*
Y481836D01*
X313000Y480169D01*
X316332D01*
X317998Y481836D01*
Y485168D01*
X316332Y486834D01*
X505831Y437502D02*
Y447498D01*
X500832D01*
X499166Y445832D01*
Y442500D01*
X500832Y440834D01*
X505831D01*
X502498D02*
X499166Y437502D01*
X490835D02*
Y447498D01*
X495834Y442500D01*
X489169D01*
X485331Y595002D02*
Y604998D01*
X480332D01*
X478666Y603332D01*
Y600000D01*
X480332Y598334D01*
X485331D01*
X481998D02*
X478666Y595002D01*
X475334Y603332D02*
X473668Y604998D01*
X470336D01*
X468669Y603332D01*
Y601666D01*
X470336Y600000D01*
X472002D01*
X470336D01*
X468669Y598334D01*
Y596668D01*
X470336Y595002D01*
X473668D01*
X475334Y596668D01*
X750831Y372502D02*
Y382498D01*
X745832D01*
X744166Y380832D01*
Y377500D01*
X745832Y375834D01*
X750831D01*
X747498D02*
X744166Y372502D01*
X734169D02*
X740834D01*
X734169Y379166D01*
Y380832D01*
X735835Y382498D01*
X739168D01*
X740834Y380832D01*
X731665Y665002D02*
Y674998D01*
X726666D01*
X725000Y673332D01*
Y670000D01*
X726666Y668334D01*
X731665D01*
X728332D02*
X725000Y665002D01*
X721668D02*
X718335D01*
X720002D01*
Y674998D01*
X721668Y673332D01*
X571000Y747668D02*
Y754332D01*
X572666Y755998D01*
X575998D01*
X577664Y754332D01*
Y747668D01*
X575998Y746002D01*
X572666D01*
X574332Y749334D02*
X571000Y746002D01*
X572666D02*
X571000Y747668D01*
X567668Y746002D02*
X564336D01*
X566002D01*
Y755998D01*
X567668Y754332D01*
X544331Y709998D02*
Y700002D01*
Y703334D01*
X537666Y709998D01*
X542664Y705000D01*
X537666Y700002D01*
X527669D02*
X534334D01*
X527669Y706666D01*
Y708332D01*
X529336Y709998D01*
X532668D01*
X534334Y708332D01*
X373441Y464738D02*
Y454742D01*
Y458074D01*
X366776Y464738D01*
X371774Y459740D01*
X366776Y454742D01*
X363444D02*
X360112D01*
X361778D01*
Y464738D01*
X363444Y463072D01*
X598329Y679998D02*
Y670002D01*
X593331D01*
X591665Y671668D01*
Y678332D01*
X593331Y679998D01*
X598329D01*
X581668Y670002D02*
X588332D01*
X581668Y676666D01*
Y678332D01*
X583334Y679998D01*
X586666D01*
X588332Y678332D01*
X571671Y679998D02*
X578335D01*
Y675000D01*
X575003Y676666D01*
X573337D01*
X571671Y675000D01*
Y671668D01*
X573337Y670002D01*
X576669D01*
X578335Y671668D01*
X542831Y632332D02*
X544498Y633998D01*
X547830D01*
X549496Y632332D01*
Y625668D01*
X547830Y624002D01*
X544498D01*
X542831Y625668D01*
X539499Y624002D02*
X536167D01*
X537833D01*
Y633998D01*
X539499Y632332D01*
X531169D02*
X529502Y633998D01*
X526170D01*
X524504Y632332D01*
Y630666D01*
X526170Y629000D01*
X527836D01*
X526170D01*
X524504Y627334D01*
Y625668D01*
X526170Y624002D01*
X529502D01*
X531169Y625668D01*
X492668Y678831D02*
X491002Y680498D01*
Y683830D01*
X492668Y685496D01*
X499332D01*
X500998Y683830D01*
Y680498D01*
X499332Y678831D01*
X500998Y675499D02*
Y672167D01*
Y673833D01*
X491002D01*
X492668Y675499D01*
X500998Y660504D02*
Y667169D01*
X494334Y660504D01*
X492668D01*
X491002Y662170D01*
Y665502D01*
X492668Y667169D01*
X364083Y435894D02*
X365749Y437560D01*
X369082D01*
X370748Y435894D01*
Y429230D01*
X369082Y427564D01*
X365749D01*
X364083Y429230D01*
X360751Y427564D02*
X357419D01*
X359085D01*
Y437560D01*
X360751Y435894D01*
X352420Y427564D02*
X349088D01*
X350754D01*
Y437560D01*
X352420Y435894D01*
X453332Y360168D02*
X454998Y358502D01*
Y355170D01*
X453332Y353504D01*
X446668D01*
X445002Y355170D01*
Y358502D01*
X446668Y360168D01*
X445002Y363501D02*
Y366833D01*
Y365167D01*
X454998D01*
X453332Y363501D01*
Y371831D02*
X454998Y373498D01*
Y376830D01*
X453332Y378496D01*
X446668D01*
X445002Y376830D01*
Y373498D01*
X446668Y371831D01*
X453332D01*
X726666Y623332D02*
X728332Y624998D01*
X731665D01*
X733331Y623332D01*
Y616668D01*
X731665Y615002D01*
X728332D01*
X726666Y616668D01*
X723334D02*
X721668Y615002D01*
X718335D01*
X716669Y616668D01*
Y623332D01*
X718335Y624998D01*
X721668D01*
X723334Y623332D01*
Y621666D01*
X721668Y620000D01*
X716669D01*
X410832Y363334D02*
X412498Y361668D01*
Y358335D01*
X410832Y356669D01*
X404168D01*
X402502Y358335D01*
Y361668D01*
X404168Y363334D01*
X410832Y366666D02*
X412498Y368332D01*
Y371665D01*
X410832Y373331D01*
X409166D01*
X407500Y371665D01*
X405834Y373331D01*
X404168D01*
X402502Y371665D01*
Y368332D01*
X404168Y366666D01*
X405834D01*
X407500Y368332D01*
X409166Y366666D01*
X410832D01*
X407500Y368332D02*
Y371665D01*
X487666Y373332D02*
X489332Y374998D01*
X492664D01*
X494331Y373332D01*
Y366668D01*
X492664Y365002D01*
X489332D01*
X487666Y366668D01*
X484334Y374998D02*
X477669D01*
Y373332D01*
X484334Y366668D01*
Y365002D01*
X444868Y501332D02*
X446534Y502998D01*
X449866D01*
X451532Y501332D01*
Y494668D01*
X449866Y493002D01*
X446534D01*
X444868Y494668D01*
X434871Y502998D02*
X438203Y501332D01*
X441536Y498000D01*
Y494668D01*
X439869Y493002D01*
X436537D01*
X434871Y494668D01*
Y496334D01*
X436537Y498000D01*
X441536D01*
X468666Y503332D02*
X470332Y504998D01*
X473665D01*
X475331Y503332D01*
Y496668D01*
X473665Y495002D01*
X470332D01*
X468666Y496668D01*
X458669Y504998D02*
X465334D01*
Y500000D01*
X462002Y501666D01*
X460336D01*
X458669Y500000D01*
Y496668D01*
X460336Y495002D01*
X463668D01*
X465334Y496668D01*
X346666Y358332D02*
X348332Y359998D01*
X351665D01*
X353331Y358332D01*
Y351668D01*
X351665Y350002D01*
X348332D01*
X346666Y351668D01*
X338335Y350002D02*
Y359998D01*
X343334Y355000D01*
X336669D01*
X502839Y463604D02*
X504506Y465270D01*
X507838D01*
X509504Y463604D01*
Y456940D01*
X507838Y455274D01*
X504506D01*
X502839Y456940D01*
X499507Y463604D02*
X497841Y465270D01*
X494509D01*
X492843Y463604D01*
Y461938D01*
X494509Y460272D01*
X496175D01*
X494509D01*
X492843Y458606D01*
Y456940D01*
X494509Y455274D01*
X497841D01*
X499507Y456940D01*
X501752Y430948D02*
X503418Y432615D01*
X506750D01*
X508416Y430948D01*
Y424284D01*
X506750Y422618D01*
X503418D01*
X501752Y424284D01*
X491755Y422618D02*
X498419D01*
X491755Y429282D01*
Y430948D01*
X493421Y432615D01*
X496753D01*
X498419Y430948D01*
X347000Y374332D02*
X348666Y375998D01*
X351998D01*
X353665Y374332D01*
Y367668D01*
X351998Y366002D01*
X348666D01*
X347000Y367668D01*
X343668Y366002D02*
X340336D01*
X342002D01*
Y375998D01*
X343668Y374332D01*
D60*
X209081Y168881D02*
G03*
X209081Y168881I-1000J0D01*
G01*
X80879Y804412D02*
G03*
X80879Y804412I-1000J0D01*
G01*
X570879Y544412D02*
G03*
X570879Y544412I-1000J0D01*
G01*
X700879Y674412D02*
G03*
X700879Y674412I-1000J0D01*
G01*
X771122Y795588D02*
G03*
X771122Y795588I-1000J0D01*
G01*
X511121Y420588D02*
G03*
X511121Y420588I-1000J0D01*
G01*
X700879Y429412D02*
G03*
X700879Y429412I-1000J0D01*
G01*
X771122Y420588D02*
G03*
X771122Y420588I-1000J0D01*
G01*
X570879Y314412D02*
G03*
X570879Y314412I-1000J0D01*
G01*
X700879Y184412D02*
G03*
X700879Y184412I-1000J0D01*
G01*
X830879Y54412D02*
G03*
X830879Y54412I-1000J0D01*
G01*
X455878Y314412D02*
G03*
X455878Y314412I-1000J0D01*
G01*
Y184412D02*
G03*
X455878Y184412I-1000J0D01*
G01*
Y54412D02*
G03*
X455878Y54412I-1000J0D01*
G01*
X340878Y314412D02*
G03*
X340878Y314412I-1000J0D01*
G01*
X80879Y54412D02*
G03*
X80879Y54412I-1000J0D01*
G01*
X340878Y429412D02*
G03*
X340878Y429412I-1000J0D01*
G01*
X210879D02*
G03*
X210879Y429412I-1000J0D01*
G01*
X80879D02*
G03*
X80879Y429412I-1000J0D01*
G01*
X340878Y544412D02*
G03*
X340878Y544412I-1000J0D01*
G01*
X210879Y674412D02*
G03*
X210879Y674412I-1000J0D01*
G01*
X455878Y544412D02*
G03*
X455878Y544412I-1000J0D01*
G01*
Y674412D02*
G03*
X455878Y674412I-1000J0D01*
G01*
X396121Y795588D02*
G03*
X396121Y795588I-1000J0D01*
G01*
X171640Y202889D02*
X175302Y200747D01*
X171640Y202889D02*
X173159Y197085D01*
X174542Y203650D02*
X176061Y197845D01*
X173159Y197085D02*
X175302Y200747D01*
X167563Y198721D02*
X172400Y199987D01*
X175302Y200747D02*
X180138Y202014D01*
X183693Y162355D02*
X185246Y156559D01*
X184469Y159457D02*
X186591Y163131D01*
X188144Y157335D01*
X184469Y159457D02*
X188144Y157335D01*
X187367Y160233D02*
X192197Y161527D01*
X179640Y158163D02*
X184469Y159457D01*
X31315Y815643D02*
X35557Y815619D01*
X31315Y815643D02*
X35533Y811376D01*
X33448Y817752D02*
X37666Y813485D01*
X35533Y811376D02*
X35558Y815619D01*
X29869Y809994D02*
X33424Y813509D01*
X35557Y815619D02*
X39113Y819134D01*
X62021Y786565D02*
X66263Y782322D01*
X64142Y784444D02*
Y788686D01*
X68385Y784444D01*
X64142D02*
X68385D01*
X66263Y786565D02*
X69799Y790100D01*
X60607Y780908D02*
X64142Y784444D01*
X550607Y520908D02*
X554142Y524444D01*
X556264Y526565D02*
X559799Y530101D01*
X554142Y524444D02*
X558385D01*
X554142Y528686D02*
X558385Y524444D01*
X554142Y524444D02*
Y528686D01*
X552021Y526565D02*
X556264Y522322D01*
X525558Y555619D02*
X529113Y559134D01*
X519869Y549994D02*
X523424Y553509D01*
X525533Y551376D02*
X525558Y555619D01*
X523448Y557752D02*
X527666Y553485D01*
X521315Y555643D02*
X525533Y551376D01*
X521315Y555643D02*
X525558Y555619D01*
X651315Y685643D02*
X655557Y685619D01*
X651315Y685643D02*
X655533Y681376D01*
X653448Y687752D02*
X657666Y683485D01*
X655533Y681376D02*
X655558Y685619D01*
X649869Y679994D02*
X653424Y683509D01*
X655557Y685619D02*
X659113Y689134D01*
X682021Y656565D02*
X686264Y652322D01*
X684142Y654444D02*
Y658686D01*
X688385Y654444D01*
X684142D02*
X688385D01*
X686264Y656565D02*
X689799Y660100D01*
X680607Y650908D02*
X684142Y654444D01*
X785858Y815556D02*
X789393Y819092D01*
X780201Y809900D02*
X783736Y813435D01*
X781615Y815556D02*
X785858D01*
X781615D02*
X785858Y811314D01*
Y815556D01*
X783736Y817678D02*
X787979Y813435D01*
X810887Y780866D02*
X814443Y784381D01*
X816576Y786491D02*
X820131Y790006D01*
X814442Y784381D02*
X814467Y788624D01*
X812334Y786515D02*
X816552Y782248D01*
X814467Y788624D02*
X818685Y784357D01*
X814443Y784381D02*
X818685Y784357D01*
X554442Y409381D02*
X558685Y409357D01*
X554467Y413624D02*
X558685Y409357D01*
X552334Y411515D02*
X556552Y407248D01*
X554442Y409381D02*
X554467Y413624D01*
X556576Y411491D02*
X560131Y415006D01*
X550887Y405866D02*
X554442Y409381D01*
X523736Y442678D02*
X527979Y438435D01*
X525858Y436314D02*
Y440556D01*
X521615Y440556D02*
X525858Y436314D01*
X521615Y440556D02*
X525858D01*
X520201Y434899D02*
X523736Y438435D01*
X525858Y440556D02*
X529393Y444092D01*
X680607Y405908D02*
X684142Y409444D01*
X686264Y411565D02*
X689799Y415101D01*
X684142Y409444D02*
X688385D01*
X684142Y413686D02*
X688385Y409444D01*
X684142Y409444D02*
Y413686D01*
X682021Y411565D02*
X686264Y407322D01*
X655557Y440619D02*
X659113Y444134D01*
X649869Y434994D02*
X653424Y438509D01*
X655533Y436376D02*
X655558Y440619D01*
X653448Y442752D02*
X657666Y438485D01*
X651315Y440643D02*
X655533Y436376D01*
X651315Y440643D02*
X655557Y440619D01*
X814443Y409381D02*
X818685Y409357D01*
X814467Y413624D02*
X818685Y409357D01*
X812334Y411515D02*
X816552Y407248D01*
X814442Y409381D02*
X814467Y413624D01*
X816576Y411491D02*
X820131Y415006D01*
X810887Y405866D02*
X814443Y409381D01*
X783736Y442678D02*
X787979Y438435D01*
X785858Y436314D02*
Y440556D01*
X781615Y440556D02*
X785858Y436314D01*
X781615Y440556D02*
X785858D01*
X780201Y434899D02*
X783736Y438435D01*
X785858Y440556D02*
X789393Y444092D01*
X550607Y290908D02*
X554142Y294444D01*
X556264Y296565D02*
X559799Y300100D01*
X554142Y294444D02*
X558385D01*
X554142Y298686D02*
X558385Y294444D01*
X554142Y294444D02*
Y298686D01*
X552021Y296565D02*
X556264Y292322D01*
X525558Y325619D02*
X529113Y329134D01*
X519869Y319994D02*
X523424Y323509D01*
X525533Y321376D02*
X525558Y325619D01*
X523448Y327752D02*
X527666Y323485D01*
X521315Y325643D02*
X525533Y321376D01*
X521315Y325643D02*
X525558Y325619D01*
X651315Y195643D02*
X655557Y195618D01*
X651315Y195643D02*
X655533Y191376D01*
X653448Y197752D02*
X657666Y193485D01*
X655533Y191376D02*
X655558Y195619D01*
X649869Y189994D02*
X653424Y193509D01*
X655557Y195618D02*
X659113Y199134D01*
X682021Y166565D02*
X686264Y162322D01*
X684142Y164444D02*
Y168686D01*
X688385Y164444D01*
X684142D02*
X688385D01*
X686264Y166565D02*
X689799Y170100D01*
X680607Y160908D02*
X684142Y164444D01*
X810607Y30908D02*
X814142Y34444D01*
X816264Y36565D02*
X819799Y40100D01*
X814142Y34444D02*
X818385D01*
X814142Y38686D02*
X818385Y34444D01*
X814142Y34444D02*
Y38686D01*
X812021Y36565D02*
X816264Y32322D01*
X785557Y65619D02*
X789113Y69134D01*
X779869Y59994D02*
X783424Y63509D01*
X785533Y61376D02*
X785558Y65619D01*
X783448Y67752D02*
X787666Y63485D01*
X781315Y65643D02*
X785533Y61376D01*
X781315Y65643D02*
X785557Y65619D01*
X406315Y325643D02*
X410558Y325619D01*
X406315Y325643D02*
X410533Y321376D01*
X408448Y327752D02*
X412666Y323485D01*
X410533Y321376D02*
X410558Y325619D01*
X404869Y319994D02*
X408424Y323509D01*
X410558Y325619D02*
X414113Y329134D01*
X437021Y296565D02*
X441264Y292322D01*
X439142Y294444D02*
Y298686D01*
X443385Y294444D01*
X439142D02*
X443385D01*
X441264Y296565D02*
X444799Y300100D01*
X435607Y290908D02*
X439142Y294444D01*
X435607Y160908D02*
X439142Y164444D01*
X441264Y166565D02*
X444799Y170100D01*
X439142Y164444D02*
X443385D01*
X439142Y168686D02*
X443385Y164444D01*
X439142Y164444D02*
Y168686D01*
X437021Y166565D02*
X441264Y162322D01*
X410558Y195618D02*
X414113Y199134D01*
X404869Y189994D02*
X408424Y193509D01*
X410533Y191376D02*
X410558Y195619D01*
X408448Y197752D02*
X412666Y193485D01*
X406315Y195643D02*
X410533Y191376D01*
X406315Y195643D02*
X410558Y195618D01*
X406315Y65643D02*
X410558Y65619D01*
X406315Y65643D02*
X410533Y61376D01*
X408448Y67752D02*
X412666Y63485D01*
X410533Y61376D02*
X410558Y65619D01*
X404869Y59994D02*
X408424Y63509D01*
X410558Y65619D02*
X414113Y69134D01*
X437021Y36565D02*
X441264Y32322D01*
X439142Y34444D02*
Y38686D01*
X443385Y34444D01*
X439142D02*
X443385D01*
X441264Y36565D02*
X444799Y40100D01*
X435607Y30908D02*
X439142Y34444D01*
X320607Y290908D02*
X324142Y294444D01*
X326264Y296565D02*
X329799Y300100D01*
X324142Y294444D02*
X328385D01*
X324142Y298686D02*
X328385Y294444D01*
X324142Y294444D02*
Y298686D01*
X322021Y296565D02*
X326264Y292322D01*
X295557Y325619D02*
X299113Y329134D01*
X289869Y319994D02*
X293424Y323509D01*
X295533Y321376D02*
X295558Y325619D01*
X293448Y327752D02*
X297666Y323485D01*
X291315Y325643D02*
X295533Y321376D01*
X291315Y325643D02*
X295557Y325619D01*
X60607Y30908D02*
X64142Y34444D01*
X66263Y36565D02*
X69799Y40100D01*
X64142Y34444D02*
X68385D01*
X64142Y38686D02*
X68385Y34444D01*
X64142Y34444D02*
Y38686D01*
X62021Y36565D02*
X66263Y32322D01*
X35557Y65619D02*
X39113Y69134D01*
X29869Y59994D02*
X33424Y63509D01*
X35533Y61376D02*
X35558Y65619D01*
X33448Y67752D02*
X37666Y63485D01*
X31315Y65643D02*
X35533Y61376D01*
X31315Y65643D02*
X35557Y65619D01*
X291315Y440643D02*
X295557Y440619D01*
X291315Y440643D02*
X295533Y436376D01*
X293448Y442752D02*
X297666Y438485D01*
X295533Y436376D02*
X295558Y440619D01*
X289869Y434994D02*
X293424Y438509D01*
X295557Y440619D02*
X299113Y444134D01*
X322021Y411565D02*
X326264Y407322D01*
X324142Y409444D02*
Y413686D01*
X328385Y409444D01*
X324142D02*
X328385D01*
X326264Y411565D02*
X329799Y415101D01*
X320607Y405908D02*
X324142Y409444D01*
X190607Y405908D02*
X194142Y409444D01*
X196264Y411565D02*
X199799Y415101D01*
X194142Y409444D02*
X198385D01*
X194142Y413686D02*
X198385Y409444D01*
X194142Y409444D02*
Y413686D01*
X192021Y411565D02*
X196264Y407322D01*
X165557Y440619D02*
X169113Y444134D01*
X159869Y434994D02*
X163424Y438509D01*
X165533Y436376D02*
X165558Y440619D01*
X163448Y442752D02*
X167666Y438485D01*
X161315Y440643D02*
X165533Y436376D01*
X161315Y440643D02*
X165557Y440619D01*
X31315Y440643D02*
X35557Y440619D01*
X31315Y440643D02*
X35533Y436376D01*
X33448Y442752D02*
X37666Y438485D01*
X35533Y436376D02*
X35558Y440619D01*
X29869Y434994D02*
X33424Y438509D01*
X35557Y440619D02*
X39113Y444134D01*
X62021Y411565D02*
X66263Y407322D01*
X64142Y409444D02*
Y413686D01*
X68385Y409444D01*
X64142D02*
X68385D01*
X66263Y411565D02*
X69799Y415101D01*
X60607Y405908D02*
X64142Y409444D01*
X320607Y520908D02*
X324142Y524444D01*
X326264Y526565D02*
X329799Y530101D01*
X324142Y524444D02*
X328385D01*
X324142Y528686D02*
X328385Y524444D01*
X324142Y524444D02*
Y528686D01*
X322021Y526565D02*
X326264Y522322D01*
X295557Y555619D02*
X299113Y559134D01*
X289869Y549994D02*
X293424Y553509D01*
X295533Y551376D02*
X295558Y555619D01*
X293448Y557752D02*
X297666Y553485D01*
X291315Y555643D02*
X295533Y551376D01*
X291315Y555643D02*
X295557Y555619D01*
X161315Y685643D02*
X165557Y685619D01*
X161315Y685643D02*
X165533Y681376D01*
X163448Y687752D02*
X167666Y683485D01*
X165533Y681376D02*
X165558Y685619D01*
X159869Y679994D02*
X163424Y683509D01*
X165557Y685619D02*
X169113Y689134D01*
X192021Y656565D02*
X196264Y652322D01*
X194142Y654444D02*
Y658686D01*
X198385Y654444D01*
X194142D02*
X198385D01*
X196264Y656565D02*
X199799Y660100D01*
X190607Y650908D02*
X194142Y654444D01*
X435607Y520908D02*
X439142Y524444D01*
X441264Y526565D02*
X444799Y530101D01*
X439142Y524444D02*
X443385D01*
X439142Y528686D02*
X443385Y524444D01*
X439142Y524444D02*
Y528686D01*
X437021Y526565D02*
X441264Y522322D01*
X410558Y555619D02*
X414113Y559134D01*
X404869Y549994D02*
X408424Y553509D01*
X410533Y551376D02*
X410558Y555619D01*
X408448Y557752D02*
X412666Y553485D01*
X406315Y555643D02*
X410533Y551376D01*
X406315Y555643D02*
X410558Y555619D01*
X406315Y685643D02*
X410558Y685619D01*
X406315Y685643D02*
X410533Y681376D01*
X408448Y687752D02*
X412666Y683485D01*
X410533Y681376D02*
X410558Y685619D01*
X404869Y679994D02*
X408424Y683509D01*
X410558Y685619D02*
X414113Y689134D01*
X437021Y656565D02*
X441264Y652322D01*
X439142Y654444D02*
Y658686D01*
X443385Y654444D01*
X439142D02*
X443385D01*
X441264Y656565D02*
X444799Y660100D01*
X435607Y650908D02*
X439142Y654444D01*
X410858Y815556D02*
X414393Y819092D01*
X405201Y809900D02*
X408736Y813435D01*
X406615Y815556D02*
X410858D01*
X406615D02*
X410858Y811314D01*
Y815556D01*
X408736Y817678D02*
X412979Y813435D01*
X435887Y780866D02*
X439442Y784381D01*
X441576Y786491D02*
X445131Y790006D01*
X439442Y784381D02*
X439467Y788624D01*
X437334Y786515D02*
X441552Y782248D01*
X439467Y788624D02*
X443685Y784357D01*
X439442Y784381D02*
X443685Y784357D01*
D61*
X452000Y460000D02*
X455000D01*
Y457000D02*
Y460000D01*
Y390000D02*
Y393000D01*
X452000Y390000D02*
X455000D01*
X385000D02*
X388000D01*
X385000D02*
Y393000D01*
Y457000D02*
Y460000D01*
X388000D01*
X608200Y758000D02*
X615500D01*
X586500D02*
X593800D01*
X586500Y746200D02*
Y758000D01*
X615500Y746200D02*
Y758000D01*
X551000Y660500D02*
Y667800D01*
Y682200D02*
Y689500D01*
X539200D02*
X551000D01*
X539200Y660500D02*
X551000D01*
X588500Y702000D02*
X615500D01*
X588500Y718000D02*
X615500D01*
M02*
