G04*
G04 #@! TF.GenerationSoftware,Altium Limited,Altium Designer,24.1.2 (44)*
G04*
G04 Layer_Color=39423*
%FSLAX44Y44*%
%MOMM*%
G71*
G04*
G04 #@! TF.SameCoordinates,9019D9DD-9CA8-41BA-9965-C50D2D570C24*
G04*
G04*
G04 #@! TF.FilePolarity,Positive*
G04*
G01*
G75*
%ADD25C,0.3000*%
D25*
X51576Y66000D02*
X54667Y65385D01*
X57579Y64179D01*
X60199Y62428D01*
X61314Y61314D01*
X62428Y60199D01*
X64179Y57579D01*
X65385Y54667D01*
X66000Y51576D01*
Y48424D02*
Y51576D01*
X65385Y45333D02*
X66000Y48424D01*
X64179Y42421D02*
X65385Y45333D01*
X62428Y39801D02*
X64179Y42421D01*
X61314Y38686D02*
X62428Y39801D01*
X60199Y37572D02*
X61314Y38686D01*
X57579Y35821D02*
X60199Y37572D01*
X54667Y34615D02*
X57579Y35821D01*
X51576Y34000D02*
X54667Y34615D01*
X48424Y34000D02*
X51576D01*
X45333Y34615D02*
X48424Y34000D01*
X42421Y35821D02*
X45333Y34615D01*
X39801Y37572D02*
X42421Y35821D01*
X38686Y38686D02*
X39801Y37572D01*
X37572Y39801D02*
X38686Y38686D01*
X35821Y42421D02*
X37572Y39801D01*
X34615Y45333D02*
X35821Y42421D01*
X34000Y48424D02*
X34615Y45333D01*
X34000Y48424D02*
Y51576D01*
X34615Y54667D01*
X35821Y57579D01*
X37572Y60199D01*
X38686Y61314D01*
X39801Y62428D01*
X42421Y64179D01*
X45333Y65385D01*
X48424Y66000D01*
X51576D01*
X426576D02*
X429667Y65385D01*
X432579Y64179D01*
X435199Y62428D01*
X436314Y61314D01*
X437428Y60199D01*
X439179Y57579D01*
X440385Y54667D01*
X441000Y51576D01*
Y48424D02*
Y51576D01*
X440385Y45333D02*
X441000Y48424D01*
X439179Y42421D02*
X440385Y45333D01*
X437428Y39801D02*
X439179Y42421D01*
X436314Y38686D02*
X437428Y39801D01*
X435199Y37572D02*
X436314Y38686D01*
X432579Y35821D02*
X435199Y37572D01*
X429667Y34615D02*
X432579Y35821D01*
X426576Y34000D02*
X429667Y34615D01*
X423424Y34000D02*
X426576D01*
X420333Y34615D02*
X423424Y34000D01*
X417421Y35821D02*
X420333Y34615D01*
X414801Y37572D02*
X417421Y35821D01*
X413686Y38686D02*
X414801Y37572D01*
X412572Y39801D02*
X413686Y38686D01*
X410821Y42421D02*
X412572Y39801D01*
X409615Y45333D02*
X410821Y42421D01*
X409000Y48424D02*
X409615Y45333D01*
X409000Y48424D02*
Y51576D01*
X409615Y54667D01*
X410821Y57579D01*
X412572Y60199D01*
X413686Y61314D01*
X414801Y62428D01*
X417421Y64179D01*
X420333Y65385D01*
X423424Y66000D01*
X426576D01*
X801576D02*
X804667Y65385D01*
X807579Y64179D01*
X810199Y62428D01*
X811314Y61314D01*
X812428Y60199D01*
X814179Y57579D01*
X815385Y54667D01*
X816000Y51576D01*
Y48424D02*
Y51576D01*
X815385Y45333D02*
X816000Y48424D01*
X814179Y42421D02*
X815385Y45333D01*
X812428Y39801D02*
X814179Y42421D01*
X811314Y38686D02*
X812428Y39801D01*
X810199Y37572D02*
X811314Y38686D01*
X807579Y35821D02*
X810199Y37572D01*
X804667Y34615D02*
X807579Y35821D01*
X801576Y34000D02*
X804667Y34615D01*
X798424Y34000D02*
X801576D01*
X795333Y34615D02*
X798424Y34000D01*
X792421Y35821D02*
X795333Y34615D01*
X789801Y37572D02*
X792421Y35821D01*
X788686Y38686D02*
X789801Y37572D01*
X787572Y39801D02*
X788686Y38686D01*
X785821Y42421D02*
X787572Y39801D01*
X784615Y45333D02*
X785821Y42421D01*
X784000Y48424D02*
X784615Y45333D01*
X784000Y48424D02*
Y51576D01*
X784615Y54667D01*
X785821Y57579D01*
X787572Y60199D01*
X788686Y61314D01*
X789801Y62428D01*
X792421Y64179D01*
X795333Y65385D01*
X798424Y66000D01*
X801576D01*
X180526Y196069D02*
X183651Y195657D01*
X186635Y194644D01*
X189365Y193068D01*
X191734Y190990D01*
X193653Y188490D01*
X195047Y185663D01*
X195455Y184141D01*
X195863Y182619D01*
X196069Y179474D01*
X195657Y176349D02*
X196069Y179474D01*
X194644Y173365D02*
X195657Y176349D01*
X193068Y170635D02*
X194644Y173365D01*
X190990Y168266D02*
X193068Y170635D01*
X188490Y166347D02*
X190990Y168266D01*
X185663Y164953D02*
X188490Y166347D01*
X184141Y164545D02*
X185663Y164953D01*
X182619Y164137D02*
X184141Y164545D01*
X179474Y163931D02*
X182619Y164137D01*
X176349Y164343D02*
X179474Y163931D01*
X173365Y165356D02*
X176349Y164343D01*
X170635Y166931D02*
X173365Y165356D01*
X168266Y169010D02*
X170635Y166931D01*
X166347Y171510D02*
X168266Y169010D01*
X164953Y174337D02*
X166347Y171510D01*
X164545Y175859D02*
X164953Y174337D01*
X164137Y177381D02*
X164545Y175859D01*
X163931Y180526D02*
X164137Y177381D01*
X163931Y180526D02*
X164343Y183651D01*
X165356Y186635D01*
X166931Y189365D01*
X169010Y191734D01*
X171510Y193653D01*
X174337Y195047D01*
X175859Y195455D01*
X177381Y195863D01*
X180526Y196069D01*
X426576Y196000D02*
X429667Y195385D01*
X432579Y194179D01*
X435199Y192428D01*
X436314Y191314D01*
X437428Y190199D01*
X439179Y187579D01*
X440385Y184667D01*
X441000Y181576D01*
Y178424D02*
Y181576D01*
X440385Y175333D02*
X441000Y178424D01*
X439179Y172421D02*
X440385Y175333D01*
X437428Y169801D02*
X439179Y172421D01*
X436314Y168686D02*
X437428Y169801D01*
X435199Y167572D02*
X436314Y168686D01*
X432579Y165821D02*
X435199Y167572D01*
X429667Y164615D02*
X432579Y165821D01*
X426576Y164000D02*
X429667Y164615D01*
X423424Y164000D02*
X426576D01*
X420333Y164615D02*
X423424Y164000D01*
X417421Y165821D02*
X420333Y164615D01*
X414801Y167572D02*
X417421Y165821D01*
X413686Y168686D02*
X414801Y167572D01*
X412572Y169801D02*
X413686Y168686D01*
X410821Y172421D02*
X412572Y169801D01*
X409615Y175333D02*
X410821Y172421D01*
X409000Y178424D02*
X409615Y175333D01*
X409000Y178424D02*
Y181576D01*
X409615Y184667D01*
X410821Y187579D01*
X412572Y190199D01*
X413686Y191314D01*
X414801Y192428D01*
X417421Y194179D01*
X420333Y195385D01*
X423424Y196000D01*
X426576D01*
X671576D02*
X674667Y195385D01*
X677579Y194179D01*
X680199Y192428D01*
X681314Y191314D01*
X682428Y190199D01*
X684179Y187579D01*
X685385Y184667D01*
X686000Y181576D01*
Y178424D02*
Y181576D01*
X685385Y175333D02*
X686000Y178424D01*
X684179Y172421D02*
X685385Y175333D01*
X682428Y169801D02*
X684179Y172421D01*
X681314Y168686D02*
X682428Y169801D01*
X680199Y167572D02*
X681314Y168686D01*
X677579Y165821D02*
X680199Y167572D01*
X674667Y164615D02*
X677579Y165821D01*
X671576Y164000D02*
X674667Y164615D01*
X668424Y164000D02*
X671576D01*
X665333Y164615D02*
X668424Y164000D01*
X662421Y165821D02*
X665333Y164615D01*
X659801Y167572D02*
X662421Y165821D01*
X658686Y168686D02*
X659801Y167572D01*
X657572Y169801D02*
X658686Y168686D01*
X655821Y172421D02*
X657572Y169801D01*
X654615Y175333D02*
X655821Y172421D01*
X654000Y178424D02*
X654615Y175333D01*
X654000Y178424D02*
Y181576D01*
X654615Y184667D01*
X655821Y187579D01*
X657572Y190199D01*
X658686Y191314D01*
X659801Y192428D01*
X662421Y194179D01*
X665333Y195385D01*
X668424Y196000D01*
X671576D01*
X311576Y326000D02*
X314667Y325385D01*
X317579Y324179D01*
X320199Y322428D01*
X321314Y321314D01*
X322428Y320199D01*
X324179Y317579D01*
X325385Y314667D01*
X326000Y311576D01*
Y308424D02*
Y311576D01*
X325385Y305333D02*
X326000Y308424D01*
X324179Y302421D02*
X325385Y305333D01*
X322428Y299801D02*
X324179Y302421D01*
X321314Y298686D02*
X322428Y299801D01*
X320199Y297572D02*
X321314Y298686D01*
X317579Y295821D02*
X320199Y297572D01*
X314667Y294615D02*
X317579Y295821D01*
X311576Y294000D02*
X314667Y294615D01*
X308424Y294000D02*
X311576D01*
X305333Y294615D02*
X308424Y294000D01*
X302421Y295821D02*
X305333Y294615D01*
X299801Y297572D02*
X302421Y295821D01*
X298686Y298686D02*
X299801Y297572D01*
X297572Y299801D02*
X298686Y298686D01*
X295821Y302421D02*
X297572Y299801D01*
X294615Y305333D02*
X295821Y302421D01*
X294000Y308424D02*
X294615Y305333D01*
X294000Y308424D02*
Y311576D01*
X294615Y314667D01*
X295821Y317579D01*
X297572Y320199D01*
X298686Y321314D01*
X299801Y322428D01*
X302421Y324179D01*
X305333Y325385D01*
X308424Y326000D01*
X311576D01*
X426576D02*
X429667Y325385D01*
X432579Y324179D01*
X435199Y322428D01*
X436314Y321314D01*
X437428Y320199D01*
X439179Y317579D01*
X440385Y314667D01*
X441000Y311576D01*
Y308424D02*
Y311576D01*
X440385Y305333D02*
X441000Y308424D01*
X439179Y302421D02*
X440385Y305333D01*
X437428Y299801D02*
X439179Y302421D01*
X436314Y298686D02*
X437428Y299801D01*
X435199Y297572D02*
X436314Y298686D01*
X432579Y295821D02*
X435199Y297572D01*
X429667Y294615D02*
X432579Y295821D01*
X426576Y294000D02*
X429667Y294615D01*
X423424Y294000D02*
X426576D01*
X420333Y294615D02*
X423424Y294000D01*
X417421Y295821D02*
X420333Y294615D01*
X414801Y297572D02*
X417421Y295821D01*
X413686Y298686D02*
X414801Y297572D01*
X412572Y299801D02*
X413686Y298686D01*
X410821Y302421D02*
X412572Y299801D01*
X409615Y305333D02*
X410821Y302421D01*
X409000Y308424D02*
X409615Y305333D01*
X409000Y308424D02*
Y311576D01*
X409615Y314667D01*
X410821Y317579D01*
X412572Y320199D01*
X413686Y321314D01*
X414801Y322428D01*
X417421Y324179D01*
X420333Y325385D01*
X423424Y326000D01*
X426576D01*
X541576D02*
X544667Y325385D01*
X547579Y324179D01*
X550199Y322428D01*
X551314Y321314D01*
X552428Y320199D01*
X554179Y317579D01*
X555385Y314667D01*
X556000Y311576D01*
Y308424D02*
Y311576D01*
X555385Y305333D02*
X556000Y308424D01*
X554179Y302421D02*
X555385Y305333D01*
X552428Y299801D02*
X554179Y302421D01*
X551314Y298686D02*
X552428Y299801D01*
X550199Y297572D02*
X551314Y298686D01*
X547579Y295821D02*
X550199Y297572D01*
X544667Y294615D02*
X547579Y295821D01*
X541576Y294000D02*
X544667Y294615D01*
X538424Y294000D02*
X541576D01*
X535333Y294615D02*
X538424Y294000D01*
X532421Y295821D02*
X535333Y294615D01*
X529801Y297572D02*
X532421Y295821D01*
X528686Y298686D02*
X529801Y297572D01*
X527572Y299801D02*
X528686Y298686D01*
X525821Y302421D02*
X527572Y299801D01*
X524615Y305333D02*
X525821Y302421D01*
X524000Y308424D02*
X524615Y305333D01*
X524000Y308424D02*
Y311576D01*
X524615Y314667D01*
X525821Y317579D01*
X527572Y320199D01*
X528686Y321314D01*
X529801Y322428D01*
X532421Y324179D01*
X535333Y325385D01*
X538424Y326000D01*
X541576D01*
X51576Y441000D02*
X54667Y440385D01*
X57579Y439179D01*
X60199Y437428D01*
X61314Y436314D01*
X62428Y435199D01*
X64179Y432579D01*
X65385Y429667D01*
X66000Y426576D01*
Y423424D02*
Y426576D01*
X65385Y420333D02*
X66000Y423424D01*
X64179Y417421D02*
X65385Y420333D01*
X62428Y414801D02*
X64179Y417421D01*
X61314Y413686D02*
X62428Y414801D01*
X60199Y412572D02*
X61314Y413686D01*
X57579Y410821D02*
X60199Y412572D01*
X54667Y409615D02*
X57579Y410821D01*
X51576Y409000D02*
X54667Y409615D01*
X48424Y409000D02*
X51576D01*
X45333Y409615D02*
X48424Y409000D01*
X42421Y410821D02*
X45333Y409615D01*
X39801Y412572D02*
X42421Y410821D01*
X38686Y413686D02*
X39801Y412572D01*
X37572Y414801D02*
X38686Y413686D01*
X35821Y417421D02*
X37572Y414801D01*
X34615Y420333D02*
X35821Y417421D01*
X34000Y423424D02*
X34615Y420333D01*
X34000Y423424D02*
Y426576D01*
X34615Y429667D01*
X35821Y432579D01*
X37572Y435199D01*
X38686Y436314D01*
X39801Y437428D01*
X42421Y439179D01*
X45333Y440385D01*
X48424Y441000D01*
X51576D01*
X181576D02*
X184667Y440385D01*
X187579Y439179D01*
X190199Y437428D01*
X191314Y436314D01*
X192428Y435199D01*
X194179Y432579D01*
X195385Y429667D01*
X196000Y426576D01*
Y423424D02*
Y426576D01*
X195385Y420333D02*
X196000Y423424D01*
X194179Y417421D02*
X195385Y420333D01*
X192428Y414801D02*
X194179Y417421D01*
X191314Y413686D02*
X192428Y414801D01*
X190199Y412572D02*
X191314Y413686D01*
X187579Y410821D02*
X190199Y412572D01*
X184667Y409615D02*
X187579Y410821D01*
X181576Y409000D02*
X184667Y409615D01*
X178424Y409000D02*
X181576D01*
X175333Y409615D02*
X178424Y409000D01*
X172421Y410821D02*
X175333Y409615D01*
X169801Y412572D02*
X172421Y410821D01*
X168686Y413686D02*
X169801Y412572D01*
X167572Y414801D02*
X168686Y413686D01*
X165821Y417421D02*
X167572Y414801D01*
X164615Y420333D02*
X165821Y417421D01*
X164000Y423424D02*
X164615Y420333D01*
X164000Y423424D02*
Y426576D01*
X164615Y429667D01*
X165821Y432579D01*
X167572Y435199D01*
X168686Y436314D01*
X169801Y437428D01*
X172421Y439179D01*
X175333Y440385D01*
X178424Y441000D01*
X181576D01*
X311576D02*
X314667Y440385D01*
X317579Y439179D01*
X320199Y437428D01*
X321314Y436314D01*
X322428Y435199D01*
X324179Y432579D01*
X325385Y429667D01*
X326000Y426576D01*
Y423424D02*
Y426576D01*
X325385Y420333D02*
X326000Y423424D01*
X324179Y417421D02*
X325385Y420333D01*
X322428Y414801D02*
X324179Y417421D01*
X321314Y413686D02*
X322428Y414801D01*
X320199Y412572D02*
X321314Y413686D01*
X317579Y410821D02*
X320199Y412572D01*
X314667Y409615D02*
X317579Y410821D01*
X311576Y409000D02*
X314667Y409615D01*
X308424Y409000D02*
X311576D01*
X305333Y409615D02*
X308424Y409000D01*
X302421Y410821D02*
X305333Y409615D01*
X299801Y412572D02*
X302421Y410821D01*
X298686Y413686D02*
X299801Y412572D01*
X297572Y414801D02*
X298686Y413686D01*
X295821Y417421D02*
X297572Y414801D01*
X294615Y420333D02*
X295821Y417421D01*
X294000Y423424D02*
X294615Y420333D01*
X294000Y423424D02*
Y426576D01*
X294615Y429667D01*
X295821Y432579D01*
X297572Y435199D01*
X298686Y436314D01*
X299801Y437428D01*
X302421Y439179D01*
X305333Y440385D01*
X308424Y441000D01*
X311576D01*
X541576D02*
X544667Y440385D01*
X547579Y439179D01*
X550199Y437428D01*
X551314Y436314D01*
X552428Y435199D01*
X554179Y432579D01*
X555385Y429667D01*
X556000Y426576D01*
Y423424D02*
Y426576D01*
X555385Y420333D02*
X556000Y423424D01*
X554179Y417421D02*
X555385Y420333D01*
X552428Y414801D02*
X554179Y417421D01*
X551314Y413686D02*
X552428Y414801D01*
X550199Y412572D02*
X551314Y413686D01*
X547579Y410821D02*
X550199Y412572D01*
X544667Y409615D02*
X547579Y410821D01*
X541576Y409000D02*
X544667Y409615D01*
X538424Y409000D02*
X541576D01*
X535333Y409615D02*
X538424Y409000D01*
X532421Y410821D02*
X535333Y409615D01*
X529801Y412572D02*
X532421Y410821D01*
X528686Y413686D02*
X529801Y412572D01*
X527572Y414801D02*
X528686Y413686D01*
X525821Y417421D02*
X527572Y414801D01*
X524615Y420333D02*
X525821Y417421D01*
X524000Y423424D02*
X524615Y420333D01*
X524000Y423424D02*
Y426576D01*
X524615Y429667D01*
X525821Y432579D01*
X527572Y435199D01*
X528686Y436314D01*
X529801Y437428D01*
X532421Y439179D01*
X535333Y440385D01*
X538424Y441000D01*
X541576D01*
X671576D02*
X674667Y440385D01*
X677579Y439179D01*
X680199Y437428D01*
X681314Y436314D01*
X682428Y435199D01*
X684179Y432579D01*
X685385Y429667D01*
X686000Y426576D01*
Y423424D02*
Y426576D01*
X685385Y420333D02*
X686000Y423424D01*
X684179Y417421D02*
X685385Y420333D01*
X682428Y414801D02*
X684179Y417421D01*
X681314Y413686D02*
X682428Y414801D01*
X680199Y412572D02*
X681314Y413686D01*
X677579Y410821D02*
X680199Y412572D01*
X674667Y409615D02*
X677579Y410821D01*
X671576Y409000D02*
X674667Y409615D01*
X668424Y409000D02*
X671576D01*
X665333Y409615D02*
X668424Y409000D01*
X662421Y410821D02*
X665333Y409615D01*
X659801Y412572D02*
X662421Y410821D01*
X658686Y413686D02*
X659801Y412572D01*
X657572Y414801D02*
X658686Y413686D01*
X655821Y417421D02*
X657572Y414801D01*
X654615Y420333D02*
X655821Y417421D01*
X654000Y423424D02*
X654615Y420333D01*
X654000Y423424D02*
Y426576D01*
X654615Y429667D01*
X655821Y432579D01*
X657572Y435199D01*
X658686Y436314D01*
X659801Y437428D01*
X662421Y439179D01*
X665333Y440385D01*
X668424Y441000D01*
X671576D01*
X801576D02*
X804667Y440385D01*
X807579Y439179D01*
X810199Y437428D01*
X811314Y436314D01*
X812428Y435199D01*
X814179Y432579D01*
X815385Y429667D01*
X816000Y426576D01*
Y423424D02*
Y426576D01*
X815385Y420333D02*
X816000Y423424D01*
X814179Y417421D02*
X815385Y420333D01*
X812428Y414801D02*
X814179Y417421D01*
X811314Y413686D02*
X812428Y414801D01*
X810199Y412572D02*
X811314Y413686D01*
X807579Y410821D02*
X810199Y412572D01*
X804667Y409615D02*
X807579Y410821D01*
X801576Y409000D02*
X804667Y409615D01*
X798424Y409000D02*
X801576D01*
X795333Y409615D02*
X798424Y409000D01*
X792421Y410821D02*
X795333Y409615D01*
X789801Y412572D02*
X792421Y410821D01*
X788686Y413686D02*
X789801Y412572D01*
X787572Y414801D02*
X788686Y413686D01*
X785821Y417421D02*
X787572Y414801D01*
X784615Y420333D02*
X785821Y417421D01*
X784000Y423424D02*
X784615Y420333D01*
X784000Y423424D02*
Y426576D01*
X784615Y429667D01*
X785821Y432579D01*
X787572Y435199D01*
X788686Y436314D01*
X789801Y437428D01*
X792421Y439179D01*
X795333Y440385D01*
X798424Y441000D01*
X801576D01*
X311576Y556000D02*
X314667Y555385D01*
X317579Y554179D01*
X320199Y552428D01*
X321314Y551314D01*
X322428Y550199D01*
X324179Y547579D01*
X325385Y544667D01*
X326000Y541576D01*
Y538424D02*
Y541576D01*
X325385Y535333D02*
X326000Y538424D01*
X324179Y532421D02*
X325385Y535333D01*
X322428Y529801D02*
X324179Y532421D01*
X321314Y528686D02*
X322428Y529801D01*
X320199Y527572D02*
X321314Y528686D01*
X317579Y525821D02*
X320199Y527572D01*
X314667Y524615D02*
X317579Y525821D01*
X311576Y524000D02*
X314667Y524615D01*
X308424Y524000D02*
X311576D01*
X305333Y524615D02*
X308424Y524000D01*
X302421Y525821D02*
X305333Y524615D01*
X299801Y527572D02*
X302421Y525821D01*
X298686Y528686D02*
X299801Y527572D01*
X297572Y529801D02*
X298686Y528686D01*
X295821Y532421D02*
X297572Y529801D01*
X294615Y535333D02*
X295821Y532421D01*
X294000Y538424D02*
X294615Y535333D01*
X294000Y538424D02*
Y541576D01*
X294615Y544667D01*
X295821Y547579D01*
X297572Y550199D01*
X298686Y551314D01*
X299801Y552428D01*
X302421Y554179D01*
X305333Y555385D01*
X308424Y556000D01*
X311576D01*
X426576D02*
X429667Y555385D01*
X432579Y554179D01*
X435199Y552428D01*
X436314Y551314D01*
X437428Y550199D01*
X439179Y547579D01*
X440385Y544667D01*
X441000Y541576D01*
Y538424D02*
Y541576D01*
X440385Y535333D02*
X441000Y538424D01*
X439179Y532421D02*
X440385Y535333D01*
X437428Y529801D02*
X439179Y532421D01*
X436314Y528686D02*
X437428Y529801D01*
X435199Y527572D02*
X436314Y528686D01*
X432579Y525821D02*
X435199Y527572D01*
X429667Y524615D02*
X432579Y525821D01*
X426576Y524000D02*
X429667Y524615D01*
X423424Y524000D02*
X426576D01*
X420333Y524615D02*
X423424Y524000D01*
X417421Y525821D02*
X420333Y524615D01*
X414801Y527572D02*
X417421Y525821D01*
X413686Y528686D02*
X414801Y527572D01*
X412572Y529801D02*
X413686Y528686D01*
X410821Y532421D02*
X412572Y529801D01*
X409615Y535333D02*
X410821Y532421D01*
X409000Y538424D02*
X409615Y535333D01*
X409000Y538424D02*
Y541576D01*
X409615Y544667D01*
X410821Y547579D01*
X412572Y550199D01*
X413686Y551314D01*
X414801Y552428D01*
X417421Y554179D01*
X420333Y555385D01*
X423424Y556000D01*
X426576D01*
X541576D02*
X544667Y555385D01*
X547579Y554179D01*
X550199Y552428D01*
X551314Y551314D01*
X552428Y550199D01*
X554179Y547579D01*
X555385Y544667D01*
X556000Y541576D01*
Y538424D02*
Y541576D01*
X555385Y535333D02*
X556000Y538424D01*
X554179Y532421D02*
X555385Y535333D01*
X552428Y529801D02*
X554179Y532421D01*
X551314Y528686D02*
X552428Y529801D01*
X550199Y527572D02*
X551314Y528686D01*
X547579Y525821D02*
X550199Y527572D01*
X544667Y524615D02*
X547579Y525821D01*
X541576Y524000D02*
X544667Y524615D01*
X538424Y524000D02*
X541576D01*
X535333Y524615D02*
X538424Y524000D01*
X532421Y525821D02*
X535333Y524615D01*
X529801Y527572D02*
X532421Y525821D01*
X528686Y528686D02*
X529801Y527572D01*
X527572Y529801D02*
X528686Y528686D01*
X525821Y532421D02*
X527572Y529801D01*
X524615Y535333D02*
X525821Y532421D01*
X524000Y538424D02*
X524615Y535333D01*
X524000Y538424D02*
Y541576D01*
X524615Y544667D01*
X525821Y547579D01*
X527572Y550199D01*
X528686Y551314D01*
X529801Y552428D01*
X532421Y554179D01*
X535333Y555385D01*
X538424Y556000D01*
X541576D01*
X181576Y686000D02*
X184667Y685385D01*
X187579Y684179D01*
X190199Y682428D01*
X191314Y681314D01*
X192428Y680199D01*
X194179Y677579D01*
X195385Y674667D01*
X196000Y671576D01*
Y668424D02*
Y671576D01*
X195385Y665333D02*
X196000Y668424D01*
X194179Y662421D02*
X195385Y665333D01*
X192428Y659801D02*
X194179Y662421D01*
X191314Y658686D02*
X192428Y659801D01*
X190199Y657572D02*
X191314Y658686D01*
X187579Y655821D02*
X190199Y657572D01*
X184667Y654615D02*
X187579Y655821D01*
X181576Y654000D02*
X184667Y654615D01*
X178424Y654000D02*
X181576D01*
X175333Y654615D02*
X178424Y654000D01*
X172421Y655821D02*
X175333Y654615D01*
X169801Y657572D02*
X172421Y655821D01*
X168686Y658686D02*
X169801Y657572D01*
X167572Y659801D02*
X168686Y658686D01*
X165821Y662421D02*
X167572Y659801D01*
X164615Y665333D02*
X165821Y662421D01*
X164000Y668424D02*
X164615Y665333D01*
X164000Y668424D02*
Y671576D01*
X164615Y674667D01*
X165821Y677579D01*
X167572Y680199D01*
X168686Y681314D01*
X169801Y682428D01*
X172421Y684179D01*
X175333Y685385D01*
X178424Y686000D01*
X181576D01*
X426576D02*
X429667Y685385D01*
X432579Y684179D01*
X435199Y682428D01*
X436314Y681314D01*
X437428Y680199D01*
X439179Y677579D01*
X440385Y674667D01*
X441000Y671576D01*
Y668424D02*
Y671576D01*
X440385Y665333D02*
X441000Y668424D01*
X439179Y662421D02*
X440385Y665333D01*
X437428Y659801D02*
X439179Y662421D01*
X436314Y658686D02*
X437428Y659801D01*
X435199Y657572D02*
X436314Y658686D01*
X432579Y655821D02*
X435199Y657572D01*
X429667Y654615D02*
X432579Y655821D01*
X426576Y654000D02*
X429667Y654615D01*
X423424Y654000D02*
X426576D01*
X420333Y654615D02*
X423424Y654000D01*
X417421Y655821D02*
X420333Y654615D01*
X414801Y657572D02*
X417421Y655821D01*
X413686Y658686D02*
X414801Y657572D01*
X412572Y659801D02*
X413686Y658686D01*
X410821Y662421D02*
X412572Y659801D01*
X409615Y665333D02*
X410821Y662421D01*
X409000Y668424D02*
X409615Y665333D01*
X409000Y668424D02*
Y671576D01*
X409615Y674667D01*
X410821Y677579D01*
X412572Y680199D01*
X413686Y681314D01*
X414801Y682428D01*
X417421Y684179D01*
X420333Y685385D01*
X423424Y686000D01*
X426576D01*
X671576D02*
X674667Y685385D01*
X677579Y684179D01*
X680199Y682428D01*
X681314Y681314D01*
X682428Y680199D01*
X684179Y677579D01*
X685385Y674667D01*
X686000Y671576D01*
Y668424D02*
Y671576D01*
X685385Y665333D02*
X686000Y668424D01*
X684179Y662421D02*
X685385Y665333D01*
X682428Y659801D02*
X684179Y662421D01*
X681314Y658686D02*
X682428Y659801D01*
X680199Y657572D02*
X681314Y658686D01*
X677579Y655821D02*
X680199Y657572D01*
X674667Y654615D02*
X677579Y655821D01*
X671576Y654000D02*
X674667Y654615D01*
X668424Y654000D02*
X671576D01*
X665333Y654615D02*
X668424Y654000D01*
X662421Y655821D02*
X665333Y654615D01*
X659801Y657572D02*
X662421Y655821D01*
X658686Y658686D02*
X659801Y657572D01*
X657572Y659801D02*
X658686Y658686D01*
X655821Y662421D02*
X657572Y659801D01*
X654615Y665333D02*
X655821Y662421D01*
X654000Y668424D02*
X654615Y665333D01*
X654000Y668424D02*
Y671576D01*
X654615Y674667D01*
X655821Y677579D01*
X657572Y680199D01*
X658686Y681314D01*
X659801Y682428D01*
X662421Y684179D01*
X665333Y685385D01*
X668424Y686000D01*
X671576D01*
X51576Y816000D02*
X54667Y815385D01*
X57579Y814179D01*
X60199Y812428D01*
X61314Y811314D01*
X62428Y810199D01*
X64179Y807579D01*
X65385Y804667D01*
X66000Y801576D01*
Y798424D02*
Y801576D01*
X65385Y795333D02*
X66000Y798424D01*
X64179Y792421D02*
X65385Y795333D01*
X62428Y789801D02*
X64179Y792421D01*
X61314Y788686D02*
X62428Y789801D01*
X60199Y787572D02*
X61314Y788686D01*
X57579Y785821D02*
X60199Y787572D01*
X54667Y784615D02*
X57579Y785821D01*
X51576Y784000D02*
X54667Y784615D01*
X48424Y784000D02*
X51576D01*
X45333Y784615D02*
X48424Y784000D01*
X42421Y785821D02*
X45333Y784615D01*
X39801Y787572D02*
X42421Y785821D01*
X38686Y788686D02*
X39801Y787572D01*
X37572Y789801D02*
X38686Y788686D01*
X35821Y792421D02*
X37572Y789801D01*
X34615Y795333D02*
X35821Y792421D01*
X34000Y798424D02*
X34615Y795333D01*
X34000Y798424D02*
Y801576D01*
X34615Y804667D01*
X35821Y807579D01*
X37572Y810199D01*
X38686Y811314D01*
X39801Y812428D01*
X42421Y814179D01*
X45333Y815385D01*
X48424Y816000D01*
X51576D01*
X426576D02*
X429667Y815385D01*
X432579Y814179D01*
X435199Y812428D01*
X436314Y811314D01*
X437428Y810199D01*
X439179Y807579D01*
X440385Y804667D01*
X441000Y801576D01*
Y798424D02*
Y801576D01*
X440385Y795333D02*
X441000Y798424D01*
X439179Y792421D02*
X440385Y795333D01*
X437428Y789801D02*
X439179Y792421D01*
X436314Y788686D02*
X437428Y789801D01*
X435199Y787572D02*
X436314Y788686D01*
X432579Y785821D02*
X435199Y787572D01*
X429667Y784615D02*
X432579Y785821D01*
X426576Y784000D02*
X429667Y784615D01*
X423424Y784000D02*
X426576D01*
X420333Y784615D02*
X423424Y784000D01*
X417421Y785821D02*
X420333Y784615D01*
X414801Y787572D02*
X417421Y785821D01*
X413686Y788686D02*
X414801Y787572D01*
X412572Y789801D02*
X413686Y788686D01*
X410821Y792421D02*
X412572Y789801D01*
X409615Y795333D02*
X410821Y792421D01*
X409000Y798424D02*
X409615Y795333D01*
X409000Y798424D02*
Y801576D01*
X409615Y804667D01*
X410821Y807579D01*
X412572Y810199D01*
X413686Y811314D01*
X414801Y812428D01*
X417421Y814179D01*
X420333Y815385D01*
X423424Y816000D01*
X426576D01*
X801576D02*
X804667Y815385D01*
X807579Y814179D01*
X810199Y812428D01*
X811314Y811314D01*
X812428Y810199D01*
X814179Y807579D01*
X815385Y804667D01*
X816000Y801576D01*
Y798424D02*
Y801576D01*
X815385Y795333D02*
X816000Y798424D01*
X814179Y792421D02*
X815385Y795333D01*
X812428Y789801D02*
X814179Y792421D01*
X811314Y788686D02*
X812428Y789801D01*
X810199Y787572D02*
X811314Y788686D01*
X807579Y785821D02*
X810199Y787572D01*
X804667Y784615D02*
X807579Y785821D01*
X801576Y784000D02*
X804667Y784615D01*
X798424Y784000D02*
X801576D01*
X795333Y784615D02*
X798424Y784000D01*
X792421Y785821D02*
X795333Y784615D01*
X789801Y787572D02*
X792421Y785821D01*
X788686Y788686D02*
X789801Y787572D01*
X787572Y789801D02*
X788686Y788686D01*
X785821Y792421D02*
X787572Y789801D01*
X784615Y795333D02*
X785821Y792421D01*
X784000Y798424D02*
X784615Y795333D01*
X784000Y798424D02*
Y801576D01*
X784615Y804667D01*
X785821Y807579D01*
X787572Y810199D01*
X788686Y811314D01*
X789801Y812428D01*
X792421Y814179D01*
X795333Y815385D01*
X798424Y816000D01*
X801576D01*
X860000Y0D02*
Y850000D01*
X674750D02*
X860000D01*
X674750Y791000D02*
Y850000D01*
X585250Y791000D02*
X674750D01*
X585250D02*
Y850000D01*
X0D02*
X585250D01*
X0Y0D02*
Y850000D01*
Y0D02*
X860000D01*
M02*
