M48
;Layer_Color=8421504
;FILE_FORMAT=4:4
METRIC,LZ
T07F00S00C5.0800
%
G90
G05
T07
G00X0064935Y008306
M15
G01X0061065Y008306
G01X0061065Y008164
G01X0064935Y008164
G01X0064935Y008306
M16
G00X00865048Y-00024893
M15
G01X00869895Y-00023393
G01X00874347Y-0002096
G01X00878227Y-0001769
G01X00881379Y-00013715
G01X00883678Y-00009192
G01X00885033Y-00004303
G01X008854Y0
G01X008854Y0085
G01X00884893Y00855048
G01X00883393Y00859895
G01X0088096Y00864347
G01X0087769Y00868227
G01X00873715Y00871379
G01X00869192Y00873678
G01X00864303Y00875033
G01X0086Y008754
G01X0Y008754
G01X-00005048Y00874893
G01X-00009895Y00873393
G01X-00014347Y0087096
G01X-00018227Y0086769
G01X-00021379Y00863715
G01X-00023678Y00859192
G01X-00025033Y00854302
G01X-000254Y0085
G01X-000254Y0
G01X-00024893Y-00005048
G01X-00023393Y-00009895
G01X-0002096Y-00014347
G01X-0001769Y-00018227
G01X-00013715Y-00021379
G01X-00009192Y-00023678
G01X-00004303Y-00025033
G01X0Y-000254
G01X0086Y-000254
G01X00865048Y-00024893
M16
M17
M30
