G04*
G04 #@! TF.GenerationSoftware,Altium Limited,Altium Designer,24.1.2 (44)*
G04*
G04 Layer_Color=8757620*
%FSLAX44Y44*%
%MOMM*%
G71*
G04*
G04 #@! TF.SameCoordinates,9019D9DD-9CA8-41BA-9965-C50D2D570C24*
G04*
G04*
G04 #@! TF.FilePolarity,Negative*
G04*
G01*
G75*
%ADD15R,0.8032X1.3032*%
%ADD16R,0.5032X1.3032*%
%ADD17C,0.8500*%
%ADD18R,2.4032X2.4032*%
%ADD19C,1.9032*%
%ADD20C,0.8032*%
G36*
X686514Y846992D02*
X686827Y846967D01*
X687139Y846926D01*
X687448Y846869D01*
X687753Y846796D01*
X688054Y846706D01*
X688350Y846601D01*
X688640Y846481D01*
X688924Y846346D01*
X689200Y846196D01*
X689468Y846032D01*
X689727Y845854D01*
X689976Y845663D01*
X690215Y845459D01*
X690443Y845243D01*
X690659Y845015D01*
X690863Y844776D01*
X691054Y844527D01*
X691232Y844268D01*
X691396Y844000D01*
X691546Y843724D01*
X691681Y843440D01*
X691802Y843150D01*
X691906Y842854D01*
X691996Y842553D01*
X692069Y842247D01*
X692126Y841939D01*
X692167Y841627D01*
X692192Y841314D01*
X692200Y841000D01*
Y829000D01*
X692192Y828686D01*
X692167Y828373D01*
X692126Y828061D01*
X692069Y827753D01*
X691996Y827447D01*
X691906Y827146D01*
X691802Y826850D01*
X691681Y826560D01*
X691546Y826276D01*
X691396Y826000D01*
X691232Y825732D01*
X691054Y825473D01*
X690863Y825224D01*
X690659Y824985D01*
X690443Y824757D01*
X690215Y824541D01*
X689976Y824337D01*
X689727Y824146D01*
X689468Y823968D01*
X689200Y823804D01*
X688924Y823654D01*
X688640Y823519D01*
X688350Y823399D01*
X688054Y823294D01*
X687753Y823204D01*
X687448Y823131D01*
X687139Y823074D01*
X686827Y823033D01*
X686514Y823008D01*
X686200Y823000D01*
X685886Y823008D01*
X685573Y823033D01*
X685261Y823074D01*
X684952Y823131D01*
X684647Y823204D01*
X684346Y823294D01*
X684050Y823399D01*
X683760Y823519D01*
X683476Y823654D01*
X683200Y823804D01*
X682932Y823968D01*
X682673Y824146D01*
X682424Y824337D01*
X682185Y824541D01*
X681957Y824757D01*
X681741Y824985D01*
X681537Y825224D01*
X681346Y825473D01*
X681168Y825732D01*
X681004Y826000D01*
X680854Y826276D01*
X680719Y826560D01*
X680599Y826850D01*
X680494Y827146D01*
X680405Y827447D01*
X680331Y827753D01*
X680274Y828061D01*
X680233Y828373D01*
X680208Y828686D01*
X680200Y829000D01*
Y841000D01*
X680208Y841314D01*
X680233Y841627D01*
X680274Y841939D01*
X680331Y842247D01*
X680405Y842553D01*
X680494Y842854D01*
X680599Y843150D01*
X680719Y843440D01*
X680854Y843724D01*
X681004Y844000D01*
X681168Y844268D01*
X681346Y844527D01*
X681537Y844776D01*
X681741Y845015D01*
X681957Y845243D01*
X682185Y845459D01*
X682424Y845663D01*
X682673Y845854D01*
X682932Y846032D01*
X683200Y846196D01*
X683476Y846346D01*
X683760Y846481D01*
X684050Y846601D01*
X684346Y846706D01*
X684647Y846796D01*
X684952Y846869D01*
X685261Y846926D01*
X685573Y846967D01*
X685886Y846992D01*
X686200Y847000D01*
X686514Y846992D01*
D02*
G37*
G36*
X574114D02*
X574427Y846967D01*
X574739Y846926D01*
X575047Y846869D01*
X575353Y846796D01*
X575654Y846706D01*
X575950Y846601D01*
X576240Y846481D01*
X576524Y846346D01*
X576800Y846196D01*
X577068Y846032D01*
X577327Y845854D01*
X577576Y845663D01*
X577815Y845459D01*
X578043Y845243D01*
X578259Y845015D01*
X578463Y844776D01*
X578654Y844527D01*
X578832Y844268D01*
X578996Y844000D01*
X579146Y843724D01*
X579281Y843440D01*
X579402Y843150D01*
X579506Y842854D01*
X579596Y842553D01*
X579669Y842247D01*
X579726Y841939D01*
X579767Y841627D01*
X579792Y841314D01*
X579800Y841000D01*
Y835000D01*
Y829000D01*
X579792Y828686D01*
X579767Y828373D01*
X579726Y828061D01*
X579669Y827753D01*
X579596Y827447D01*
X579506Y827146D01*
X579402Y826850D01*
X579281Y826560D01*
X579146Y826276D01*
X578996Y826000D01*
X578832Y825732D01*
X578654Y825473D01*
X578463Y825224D01*
X578259Y824985D01*
X578043Y824757D01*
X577815Y824541D01*
X577576Y824337D01*
X577327Y824146D01*
X577068Y823968D01*
X576800Y823804D01*
X576524Y823654D01*
X576240Y823519D01*
X575950Y823399D01*
X575654Y823294D01*
X575353Y823204D01*
X575047Y823131D01*
X574739Y823074D01*
X574427Y823033D01*
X574114Y823008D01*
X573800Y823000D01*
X573486Y823008D01*
X573173Y823033D01*
X572861Y823074D01*
X572553Y823131D01*
X572247Y823204D01*
X571946Y823294D01*
X571650Y823399D01*
X571360Y823519D01*
X571076Y823654D01*
X570800Y823804D01*
X570532Y823968D01*
X570273Y824146D01*
X570024Y824337D01*
X569785Y824541D01*
X569557Y824757D01*
X569341Y824985D01*
X569137Y825224D01*
X568946Y825473D01*
X568768Y825732D01*
X568604Y826000D01*
X568454Y826276D01*
X568319Y826560D01*
X568199Y826850D01*
X568094Y827146D01*
X568004Y827447D01*
X567931Y827753D01*
X567874Y828061D01*
X567833Y828373D01*
X567808Y828686D01*
X567800Y829000D01*
Y835000D01*
Y841000D01*
X567808Y841314D01*
X567833Y841627D01*
X567874Y841939D01*
X567931Y842247D01*
X568004Y842553D01*
X568094Y842854D01*
X568199Y843150D01*
X568319Y843440D01*
X568454Y843724D01*
X568604Y844000D01*
X568768Y844268D01*
X568946Y844527D01*
X569137Y844776D01*
X569341Y845015D01*
X569557Y845243D01*
X569785Y845459D01*
X570024Y845663D01*
X570273Y845854D01*
X570532Y846032D01*
X570800Y846196D01*
X571076Y846346D01*
X571360Y846481D01*
X571650Y846601D01*
X571946Y846706D01*
X572247Y846796D01*
X572553Y846869D01*
X572861Y846926D01*
X573173Y846967D01*
X573486Y846992D01*
X573800Y847000D01*
X574114Y846992D01*
D02*
G37*
G36*
X686514Y804992D02*
X686827Y804967D01*
X687139Y804926D01*
X687448Y804869D01*
X687753Y804796D01*
X688054Y804706D01*
X688350Y804602D01*
X688640Y804481D01*
X688924Y804346D01*
X689200Y804196D01*
X689468Y804032D01*
X689727Y803854D01*
X689976Y803663D01*
X690215Y803459D01*
X690443Y803243D01*
X690659Y803015D01*
X690863Y802776D01*
X691054Y802527D01*
X691232Y802268D01*
X691396Y802000D01*
X691546Y801724D01*
X691681Y801440D01*
X691802Y801150D01*
X691906Y800854D01*
X691996Y800553D01*
X692069Y800247D01*
X692126Y799939D01*
X692167Y799627D01*
X692192Y799314D01*
X692200Y799000D01*
Y791000D01*
X692192Y790686D01*
X692167Y790373D01*
X692126Y790061D01*
X692069Y789753D01*
X691996Y789447D01*
X691906Y789146D01*
X691802Y788850D01*
X691681Y788560D01*
X691546Y788276D01*
X691396Y788000D01*
X691232Y787732D01*
X691054Y787473D01*
X690863Y787224D01*
X690659Y786985D01*
X690443Y786757D01*
X690215Y786541D01*
X689976Y786337D01*
X689727Y786146D01*
X689468Y785968D01*
X689200Y785804D01*
X688924Y785654D01*
X688640Y785519D01*
X688350Y785398D01*
X688054Y785294D01*
X687753Y785204D01*
X687448Y785131D01*
X687139Y785074D01*
X686827Y785033D01*
X686514Y785008D01*
X686200Y785000D01*
X685886Y785008D01*
X685573Y785033D01*
X685261Y785074D01*
X684952Y785131D01*
X684647Y785204D01*
X684346Y785294D01*
X684050Y785398D01*
X683760Y785519D01*
X683476Y785654D01*
X683200Y785804D01*
X682932Y785968D01*
X682673Y786146D01*
X682424Y786337D01*
X682185Y786541D01*
X681957Y786757D01*
X681741Y786985D01*
X681537Y787224D01*
X681346Y787473D01*
X681168Y787732D01*
X681004Y788000D01*
X680854Y788276D01*
X680719Y788560D01*
X680599Y788850D01*
X680494Y789146D01*
X680405Y789447D01*
X680331Y789753D01*
X680274Y790061D01*
X680233Y790373D01*
X680208Y790686D01*
X680200Y791000D01*
Y799000D01*
X680208Y799314D01*
X680233Y799627D01*
X680274Y799939D01*
X680331Y800247D01*
X680405Y800553D01*
X680494Y800854D01*
X680599Y801150D01*
X680719Y801440D01*
X680854Y801724D01*
X681004Y802000D01*
X681168Y802268D01*
X681346Y802527D01*
X681537Y802776D01*
X681741Y803015D01*
X681957Y803243D01*
X682185Y803459D01*
X682424Y803663D01*
X682673Y803854D01*
X682932Y804032D01*
X683200Y804196D01*
X683476Y804346D01*
X683760Y804481D01*
X684050Y804602D01*
X684346Y804706D01*
X684647Y804796D01*
X684952Y804869D01*
X685261Y804926D01*
X685573Y804967D01*
X685886Y804992D01*
X686200Y805000D01*
X686514Y804992D01*
D02*
G37*
G36*
X574114D02*
X574427Y804967D01*
X574739Y804926D01*
X575047Y804869D01*
X575353Y804796D01*
X575654Y804706D01*
X575950Y804602D01*
X576240Y804481D01*
X576524Y804346D01*
X576800Y804196D01*
X577068Y804032D01*
X577327Y803854D01*
X577576Y803663D01*
X577815Y803459D01*
X578043Y803243D01*
X578259Y803015D01*
X578463Y802776D01*
X578654Y802527D01*
X578832Y802268D01*
X578996Y802000D01*
X579146Y801724D01*
X579281Y801440D01*
X579402Y801150D01*
X579506Y800854D01*
X579596Y800553D01*
X579669Y800247D01*
X579726Y799939D01*
X579767Y799627D01*
X579792Y799314D01*
X579800Y799000D01*
Y791000D01*
X579792Y790686D01*
X579767Y790373D01*
X579726Y790061D01*
X579669Y789753D01*
X579596Y789447D01*
X579506Y789146D01*
X579402Y788850D01*
X579281Y788560D01*
X579146Y788276D01*
X578996Y788000D01*
X578832Y787732D01*
X578654Y787473D01*
X578463Y787224D01*
X578259Y786985D01*
X578043Y786757D01*
X577815Y786541D01*
X577576Y786337D01*
X577327Y786146D01*
X577068Y785968D01*
X576800Y785804D01*
X576524Y785654D01*
X576240Y785519D01*
X575950Y785398D01*
X575654Y785294D01*
X575353Y785204D01*
X575047Y785131D01*
X574739Y785074D01*
X574427Y785033D01*
X574114Y785008D01*
X573800Y785000D01*
X573486Y785008D01*
X573173Y785033D01*
X572861Y785074D01*
X572553Y785131D01*
X572247Y785204D01*
X571946Y785294D01*
X571650Y785398D01*
X571360Y785519D01*
X571076Y785654D01*
X570800Y785804D01*
X570532Y785968D01*
X570273Y786146D01*
X570024Y786337D01*
X569785Y786541D01*
X569557Y786757D01*
X569341Y786985D01*
X569137Y787224D01*
X568946Y787473D01*
X568768Y787732D01*
X568604Y788000D01*
X568454Y788276D01*
X568319Y788560D01*
X568199Y788850D01*
X568094Y789146D01*
X568004Y789447D01*
X567931Y789753D01*
X567874Y790061D01*
X567833Y790373D01*
X567808Y790686D01*
X567800Y791000D01*
Y799000D01*
X567808Y799314D01*
X567833Y799627D01*
X567874Y799939D01*
X567931Y800247D01*
X568004Y800553D01*
X568094Y800854D01*
X568199Y801150D01*
X568319Y801440D01*
X568454Y801724D01*
X568604Y802000D01*
X568768Y802268D01*
X568946Y802527D01*
X569137Y802776D01*
X569341Y803015D01*
X569557Y803243D01*
X569785Y803459D01*
X570024Y803663D01*
X570273Y803854D01*
X570532Y804032D01*
X570800Y804196D01*
X571076Y804346D01*
X571360Y804481D01*
X571650Y804602D01*
X571946Y804706D01*
X572247Y804796D01*
X572553Y804869D01*
X572861Y804926D01*
X573173Y804967D01*
X573486Y804992D01*
X573800Y805000D01*
X574114Y804992D01*
D02*
G37*
G36*
X801609Y817000D02*
X801641D01*
X801674Y816996D01*
X801707Y816993D01*
X801739Y816987D01*
X801771Y816983D01*
X804863Y816368D01*
X804894Y816359D01*
X804926Y816353D01*
X804957Y816343D01*
X804989Y816334D01*
X805020Y816321D01*
X805051Y816311D01*
X807962Y815105D01*
X807992Y815090D01*
X808022Y815078D01*
X808050Y815061D01*
X808080Y815047D01*
X808107Y815029D01*
X808136Y815012D01*
X810756Y813261D01*
X810782Y813241D01*
X810809Y813223D01*
X810834Y813201D01*
X810860Y813181D01*
X810883Y813158D01*
X810908Y813137D01*
X812022Y812022D01*
X812022Y812022D01*
X813137Y810908D01*
X813158Y810883D01*
X813181Y810860D01*
X813202Y810834D01*
X813223Y810809D01*
X813241Y810782D01*
X813261Y810756D01*
X815012Y808136D01*
X815029Y808107D01*
X815047Y808080D01*
X815061Y808050D01*
X815078Y808022D01*
X815090Y807992D01*
X815105Y807962D01*
X816311Y805051D01*
X816321Y805019D01*
X816334Y804989D01*
X816343Y804957D01*
X816353Y804926D01*
X816359Y804894D01*
X816368Y804863D01*
X816983Y801771D01*
X816987Y801739D01*
X816993Y801707D01*
X816996Y801674D01*
X817000Y801641D01*
Y801609D01*
X817002Y801576D01*
Y798424D01*
X817000Y798391D01*
Y798359D01*
X816996Y798326D01*
X816993Y798293D01*
X816987Y798261D01*
X816983Y798229D01*
X816368Y795137D01*
X816359Y795106D01*
X816353Y795074D01*
X816343Y795043D01*
X816334Y795011D01*
X816321Y794980D01*
X816311Y794949D01*
X815105Y792038D01*
X815090Y792008D01*
X815078Y791978D01*
X815061Y791949D01*
X815047Y791920D01*
X815029Y791893D01*
X815012Y791864D01*
X813261Y789244D01*
X813241Y789218D01*
X813223Y789191D01*
X813201Y789166D01*
X813181Y789140D01*
X813158Y789117D01*
X813137Y789092D01*
X812022Y787978D01*
X812022Y787978D01*
X810908Y786863D01*
X810883Y786842D01*
X810860Y786818D01*
X810834Y786798D01*
X810809Y786777D01*
X810782Y786759D01*
X810756Y786739D01*
X808136Y784988D01*
X808107Y784971D01*
X808080Y784953D01*
X808050Y784939D01*
X808022Y784922D01*
X807992Y784910D01*
X807962Y784895D01*
X805051Y783689D01*
X805019Y783678D01*
X804989Y783666D01*
X804957Y783657D01*
X804926Y783647D01*
X804894Y783641D01*
X804863Y783632D01*
X801771Y783017D01*
X801739Y783013D01*
X801707Y783007D01*
X801674Y783004D01*
X801641Y783000D01*
X801609D01*
X801576Y782998D01*
X798424D01*
X798391Y783000D01*
X798359D01*
X798326Y783004D01*
X798293Y783007D01*
X798261Y783013D01*
X798229Y783017D01*
X795137Y783632D01*
X795106Y783641D01*
X795074Y783647D01*
X795043Y783657D01*
X795011Y783666D01*
X794980Y783679D01*
X794949Y783689D01*
X792038Y784895D01*
X792008Y784910D01*
X791978Y784922D01*
X791949Y784939D01*
X791920Y784953D01*
X791893Y784971D01*
X791864Y784988D01*
X789244Y786739D01*
X789218Y786759D01*
X789191Y786777D01*
X789166Y786799D01*
X789140Y786819D01*
X789117Y786842D01*
X789092Y786863D01*
X787978Y787978D01*
X787978Y787978D01*
X786863Y789092D01*
X786842Y789117D01*
X786818Y789140D01*
X786798Y789166D01*
X786777Y789191D01*
X786759Y789218D01*
X786739Y789244D01*
X784988Y791864D01*
X784971Y791893D01*
X784953Y791920D01*
X784939Y791950D01*
X784922Y791978D01*
X784910Y792008D01*
X784895Y792038D01*
X783689Y794949D01*
X783678Y794981D01*
X783666Y795011D01*
X783657Y795043D01*
X783647Y795074D01*
X783641Y795106D01*
X783632Y795137D01*
X783017Y798229D01*
X783013Y798261D01*
X783007Y798293D01*
X783004Y798326D01*
X783000Y798359D01*
Y798391D01*
X782998Y798424D01*
Y801576D01*
X783000Y801609D01*
Y801641D01*
X783004Y801674D01*
X783007Y801707D01*
X783013Y801739D01*
X783017Y801771D01*
X783632Y804863D01*
X783641Y804894D01*
X783647Y804926D01*
X783657Y804957D01*
X783666Y804989D01*
X783679Y805020D01*
X783689Y805051D01*
X784895Y807962D01*
X784910Y807992D01*
X784922Y808022D01*
X784939Y808050D01*
X784953Y808080D01*
X784971Y808107D01*
X784988Y808136D01*
X786739Y810756D01*
X786759Y810782D01*
X786777Y810809D01*
X786799Y810834D01*
X786819Y810860D01*
X786842Y810883D01*
X786863Y810908D01*
X787978Y812022D01*
X787978Y812022D01*
X789092Y813137D01*
X789117Y813158D01*
X789140Y813181D01*
X789166Y813202D01*
X789191Y813223D01*
X789218Y813241D01*
X789244Y813261D01*
X791864Y815012D01*
X791893Y815029D01*
X791920Y815047D01*
X791950Y815061D01*
X791978Y815078D01*
X792008Y815090D01*
X792038Y815105D01*
X794949Y816311D01*
X794981Y816321D01*
X795011Y816334D01*
X795043Y816343D01*
X795074Y816353D01*
X795106Y816359D01*
X795137Y816368D01*
X798229Y816983D01*
X798261Y816987D01*
X798293Y816993D01*
X798326Y816996D01*
X798359Y817000D01*
X798391D01*
X798424Y817002D01*
X801576D01*
X801609Y817000D01*
D02*
G37*
G36*
X426609D02*
X426641D01*
X426674Y816996D01*
X426707Y816993D01*
X426739Y816987D01*
X426771Y816983D01*
X429863Y816368D01*
X429894Y816359D01*
X429926Y816353D01*
X429957Y816343D01*
X429989Y816334D01*
X430019Y816321D01*
X430051Y816311D01*
X432962Y815105D01*
X432992Y815090D01*
X433022Y815078D01*
X433050Y815061D01*
X433080Y815047D01*
X433107Y815029D01*
X433136Y815012D01*
X435756Y813261D01*
X435782Y813241D01*
X435809Y813223D01*
X435834Y813201D01*
X435860Y813181D01*
X435883Y813158D01*
X435908Y813137D01*
X437022Y812022D01*
X437023Y812022D01*
X438137Y810908D01*
X438158Y810883D01*
X438181Y810860D01*
X438201Y810834D01*
X438223Y810809D01*
X438241Y810782D01*
X438261Y810756D01*
X440012Y808136D01*
X440029Y808107D01*
X440047Y808080D01*
X440061Y808050D01*
X440078Y808022D01*
X440090Y807992D01*
X440105Y807962D01*
X441311Y805051D01*
X441321Y805019D01*
X441334Y804989D01*
X441343Y804957D01*
X441353Y804926D01*
X441359Y804894D01*
X441368Y804863D01*
X441983Y801771D01*
X441987Y801739D01*
X441993Y801707D01*
X441996Y801674D01*
X442000Y801641D01*
Y801609D01*
X442002Y801576D01*
Y798424D01*
X442000Y798391D01*
Y798359D01*
X441996Y798326D01*
X441993Y798293D01*
X441987Y798261D01*
X441983Y798229D01*
X441368Y795137D01*
X441359Y795106D01*
X441353Y795074D01*
X441343Y795043D01*
X441334Y795011D01*
X441321Y794980D01*
X441311Y794949D01*
X440105Y792038D01*
X440090Y792008D01*
X440078Y791978D01*
X440061Y791949D01*
X440047Y791920D01*
X440029Y791893D01*
X440012Y791864D01*
X438261Y789244D01*
X438241Y789218D01*
X438223Y789191D01*
X438201Y789166D01*
X438181Y789140D01*
X438158Y789117D01*
X438137Y789092D01*
X437022Y787978D01*
X437022Y787978D01*
X435908Y786863D01*
X435883Y786842D01*
X435860Y786818D01*
X435834Y786798D01*
X435809Y786777D01*
X435782Y786759D01*
X435756Y786739D01*
X433136Y784988D01*
X433107Y784971D01*
X433080Y784953D01*
X433050Y784939D01*
X433022Y784922D01*
X432992Y784910D01*
X432962Y784895D01*
X430051Y783689D01*
X430019Y783678D01*
X429989Y783666D01*
X429957Y783657D01*
X429926Y783647D01*
X429894Y783641D01*
X429863Y783632D01*
X426771Y783017D01*
X426739Y783013D01*
X426707Y783007D01*
X426674Y783004D01*
X426641Y783000D01*
X426609D01*
X426576Y782998D01*
X423424D01*
X423391Y783000D01*
X423359D01*
X423326Y783004D01*
X423293Y783007D01*
X423261Y783013D01*
X423229Y783017D01*
X420137Y783632D01*
X420106Y783641D01*
X420074Y783647D01*
X420043Y783657D01*
X420011Y783666D01*
X419981Y783679D01*
X419949Y783689D01*
X417038Y784895D01*
X417008Y784910D01*
X416978Y784922D01*
X416950Y784939D01*
X416920Y784953D01*
X416893Y784971D01*
X416864Y784988D01*
X414244Y786739D01*
X414218Y786759D01*
X414190Y786777D01*
X414166Y786799D01*
X414140Y786819D01*
X414117Y786842D01*
X414092Y786863D01*
X412978Y787978D01*
X412977Y787978D01*
X411863Y789092D01*
X411842Y789117D01*
X411819Y789140D01*
X411799Y789166D01*
X411777Y789191D01*
X411759Y789218D01*
X411739Y789244D01*
X409988Y791864D01*
X409971Y791893D01*
X409953Y791920D01*
X409939Y791950D01*
X409922Y791978D01*
X409910Y792008D01*
X409895Y792038D01*
X408689Y794949D01*
X408678Y794981D01*
X408666Y795011D01*
X408657Y795043D01*
X408647Y795074D01*
X408641Y795106D01*
X408632Y795137D01*
X408017Y798229D01*
X408013Y798261D01*
X408006Y798293D01*
X408004Y798326D01*
X408000Y798359D01*
Y798391D01*
X407998Y798424D01*
Y801576D01*
X408000Y801609D01*
Y801641D01*
X408004Y801674D01*
X408006Y801707D01*
X408013Y801739D01*
X408017Y801771D01*
X408632Y804863D01*
X408641Y804894D01*
X408647Y804926D01*
X408657Y804957D01*
X408666Y804989D01*
X408679Y805020D01*
X408689Y805051D01*
X409895Y807962D01*
X409910Y807992D01*
X409922Y808022D01*
X409939Y808050D01*
X409953Y808080D01*
X409971Y808107D01*
X409988Y808136D01*
X411739Y810756D01*
X411759Y810782D01*
X411777Y810809D01*
X411799Y810834D01*
X411819Y810860D01*
X411842Y810883D01*
X411863Y810908D01*
X412978Y812022D01*
X412978Y812022D01*
X414092Y813137D01*
X414117Y813158D01*
X414140Y813181D01*
X414166Y813202D01*
X414190Y813223D01*
X414218Y813241D01*
X414244Y813261D01*
X416864Y815012D01*
X416893Y815029D01*
X416920Y815047D01*
X416950Y815061D01*
X416978Y815078D01*
X417008Y815090D01*
X417038Y815105D01*
X419949Y816311D01*
X419981Y816321D01*
X420011Y816334D01*
X420042Y816343D01*
X420074Y816353D01*
X420106Y816359D01*
X420137Y816368D01*
X423229Y816983D01*
X423261Y816987D01*
X423293Y816993D01*
X423326Y816996D01*
X423359Y817000D01*
X423391D01*
X423424Y817002D01*
X426576D01*
X426609Y817000D01*
D02*
G37*
G36*
X51609D02*
X51641D01*
X51674Y816996D01*
X51707Y816993D01*
X51739Y816987D01*
X51771Y816983D01*
X54862Y816368D01*
X54894Y816359D01*
X54926Y816353D01*
X54957Y816343D01*
X54989Y816334D01*
X55019Y816321D01*
X55051Y816311D01*
X57962Y815105D01*
X57992Y815090D01*
X58022Y815078D01*
X58050Y815061D01*
X58080Y815047D01*
X58107Y815029D01*
X58136Y815012D01*
X60756Y813261D01*
X60782Y813241D01*
X60809Y813223D01*
X60834Y813201D01*
X60860Y813181D01*
X60883Y813158D01*
X60908Y813137D01*
X62022Y812022D01*
X62023Y812022D01*
X63137Y810908D01*
X63158Y810883D01*
X63181Y810860D01*
X63201Y810834D01*
X63223Y810809D01*
X63241Y810782D01*
X63261Y810756D01*
X65012Y808136D01*
X65029Y808107D01*
X65047Y808080D01*
X65061Y808050D01*
X65078Y808022D01*
X65090Y807992D01*
X65105Y807962D01*
X66311Y805051D01*
X66322Y805019D01*
X66334Y804989D01*
X66343Y804957D01*
X66353Y804926D01*
X66360Y804894D01*
X66368Y804863D01*
X66983Y801771D01*
X66987Y801739D01*
X66993Y801707D01*
X66996Y801674D01*
X67000Y801641D01*
Y801609D01*
X67002Y801576D01*
Y798424D01*
X67000Y798391D01*
Y798359D01*
X66996Y798326D01*
X66993Y798293D01*
X66987Y798261D01*
X66983Y798229D01*
X66368Y795137D01*
X66360Y795106D01*
X66353Y795074D01*
X66343Y795043D01*
X66334Y795011D01*
X66322Y794980D01*
X66311Y794949D01*
X65105Y792038D01*
X65090Y792008D01*
X65078Y791978D01*
X65061Y791949D01*
X65047Y791920D01*
X65029Y791893D01*
X65012Y791864D01*
X63261Y789244D01*
X63241Y789218D01*
X63223Y789191D01*
X63201Y789166D01*
X63181Y789140D01*
X63158Y789117D01*
X63137Y789092D01*
X62022Y787978D01*
X62022Y787978D01*
X60908Y786863D01*
X60883Y786842D01*
X60860Y786818D01*
X60834Y786798D01*
X60809Y786777D01*
X60782Y786759D01*
X60756Y786739D01*
X58136Y784988D01*
X58107Y784971D01*
X58080Y784953D01*
X58050Y784939D01*
X58022Y784922D01*
X57992Y784910D01*
X57962Y784895D01*
X55051Y783689D01*
X55019Y783678D01*
X54989Y783666D01*
X54957Y783657D01*
X54926Y783647D01*
X54894Y783641D01*
X54862Y783632D01*
X51771Y783017D01*
X51739Y783013D01*
X51707Y783007D01*
X51674Y783004D01*
X51641Y783000D01*
X51609D01*
X51576Y782998D01*
X48424D01*
X48391Y783000D01*
X48359D01*
X48326Y783004D01*
X48293Y783007D01*
X48261Y783013D01*
X48229Y783017D01*
X45138Y783632D01*
X45106Y783641D01*
X45074Y783647D01*
X45043Y783657D01*
X45011Y783666D01*
X44981Y783679D01*
X44949Y783689D01*
X42038Y784895D01*
X42008Y784910D01*
X41978Y784922D01*
X41950Y784939D01*
X41920Y784953D01*
X41893Y784971D01*
X41864Y784988D01*
X39244Y786739D01*
X39218Y786759D01*
X39190Y786777D01*
X39166Y786799D01*
X39140Y786819D01*
X39117Y786842D01*
X39092Y786863D01*
X37978Y787978D01*
X37977Y787978D01*
X36863Y789092D01*
X36842Y789117D01*
X36818Y789140D01*
X36799Y789166D01*
X36777Y789191D01*
X36759Y789218D01*
X36739Y789244D01*
X34988Y791864D01*
X34971Y791893D01*
X34953Y791920D01*
X34938Y791950D01*
X34922Y791978D01*
X34910Y792008D01*
X34895Y792038D01*
X33689Y794949D01*
X33678Y794981D01*
X33666Y795011D01*
X33657Y795043D01*
X33647Y795074D01*
X33640Y795106D01*
X33632Y795137D01*
X33017Y798229D01*
X33013Y798261D01*
X33006Y798293D01*
X33004Y798326D01*
X33000Y798359D01*
Y798391D01*
X32998Y798424D01*
Y801576D01*
X33000Y801609D01*
Y801641D01*
X33004Y801674D01*
X33006Y801707D01*
X33013Y801739D01*
X33017Y801771D01*
X33632Y804863D01*
X33640Y804894D01*
X33647Y804926D01*
X33657Y804957D01*
X33666Y804989D01*
X33679Y805020D01*
X33689Y805051D01*
X34895Y807962D01*
X34910Y807992D01*
X34922Y808022D01*
X34939Y808050D01*
X34953Y808080D01*
X34971Y808107D01*
X34988Y808136D01*
X36739Y810756D01*
X36759Y810782D01*
X36777Y810809D01*
X36799Y810834D01*
X36819Y810860D01*
X36842Y810883D01*
X36863Y810908D01*
X37978Y812022D01*
X37978Y812022D01*
X39092Y813137D01*
X39117Y813158D01*
X39140Y813181D01*
X39166Y813202D01*
X39190Y813223D01*
X39218Y813241D01*
X39244Y813261D01*
X41864Y815012D01*
X41893Y815029D01*
X41920Y815047D01*
X41950Y815061D01*
X41978Y815078D01*
X42008Y815090D01*
X42038Y815105D01*
X44949Y816311D01*
X44981Y816321D01*
X45011Y816334D01*
X45043Y816343D01*
X45074Y816353D01*
X45106Y816359D01*
X45138Y816368D01*
X48229Y816983D01*
X48261Y816987D01*
X48293Y816993D01*
X48326Y816996D01*
X48359Y817000D01*
X48391D01*
X48424Y817002D01*
X51576D01*
X51609Y817000D01*
D02*
G37*
G36*
X671609Y687000D02*
X671641D01*
X671674Y686996D01*
X671707Y686993D01*
X671739Y686987D01*
X671771Y686983D01*
X674863Y686368D01*
X674894Y686359D01*
X674926Y686353D01*
X674957Y686343D01*
X674989Y686334D01*
X675020Y686321D01*
X675051Y686311D01*
X677962Y685105D01*
X677992Y685090D01*
X678022Y685078D01*
X678050Y685061D01*
X678080Y685047D01*
X678107Y685029D01*
X678136Y685012D01*
X680756Y683261D01*
X680782Y683241D01*
X680809Y683223D01*
X680834Y683201D01*
X680860Y683181D01*
X680883Y683158D01*
X680908Y683137D01*
X682022Y682022D01*
X682022Y682022D01*
X683137Y680908D01*
X683158Y680883D01*
X683181Y680860D01*
X683202Y680834D01*
X683223Y680809D01*
X683241Y680782D01*
X683261Y680756D01*
X685012Y678136D01*
X685029Y678107D01*
X685047Y678080D01*
X685061Y678050D01*
X685078Y678022D01*
X685090Y677992D01*
X685105Y677962D01*
X686311Y675051D01*
X686321Y675019D01*
X686334Y674989D01*
X686343Y674957D01*
X686353Y674926D01*
X686359Y674894D01*
X686368Y674863D01*
X686983Y671771D01*
X686987Y671739D01*
X686993Y671707D01*
X686996Y671674D01*
X687000Y671641D01*
Y671609D01*
X687002Y671576D01*
Y668424D01*
X687000Y668391D01*
Y668359D01*
X686996Y668326D01*
X686993Y668293D01*
X686987Y668261D01*
X686983Y668229D01*
X686368Y665137D01*
X686359Y665106D01*
X686353Y665074D01*
X686343Y665043D01*
X686334Y665011D01*
X686321Y664980D01*
X686311Y664949D01*
X685105Y662038D01*
X685090Y662008D01*
X685078Y661978D01*
X685061Y661950D01*
X685047Y661920D01*
X685029Y661893D01*
X685012Y661864D01*
X683261Y659244D01*
X683241Y659218D01*
X683223Y659191D01*
X683201Y659166D01*
X683181Y659140D01*
X683158Y659117D01*
X683137Y659092D01*
X682022Y657978D01*
X682022Y657978D01*
X680908Y656863D01*
X680883Y656842D01*
X680860Y656818D01*
X680834Y656798D01*
X680809Y656777D01*
X680782Y656759D01*
X680756Y656739D01*
X678136Y654988D01*
X678107Y654971D01*
X678080Y654953D01*
X678050Y654939D01*
X678022Y654922D01*
X677992Y654910D01*
X677962Y654895D01*
X675051Y653689D01*
X675019Y653678D01*
X674989Y653666D01*
X674957Y653657D01*
X674926Y653647D01*
X674894Y653641D01*
X674863Y653632D01*
X671771Y653017D01*
X671739Y653013D01*
X671707Y653007D01*
X671674Y653004D01*
X671641Y653000D01*
X671609D01*
X671576Y652998D01*
X668424D01*
X668391Y653000D01*
X668359D01*
X668326Y653004D01*
X668293Y653007D01*
X668261Y653013D01*
X668229Y653017D01*
X665137Y653632D01*
X665106Y653641D01*
X665074Y653647D01*
X665043Y653657D01*
X665011Y653666D01*
X664980Y653679D01*
X664949Y653689D01*
X662038Y654895D01*
X662008Y654910D01*
X661978Y654922D01*
X661950Y654939D01*
X661920Y654953D01*
X661893Y654971D01*
X661864Y654988D01*
X659244Y656739D01*
X659218Y656759D01*
X659191Y656777D01*
X659166Y656799D01*
X659140Y656819D01*
X659117Y656842D01*
X659092Y656863D01*
X657978Y657978D01*
X657978Y657978D01*
X656863Y659092D01*
X656842Y659117D01*
X656818Y659140D01*
X656798Y659166D01*
X656777Y659191D01*
X656759Y659218D01*
X656739Y659244D01*
X654988Y661864D01*
X654971Y661893D01*
X654953Y661920D01*
X654939Y661950D01*
X654922Y661978D01*
X654910Y662008D01*
X654895Y662038D01*
X653689Y664949D01*
X653678Y664981D01*
X653666Y665011D01*
X653657Y665043D01*
X653647Y665074D01*
X653641Y665106D01*
X653632Y665137D01*
X653017Y668229D01*
X653013Y668261D01*
X653007Y668293D01*
X653004Y668326D01*
X653000Y668359D01*
Y668391D01*
X652998Y668424D01*
Y671576D01*
X653000Y671609D01*
Y671641D01*
X653004Y671674D01*
X653007Y671707D01*
X653013Y671739D01*
X653017Y671771D01*
X653632Y674863D01*
X653641Y674894D01*
X653647Y674926D01*
X653657Y674957D01*
X653666Y674989D01*
X653679Y675020D01*
X653689Y675051D01*
X654895Y677962D01*
X654910Y677992D01*
X654922Y678022D01*
X654939Y678050D01*
X654953Y678080D01*
X654971Y678107D01*
X654988Y678136D01*
X656739Y680756D01*
X656759Y680782D01*
X656777Y680809D01*
X656799Y680834D01*
X656819Y680860D01*
X656842Y680883D01*
X656863Y680908D01*
X657978Y682022D01*
X657978Y682022D01*
X659092Y683137D01*
X659117Y683158D01*
X659140Y683181D01*
X659166Y683202D01*
X659191Y683223D01*
X659218Y683241D01*
X659244Y683261D01*
X661864Y685012D01*
X661893Y685029D01*
X661920Y685047D01*
X661950Y685061D01*
X661978Y685078D01*
X662008Y685090D01*
X662038Y685105D01*
X664949Y686311D01*
X664981Y686321D01*
X665011Y686334D01*
X665043Y686343D01*
X665074Y686353D01*
X665106Y686359D01*
X665137Y686368D01*
X668229Y686983D01*
X668261Y686987D01*
X668293Y686993D01*
X668326Y686996D01*
X668359Y687000D01*
X668391D01*
X668424Y687002D01*
X671576D01*
X671609Y687000D01*
D02*
G37*
G36*
X426609D02*
X426641D01*
X426674Y686996D01*
X426707Y686993D01*
X426739Y686987D01*
X426771Y686983D01*
X429863Y686368D01*
X429894Y686359D01*
X429926Y686353D01*
X429957Y686343D01*
X429989Y686334D01*
X430019Y686321D01*
X430051Y686311D01*
X432962Y685105D01*
X432992Y685090D01*
X433022Y685078D01*
X433050Y685061D01*
X433080Y685047D01*
X433107Y685029D01*
X433136Y685012D01*
X435756Y683261D01*
X435782Y683241D01*
X435809Y683223D01*
X435834Y683201D01*
X435860Y683181D01*
X435883Y683158D01*
X435908Y683137D01*
X437022Y682022D01*
X437023Y682022D01*
X438137Y680908D01*
X438158Y680883D01*
X438181Y680860D01*
X438201Y680834D01*
X438223Y680809D01*
X438241Y680782D01*
X438261Y680756D01*
X440012Y678136D01*
X440029Y678107D01*
X440047Y678080D01*
X440061Y678050D01*
X440078Y678022D01*
X440090Y677992D01*
X440105Y677962D01*
X441311Y675051D01*
X441321Y675019D01*
X441334Y674989D01*
X441343Y674957D01*
X441353Y674926D01*
X441359Y674894D01*
X441368Y674863D01*
X441983Y671771D01*
X441987Y671739D01*
X441993Y671707D01*
X441996Y671674D01*
X442000Y671641D01*
Y671609D01*
X442002Y671576D01*
Y668424D01*
X442000Y668391D01*
Y668359D01*
X441996Y668326D01*
X441993Y668293D01*
X441987Y668261D01*
X441983Y668229D01*
X441368Y665137D01*
X441359Y665106D01*
X441353Y665074D01*
X441343Y665043D01*
X441334Y665011D01*
X441321Y664980D01*
X441311Y664949D01*
X440105Y662038D01*
X440090Y662008D01*
X440078Y661978D01*
X440061Y661950D01*
X440047Y661920D01*
X440029Y661893D01*
X440012Y661864D01*
X438261Y659244D01*
X438241Y659218D01*
X438223Y659191D01*
X438201Y659166D01*
X438181Y659140D01*
X438158Y659117D01*
X438137Y659092D01*
X437022Y657978D01*
X437022Y657978D01*
X435908Y656863D01*
X435883Y656842D01*
X435860Y656818D01*
X435834Y656798D01*
X435809Y656777D01*
X435782Y656759D01*
X435756Y656739D01*
X433136Y654988D01*
X433107Y654971D01*
X433080Y654953D01*
X433050Y654939D01*
X433022Y654922D01*
X432992Y654910D01*
X432962Y654895D01*
X430051Y653689D01*
X430019Y653678D01*
X429989Y653666D01*
X429957Y653657D01*
X429926Y653647D01*
X429894Y653641D01*
X429863Y653632D01*
X426771Y653017D01*
X426739Y653013D01*
X426707Y653007D01*
X426674Y653004D01*
X426641Y653000D01*
X426609D01*
X426576Y652998D01*
X423424D01*
X423391Y653000D01*
X423359D01*
X423326Y653004D01*
X423293Y653007D01*
X423261Y653013D01*
X423229Y653017D01*
X420137Y653632D01*
X420106Y653641D01*
X420074Y653647D01*
X420043Y653657D01*
X420011Y653666D01*
X419981Y653679D01*
X419949Y653689D01*
X417038Y654895D01*
X417008Y654910D01*
X416978Y654922D01*
X416950Y654939D01*
X416920Y654953D01*
X416893Y654971D01*
X416864Y654988D01*
X414244Y656739D01*
X414218Y656759D01*
X414190Y656777D01*
X414166Y656799D01*
X414140Y656819D01*
X414117Y656842D01*
X414092Y656863D01*
X412978Y657978D01*
X412977Y657978D01*
X411863Y659092D01*
X411842Y659117D01*
X411819Y659140D01*
X411799Y659166D01*
X411777Y659191D01*
X411759Y659218D01*
X411739Y659244D01*
X409988Y661864D01*
X409971Y661893D01*
X409953Y661920D01*
X409939Y661950D01*
X409922Y661978D01*
X409910Y662008D01*
X409895Y662038D01*
X408689Y664949D01*
X408678Y664981D01*
X408666Y665011D01*
X408657Y665043D01*
X408647Y665074D01*
X408641Y665106D01*
X408632Y665137D01*
X408017Y668229D01*
X408013Y668261D01*
X408006Y668293D01*
X408004Y668326D01*
X408000Y668359D01*
Y668391D01*
X407998Y668424D01*
Y671576D01*
X408000Y671609D01*
Y671641D01*
X408004Y671674D01*
X408006Y671707D01*
X408013Y671739D01*
X408017Y671771D01*
X408632Y674863D01*
X408641Y674894D01*
X408647Y674926D01*
X408657Y674957D01*
X408666Y674989D01*
X408679Y675020D01*
X408689Y675051D01*
X409895Y677962D01*
X409910Y677992D01*
X409922Y678022D01*
X409939Y678050D01*
X409953Y678080D01*
X409971Y678107D01*
X409988Y678136D01*
X411739Y680756D01*
X411759Y680782D01*
X411777Y680809D01*
X411799Y680834D01*
X411819Y680860D01*
X411842Y680883D01*
X411863Y680908D01*
X412978Y682022D01*
X412978Y682022D01*
X414092Y683137D01*
X414117Y683158D01*
X414140Y683181D01*
X414166Y683202D01*
X414190Y683223D01*
X414218Y683241D01*
X414244Y683261D01*
X416864Y685012D01*
X416893Y685029D01*
X416920Y685047D01*
X416950Y685061D01*
X416978Y685078D01*
X417008Y685090D01*
X417038Y685105D01*
X419949Y686311D01*
X419981Y686321D01*
X420011Y686334D01*
X420042Y686343D01*
X420074Y686353D01*
X420106Y686359D01*
X420137Y686368D01*
X423229Y686983D01*
X423261Y686987D01*
X423293Y686993D01*
X423326Y686996D01*
X423359Y687000D01*
X423391D01*
X423424Y687002D01*
X426576D01*
X426609Y687000D01*
D02*
G37*
G36*
X181609D02*
X181641D01*
X181674Y686996D01*
X181707Y686993D01*
X181739Y686987D01*
X181771Y686983D01*
X184862Y686368D01*
X184894Y686359D01*
X184926Y686353D01*
X184957Y686343D01*
X184989Y686334D01*
X185019Y686321D01*
X185051Y686311D01*
X187962Y685105D01*
X187992Y685090D01*
X188022Y685078D01*
X188050Y685061D01*
X188080Y685047D01*
X188107Y685029D01*
X188136Y685012D01*
X190756Y683261D01*
X190782Y683241D01*
X190809Y683223D01*
X190834Y683201D01*
X190860Y683181D01*
X190883Y683158D01*
X190908Y683137D01*
X192022Y682022D01*
X192022Y682022D01*
X193137Y680908D01*
X193158Y680883D01*
X193181Y680860D01*
X193202Y680834D01*
X193223Y680809D01*
X193241Y680782D01*
X193261Y680756D01*
X195012Y678136D01*
X195029Y678107D01*
X195047Y678080D01*
X195061Y678050D01*
X195078Y678022D01*
X195090Y677992D01*
X195105Y677962D01*
X196311Y675051D01*
X196322Y675019D01*
X196334Y674989D01*
X196343Y674957D01*
X196353Y674926D01*
X196359Y674894D01*
X196368Y674863D01*
X196983Y671771D01*
X196987Y671739D01*
X196994Y671707D01*
X196996Y671674D01*
X197000Y671641D01*
Y671609D01*
X197002Y671576D01*
Y668424D01*
X197000Y668391D01*
Y668359D01*
X196996Y668326D01*
X196994Y668293D01*
X196987Y668261D01*
X196983Y668229D01*
X196368Y665137D01*
X196359Y665106D01*
X196353Y665074D01*
X196343Y665043D01*
X196334Y665011D01*
X196322Y664980D01*
X196311Y664949D01*
X195105Y662038D01*
X195090Y662008D01*
X195078Y661978D01*
X195061Y661950D01*
X195047Y661920D01*
X195029Y661893D01*
X195012Y661864D01*
X193261Y659244D01*
X193241Y659218D01*
X193223Y659191D01*
X193201Y659166D01*
X193181Y659140D01*
X193158Y659117D01*
X193137Y659092D01*
X192022Y657978D01*
X192022Y657978D01*
X190908Y656863D01*
X190883Y656842D01*
X190860Y656818D01*
X190834Y656798D01*
X190809Y656777D01*
X190782Y656759D01*
X190756Y656739D01*
X188136Y654988D01*
X188107Y654971D01*
X188080Y654953D01*
X188050Y654939D01*
X188022Y654922D01*
X187992Y654910D01*
X187962Y654895D01*
X185051Y653689D01*
X185019Y653678D01*
X184989Y653666D01*
X184957Y653657D01*
X184926Y653647D01*
X184894Y653641D01*
X184862Y653632D01*
X181771Y653017D01*
X181739Y653013D01*
X181707Y653007D01*
X181674Y653004D01*
X181641Y653000D01*
X181609D01*
X181576Y652998D01*
X178424D01*
X178391Y653000D01*
X178359D01*
X178326Y653004D01*
X178293Y653007D01*
X178261Y653013D01*
X178229Y653017D01*
X175137Y653632D01*
X175106Y653641D01*
X175074Y653647D01*
X175043Y653657D01*
X175011Y653666D01*
X174981Y653679D01*
X174949Y653689D01*
X172038Y654895D01*
X172008Y654910D01*
X171978Y654922D01*
X171950Y654939D01*
X171920Y654953D01*
X171893Y654971D01*
X171864Y654988D01*
X169244Y656739D01*
X169218Y656759D01*
X169191Y656777D01*
X169166Y656799D01*
X169140Y656819D01*
X169117Y656842D01*
X169092Y656863D01*
X167978Y657978D01*
X167978Y657978D01*
X166863Y659092D01*
X166842Y659117D01*
X166819Y659140D01*
X166798Y659166D01*
X166777Y659191D01*
X166759Y659218D01*
X166739Y659244D01*
X164988Y661864D01*
X164971Y661893D01*
X164953Y661920D01*
X164939Y661950D01*
X164922Y661978D01*
X164910Y662008D01*
X164895Y662038D01*
X163689Y664949D01*
X163678Y664981D01*
X163666Y665011D01*
X163657Y665043D01*
X163647Y665074D01*
X163640Y665106D01*
X163632Y665137D01*
X163017Y668229D01*
X163013Y668261D01*
X163006Y668293D01*
X163004Y668326D01*
X163000Y668359D01*
Y668391D01*
X162998Y668424D01*
Y671576D01*
X163000Y671609D01*
Y671641D01*
X163004Y671674D01*
X163006Y671707D01*
X163013Y671739D01*
X163017Y671771D01*
X163632Y674863D01*
X163640Y674894D01*
X163647Y674926D01*
X163657Y674957D01*
X163666Y674989D01*
X163678Y675020D01*
X163689Y675051D01*
X164895Y677962D01*
X164910Y677992D01*
X164922Y678022D01*
X164939Y678050D01*
X164953Y678080D01*
X164971Y678107D01*
X164988Y678136D01*
X166739Y680756D01*
X166759Y680782D01*
X166777Y680809D01*
X166799Y680834D01*
X166819Y680860D01*
X166842Y680883D01*
X166863Y680908D01*
X167978Y682022D01*
X167978Y682022D01*
X169092Y683137D01*
X169117Y683158D01*
X169140Y683181D01*
X169166Y683202D01*
X169191Y683223D01*
X169218Y683241D01*
X169244Y683261D01*
X171864Y685012D01*
X171893Y685029D01*
X171920Y685047D01*
X171950Y685061D01*
X171978Y685078D01*
X172008Y685090D01*
X172038Y685105D01*
X174949Y686311D01*
X174981Y686321D01*
X175011Y686334D01*
X175043Y686343D01*
X175074Y686353D01*
X175106Y686359D01*
X175137Y686368D01*
X178229Y686983D01*
X178261Y686987D01*
X178293Y686993D01*
X178326Y686996D01*
X178359Y687000D01*
X178391D01*
X178424Y687002D01*
X181576D01*
X181609Y687000D01*
D02*
G37*
G36*
X541609Y557000D02*
X541641D01*
X541674Y556996D01*
X541707Y556994D01*
X541739Y556987D01*
X541771Y556983D01*
X544863Y556368D01*
X544894Y556359D01*
X544926Y556353D01*
X544957Y556343D01*
X544989Y556334D01*
X545019Y556321D01*
X545051Y556311D01*
X547962Y555105D01*
X547992Y555090D01*
X548022Y555078D01*
X548050Y555061D01*
X548080Y555047D01*
X548107Y555029D01*
X548136Y555012D01*
X550756Y553261D01*
X550782Y553241D01*
X550810Y553223D01*
X550834Y553201D01*
X550860Y553181D01*
X550883Y553158D01*
X550908Y553137D01*
X552022Y552022D01*
X552023Y552022D01*
X553137Y550908D01*
X553158Y550883D01*
X553181Y550860D01*
X553201Y550834D01*
X553223Y550809D01*
X553241Y550782D01*
X553261Y550756D01*
X555012Y548136D01*
X555029Y548107D01*
X555047Y548080D01*
X555061Y548050D01*
X555078Y548022D01*
X555090Y547992D01*
X555105Y547962D01*
X556311Y545051D01*
X556321Y545019D01*
X556334Y544989D01*
X556343Y544957D01*
X556353Y544926D01*
X556359Y544894D01*
X556368Y544863D01*
X556983Y541771D01*
X556987Y541739D01*
X556994Y541707D01*
X556996Y541674D01*
X557000Y541641D01*
Y541609D01*
X557002Y541576D01*
Y538424D01*
X557000Y538391D01*
Y538359D01*
X556996Y538326D01*
X556994Y538293D01*
X556987Y538261D01*
X556983Y538229D01*
X556368Y535137D01*
X556359Y535106D01*
X556353Y535074D01*
X556343Y535043D01*
X556334Y535011D01*
X556321Y534981D01*
X556311Y534949D01*
X555105Y532038D01*
X555090Y532008D01*
X555078Y531978D01*
X555061Y531950D01*
X555047Y531920D01*
X555029Y531893D01*
X555012Y531864D01*
X553261Y529244D01*
X553241Y529218D01*
X553223Y529190D01*
X553201Y529166D01*
X553181Y529140D01*
X553158Y529117D01*
X553137Y529092D01*
X552022Y527978D01*
X552022Y527977D01*
X550908Y526863D01*
X550883Y526842D01*
X550860Y526819D01*
X550834Y526799D01*
X550809Y526777D01*
X550782Y526759D01*
X550756Y526739D01*
X548136Y524988D01*
X548107Y524971D01*
X548080Y524953D01*
X548050Y524939D01*
X548022Y524922D01*
X547992Y524910D01*
X547962Y524895D01*
X545051Y523689D01*
X545019Y523679D01*
X544989Y523666D01*
X544957Y523657D01*
X544926Y523647D01*
X544894Y523641D01*
X544863Y523632D01*
X541771Y523017D01*
X541739Y523013D01*
X541707Y523007D01*
X541674Y523004D01*
X541641Y523000D01*
X541609D01*
X541576Y522998D01*
X538424D01*
X538391Y523000D01*
X538359D01*
X538326Y523004D01*
X538293Y523007D01*
X538261Y523013D01*
X538229Y523017D01*
X535137Y523632D01*
X535106Y523641D01*
X535074Y523647D01*
X535043Y523657D01*
X535011Y523666D01*
X534981Y523679D01*
X534949Y523689D01*
X532038Y524895D01*
X532008Y524910D01*
X531978Y524922D01*
X531950Y524939D01*
X531920Y524953D01*
X531893Y524971D01*
X531864Y524988D01*
X529244Y526739D01*
X529218Y526759D01*
X529190Y526777D01*
X529166Y526799D01*
X529140Y526819D01*
X529117Y526842D01*
X529092Y526863D01*
X527978Y527978D01*
X527977Y527978D01*
X526863Y529092D01*
X526842Y529117D01*
X526819Y529140D01*
X526799Y529166D01*
X526777Y529191D01*
X526759Y529218D01*
X526739Y529244D01*
X524988Y531864D01*
X524971Y531893D01*
X524953Y531920D01*
X524939Y531950D01*
X524922Y531978D01*
X524910Y532008D01*
X524895Y532038D01*
X523689Y534949D01*
X523679Y534981D01*
X523666Y535011D01*
X523657Y535043D01*
X523647Y535074D01*
X523641Y535106D01*
X523632Y535137D01*
X523017Y538229D01*
X523013Y538261D01*
X523007Y538293D01*
X523004Y538326D01*
X523000Y538359D01*
Y538391D01*
X522998Y538424D01*
Y541576D01*
X523000Y541609D01*
Y541641D01*
X523004Y541674D01*
X523007Y541707D01*
X523013Y541739D01*
X523017Y541771D01*
X523632Y544863D01*
X523641Y544894D01*
X523647Y544926D01*
X523657Y544957D01*
X523666Y544989D01*
X523679Y545019D01*
X523689Y545051D01*
X524895Y547962D01*
X524910Y547992D01*
X524922Y548022D01*
X524939Y548050D01*
X524953Y548080D01*
X524971Y548107D01*
X524988Y548136D01*
X526739Y550756D01*
X526759Y550782D01*
X526777Y550810D01*
X526799Y550834D01*
X526819Y550860D01*
X526842Y550883D01*
X526863Y550908D01*
X527978Y552022D01*
X527978Y552023D01*
X529092Y553137D01*
X529117Y553158D01*
X529140Y553181D01*
X529166Y553201D01*
X529191Y553223D01*
X529218Y553241D01*
X529244Y553261D01*
X531864Y555012D01*
X531893Y555029D01*
X531920Y555047D01*
X531950Y555061D01*
X531978Y555078D01*
X532008Y555090D01*
X532038Y555105D01*
X534949Y556311D01*
X534981Y556321D01*
X535011Y556334D01*
X535043Y556343D01*
X535074Y556353D01*
X535106Y556359D01*
X535137Y556368D01*
X538229Y556983D01*
X538261Y556987D01*
X538293Y556994D01*
X538326Y556996D01*
X538359Y557000D01*
X538391D01*
X538424Y557002D01*
X541576D01*
X541609Y557000D01*
D02*
G37*
G36*
X426609D02*
X426641D01*
X426674Y556996D01*
X426707Y556994D01*
X426739Y556987D01*
X426771Y556983D01*
X429863Y556368D01*
X429894Y556359D01*
X429926Y556353D01*
X429957Y556343D01*
X429989Y556334D01*
X430019Y556321D01*
X430051Y556311D01*
X432962Y555105D01*
X432992Y555090D01*
X433022Y555078D01*
X433050Y555061D01*
X433080Y555047D01*
X433107Y555029D01*
X433136Y555012D01*
X435756Y553261D01*
X435782Y553241D01*
X435809Y553223D01*
X435834Y553201D01*
X435860Y553181D01*
X435883Y553158D01*
X435908Y553137D01*
X437022Y552022D01*
X437023Y552022D01*
X438137Y550908D01*
X438158Y550883D01*
X438181Y550860D01*
X438201Y550834D01*
X438223Y550809D01*
X438241Y550782D01*
X438261Y550756D01*
X440012Y548136D01*
X440029Y548107D01*
X440047Y548080D01*
X440061Y548050D01*
X440078Y548022D01*
X440090Y547992D01*
X440105Y547962D01*
X441311Y545051D01*
X441321Y545019D01*
X441334Y544989D01*
X441343Y544957D01*
X441353Y544926D01*
X441359Y544894D01*
X441368Y544863D01*
X441983Y541771D01*
X441987Y541739D01*
X441993Y541707D01*
X441996Y541674D01*
X442000Y541641D01*
Y541609D01*
X442002Y541576D01*
Y538424D01*
X442000Y538391D01*
Y538359D01*
X441996Y538326D01*
X441993Y538293D01*
X441987Y538261D01*
X441983Y538229D01*
X441368Y535137D01*
X441359Y535106D01*
X441353Y535074D01*
X441343Y535043D01*
X441334Y535011D01*
X441321Y534981D01*
X441311Y534949D01*
X440105Y532038D01*
X440090Y532008D01*
X440078Y531978D01*
X440061Y531950D01*
X440047Y531920D01*
X440029Y531893D01*
X440012Y531864D01*
X438261Y529244D01*
X438241Y529218D01*
X438223Y529190D01*
X438201Y529166D01*
X438181Y529140D01*
X438158Y529117D01*
X438137Y529092D01*
X437022Y527978D01*
X437022Y527977D01*
X435908Y526863D01*
X435883Y526842D01*
X435860Y526819D01*
X435834Y526799D01*
X435809Y526777D01*
X435782Y526759D01*
X435756Y526739D01*
X433136Y524988D01*
X433107Y524971D01*
X433080Y524953D01*
X433050Y524939D01*
X433022Y524922D01*
X432992Y524910D01*
X432962Y524895D01*
X430051Y523689D01*
X430019Y523679D01*
X429989Y523666D01*
X429957Y523657D01*
X429926Y523647D01*
X429894Y523641D01*
X429863Y523632D01*
X426771Y523017D01*
X426739Y523013D01*
X426707Y523007D01*
X426674Y523004D01*
X426641Y523000D01*
X426609D01*
X426576Y522998D01*
X423424D01*
X423391Y523000D01*
X423359D01*
X423326Y523004D01*
X423293Y523007D01*
X423261Y523013D01*
X423229Y523017D01*
X420137Y523632D01*
X420106Y523641D01*
X420074Y523647D01*
X420043Y523657D01*
X420011Y523666D01*
X419981Y523679D01*
X419949Y523689D01*
X417038Y524895D01*
X417008Y524910D01*
X416978Y524922D01*
X416950Y524939D01*
X416920Y524953D01*
X416893Y524971D01*
X416864Y524988D01*
X414244Y526739D01*
X414218Y526759D01*
X414190Y526777D01*
X414166Y526799D01*
X414140Y526819D01*
X414117Y526842D01*
X414092Y526863D01*
X412978Y527978D01*
X412977Y527978D01*
X411863Y529092D01*
X411842Y529117D01*
X411819Y529140D01*
X411799Y529166D01*
X411777Y529191D01*
X411759Y529218D01*
X411739Y529244D01*
X409988Y531864D01*
X409971Y531893D01*
X409953Y531920D01*
X409939Y531950D01*
X409922Y531978D01*
X409910Y532008D01*
X409895Y532038D01*
X408689Y534949D01*
X408678Y534981D01*
X408666Y535011D01*
X408657Y535043D01*
X408647Y535074D01*
X408641Y535106D01*
X408632Y535137D01*
X408017Y538229D01*
X408013Y538261D01*
X408006Y538293D01*
X408004Y538326D01*
X408000Y538359D01*
Y538391D01*
X407998Y538424D01*
Y541576D01*
X408000Y541609D01*
Y541641D01*
X408004Y541674D01*
X408006Y541707D01*
X408013Y541739D01*
X408017Y541771D01*
X408632Y544863D01*
X408641Y544894D01*
X408647Y544926D01*
X408657Y544957D01*
X408666Y544989D01*
X408679Y545019D01*
X408689Y545051D01*
X409895Y547962D01*
X409910Y547992D01*
X409922Y548022D01*
X409939Y548050D01*
X409953Y548080D01*
X409971Y548107D01*
X409988Y548136D01*
X411739Y550756D01*
X411759Y550782D01*
X411777Y550810D01*
X411799Y550834D01*
X411819Y550860D01*
X411842Y550883D01*
X411863Y550908D01*
X412978Y552022D01*
X412978Y552023D01*
X414092Y553137D01*
X414117Y553158D01*
X414140Y553181D01*
X414166Y553201D01*
X414190Y553223D01*
X414218Y553241D01*
X414244Y553261D01*
X416864Y555012D01*
X416893Y555029D01*
X416920Y555047D01*
X416950Y555061D01*
X416978Y555078D01*
X417008Y555090D01*
X417038Y555105D01*
X419949Y556311D01*
X419981Y556321D01*
X420011Y556334D01*
X420042Y556343D01*
X420074Y556353D01*
X420106Y556359D01*
X420137Y556368D01*
X423229Y556983D01*
X423261Y556987D01*
X423293Y556994D01*
X423326Y556996D01*
X423359Y557000D01*
X423391D01*
X423424Y557002D01*
X426576D01*
X426609Y557000D01*
D02*
G37*
G36*
X311609D02*
X311641D01*
X311674Y556996D01*
X311707Y556994D01*
X311739Y556987D01*
X311771Y556983D01*
X314862Y556368D01*
X314894Y556359D01*
X314926Y556353D01*
X314957Y556343D01*
X314989Y556334D01*
X315019Y556321D01*
X315051Y556311D01*
X317962Y555105D01*
X317992Y555090D01*
X318022Y555078D01*
X318050Y555061D01*
X318080Y555047D01*
X318107Y555029D01*
X318136Y555012D01*
X320756Y553261D01*
X320782Y553241D01*
X320809Y553223D01*
X320834Y553201D01*
X320860Y553181D01*
X320883Y553158D01*
X320908Y553137D01*
X322022Y552022D01*
X322023Y552022D01*
X323137Y550908D01*
X323158Y550883D01*
X323181Y550860D01*
X323201Y550834D01*
X323223Y550809D01*
X323241Y550782D01*
X323261Y550756D01*
X325012Y548136D01*
X325029Y548107D01*
X325047Y548080D01*
X325061Y548050D01*
X325078Y548022D01*
X325090Y547992D01*
X325105Y547962D01*
X326311Y545051D01*
X326321Y545019D01*
X326334Y544989D01*
X326343Y544957D01*
X326353Y544926D01*
X326359Y544894D01*
X326368Y544863D01*
X326983Y541771D01*
X326987Y541739D01*
X326993Y541707D01*
X326996Y541674D01*
X327000Y541641D01*
Y541609D01*
X327002Y541576D01*
Y538424D01*
X327000Y538391D01*
Y538359D01*
X326996Y538326D01*
X326993Y538293D01*
X326987Y538261D01*
X326983Y538229D01*
X326368Y535137D01*
X326359Y535106D01*
X326353Y535074D01*
X326343Y535043D01*
X326334Y535011D01*
X326321Y534981D01*
X326311Y534949D01*
X325105Y532038D01*
X325090Y532008D01*
X325078Y531978D01*
X325061Y531950D01*
X325047Y531920D01*
X325029Y531893D01*
X325012Y531864D01*
X323261Y529244D01*
X323241Y529218D01*
X323223Y529190D01*
X323201Y529166D01*
X323181Y529140D01*
X323158Y529117D01*
X323137Y529092D01*
X322022Y527978D01*
X322022Y527977D01*
X320908Y526863D01*
X320883Y526842D01*
X320860Y526819D01*
X320834Y526799D01*
X320809Y526777D01*
X320782Y526759D01*
X320756Y526739D01*
X318136Y524988D01*
X318107Y524971D01*
X318080Y524953D01*
X318050Y524939D01*
X318022Y524922D01*
X317992Y524910D01*
X317962Y524895D01*
X315051Y523689D01*
X315019Y523679D01*
X314989Y523666D01*
X314957Y523657D01*
X314926Y523647D01*
X314894Y523641D01*
X314862Y523632D01*
X311771Y523017D01*
X311739Y523013D01*
X311707Y523007D01*
X311674Y523004D01*
X311641Y523000D01*
X311609D01*
X311576Y522998D01*
X308424D01*
X308391Y523000D01*
X308359D01*
X308326Y523004D01*
X308293Y523007D01*
X308261Y523013D01*
X308229Y523017D01*
X305137Y523632D01*
X305106Y523641D01*
X305074Y523647D01*
X305043Y523657D01*
X305011Y523666D01*
X304981Y523679D01*
X304949Y523689D01*
X302038Y524895D01*
X302008Y524910D01*
X301978Y524922D01*
X301950Y524939D01*
X301920Y524953D01*
X301893Y524971D01*
X301864Y524988D01*
X299244Y526739D01*
X299218Y526759D01*
X299191Y526777D01*
X299166Y526799D01*
X299140Y526819D01*
X299117Y526842D01*
X299092Y526863D01*
X297978Y527978D01*
X297978Y527978D01*
X296863Y529092D01*
X296842Y529117D01*
X296819Y529140D01*
X296798Y529166D01*
X296777Y529191D01*
X296759Y529218D01*
X296739Y529244D01*
X294988Y531864D01*
X294971Y531893D01*
X294953Y531920D01*
X294939Y531950D01*
X294922Y531978D01*
X294910Y532008D01*
X294895Y532038D01*
X293689Y534949D01*
X293678Y534981D01*
X293666Y535011D01*
X293657Y535043D01*
X293647Y535074D01*
X293640Y535106D01*
X293632Y535137D01*
X293017Y538229D01*
X293013Y538261D01*
X293006Y538293D01*
X293004Y538326D01*
X293000Y538359D01*
Y538391D01*
X292998Y538424D01*
Y541576D01*
X293000Y541609D01*
Y541641D01*
X293004Y541674D01*
X293006Y541707D01*
X293013Y541739D01*
X293017Y541771D01*
X293632Y544863D01*
X293640Y544894D01*
X293647Y544926D01*
X293657Y544957D01*
X293666Y544989D01*
X293678Y545019D01*
X293689Y545051D01*
X294895Y547962D01*
X294910Y547992D01*
X294922Y548022D01*
X294939Y548050D01*
X294953Y548080D01*
X294971Y548107D01*
X294988Y548136D01*
X296739Y550756D01*
X296759Y550782D01*
X296777Y550810D01*
X296799Y550834D01*
X296819Y550860D01*
X296842Y550883D01*
X296863Y550908D01*
X297978Y552022D01*
X297978Y552023D01*
X299092Y553137D01*
X299117Y553158D01*
X299140Y553181D01*
X299166Y553201D01*
X299191Y553223D01*
X299218Y553241D01*
X299244Y553261D01*
X301864Y555012D01*
X301893Y555029D01*
X301920Y555047D01*
X301950Y555061D01*
X301978Y555078D01*
X302008Y555090D01*
X302038Y555105D01*
X304949Y556311D01*
X304981Y556321D01*
X305011Y556334D01*
X305042Y556343D01*
X305074Y556353D01*
X305106Y556359D01*
X305137Y556368D01*
X308229Y556983D01*
X308261Y556987D01*
X308293Y556994D01*
X308326Y556996D01*
X308359Y557000D01*
X308391D01*
X308424Y557002D01*
X311576D01*
X311609Y557000D01*
D02*
G37*
G36*
X801609Y442000D02*
X801641D01*
X801674Y441996D01*
X801707Y441993D01*
X801739Y441987D01*
X801771Y441983D01*
X804863Y441368D01*
X804894Y441359D01*
X804926Y441353D01*
X804957Y441343D01*
X804989Y441334D01*
X805020Y441321D01*
X805051Y441311D01*
X807962Y440105D01*
X807992Y440090D01*
X808022Y440078D01*
X808050Y440061D01*
X808080Y440047D01*
X808107Y440029D01*
X808136Y440012D01*
X810756Y438261D01*
X810782Y438241D01*
X810809Y438223D01*
X810834Y438201D01*
X810860Y438181D01*
X810883Y438158D01*
X810908Y438137D01*
X812022Y437022D01*
X812022Y437022D01*
X813137Y435908D01*
X813158Y435883D01*
X813181Y435860D01*
X813202Y435834D01*
X813223Y435809D01*
X813241Y435782D01*
X813261Y435756D01*
X815012Y433136D01*
X815029Y433107D01*
X815047Y433080D01*
X815061Y433050D01*
X815078Y433022D01*
X815090Y432992D01*
X815105Y432962D01*
X816311Y430051D01*
X816321Y430019D01*
X816334Y429989D01*
X816343Y429957D01*
X816353Y429926D01*
X816359Y429894D01*
X816368Y429863D01*
X816983Y426771D01*
X816987Y426739D01*
X816993Y426707D01*
X816996Y426674D01*
X817000Y426641D01*
Y426609D01*
X817002Y426576D01*
Y423424D01*
X817000Y423391D01*
Y423359D01*
X816996Y423326D01*
X816993Y423293D01*
X816987Y423261D01*
X816983Y423229D01*
X816368Y420137D01*
X816359Y420106D01*
X816353Y420074D01*
X816343Y420043D01*
X816334Y420011D01*
X816321Y419981D01*
X816311Y419949D01*
X815105Y417038D01*
X815090Y417008D01*
X815078Y416978D01*
X815061Y416950D01*
X815047Y416920D01*
X815029Y416893D01*
X815012Y416864D01*
X813261Y414244D01*
X813241Y414218D01*
X813223Y414190D01*
X813201Y414166D01*
X813181Y414140D01*
X813158Y414117D01*
X813137Y414092D01*
X812022Y412978D01*
X812022Y412977D01*
X810908Y411863D01*
X810883Y411842D01*
X810860Y411819D01*
X810834Y411799D01*
X810809Y411777D01*
X810782Y411759D01*
X810756Y411739D01*
X808136Y409988D01*
X808107Y409971D01*
X808080Y409953D01*
X808050Y409939D01*
X808022Y409922D01*
X807992Y409910D01*
X807962Y409895D01*
X805051Y408689D01*
X805019Y408678D01*
X804989Y408666D01*
X804957Y408657D01*
X804926Y408647D01*
X804894Y408641D01*
X804863Y408632D01*
X801771Y408017D01*
X801739Y408013D01*
X801707Y408006D01*
X801674Y408004D01*
X801641Y408000D01*
X801609D01*
X801576Y407998D01*
X798424D01*
X798391Y408000D01*
X798359D01*
X798326Y408004D01*
X798293Y408006D01*
X798261Y408013D01*
X798229Y408017D01*
X795137Y408632D01*
X795106Y408641D01*
X795074Y408647D01*
X795043Y408657D01*
X795011Y408666D01*
X794980Y408679D01*
X794949Y408689D01*
X792038Y409895D01*
X792008Y409910D01*
X791978Y409922D01*
X791949Y409939D01*
X791920Y409953D01*
X791893Y409971D01*
X791864Y409988D01*
X789244Y411739D01*
X789218Y411759D01*
X789191Y411777D01*
X789166Y411799D01*
X789140Y411819D01*
X789117Y411842D01*
X789092Y411863D01*
X787978Y412978D01*
X787978Y412978D01*
X786863Y414092D01*
X786842Y414117D01*
X786818Y414140D01*
X786798Y414166D01*
X786777Y414190D01*
X786759Y414218D01*
X786739Y414244D01*
X784988Y416864D01*
X784971Y416893D01*
X784953Y416920D01*
X784939Y416950D01*
X784922Y416978D01*
X784910Y417008D01*
X784895Y417038D01*
X783689Y419949D01*
X783678Y419981D01*
X783666Y420011D01*
X783657Y420042D01*
X783647Y420074D01*
X783641Y420106D01*
X783632Y420137D01*
X783017Y423229D01*
X783013Y423261D01*
X783007Y423293D01*
X783004Y423326D01*
X783000Y423359D01*
Y423391D01*
X782998Y423424D01*
Y426576D01*
X783000Y426609D01*
Y426641D01*
X783004Y426674D01*
X783007Y426707D01*
X783013Y426739D01*
X783017Y426771D01*
X783632Y429863D01*
X783641Y429894D01*
X783647Y429926D01*
X783657Y429957D01*
X783666Y429989D01*
X783679Y430019D01*
X783689Y430051D01*
X784895Y432962D01*
X784910Y432992D01*
X784922Y433022D01*
X784939Y433050D01*
X784953Y433080D01*
X784971Y433107D01*
X784988Y433136D01*
X786739Y435756D01*
X786759Y435782D01*
X786777Y435809D01*
X786799Y435834D01*
X786819Y435860D01*
X786842Y435883D01*
X786863Y435908D01*
X787978Y437022D01*
X787978Y437023D01*
X789092Y438137D01*
X789117Y438158D01*
X789140Y438181D01*
X789166Y438201D01*
X789191Y438223D01*
X789218Y438241D01*
X789244Y438261D01*
X791864Y440012D01*
X791893Y440029D01*
X791920Y440047D01*
X791950Y440061D01*
X791978Y440078D01*
X792008Y440090D01*
X792038Y440105D01*
X794949Y441311D01*
X794981Y441321D01*
X795011Y441334D01*
X795043Y441343D01*
X795074Y441353D01*
X795106Y441359D01*
X795137Y441368D01*
X798229Y441983D01*
X798261Y441987D01*
X798293Y441993D01*
X798326Y441996D01*
X798359Y442000D01*
X798391D01*
X798424Y442002D01*
X801576D01*
X801609Y442000D01*
D02*
G37*
G36*
X671609D02*
X671641D01*
X671674Y441996D01*
X671707Y441993D01*
X671739Y441987D01*
X671771Y441983D01*
X674863Y441368D01*
X674894Y441359D01*
X674926Y441353D01*
X674957Y441343D01*
X674989Y441334D01*
X675020Y441321D01*
X675051Y441311D01*
X677962Y440105D01*
X677992Y440090D01*
X678022Y440078D01*
X678050Y440061D01*
X678080Y440047D01*
X678107Y440029D01*
X678136Y440012D01*
X680756Y438261D01*
X680782Y438241D01*
X680809Y438223D01*
X680834Y438201D01*
X680860Y438181D01*
X680883Y438158D01*
X680908Y438137D01*
X682022Y437022D01*
X682022Y437022D01*
X683137Y435908D01*
X683158Y435883D01*
X683181Y435860D01*
X683202Y435834D01*
X683223Y435809D01*
X683241Y435782D01*
X683261Y435756D01*
X685012Y433136D01*
X685029Y433107D01*
X685047Y433080D01*
X685061Y433050D01*
X685078Y433022D01*
X685090Y432992D01*
X685105Y432962D01*
X686311Y430051D01*
X686321Y430019D01*
X686334Y429989D01*
X686343Y429957D01*
X686353Y429926D01*
X686359Y429894D01*
X686368Y429863D01*
X686983Y426771D01*
X686987Y426739D01*
X686993Y426707D01*
X686996Y426674D01*
X687000Y426641D01*
Y426609D01*
X687002Y426576D01*
Y423424D01*
X687000Y423391D01*
Y423359D01*
X686996Y423326D01*
X686993Y423293D01*
X686987Y423261D01*
X686983Y423229D01*
X686368Y420137D01*
X686359Y420106D01*
X686353Y420074D01*
X686343Y420043D01*
X686334Y420011D01*
X686321Y419981D01*
X686311Y419949D01*
X685105Y417038D01*
X685090Y417008D01*
X685078Y416978D01*
X685061Y416950D01*
X685047Y416920D01*
X685029Y416893D01*
X685012Y416864D01*
X683261Y414244D01*
X683241Y414218D01*
X683223Y414190D01*
X683201Y414166D01*
X683181Y414140D01*
X683158Y414117D01*
X683137Y414092D01*
X682022Y412978D01*
X682022Y412977D01*
X680908Y411863D01*
X680883Y411842D01*
X680860Y411819D01*
X680834Y411799D01*
X680809Y411777D01*
X680782Y411759D01*
X680756Y411739D01*
X678136Y409988D01*
X678107Y409971D01*
X678080Y409953D01*
X678050Y409939D01*
X678022Y409922D01*
X677992Y409910D01*
X677962Y409895D01*
X675051Y408689D01*
X675019Y408678D01*
X674989Y408666D01*
X674957Y408657D01*
X674926Y408647D01*
X674894Y408641D01*
X674863Y408632D01*
X671771Y408017D01*
X671739Y408013D01*
X671707Y408006D01*
X671674Y408004D01*
X671641Y408000D01*
X671609D01*
X671576Y407998D01*
X668424D01*
X668391Y408000D01*
X668359D01*
X668326Y408004D01*
X668293Y408006D01*
X668261Y408013D01*
X668229Y408017D01*
X665137Y408632D01*
X665106Y408641D01*
X665074Y408647D01*
X665043Y408657D01*
X665011Y408666D01*
X664980Y408679D01*
X664949Y408689D01*
X662038Y409895D01*
X662008Y409910D01*
X661978Y409922D01*
X661950Y409939D01*
X661920Y409953D01*
X661893Y409971D01*
X661864Y409988D01*
X659244Y411739D01*
X659218Y411759D01*
X659191Y411777D01*
X659166Y411799D01*
X659140Y411819D01*
X659117Y411842D01*
X659092Y411863D01*
X657978Y412978D01*
X657978Y412978D01*
X656863Y414092D01*
X656842Y414117D01*
X656818Y414140D01*
X656798Y414166D01*
X656777Y414190D01*
X656759Y414218D01*
X656739Y414244D01*
X654988Y416864D01*
X654971Y416893D01*
X654953Y416920D01*
X654939Y416950D01*
X654922Y416978D01*
X654910Y417008D01*
X654895Y417038D01*
X653689Y419949D01*
X653678Y419981D01*
X653666Y420011D01*
X653657Y420042D01*
X653647Y420074D01*
X653641Y420106D01*
X653632Y420137D01*
X653017Y423229D01*
X653013Y423261D01*
X653007Y423293D01*
X653004Y423326D01*
X653000Y423359D01*
Y423391D01*
X652998Y423424D01*
Y426576D01*
X653000Y426609D01*
Y426641D01*
X653004Y426674D01*
X653007Y426707D01*
X653013Y426739D01*
X653017Y426771D01*
X653632Y429863D01*
X653641Y429894D01*
X653647Y429926D01*
X653657Y429957D01*
X653666Y429989D01*
X653679Y430019D01*
X653689Y430051D01*
X654895Y432962D01*
X654910Y432992D01*
X654922Y433022D01*
X654939Y433050D01*
X654953Y433080D01*
X654971Y433107D01*
X654988Y433136D01*
X656739Y435756D01*
X656759Y435782D01*
X656777Y435809D01*
X656799Y435834D01*
X656819Y435860D01*
X656842Y435883D01*
X656863Y435908D01*
X657978Y437022D01*
X657978Y437023D01*
X659092Y438137D01*
X659117Y438158D01*
X659140Y438181D01*
X659166Y438201D01*
X659191Y438223D01*
X659218Y438241D01*
X659244Y438261D01*
X661864Y440012D01*
X661893Y440029D01*
X661920Y440047D01*
X661950Y440061D01*
X661978Y440078D01*
X662008Y440090D01*
X662038Y440105D01*
X664949Y441311D01*
X664981Y441321D01*
X665011Y441334D01*
X665043Y441343D01*
X665074Y441353D01*
X665106Y441359D01*
X665137Y441368D01*
X668229Y441983D01*
X668261Y441987D01*
X668293Y441993D01*
X668326Y441996D01*
X668359Y442000D01*
X668391D01*
X668424Y442002D01*
X671576D01*
X671609Y442000D01*
D02*
G37*
G36*
X541609D02*
X541641D01*
X541674Y441996D01*
X541707Y441993D01*
X541739Y441987D01*
X541771Y441983D01*
X544863Y441368D01*
X544894Y441359D01*
X544926Y441353D01*
X544957Y441343D01*
X544989Y441334D01*
X545019Y441321D01*
X545051Y441311D01*
X547962Y440105D01*
X547992Y440090D01*
X548022Y440078D01*
X548050Y440061D01*
X548080Y440047D01*
X548107Y440029D01*
X548136Y440012D01*
X550756Y438261D01*
X550782Y438241D01*
X550810Y438223D01*
X550834Y438201D01*
X550860Y438181D01*
X550883Y438158D01*
X550908Y438137D01*
X552022Y437022D01*
X552023Y437022D01*
X553137Y435908D01*
X553158Y435883D01*
X553181Y435860D01*
X553201Y435834D01*
X553223Y435809D01*
X553241Y435782D01*
X553261Y435756D01*
X555012Y433136D01*
X555029Y433107D01*
X555047Y433080D01*
X555061Y433050D01*
X555078Y433022D01*
X555090Y432992D01*
X555105Y432962D01*
X556311Y430051D01*
X556321Y430019D01*
X556334Y429989D01*
X556343Y429957D01*
X556353Y429926D01*
X556359Y429894D01*
X556368Y429863D01*
X556983Y426771D01*
X556987Y426739D01*
X556994Y426707D01*
X556996Y426674D01*
X557000Y426641D01*
Y426609D01*
X557002Y426576D01*
Y423424D01*
X557000Y423391D01*
Y423359D01*
X556996Y423326D01*
X556994Y423293D01*
X556987Y423261D01*
X556983Y423229D01*
X556368Y420137D01*
X556359Y420106D01*
X556353Y420074D01*
X556343Y420043D01*
X556334Y420011D01*
X556321Y419981D01*
X556311Y419949D01*
X555105Y417038D01*
X555090Y417008D01*
X555078Y416978D01*
X555061Y416950D01*
X555047Y416920D01*
X555029Y416893D01*
X555012Y416864D01*
X553261Y414244D01*
X553241Y414218D01*
X553223Y414190D01*
X553201Y414166D01*
X553181Y414140D01*
X553158Y414117D01*
X553137Y414092D01*
X552022Y412978D01*
X552022Y412977D01*
X550908Y411863D01*
X550883Y411842D01*
X550860Y411819D01*
X550834Y411799D01*
X550809Y411777D01*
X550782Y411759D01*
X550756Y411739D01*
X548136Y409988D01*
X548107Y409971D01*
X548080Y409953D01*
X548050Y409939D01*
X548022Y409922D01*
X547992Y409910D01*
X547962Y409895D01*
X545051Y408689D01*
X545019Y408678D01*
X544989Y408666D01*
X544957Y408657D01*
X544926Y408647D01*
X544894Y408641D01*
X544863Y408632D01*
X541771Y408017D01*
X541739Y408013D01*
X541707Y408006D01*
X541674Y408004D01*
X541641Y408000D01*
X541609D01*
X541576Y407998D01*
X538424D01*
X538391Y408000D01*
X538359D01*
X538326Y408004D01*
X538293Y408006D01*
X538261Y408013D01*
X538229Y408017D01*
X535137Y408632D01*
X535106Y408641D01*
X535074Y408647D01*
X535043Y408657D01*
X535011Y408666D01*
X534981Y408679D01*
X534949Y408689D01*
X532038Y409895D01*
X532008Y409910D01*
X531978Y409922D01*
X531950Y409939D01*
X531920Y409953D01*
X531893Y409971D01*
X531864Y409988D01*
X529244Y411739D01*
X529218Y411759D01*
X529190Y411777D01*
X529166Y411799D01*
X529140Y411819D01*
X529117Y411842D01*
X529092Y411863D01*
X527978Y412978D01*
X527977Y412978D01*
X526863Y414092D01*
X526842Y414117D01*
X526819Y414140D01*
X526799Y414166D01*
X526777Y414190D01*
X526759Y414218D01*
X526739Y414244D01*
X524988Y416864D01*
X524971Y416893D01*
X524953Y416920D01*
X524939Y416950D01*
X524922Y416978D01*
X524910Y417008D01*
X524895Y417038D01*
X523689Y419949D01*
X523679Y419981D01*
X523666Y420011D01*
X523657Y420042D01*
X523647Y420074D01*
X523641Y420106D01*
X523632Y420137D01*
X523017Y423229D01*
X523013Y423261D01*
X523007Y423293D01*
X523004Y423326D01*
X523000Y423359D01*
Y423391D01*
X522998Y423424D01*
Y426576D01*
X523000Y426609D01*
Y426641D01*
X523004Y426674D01*
X523007Y426707D01*
X523013Y426739D01*
X523017Y426771D01*
X523632Y429863D01*
X523641Y429894D01*
X523647Y429926D01*
X523657Y429957D01*
X523666Y429989D01*
X523679Y430019D01*
X523689Y430051D01*
X524895Y432962D01*
X524910Y432992D01*
X524922Y433022D01*
X524939Y433050D01*
X524953Y433080D01*
X524971Y433107D01*
X524988Y433136D01*
X526739Y435756D01*
X526759Y435782D01*
X526777Y435809D01*
X526799Y435834D01*
X526819Y435860D01*
X526842Y435883D01*
X526863Y435908D01*
X527978Y437022D01*
X527978Y437023D01*
X529092Y438137D01*
X529117Y438158D01*
X529140Y438181D01*
X529166Y438201D01*
X529191Y438223D01*
X529218Y438241D01*
X529244Y438261D01*
X531864Y440012D01*
X531893Y440029D01*
X531920Y440047D01*
X531950Y440061D01*
X531978Y440078D01*
X532008Y440090D01*
X532038Y440105D01*
X534949Y441311D01*
X534981Y441321D01*
X535011Y441334D01*
X535043Y441343D01*
X535074Y441353D01*
X535106Y441359D01*
X535137Y441368D01*
X538229Y441983D01*
X538261Y441987D01*
X538293Y441993D01*
X538326Y441996D01*
X538359Y442000D01*
X538391D01*
X538424Y442002D01*
X541576D01*
X541609Y442000D01*
D02*
G37*
G36*
X311609D02*
X311641D01*
X311674Y441996D01*
X311707Y441993D01*
X311739Y441987D01*
X311771Y441983D01*
X314862Y441368D01*
X314894Y441359D01*
X314926Y441353D01*
X314957Y441343D01*
X314989Y441334D01*
X315019Y441321D01*
X315051Y441311D01*
X317962Y440105D01*
X317992Y440090D01*
X318022Y440078D01*
X318050Y440061D01*
X318080Y440047D01*
X318107Y440029D01*
X318136Y440012D01*
X320756Y438261D01*
X320782Y438241D01*
X320809Y438223D01*
X320834Y438201D01*
X320860Y438181D01*
X320883Y438158D01*
X320908Y438137D01*
X322022Y437022D01*
X322023Y437022D01*
X323137Y435908D01*
X323158Y435883D01*
X323181Y435860D01*
X323201Y435834D01*
X323223Y435809D01*
X323241Y435782D01*
X323261Y435756D01*
X325012Y433136D01*
X325029Y433107D01*
X325047Y433080D01*
X325061Y433050D01*
X325078Y433022D01*
X325090Y432992D01*
X325105Y432962D01*
X326311Y430051D01*
X326321Y430019D01*
X326334Y429989D01*
X326343Y429957D01*
X326353Y429926D01*
X326359Y429894D01*
X326368Y429863D01*
X326983Y426771D01*
X326987Y426739D01*
X326993Y426707D01*
X326996Y426674D01*
X327000Y426641D01*
Y426609D01*
X327002Y426576D01*
Y423424D01*
X327000Y423391D01*
Y423359D01*
X326996Y423326D01*
X326993Y423293D01*
X326987Y423261D01*
X326983Y423229D01*
X326368Y420137D01*
X326359Y420106D01*
X326353Y420074D01*
X326343Y420043D01*
X326334Y420011D01*
X326321Y419981D01*
X326311Y419949D01*
X325105Y417038D01*
X325090Y417008D01*
X325078Y416978D01*
X325061Y416950D01*
X325047Y416920D01*
X325029Y416893D01*
X325012Y416864D01*
X323261Y414244D01*
X323241Y414218D01*
X323223Y414190D01*
X323201Y414166D01*
X323181Y414140D01*
X323158Y414117D01*
X323137Y414092D01*
X322022Y412978D01*
X322022Y412977D01*
X320908Y411863D01*
X320883Y411842D01*
X320860Y411819D01*
X320834Y411799D01*
X320809Y411777D01*
X320782Y411759D01*
X320756Y411739D01*
X318136Y409988D01*
X318107Y409971D01*
X318080Y409953D01*
X318050Y409939D01*
X318022Y409922D01*
X317992Y409910D01*
X317962Y409895D01*
X315051Y408689D01*
X315019Y408678D01*
X314989Y408666D01*
X314957Y408657D01*
X314926Y408647D01*
X314894Y408641D01*
X314862Y408632D01*
X311771Y408017D01*
X311739Y408013D01*
X311707Y408006D01*
X311674Y408004D01*
X311641Y408000D01*
X311609D01*
X311576Y407998D01*
X308424D01*
X308391Y408000D01*
X308359D01*
X308326Y408004D01*
X308293Y408006D01*
X308261Y408013D01*
X308229Y408017D01*
X305137Y408632D01*
X305106Y408641D01*
X305074Y408647D01*
X305043Y408657D01*
X305011Y408666D01*
X304981Y408679D01*
X304949Y408689D01*
X302038Y409895D01*
X302008Y409910D01*
X301978Y409922D01*
X301950Y409939D01*
X301920Y409953D01*
X301893Y409971D01*
X301864Y409988D01*
X299244Y411739D01*
X299218Y411759D01*
X299191Y411777D01*
X299166Y411799D01*
X299140Y411819D01*
X299117Y411842D01*
X299092Y411863D01*
X297978Y412978D01*
X297978Y412978D01*
X296863Y414092D01*
X296842Y414117D01*
X296819Y414140D01*
X296798Y414166D01*
X296777Y414190D01*
X296759Y414218D01*
X296739Y414244D01*
X294988Y416864D01*
X294971Y416893D01*
X294953Y416920D01*
X294939Y416950D01*
X294922Y416978D01*
X294910Y417008D01*
X294895Y417038D01*
X293689Y419949D01*
X293678Y419981D01*
X293666Y420011D01*
X293657Y420042D01*
X293647Y420074D01*
X293640Y420106D01*
X293632Y420137D01*
X293017Y423229D01*
X293013Y423261D01*
X293006Y423293D01*
X293004Y423326D01*
X293000Y423359D01*
Y423391D01*
X292998Y423424D01*
Y426576D01*
X293000Y426609D01*
Y426641D01*
X293004Y426674D01*
X293006Y426707D01*
X293013Y426739D01*
X293017Y426771D01*
X293632Y429863D01*
X293640Y429894D01*
X293647Y429926D01*
X293657Y429957D01*
X293666Y429989D01*
X293678Y430019D01*
X293689Y430051D01*
X294895Y432962D01*
X294910Y432992D01*
X294922Y433022D01*
X294939Y433050D01*
X294953Y433080D01*
X294971Y433107D01*
X294988Y433136D01*
X296739Y435756D01*
X296759Y435782D01*
X296777Y435809D01*
X296799Y435834D01*
X296819Y435860D01*
X296842Y435883D01*
X296863Y435908D01*
X297978Y437022D01*
X297978Y437023D01*
X299092Y438137D01*
X299117Y438158D01*
X299140Y438181D01*
X299166Y438201D01*
X299191Y438223D01*
X299218Y438241D01*
X299244Y438261D01*
X301864Y440012D01*
X301893Y440029D01*
X301920Y440047D01*
X301950Y440061D01*
X301978Y440078D01*
X302008Y440090D01*
X302038Y440105D01*
X304949Y441311D01*
X304981Y441321D01*
X305011Y441334D01*
X305042Y441343D01*
X305074Y441353D01*
X305106Y441359D01*
X305137Y441368D01*
X308229Y441983D01*
X308261Y441987D01*
X308293Y441993D01*
X308326Y441996D01*
X308359Y442000D01*
X308391D01*
X308424Y442002D01*
X311576D01*
X311609Y442000D01*
D02*
G37*
G36*
X181609D02*
X181641D01*
X181674Y441996D01*
X181707Y441993D01*
X181739Y441987D01*
X181771Y441983D01*
X184862Y441368D01*
X184894Y441359D01*
X184926Y441353D01*
X184957Y441343D01*
X184989Y441334D01*
X185019Y441321D01*
X185051Y441311D01*
X187962Y440105D01*
X187992Y440090D01*
X188022Y440078D01*
X188050Y440061D01*
X188080Y440047D01*
X188107Y440029D01*
X188136Y440012D01*
X190756Y438261D01*
X190782Y438241D01*
X190809Y438223D01*
X190834Y438201D01*
X190860Y438181D01*
X190883Y438158D01*
X190908Y438137D01*
X192022Y437022D01*
X192022Y437022D01*
X193137Y435908D01*
X193158Y435883D01*
X193181Y435860D01*
X193202Y435834D01*
X193223Y435809D01*
X193241Y435782D01*
X193261Y435756D01*
X195012Y433136D01*
X195029Y433107D01*
X195047Y433080D01*
X195061Y433050D01*
X195078Y433022D01*
X195090Y432992D01*
X195105Y432962D01*
X196311Y430051D01*
X196322Y430019D01*
X196334Y429989D01*
X196343Y429957D01*
X196353Y429926D01*
X196359Y429894D01*
X196368Y429863D01*
X196983Y426771D01*
X196987Y426739D01*
X196994Y426707D01*
X196996Y426674D01*
X197000Y426641D01*
Y426609D01*
X197002Y426576D01*
Y423424D01*
X197000Y423391D01*
Y423359D01*
X196996Y423326D01*
X196994Y423293D01*
X196987Y423261D01*
X196983Y423229D01*
X196368Y420137D01*
X196359Y420106D01*
X196353Y420074D01*
X196343Y420043D01*
X196334Y420011D01*
X196322Y419981D01*
X196311Y419949D01*
X195105Y417038D01*
X195090Y417008D01*
X195078Y416978D01*
X195061Y416950D01*
X195047Y416920D01*
X195029Y416893D01*
X195012Y416864D01*
X193261Y414244D01*
X193241Y414218D01*
X193223Y414190D01*
X193201Y414166D01*
X193181Y414140D01*
X193158Y414117D01*
X193137Y414092D01*
X192022Y412978D01*
X192022Y412977D01*
X190908Y411863D01*
X190883Y411842D01*
X190860Y411819D01*
X190834Y411799D01*
X190809Y411777D01*
X190782Y411759D01*
X190756Y411739D01*
X188136Y409988D01*
X188107Y409971D01*
X188080Y409953D01*
X188050Y409939D01*
X188022Y409922D01*
X187992Y409910D01*
X187962Y409895D01*
X185051Y408689D01*
X185019Y408678D01*
X184989Y408666D01*
X184957Y408657D01*
X184926Y408647D01*
X184894Y408641D01*
X184862Y408632D01*
X181771Y408017D01*
X181739Y408013D01*
X181707Y408006D01*
X181674Y408004D01*
X181641Y408000D01*
X181609D01*
X181576Y407998D01*
X178424D01*
X178391Y408000D01*
X178359D01*
X178326Y408004D01*
X178293Y408006D01*
X178261Y408013D01*
X178229Y408017D01*
X175137Y408632D01*
X175106Y408641D01*
X175074Y408647D01*
X175043Y408657D01*
X175011Y408666D01*
X174981Y408679D01*
X174949Y408689D01*
X172038Y409895D01*
X172008Y409910D01*
X171978Y409922D01*
X171950Y409939D01*
X171920Y409953D01*
X171893Y409971D01*
X171864Y409988D01*
X169244Y411739D01*
X169218Y411759D01*
X169191Y411777D01*
X169166Y411799D01*
X169140Y411819D01*
X169117Y411842D01*
X169092Y411863D01*
X167978Y412978D01*
X167978Y412978D01*
X166863Y414092D01*
X166842Y414117D01*
X166819Y414140D01*
X166798Y414166D01*
X166777Y414190D01*
X166759Y414218D01*
X166739Y414244D01*
X164988Y416864D01*
X164971Y416893D01*
X164953Y416920D01*
X164939Y416950D01*
X164922Y416978D01*
X164910Y417008D01*
X164895Y417038D01*
X163689Y419949D01*
X163678Y419981D01*
X163666Y420011D01*
X163657Y420042D01*
X163647Y420074D01*
X163640Y420106D01*
X163632Y420137D01*
X163017Y423229D01*
X163013Y423261D01*
X163006Y423293D01*
X163004Y423326D01*
X163000Y423359D01*
Y423391D01*
X162998Y423424D01*
Y426576D01*
X163000Y426609D01*
Y426641D01*
X163004Y426674D01*
X163006Y426707D01*
X163013Y426739D01*
X163017Y426771D01*
X163632Y429863D01*
X163640Y429894D01*
X163647Y429926D01*
X163657Y429957D01*
X163666Y429989D01*
X163678Y430019D01*
X163689Y430051D01*
X164895Y432962D01*
X164910Y432992D01*
X164922Y433022D01*
X164939Y433050D01*
X164953Y433080D01*
X164971Y433107D01*
X164988Y433136D01*
X166739Y435756D01*
X166759Y435782D01*
X166777Y435809D01*
X166799Y435834D01*
X166819Y435860D01*
X166842Y435883D01*
X166863Y435908D01*
X167978Y437022D01*
X167978Y437023D01*
X169092Y438137D01*
X169117Y438158D01*
X169140Y438181D01*
X169166Y438201D01*
X169191Y438223D01*
X169218Y438241D01*
X169244Y438261D01*
X171864Y440012D01*
X171893Y440029D01*
X171920Y440047D01*
X171950Y440061D01*
X171978Y440078D01*
X172008Y440090D01*
X172038Y440105D01*
X174949Y441311D01*
X174981Y441321D01*
X175011Y441334D01*
X175043Y441343D01*
X175074Y441353D01*
X175106Y441359D01*
X175137Y441368D01*
X178229Y441983D01*
X178261Y441987D01*
X178293Y441993D01*
X178326Y441996D01*
X178359Y442000D01*
X178391D01*
X178424Y442002D01*
X181576D01*
X181609Y442000D01*
D02*
G37*
G36*
X51609D02*
X51641D01*
X51674Y441996D01*
X51707Y441993D01*
X51739Y441987D01*
X51771Y441983D01*
X54862Y441368D01*
X54894Y441359D01*
X54926Y441353D01*
X54957Y441343D01*
X54989Y441334D01*
X55019Y441321D01*
X55051Y441311D01*
X57962Y440105D01*
X57992Y440090D01*
X58022Y440078D01*
X58050Y440061D01*
X58080Y440047D01*
X58107Y440029D01*
X58136Y440012D01*
X60756Y438261D01*
X60782Y438241D01*
X60809Y438223D01*
X60834Y438201D01*
X60860Y438181D01*
X60883Y438158D01*
X60908Y438137D01*
X62022Y437022D01*
X62023Y437022D01*
X63137Y435908D01*
X63158Y435883D01*
X63181Y435860D01*
X63201Y435834D01*
X63223Y435809D01*
X63241Y435782D01*
X63261Y435756D01*
X65012Y433136D01*
X65029Y433107D01*
X65047Y433080D01*
X65061Y433050D01*
X65078Y433022D01*
X65090Y432992D01*
X65105Y432962D01*
X66311Y430051D01*
X66322Y430019D01*
X66334Y429989D01*
X66343Y429957D01*
X66353Y429926D01*
X66360Y429894D01*
X66368Y429863D01*
X66983Y426771D01*
X66987Y426739D01*
X66993Y426707D01*
X66996Y426674D01*
X67000Y426641D01*
Y426609D01*
X67002Y426576D01*
Y423424D01*
X67000Y423391D01*
Y423359D01*
X66996Y423326D01*
X66993Y423293D01*
X66987Y423261D01*
X66983Y423229D01*
X66368Y420137D01*
X66360Y420106D01*
X66353Y420074D01*
X66343Y420043D01*
X66334Y420011D01*
X66322Y419981D01*
X66311Y419949D01*
X65105Y417038D01*
X65090Y417008D01*
X65078Y416978D01*
X65061Y416950D01*
X65047Y416920D01*
X65029Y416893D01*
X65012Y416864D01*
X63261Y414244D01*
X63241Y414218D01*
X63223Y414190D01*
X63201Y414166D01*
X63181Y414140D01*
X63158Y414117D01*
X63137Y414092D01*
X62022Y412978D01*
X62022Y412977D01*
X60908Y411863D01*
X60883Y411842D01*
X60860Y411819D01*
X60834Y411799D01*
X60809Y411777D01*
X60782Y411759D01*
X60756Y411739D01*
X58136Y409988D01*
X58107Y409971D01*
X58080Y409953D01*
X58050Y409939D01*
X58022Y409922D01*
X57992Y409910D01*
X57962Y409895D01*
X55051Y408689D01*
X55019Y408678D01*
X54989Y408666D01*
X54957Y408657D01*
X54926Y408647D01*
X54894Y408641D01*
X54862Y408632D01*
X51771Y408017D01*
X51739Y408013D01*
X51707Y408006D01*
X51674Y408004D01*
X51641Y408000D01*
X51609D01*
X51576Y407998D01*
X48424D01*
X48391Y408000D01*
X48359D01*
X48326Y408004D01*
X48293Y408006D01*
X48261Y408013D01*
X48229Y408017D01*
X45138Y408632D01*
X45106Y408641D01*
X45074Y408647D01*
X45043Y408657D01*
X45011Y408666D01*
X44981Y408679D01*
X44949Y408689D01*
X42038Y409895D01*
X42008Y409910D01*
X41978Y409922D01*
X41950Y409939D01*
X41920Y409953D01*
X41893Y409971D01*
X41864Y409988D01*
X39244Y411739D01*
X39218Y411759D01*
X39190Y411777D01*
X39166Y411799D01*
X39140Y411819D01*
X39117Y411842D01*
X39092Y411863D01*
X37978Y412978D01*
X37977Y412978D01*
X36863Y414092D01*
X36842Y414117D01*
X36818Y414140D01*
X36799Y414166D01*
X36777Y414190D01*
X36759Y414218D01*
X36739Y414244D01*
X34988Y416864D01*
X34971Y416893D01*
X34953Y416920D01*
X34938Y416950D01*
X34922Y416978D01*
X34910Y417008D01*
X34895Y417038D01*
X33689Y419949D01*
X33678Y419981D01*
X33666Y420011D01*
X33657Y420042D01*
X33647Y420074D01*
X33640Y420106D01*
X33632Y420137D01*
X33017Y423229D01*
X33013Y423261D01*
X33006Y423293D01*
X33004Y423326D01*
X33000Y423359D01*
Y423391D01*
X32998Y423424D01*
Y426576D01*
X33000Y426609D01*
Y426641D01*
X33004Y426674D01*
X33006Y426707D01*
X33013Y426739D01*
X33017Y426771D01*
X33632Y429863D01*
X33640Y429894D01*
X33647Y429926D01*
X33657Y429957D01*
X33666Y429989D01*
X33679Y430019D01*
X33689Y430051D01*
X34895Y432962D01*
X34910Y432992D01*
X34922Y433022D01*
X34939Y433050D01*
X34953Y433080D01*
X34971Y433107D01*
X34988Y433136D01*
X36739Y435756D01*
X36759Y435782D01*
X36777Y435809D01*
X36799Y435834D01*
X36819Y435860D01*
X36842Y435883D01*
X36863Y435908D01*
X37978Y437022D01*
X37978Y437023D01*
X39092Y438137D01*
X39117Y438158D01*
X39140Y438181D01*
X39166Y438201D01*
X39190Y438223D01*
X39218Y438241D01*
X39244Y438261D01*
X41864Y440012D01*
X41893Y440029D01*
X41920Y440047D01*
X41950Y440061D01*
X41978Y440078D01*
X42008Y440090D01*
X42038Y440105D01*
X44949Y441311D01*
X44981Y441321D01*
X45011Y441334D01*
X45043Y441343D01*
X45074Y441353D01*
X45106Y441359D01*
X45138Y441368D01*
X48229Y441983D01*
X48261Y441987D01*
X48293Y441993D01*
X48326Y441996D01*
X48359Y442000D01*
X48391D01*
X48424Y442002D01*
X51576D01*
X51609Y442000D01*
D02*
G37*
G36*
X541609Y327000D02*
X541641D01*
X541674Y326996D01*
X541707Y326993D01*
X541739Y326987D01*
X541771Y326983D01*
X544863Y326368D01*
X544894Y326359D01*
X544926Y326353D01*
X544957Y326343D01*
X544989Y326334D01*
X545019Y326321D01*
X545051Y326311D01*
X547962Y325105D01*
X547992Y325090D01*
X548022Y325078D01*
X548050Y325061D01*
X548080Y325047D01*
X548107Y325029D01*
X548136Y325012D01*
X550756Y323261D01*
X550782Y323241D01*
X550810Y323223D01*
X550834Y323201D01*
X550860Y323181D01*
X550883Y323158D01*
X550908Y323137D01*
X552022Y322022D01*
X552023Y322022D01*
X553137Y320908D01*
X553158Y320883D01*
X553181Y320860D01*
X553201Y320834D01*
X553223Y320809D01*
X553241Y320782D01*
X553261Y320756D01*
X555012Y318136D01*
X555029Y318107D01*
X555047Y318080D01*
X555061Y318050D01*
X555078Y318022D01*
X555090Y317992D01*
X555105Y317962D01*
X556311Y315051D01*
X556321Y315019D01*
X556334Y314989D01*
X556343Y314957D01*
X556353Y314926D01*
X556359Y314894D01*
X556368Y314862D01*
X556983Y311771D01*
X556987Y311739D01*
X556994Y311707D01*
X556996Y311674D01*
X557000Y311641D01*
Y311609D01*
X557002Y311576D01*
Y308424D01*
X557000Y308391D01*
Y308359D01*
X556996Y308326D01*
X556994Y308293D01*
X556987Y308261D01*
X556983Y308229D01*
X556368Y305137D01*
X556359Y305106D01*
X556353Y305074D01*
X556343Y305043D01*
X556334Y305011D01*
X556321Y304981D01*
X556311Y304949D01*
X555105Y302038D01*
X555090Y302008D01*
X555078Y301978D01*
X555061Y301950D01*
X555047Y301920D01*
X555029Y301893D01*
X555012Y301864D01*
X553261Y299244D01*
X553241Y299218D01*
X553223Y299191D01*
X553201Y299166D01*
X553181Y299140D01*
X553158Y299117D01*
X553137Y299092D01*
X552022Y297978D01*
X552022Y297978D01*
X550908Y296863D01*
X550883Y296842D01*
X550860Y296819D01*
X550834Y296798D01*
X550809Y296777D01*
X550782Y296759D01*
X550756Y296739D01*
X548136Y294988D01*
X548107Y294971D01*
X548080Y294953D01*
X548050Y294939D01*
X548022Y294922D01*
X547992Y294910D01*
X547962Y294895D01*
X545051Y293689D01*
X545019Y293678D01*
X544989Y293666D01*
X544957Y293657D01*
X544926Y293647D01*
X544894Y293640D01*
X544863Y293632D01*
X541771Y293017D01*
X541739Y293013D01*
X541707Y293006D01*
X541674Y293004D01*
X541641Y293000D01*
X541609D01*
X541576Y292998D01*
X538424D01*
X538391Y293000D01*
X538359D01*
X538326Y293004D01*
X538293Y293006D01*
X538261Y293013D01*
X538229Y293017D01*
X535137Y293632D01*
X535106Y293640D01*
X535074Y293647D01*
X535043Y293657D01*
X535011Y293666D01*
X534981Y293678D01*
X534949Y293689D01*
X532038Y294895D01*
X532008Y294910D01*
X531978Y294922D01*
X531950Y294939D01*
X531920Y294953D01*
X531893Y294971D01*
X531864Y294988D01*
X529244Y296739D01*
X529218Y296759D01*
X529190Y296777D01*
X529166Y296799D01*
X529140Y296819D01*
X529117Y296842D01*
X529092Y296863D01*
X527978Y297978D01*
X527977Y297978D01*
X526863Y299092D01*
X526842Y299117D01*
X526819Y299140D01*
X526799Y299166D01*
X526777Y299191D01*
X526759Y299218D01*
X526739Y299244D01*
X524988Y301864D01*
X524971Y301893D01*
X524953Y301920D01*
X524939Y301950D01*
X524922Y301978D01*
X524910Y302008D01*
X524895Y302038D01*
X523689Y304949D01*
X523679Y304981D01*
X523666Y305011D01*
X523657Y305042D01*
X523647Y305074D01*
X523641Y305106D01*
X523632Y305137D01*
X523017Y308229D01*
X523013Y308261D01*
X523007Y308293D01*
X523004Y308326D01*
X523000Y308359D01*
Y308391D01*
X522998Y308424D01*
Y311576D01*
X523000Y311609D01*
Y311641D01*
X523004Y311674D01*
X523007Y311707D01*
X523013Y311739D01*
X523017Y311771D01*
X523632Y314862D01*
X523641Y314894D01*
X523647Y314926D01*
X523657Y314957D01*
X523666Y314989D01*
X523679Y315019D01*
X523689Y315051D01*
X524895Y317962D01*
X524910Y317992D01*
X524922Y318022D01*
X524939Y318050D01*
X524953Y318080D01*
X524971Y318107D01*
X524988Y318136D01*
X526739Y320756D01*
X526759Y320782D01*
X526777Y320809D01*
X526799Y320834D01*
X526819Y320860D01*
X526842Y320883D01*
X526863Y320908D01*
X527978Y322022D01*
X527978Y322023D01*
X529092Y323137D01*
X529117Y323158D01*
X529140Y323181D01*
X529166Y323201D01*
X529191Y323223D01*
X529218Y323241D01*
X529244Y323261D01*
X531864Y325012D01*
X531893Y325029D01*
X531920Y325047D01*
X531950Y325061D01*
X531978Y325078D01*
X532008Y325090D01*
X532038Y325105D01*
X534949Y326311D01*
X534981Y326321D01*
X535011Y326334D01*
X535043Y326343D01*
X535074Y326353D01*
X535106Y326359D01*
X535137Y326368D01*
X538229Y326983D01*
X538261Y326987D01*
X538293Y326993D01*
X538326Y326996D01*
X538359Y327000D01*
X538391D01*
X538424Y327002D01*
X541576D01*
X541609Y327000D01*
D02*
G37*
G36*
X426609D02*
X426641D01*
X426674Y326996D01*
X426707Y326993D01*
X426739Y326987D01*
X426771Y326983D01*
X429863Y326368D01*
X429894Y326359D01*
X429926Y326353D01*
X429957Y326343D01*
X429989Y326334D01*
X430019Y326321D01*
X430051Y326311D01*
X432962Y325105D01*
X432992Y325090D01*
X433022Y325078D01*
X433050Y325061D01*
X433080Y325047D01*
X433107Y325029D01*
X433136Y325012D01*
X435756Y323261D01*
X435782Y323241D01*
X435809Y323223D01*
X435834Y323201D01*
X435860Y323181D01*
X435883Y323158D01*
X435908Y323137D01*
X437022Y322022D01*
X437023Y322022D01*
X438137Y320908D01*
X438158Y320883D01*
X438181Y320860D01*
X438201Y320834D01*
X438223Y320809D01*
X438241Y320782D01*
X438261Y320756D01*
X440012Y318136D01*
X440029Y318107D01*
X440047Y318080D01*
X440061Y318050D01*
X440078Y318022D01*
X440090Y317992D01*
X440105Y317962D01*
X441311Y315051D01*
X441321Y315019D01*
X441334Y314989D01*
X441343Y314957D01*
X441353Y314926D01*
X441359Y314894D01*
X441368Y314862D01*
X441983Y311771D01*
X441987Y311739D01*
X441993Y311707D01*
X441996Y311674D01*
X442000Y311641D01*
Y311609D01*
X442002Y311576D01*
Y308424D01*
X442000Y308391D01*
Y308359D01*
X441996Y308326D01*
X441993Y308293D01*
X441987Y308261D01*
X441983Y308229D01*
X441368Y305137D01*
X441359Y305106D01*
X441353Y305074D01*
X441343Y305043D01*
X441334Y305011D01*
X441321Y304981D01*
X441311Y304949D01*
X440105Y302038D01*
X440090Y302008D01*
X440078Y301978D01*
X440061Y301950D01*
X440047Y301920D01*
X440029Y301893D01*
X440012Y301864D01*
X438261Y299244D01*
X438241Y299218D01*
X438223Y299191D01*
X438201Y299166D01*
X438181Y299140D01*
X438158Y299117D01*
X438137Y299092D01*
X437022Y297978D01*
X437022Y297978D01*
X435908Y296863D01*
X435883Y296842D01*
X435860Y296819D01*
X435834Y296798D01*
X435809Y296777D01*
X435782Y296759D01*
X435756Y296739D01*
X433136Y294988D01*
X433107Y294971D01*
X433080Y294953D01*
X433050Y294939D01*
X433022Y294922D01*
X432992Y294910D01*
X432962Y294895D01*
X430051Y293689D01*
X430019Y293678D01*
X429989Y293666D01*
X429957Y293657D01*
X429926Y293647D01*
X429894Y293640D01*
X429863Y293632D01*
X426771Y293017D01*
X426739Y293013D01*
X426707Y293006D01*
X426674Y293004D01*
X426641Y293000D01*
X426609D01*
X426576Y292998D01*
X423424D01*
X423391Y293000D01*
X423359D01*
X423326Y293004D01*
X423293Y293006D01*
X423261Y293013D01*
X423229Y293017D01*
X420137Y293632D01*
X420106Y293640D01*
X420074Y293647D01*
X420043Y293657D01*
X420011Y293666D01*
X419981Y293678D01*
X419949Y293689D01*
X417038Y294895D01*
X417008Y294910D01*
X416978Y294922D01*
X416950Y294939D01*
X416920Y294953D01*
X416893Y294971D01*
X416864Y294988D01*
X414244Y296739D01*
X414218Y296759D01*
X414190Y296777D01*
X414166Y296799D01*
X414140Y296819D01*
X414117Y296842D01*
X414092Y296863D01*
X412978Y297978D01*
X412977Y297978D01*
X411863Y299092D01*
X411842Y299117D01*
X411819Y299140D01*
X411799Y299166D01*
X411777Y299191D01*
X411759Y299218D01*
X411739Y299244D01*
X409988Y301864D01*
X409971Y301893D01*
X409953Y301920D01*
X409939Y301950D01*
X409922Y301978D01*
X409910Y302008D01*
X409895Y302038D01*
X408689Y304949D01*
X408678Y304981D01*
X408666Y305011D01*
X408657Y305042D01*
X408647Y305074D01*
X408641Y305106D01*
X408632Y305137D01*
X408017Y308229D01*
X408013Y308261D01*
X408006Y308293D01*
X408004Y308326D01*
X408000Y308359D01*
Y308391D01*
X407998Y308424D01*
Y311576D01*
X408000Y311609D01*
Y311641D01*
X408004Y311674D01*
X408006Y311707D01*
X408013Y311739D01*
X408017Y311771D01*
X408632Y314862D01*
X408641Y314894D01*
X408647Y314926D01*
X408657Y314957D01*
X408666Y314989D01*
X408679Y315019D01*
X408689Y315051D01*
X409895Y317962D01*
X409910Y317992D01*
X409922Y318022D01*
X409939Y318050D01*
X409953Y318080D01*
X409971Y318107D01*
X409988Y318136D01*
X411739Y320756D01*
X411759Y320782D01*
X411777Y320809D01*
X411799Y320834D01*
X411819Y320860D01*
X411842Y320883D01*
X411863Y320908D01*
X412978Y322022D01*
X412978Y322023D01*
X414092Y323137D01*
X414117Y323158D01*
X414140Y323181D01*
X414166Y323201D01*
X414190Y323223D01*
X414218Y323241D01*
X414244Y323261D01*
X416864Y325012D01*
X416893Y325029D01*
X416920Y325047D01*
X416950Y325061D01*
X416978Y325078D01*
X417008Y325090D01*
X417038Y325105D01*
X419949Y326311D01*
X419981Y326321D01*
X420011Y326334D01*
X420042Y326343D01*
X420074Y326353D01*
X420106Y326359D01*
X420137Y326368D01*
X423229Y326983D01*
X423261Y326987D01*
X423293Y326993D01*
X423326Y326996D01*
X423359Y327000D01*
X423391D01*
X423424Y327002D01*
X426576D01*
X426609Y327000D01*
D02*
G37*
G36*
X311609D02*
X311641D01*
X311674Y326996D01*
X311707Y326993D01*
X311739Y326987D01*
X311771Y326983D01*
X314862Y326368D01*
X314894Y326359D01*
X314926Y326353D01*
X314957Y326343D01*
X314989Y326334D01*
X315019Y326321D01*
X315051Y326311D01*
X317962Y325105D01*
X317992Y325090D01*
X318022Y325078D01*
X318050Y325061D01*
X318080Y325047D01*
X318107Y325029D01*
X318136Y325012D01*
X320756Y323261D01*
X320782Y323241D01*
X320809Y323223D01*
X320834Y323201D01*
X320860Y323181D01*
X320883Y323158D01*
X320908Y323137D01*
X322022Y322022D01*
X322023Y322022D01*
X323137Y320908D01*
X323158Y320883D01*
X323181Y320860D01*
X323201Y320834D01*
X323223Y320809D01*
X323241Y320782D01*
X323261Y320756D01*
X325012Y318136D01*
X325029Y318107D01*
X325047Y318080D01*
X325061Y318050D01*
X325078Y318022D01*
X325090Y317992D01*
X325105Y317962D01*
X326311Y315051D01*
X326321Y315019D01*
X326334Y314989D01*
X326343Y314957D01*
X326353Y314926D01*
X326359Y314894D01*
X326368Y314862D01*
X326983Y311771D01*
X326987Y311739D01*
X326993Y311707D01*
X326996Y311674D01*
X327000Y311641D01*
Y311609D01*
X327002Y311576D01*
Y308424D01*
X327000Y308391D01*
Y308359D01*
X326996Y308326D01*
X326993Y308293D01*
X326987Y308261D01*
X326983Y308229D01*
X326368Y305137D01*
X326359Y305106D01*
X326353Y305074D01*
X326343Y305043D01*
X326334Y305011D01*
X326321Y304981D01*
X326311Y304949D01*
X325105Y302038D01*
X325090Y302008D01*
X325078Y301978D01*
X325061Y301950D01*
X325047Y301920D01*
X325029Y301893D01*
X325012Y301864D01*
X323261Y299244D01*
X323241Y299218D01*
X323223Y299191D01*
X323201Y299166D01*
X323181Y299140D01*
X323158Y299117D01*
X323137Y299092D01*
X322022Y297978D01*
X322022Y297978D01*
X320908Y296863D01*
X320883Y296842D01*
X320860Y296819D01*
X320834Y296798D01*
X320809Y296777D01*
X320782Y296759D01*
X320756Y296739D01*
X318136Y294988D01*
X318107Y294971D01*
X318080Y294953D01*
X318050Y294939D01*
X318022Y294922D01*
X317992Y294910D01*
X317962Y294895D01*
X315051Y293689D01*
X315019Y293678D01*
X314989Y293666D01*
X314957Y293657D01*
X314926Y293647D01*
X314894Y293640D01*
X314862Y293632D01*
X311771Y293017D01*
X311739Y293013D01*
X311707Y293006D01*
X311674Y293004D01*
X311641Y293000D01*
X311609D01*
X311576Y292998D01*
X308424D01*
X308391Y293000D01*
X308359D01*
X308326Y293004D01*
X308293Y293006D01*
X308261Y293013D01*
X308229Y293017D01*
X305137Y293632D01*
X305106Y293640D01*
X305074Y293647D01*
X305043Y293657D01*
X305011Y293666D01*
X304981Y293678D01*
X304949Y293689D01*
X302038Y294895D01*
X302008Y294910D01*
X301978Y294922D01*
X301950Y294939D01*
X301920Y294953D01*
X301893Y294971D01*
X301864Y294988D01*
X299244Y296739D01*
X299218Y296759D01*
X299191Y296777D01*
X299166Y296799D01*
X299140Y296819D01*
X299117Y296842D01*
X299092Y296863D01*
X297978Y297978D01*
X297978Y297978D01*
X296863Y299092D01*
X296842Y299117D01*
X296819Y299140D01*
X296798Y299166D01*
X296777Y299191D01*
X296759Y299218D01*
X296739Y299244D01*
X294988Y301864D01*
X294971Y301893D01*
X294953Y301920D01*
X294939Y301950D01*
X294922Y301978D01*
X294910Y302008D01*
X294895Y302038D01*
X293689Y304949D01*
X293678Y304981D01*
X293666Y305011D01*
X293657Y305042D01*
X293647Y305074D01*
X293640Y305106D01*
X293632Y305137D01*
X293017Y308229D01*
X293013Y308261D01*
X293006Y308293D01*
X293004Y308326D01*
X293000Y308359D01*
Y308391D01*
X292998Y308424D01*
Y311576D01*
X293000Y311609D01*
Y311641D01*
X293004Y311674D01*
X293006Y311707D01*
X293013Y311739D01*
X293017Y311771D01*
X293632Y314862D01*
X293640Y314894D01*
X293647Y314926D01*
X293657Y314957D01*
X293666Y314989D01*
X293678Y315019D01*
X293689Y315051D01*
X294895Y317962D01*
X294910Y317992D01*
X294922Y318022D01*
X294939Y318050D01*
X294953Y318080D01*
X294971Y318107D01*
X294988Y318136D01*
X296739Y320756D01*
X296759Y320782D01*
X296777Y320809D01*
X296799Y320834D01*
X296819Y320860D01*
X296842Y320883D01*
X296863Y320908D01*
X297978Y322022D01*
X297978Y322023D01*
X299092Y323137D01*
X299117Y323158D01*
X299140Y323181D01*
X299166Y323201D01*
X299191Y323223D01*
X299218Y323241D01*
X299244Y323261D01*
X301864Y325012D01*
X301893Y325029D01*
X301920Y325047D01*
X301950Y325061D01*
X301978Y325078D01*
X302008Y325090D01*
X302038Y325105D01*
X304949Y326311D01*
X304981Y326321D01*
X305011Y326334D01*
X305042Y326343D01*
X305074Y326353D01*
X305106Y326359D01*
X305137Y326368D01*
X308229Y326983D01*
X308261Y326987D01*
X308293Y326993D01*
X308326Y326996D01*
X308359Y327000D01*
X308391D01*
X308424Y327002D01*
X311576D01*
X311609Y327000D01*
D02*
G37*
G36*
X180559Y197069D02*
X180592D01*
X180624Y197064D01*
X180657Y197062D01*
X183782Y196651D01*
X183813Y196645D01*
X183846Y196640D01*
X183878Y196632D01*
X183910Y196625D01*
X183941Y196615D01*
X183973Y196606D01*
X186957Y195593D01*
X186988Y195581D01*
X187019Y195570D01*
X187048Y195556D01*
X187078Y195543D01*
X187107Y195527D01*
X187136Y195512D01*
X189866Y193936D01*
X189893Y193918D01*
X189921Y193902D01*
X189947Y193882D01*
X189975Y193864D01*
X190000Y193842D01*
X190026Y193822D01*
X192395Y191744D01*
X192418Y191721D01*
X192443Y191699D01*
X192465Y191674D01*
X192488Y191651D01*
X192508Y191625D01*
X192529Y191600D01*
X194448Y189100D01*
X194466Y189073D01*
X194486Y189047D01*
X194503Y189018D01*
X194521Y188991D01*
X194535Y188962D01*
X194552Y188933D01*
X195946Y186106D01*
X195958Y186076D01*
X195973Y186047D01*
X195983Y186016D01*
X195996Y185985D01*
X196004Y185954D01*
X196015Y185923D01*
X196423Y184401D01*
X196423Y184401D01*
X196831Y182878D01*
X196837Y182846D01*
X196845Y182814D01*
X196850Y182782D01*
X196856Y182750D01*
X196858Y182717D01*
X196863Y182684D01*
X197069Y179540D01*
Y179507D01*
X197071Y179474D01*
X197069Y179441D01*
Y179408D01*
X197064Y179376D01*
X197062Y179343D01*
X196651Y176218D01*
X196645Y176186D01*
X196640Y176154D01*
X196632Y176122D01*
X196625Y176090D01*
X196615Y176059D01*
X196606Y176027D01*
X195593Y173043D01*
X195581Y173012D01*
X195570Y172981D01*
X195556Y172952D01*
X195543Y172922D01*
X195527Y172893D01*
X195512Y172864D01*
X193936Y170134D01*
X193918Y170107D01*
X193902Y170079D01*
X193882Y170053D01*
X193864Y170025D01*
X193842Y170000D01*
X193822Y169974D01*
X191744Y167605D01*
X191721Y167582D01*
X191699Y167557D01*
X191674Y167535D01*
X191651Y167512D01*
X191625Y167492D01*
X191600Y167471D01*
X189100Y165552D01*
X189073Y165534D01*
X189047Y165514D01*
X189018Y165497D01*
X188991Y165479D01*
X188962Y165465D01*
X188933Y165448D01*
X186106Y164054D01*
X186076Y164042D01*
X186047Y164027D01*
X186016Y164017D01*
X185985Y164004D01*
X185954Y163996D01*
X185923Y163985D01*
X184401Y163577D01*
X184401Y163577D01*
X182878Y163169D01*
X182846Y163163D01*
X182814Y163155D01*
X182782Y163150D01*
X182750Y163144D01*
X182717Y163142D01*
X182684Y163137D01*
X179540Y162931D01*
X179507D01*
X179474Y162929D01*
X179441Y162931D01*
X179408D01*
X179376Y162936D01*
X179343Y162938D01*
X176218Y163349D01*
X176186Y163355D01*
X176154Y163360D01*
X176122Y163368D01*
X176090Y163375D01*
X176059Y163385D01*
X176027Y163394D01*
X173043Y164407D01*
X173012Y164419D01*
X172981Y164430D01*
X172952Y164444D01*
X172922Y164457D01*
X172893Y164473D01*
X172864Y164488D01*
X170134Y166064D01*
X170107Y166082D01*
X170079Y166098D01*
X170053Y166118D01*
X170025Y166136D01*
X170000Y166158D01*
X169974Y166178D01*
X167605Y168256D01*
X167582Y168279D01*
X167557Y168301D01*
X167535Y168326D01*
X167512Y168349D01*
X167492Y168375D01*
X167471Y168400D01*
X165552Y170900D01*
X165534Y170927D01*
X165514Y170953D01*
X165497Y170982D01*
X165479Y171009D01*
X165465Y171038D01*
X165448Y171067D01*
X164054Y173894D01*
X164042Y173924D01*
X164027Y173953D01*
X164017Y173984D01*
X164004Y174015D01*
X163996Y174046D01*
X163985Y174077D01*
X163577Y175599D01*
X163577Y175599D01*
X163169Y177122D01*
X163163Y177154D01*
X163155Y177185D01*
X163150Y177218D01*
X163144Y177250D01*
X163142Y177283D01*
X163137Y177316D01*
X162931Y180460D01*
Y180493D01*
X162929Y180526D01*
X162931Y180559D01*
Y180592D01*
X162936Y180624D01*
X162938Y180657D01*
X163349Y183782D01*
X163355Y183813D01*
X163360Y183846D01*
X163368Y183878D01*
X163375Y183910D01*
X163385Y183941D01*
X163394Y183973D01*
X164407Y186957D01*
X164419Y186988D01*
X164430Y187019D01*
X164444Y187048D01*
X164457Y187078D01*
X164473Y187107D01*
X164488Y187136D01*
X166064Y189866D01*
X166082Y189893D01*
X166098Y189921D01*
X166118Y189947D01*
X166136Y189975D01*
X166158Y190000D01*
X166178Y190026D01*
X168256Y192395D01*
X168279Y192418D01*
X168301Y192443D01*
X168326Y192465D01*
X168349Y192488D01*
X168375Y192508D01*
X168400Y192529D01*
X170900Y194448D01*
X170927Y194466D01*
X170953Y194486D01*
X170982Y194503D01*
X171009Y194521D01*
X171038Y194535D01*
X171067Y194552D01*
X173894Y195946D01*
X173924Y195958D01*
X173953Y195973D01*
X173984Y195983D01*
X174015Y195996D01*
X174046Y196004D01*
X174077Y196015D01*
X175599Y196423D01*
X175599Y196423D01*
X177122Y196831D01*
X177154Y196837D01*
X177185Y196845D01*
X177218Y196850D01*
X177250Y196856D01*
X177283Y196858D01*
X177316Y196863D01*
X180460Y197069D01*
X180493D01*
X180526Y197071D01*
X180559Y197069D01*
D02*
G37*
G36*
X671609Y197000D02*
X671641D01*
X671674Y196996D01*
X671707Y196994D01*
X671739Y196987D01*
X671771Y196983D01*
X674863Y196368D01*
X674894Y196359D01*
X674926Y196353D01*
X674957Y196343D01*
X674989Y196334D01*
X675020Y196322D01*
X675051Y196311D01*
X677962Y195105D01*
X677992Y195090D01*
X678022Y195078D01*
X678050Y195061D01*
X678080Y195047D01*
X678107Y195029D01*
X678136Y195012D01*
X680756Y193261D01*
X680782Y193241D01*
X680809Y193223D01*
X680834Y193201D01*
X680860Y193181D01*
X680883Y193158D01*
X680908Y193137D01*
X682022Y192022D01*
X682022Y192022D01*
X683137Y190908D01*
X683158Y190883D01*
X683181Y190860D01*
X683202Y190834D01*
X683223Y190809D01*
X683241Y190782D01*
X683261Y190756D01*
X685012Y188136D01*
X685029Y188107D01*
X685047Y188080D01*
X685061Y188050D01*
X685078Y188022D01*
X685090Y187992D01*
X685105Y187962D01*
X686311Y185051D01*
X686321Y185019D01*
X686334Y184989D01*
X686343Y184957D01*
X686353Y184926D01*
X686359Y184894D01*
X686368Y184862D01*
X686983Y181771D01*
X686987Y181739D01*
X686993Y181707D01*
X686996Y181674D01*
X687000Y181641D01*
Y181609D01*
X687002Y181576D01*
Y178424D01*
X687000Y178391D01*
Y178359D01*
X686996Y178326D01*
X686993Y178293D01*
X686987Y178261D01*
X686983Y178229D01*
X686368Y175137D01*
X686359Y175106D01*
X686353Y175074D01*
X686343Y175043D01*
X686334Y175011D01*
X686321Y174981D01*
X686311Y174949D01*
X685105Y172038D01*
X685090Y172008D01*
X685078Y171978D01*
X685061Y171950D01*
X685047Y171920D01*
X685029Y171893D01*
X685012Y171864D01*
X683261Y169244D01*
X683241Y169218D01*
X683223Y169191D01*
X683201Y169166D01*
X683181Y169140D01*
X683158Y169117D01*
X683137Y169092D01*
X682022Y167978D01*
X682022Y167978D01*
X680908Y166863D01*
X680883Y166842D01*
X680860Y166819D01*
X680834Y166798D01*
X680809Y166777D01*
X680782Y166759D01*
X680756Y166739D01*
X678136Y164988D01*
X678107Y164971D01*
X678080Y164953D01*
X678050Y164939D01*
X678022Y164922D01*
X677992Y164910D01*
X677962Y164895D01*
X675051Y163689D01*
X675019Y163678D01*
X674989Y163666D01*
X674957Y163657D01*
X674926Y163647D01*
X674894Y163640D01*
X674863Y163632D01*
X671771Y163017D01*
X671739Y163013D01*
X671707Y163006D01*
X671674Y163004D01*
X671641Y163000D01*
X671609D01*
X671576Y162998D01*
X668424D01*
X668391Y163000D01*
X668359D01*
X668326Y163004D01*
X668293Y163006D01*
X668261Y163013D01*
X668229Y163017D01*
X665137Y163632D01*
X665106Y163640D01*
X665074Y163647D01*
X665043Y163657D01*
X665011Y163666D01*
X664980Y163678D01*
X664949Y163689D01*
X662038Y164895D01*
X662008Y164910D01*
X661978Y164922D01*
X661950Y164939D01*
X661920Y164953D01*
X661893Y164971D01*
X661864Y164988D01*
X659244Y166739D01*
X659218Y166759D01*
X659191Y166777D01*
X659166Y166799D01*
X659140Y166819D01*
X659117Y166842D01*
X659092Y166863D01*
X657978Y167978D01*
X657978Y167978D01*
X656863Y169092D01*
X656842Y169117D01*
X656818Y169140D01*
X656798Y169166D01*
X656777Y169191D01*
X656759Y169218D01*
X656739Y169244D01*
X654988Y171864D01*
X654971Y171893D01*
X654953Y171920D01*
X654939Y171950D01*
X654922Y171978D01*
X654910Y172008D01*
X654895Y172038D01*
X653689Y174949D01*
X653678Y174981D01*
X653666Y175011D01*
X653657Y175043D01*
X653647Y175074D01*
X653641Y175106D01*
X653632Y175137D01*
X653017Y178229D01*
X653013Y178261D01*
X653007Y178293D01*
X653004Y178326D01*
X653000Y178359D01*
Y178391D01*
X652998Y178424D01*
Y181576D01*
X653000Y181609D01*
Y181641D01*
X653004Y181674D01*
X653007Y181707D01*
X653013Y181739D01*
X653017Y181771D01*
X653632Y184862D01*
X653641Y184894D01*
X653647Y184926D01*
X653657Y184957D01*
X653666Y184989D01*
X653679Y185019D01*
X653689Y185051D01*
X654895Y187962D01*
X654910Y187992D01*
X654922Y188022D01*
X654939Y188050D01*
X654953Y188080D01*
X654971Y188107D01*
X654988Y188136D01*
X656739Y190756D01*
X656759Y190782D01*
X656777Y190809D01*
X656799Y190834D01*
X656819Y190860D01*
X656842Y190883D01*
X656863Y190908D01*
X657978Y192022D01*
X657978Y192022D01*
X659092Y193137D01*
X659117Y193158D01*
X659140Y193181D01*
X659166Y193202D01*
X659191Y193223D01*
X659218Y193241D01*
X659244Y193261D01*
X661864Y195012D01*
X661893Y195029D01*
X661920Y195047D01*
X661950Y195061D01*
X661978Y195078D01*
X662008Y195090D01*
X662038Y195105D01*
X664949Y196311D01*
X664981Y196322D01*
X665011Y196334D01*
X665043Y196343D01*
X665074Y196353D01*
X665106Y196359D01*
X665137Y196368D01*
X668229Y196983D01*
X668261Y196987D01*
X668293Y196994D01*
X668326Y196996D01*
X668359Y197000D01*
X668391D01*
X668424Y197002D01*
X671576D01*
X671609Y197000D01*
D02*
G37*
G36*
X426609D02*
X426641D01*
X426674Y196996D01*
X426707Y196994D01*
X426739Y196987D01*
X426771Y196983D01*
X429863Y196368D01*
X429894Y196359D01*
X429926Y196353D01*
X429957Y196343D01*
X429989Y196334D01*
X430019Y196322D01*
X430051Y196311D01*
X432962Y195105D01*
X432992Y195090D01*
X433022Y195078D01*
X433050Y195061D01*
X433080Y195047D01*
X433107Y195029D01*
X433136Y195012D01*
X435756Y193261D01*
X435782Y193241D01*
X435809Y193223D01*
X435834Y193201D01*
X435860Y193181D01*
X435883Y193158D01*
X435908Y193137D01*
X437022Y192022D01*
X437023Y192022D01*
X438137Y190908D01*
X438158Y190883D01*
X438181Y190860D01*
X438201Y190834D01*
X438223Y190809D01*
X438241Y190782D01*
X438261Y190756D01*
X440012Y188136D01*
X440029Y188107D01*
X440047Y188080D01*
X440061Y188050D01*
X440078Y188022D01*
X440090Y187992D01*
X440105Y187962D01*
X441311Y185051D01*
X441321Y185019D01*
X441334Y184989D01*
X441343Y184957D01*
X441353Y184926D01*
X441359Y184894D01*
X441368Y184862D01*
X441983Y181771D01*
X441987Y181739D01*
X441993Y181707D01*
X441996Y181674D01*
X442000Y181641D01*
Y181609D01*
X442002Y181576D01*
Y178424D01*
X442000Y178391D01*
Y178359D01*
X441996Y178326D01*
X441993Y178293D01*
X441987Y178261D01*
X441983Y178229D01*
X441368Y175137D01*
X441359Y175106D01*
X441353Y175074D01*
X441343Y175043D01*
X441334Y175011D01*
X441321Y174981D01*
X441311Y174949D01*
X440105Y172038D01*
X440090Y172008D01*
X440078Y171978D01*
X440061Y171950D01*
X440047Y171920D01*
X440029Y171893D01*
X440012Y171864D01*
X438261Y169244D01*
X438241Y169218D01*
X438223Y169191D01*
X438201Y169166D01*
X438181Y169140D01*
X438158Y169117D01*
X438137Y169092D01*
X437022Y167978D01*
X437022Y167978D01*
X435908Y166863D01*
X435883Y166842D01*
X435860Y166819D01*
X435834Y166798D01*
X435809Y166777D01*
X435782Y166759D01*
X435756Y166739D01*
X433136Y164988D01*
X433107Y164971D01*
X433080Y164953D01*
X433050Y164939D01*
X433022Y164922D01*
X432992Y164910D01*
X432962Y164895D01*
X430051Y163689D01*
X430019Y163678D01*
X429989Y163666D01*
X429957Y163657D01*
X429926Y163647D01*
X429894Y163640D01*
X429863Y163632D01*
X426771Y163017D01*
X426739Y163013D01*
X426707Y163006D01*
X426674Y163004D01*
X426641Y163000D01*
X426609D01*
X426576Y162998D01*
X423424D01*
X423391Y163000D01*
X423359D01*
X423326Y163004D01*
X423293Y163006D01*
X423261Y163013D01*
X423229Y163017D01*
X420137Y163632D01*
X420106Y163640D01*
X420074Y163647D01*
X420043Y163657D01*
X420011Y163666D01*
X419981Y163678D01*
X419949Y163689D01*
X417038Y164895D01*
X417008Y164910D01*
X416978Y164922D01*
X416950Y164939D01*
X416920Y164953D01*
X416893Y164971D01*
X416864Y164988D01*
X414244Y166739D01*
X414218Y166759D01*
X414190Y166777D01*
X414166Y166799D01*
X414140Y166819D01*
X414117Y166842D01*
X414092Y166863D01*
X412978Y167978D01*
X412977Y167978D01*
X411863Y169092D01*
X411842Y169117D01*
X411819Y169140D01*
X411799Y169166D01*
X411777Y169191D01*
X411759Y169218D01*
X411739Y169244D01*
X409988Y171864D01*
X409971Y171893D01*
X409953Y171920D01*
X409939Y171950D01*
X409922Y171978D01*
X409910Y172008D01*
X409895Y172038D01*
X408689Y174949D01*
X408678Y174981D01*
X408666Y175011D01*
X408657Y175043D01*
X408647Y175074D01*
X408641Y175106D01*
X408632Y175137D01*
X408017Y178229D01*
X408013Y178261D01*
X408006Y178293D01*
X408004Y178326D01*
X408000Y178359D01*
Y178391D01*
X407998Y178424D01*
Y181576D01*
X408000Y181609D01*
Y181641D01*
X408004Y181674D01*
X408006Y181707D01*
X408013Y181739D01*
X408017Y181771D01*
X408632Y184862D01*
X408641Y184894D01*
X408647Y184926D01*
X408657Y184957D01*
X408666Y184989D01*
X408679Y185019D01*
X408689Y185051D01*
X409895Y187962D01*
X409910Y187992D01*
X409922Y188022D01*
X409939Y188050D01*
X409953Y188080D01*
X409971Y188107D01*
X409988Y188136D01*
X411739Y190756D01*
X411759Y190782D01*
X411777Y190809D01*
X411799Y190834D01*
X411819Y190860D01*
X411842Y190883D01*
X411863Y190908D01*
X412978Y192022D01*
X412978Y192022D01*
X414092Y193137D01*
X414117Y193158D01*
X414140Y193181D01*
X414166Y193202D01*
X414190Y193223D01*
X414218Y193241D01*
X414244Y193261D01*
X416864Y195012D01*
X416893Y195029D01*
X416920Y195047D01*
X416950Y195061D01*
X416978Y195078D01*
X417008Y195090D01*
X417038Y195105D01*
X419949Y196311D01*
X419981Y196322D01*
X420011Y196334D01*
X420042Y196343D01*
X420074Y196353D01*
X420106Y196359D01*
X420137Y196368D01*
X423229Y196983D01*
X423261Y196987D01*
X423293Y196994D01*
X423326Y196996D01*
X423359Y197000D01*
X423391D01*
X423424Y197002D01*
X426576D01*
X426609Y197000D01*
D02*
G37*
G36*
X801609Y67000D02*
X801641D01*
X801674Y66996D01*
X801707Y66993D01*
X801739Y66987D01*
X801771Y66983D01*
X804863Y66368D01*
X804894Y66360D01*
X804926Y66353D01*
X804957Y66343D01*
X804989Y66334D01*
X805020Y66322D01*
X805051Y66311D01*
X807962Y65105D01*
X807992Y65090D01*
X808022Y65078D01*
X808050Y65061D01*
X808080Y65047D01*
X808107Y65029D01*
X808136Y65012D01*
X810756Y63261D01*
X810782Y63241D01*
X810809Y63223D01*
X810834Y63201D01*
X810860Y63181D01*
X810883Y63158D01*
X810908Y63137D01*
X812022Y62022D01*
X812022Y62022D01*
X813137Y60908D01*
X813158Y60883D01*
X813181Y60860D01*
X813202Y60834D01*
X813223Y60809D01*
X813241Y60782D01*
X813261Y60756D01*
X815012Y58136D01*
X815029Y58107D01*
X815047Y58080D01*
X815061Y58050D01*
X815078Y58022D01*
X815090Y57992D01*
X815105Y57962D01*
X816311Y55051D01*
X816321Y55019D01*
X816334Y54989D01*
X816343Y54957D01*
X816353Y54926D01*
X816359Y54894D01*
X816368Y54862D01*
X816983Y51771D01*
X816987Y51739D01*
X816993Y51707D01*
X816996Y51674D01*
X817000Y51641D01*
Y51609D01*
X817002Y51576D01*
Y48424D01*
X817000Y48391D01*
Y48359D01*
X816996Y48326D01*
X816993Y48293D01*
X816987Y48261D01*
X816983Y48229D01*
X816368Y45138D01*
X816359Y45106D01*
X816353Y45074D01*
X816343Y45043D01*
X816334Y45011D01*
X816321Y44981D01*
X816311Y44949D01*
X815105Y42038D01*
X815090Y42008D01*
X815078Y41978D01*
X815061Y41950D01*
X815047Y41920D01*
X815029Y41893D01*
X815012Y41864D01*
X813261Y39244D01*
X813241Y39218D01*
X813223Y39190D01*
X813201Y39166D01*
X813181Y39140D01*
X813158Y39117D01*
X813137Y39092D01*
X812022Y37978D01*
X812022Y37977D01*
X810908Y36863D01*
X810883Y36842D01*
X810860Y36818D01*
X810834Y36799D01*
X810809Y36777D01*
X810782Y36759D01*
X810756Y36739D01*
X808136Y34988D01*
X808107Y34971D01*
X808080Y34953D01*
X808050Y34938D01*
X808022Y34922D01*
X807992Y34910D01*
X807962Y34895D01*
X805051Y33689D01*
X805019Y33678D01*
X804989Y33666D01*
X804957Y33657D01*
X804926Y33647D01*
X804894Y33640D01*
X804863Y33632D01*
X801771Y33017D01*
X801739Y33013D01*
X801707Y33006D01*
X801674Y33004D01*
X801641Y33000D01*
X801609D01*
X801576Y32998D01*
X798424D01*
X798391Y33000D01*
X798359D01*
X798326Y33004D01*
X798293Y33006D01*
X798261Y33013D01*
X798229Y33017D01*
X795137Y33632D01*
X795106Y33640D01*
X795074Y33647D01*
X795043Y33657D01*
X795011Y33666D01*
X794980Y33679D01*
X794949Y33689D01*
X792038Y34895D01*
X792008Y34910D01*
X791978Y34922D01*
X791949Y34939D01*
X791920Y34953D01*
X791893Y34971D01*
X791864Y34988D01*
X789244Y36739D01*
X789218Y36759D01*
X789191Y36777D01*
X789166Y36799D01*
X789140Y36819D01*
X789117Y36842D01*
X789092Y36863D01*
X787978Y37978D01*
X787978Y37978D01*
X786863Y39092D01*
X786842Y39117D01*
X786818Y39140D01*
X786798Y39166D01*
X786777Y39190D01*
X786759Y39218D01*
X786739Y39244D01*
X784988Y41864D01*
X784971Y41893D01*
X784953Y41920D01*
X784939Y41950D01*
X784922Y41978D01*
X784910Y42008D01*
X784895Y42038D01*
X783689Y44949D01*
X783678Y44981D01*
X783666Y45011D01*
X783657Y45043D01*
X783647Y45074D01*
X783641Y45106D01*
X783632Y45138D01*
X783017Y48229D01*
X783013Y48261D01*
X783007Y48293D01*
X783004Y48326D01*
X783000Y48359D01*
Y48391D01*
X782998Y48424D01*
Y51576D01*
X783000Y51609D01*
Y51641D01*
X783004Y51674D01*
X783007Y51707D01*
X783013Y51739D01*
X783017Y51771D01*
X783632Y54862D01*
X783641Y54894D01*
X783647Y54926D01*
X783657Y54957D01*
X783666Y54989D01*
X783679Y55019D01*
X783689Y55051D01*
X784895Y57962D01*
X784910Y57992D01*
X784922Y58022D01*
X784939Y58050D01*
X784953Y58080D01*
X784971Y58107D01*
X784988Y58136D01*
X786739Y60756D01*
X786759Y60782D01*
X786777Y60809D01*
X786799Y60834D01*
X786819Y60860D01*
X786842Y60883D01*
X786863Y60908D01*
X787978Y62022D01*
X787978Y62023D01*
X789092Y63137D01*
X789117Y63158D01*
X789140Y63181D01*
X789166Y63201D01*
X789191Y63223D01*
X789218Y63241D01*
X789244Y63261D01*
X791864Y65012D01*
X791893Y65029D01*
X791920Y65047D01*
X791950Y65061D01*
X791978Y65078D01*
X792008Y65090D01*
X792038Y65105D01*
X794949Y66311D01*
X794981Y66322D01*
X795011Y66334D01*
X795043Y66343D01*
X795074Y66353D01*
X795106Y66360D01*
X795137Y66368D01*
X798229Y66983D01*
X798261Y66987D01*
X798293Y66993D01*
X798326Y66996D01*
X798359Y67000D01*
X798391D01*
X798424Y67002D01*
X801576D01*
X801609Y67000D01*
D02*
G37*
G36*
X426609D02*
X426641D01*
X426674Y66996D01*
X426707Y66993D01*
X426739Y66987D01*
X426771Y66983D01*
X429863Y66368D01*
X429894Y66360D01*
X429926Y66353D01*
X429957Y66343D01*
X429989Y66334D01*
X430019Y66322D01*
X430051Y66311D01*
X432962Y65105D01*
X432992Y65090D01*
X433022Y65078D01*
X433050Y65061D01*
X433080Y65047D01*
X433107Y65029D01*
X433136Y65012D01*
X435756Y63261D01*
X435782Y63241D01*
X435809Y63223D01*
X435834Y63201D01*
X435860Y63181D01*
X435883Y63158D01*
X435908Y63137D01*
X437022Y62022D01*
X437023Y62022D01*
X438137Y60908D01*
X438158Y60883D01*
X438181Y60860D01*
X438201Y60834D01*
X438223Y60809D01*
X438241Y60782D01*
X438261Y60756D01*
X440012Y58136D01*
X440029Y58107D01*
X440047Y58080D01*
X440061Y58050D01*
X440078Y58022D01*
X440090Y57992D01*
X440105Y57962D01*
X441311Y55051D01*
X441321Y55019D01*
X441334Y54989D01*
X441343Y54957D01*
X441353Y54926D01*
X441359Y54894D01*
X441368Y54862D01*
X441983Y51771D01*
X441987Y51739D01*
X441993Y51707D01*
X441996Y51674D01*
X442000Y51641D01*
Y51609D01*
X442002Y51576D01*
Y48424D01*
X442000Y48391D01*
Y48359D01*
X441996Y48326D01*
X441993Y48293D01*
X441987Y48261D01*
X441983Y48229D01*
X441368Y45138D01*
X441359Y45106D01*
X441353Y45074D01*
X441343Y45043D01*
X441334Y45011D01*
X441321Y44981D01*
X441311Y44949D01*
X440105Y42038D01*
X440090Y42008D01*
X440078Y41978D01*
X440061Y41950D01*
X440047Y41920D01*
X440029Y41893D01*
X440012Y41864D01*
X438261Y39244D01*
X438241Y39218D01*
X438223Y39190D01*
X438201Y39166D01*
X438181Y39140D01*
X438158Y39117D01*
X438137Y39092D01*
X437022Y37978D01*
X437022Y37977D01*
X435908Y36863D01*
X435883Y36842D01*
X435860Y36818D01*
X435834Y36799D01*
X435809Y36777D01*
X435782Y36759D01*
X435756Y36739D01*
X433136Y34988D01*
X433107Y34971D01*
X433080Y34953D01*
X433050Y34938D01*
X433022Y34922D01*
X432992Y34910D01*
X432962Y34895D01*
X430051Y33689D01*
X430019Y33678D01*
X429989Y33666D01*
X429957Y33657D01*
X429926Y33647D01*
X429894Y33640D01*
X429863Y33632D01*
X426771Y33017D01*
X426739Y33013D01*
X426707Y33006D01*
X426674Y33004D01*
X426641Y33000D01*
X426609D01*
X426576Y32998D01*
X423424D01*
X423391Y33000D01*
X423359D01*
X423326Y33004D01*
X423293Y33006D01*
X423261Y33013D01*
X423229Y33017D01*
X420137Y33632D01*
X420106Y33640D01*
X420074Y33647D01*
X420043Y33657D01*
X420011Y33666D01*
X419981Y33679D01*
X419949Y33689D01*
X417038Y34895D01*
X417008Y34910D01*
X416978Y34922D01*
X416950Y34939D01*
X416920Y34953D01*
X416893Y34971D01*
X416864Y34988D01*
X414244Y36739D01*
X414218Y36759D01*
X414190Y36777D01*
X414166Y36799D01*
X414140Y36819D01*
X414117Y36842D01*
X414092Y36863D01*
X412978Y37978D01*
X412977Y37978D01*
X411863Y39092D01*
X411842Y39117D01*
X411819Y39140D01*
X411799Y39166D01*
X411777Y39190D01*
X411759Y39218D01*
X411739Y39244D01*
X409988Y41864D01*
X409971Y41893D01*
X409953Y41920D01*
X409939Y41950D01*
X409922Y41978D01*
X409910Y42008D01*
X409895Y42038D01*
X408689Y44949D01*
X408678Y44981D01*
X408666Y45011D01*
X408657Y45043D01*
X408647Y45074D01*
X408641Y45106D01*
X408632Y45138D01*
X408017Y48229D01*
X408013Y48261D01*
X408006Y48293D01*
X408004Y48326D01*
X408000Y48359D01*
Y48391D01*
X407998Y48424D01*
Y51576D01*
X408000Y51609D01*
Y51641D01*
X408004Y51674D01*
X408006Y51707D01*
X408013Y51739D01*
X408017Y51771D01*
X408632Y54862D01*
X408641Y54894D01*
X408647Y54926D01*
X408657Y54957D01*
X408666Y54989D01*
X408679Y55019D01*
X408689Y55051D01*
X409895Y57962D01*
X409910Y57992D01*
X409922Y58022D01*
X409939Y58050D01*
X409953Y58080D01*
X409971Y58107D01*
X409988Y58136D01*
X411739Y60756D01*
X411759Y60782D01*
X411777Y60809D01*
X411799Y60834D01*
X411819Y60860D01*
X411842Y60883D01*
X411863Y60908D01*
X412978Y62022D01*
X412978Y62023D01*
X414092Y63137D01*
X414117Y63158D01*
X414140Y63181D01*
X414166Y63201D01*
X414190Y63223D01*
X414218Y63241D01*
X414244Y63261D01*
X416864Y65012D01*
X416893Y65029D01*
X416920Y65047D01*
X416950Y65061D01*
X416978Y65078D01*
X417008Y65090D01*
X417038Y65105D01*
X419949Y66311D01*
X419981Y66322D01*
X420011Y66334D01*
X420042Y66343D01*
X420074Y66353D01*
X420106Y66360D01*
X420137Y66368D01*
X423229Y66983D01*
X423261Y66987D01*
X423293Y66993D01*
X423326Y66996D01*
X423359Y67000D01*
X423391D01*
X423424Y67002D01*
X426576D01*
X426609Y67000D01*
D02*
G37*
G36*
X51609D02*
X51641D01*
X51674Y66996D01*
X51707Y66993D01*
X51739Y66987D01*
X51771Y66983D01*
X54862Y66368D01*
X54894Y66360D01*
X54926Y66353D01*
X54957Y66343D01*
X54989Y66334D01*
X55019Y66322D01*
X55051Y66311D01*
X57962Y65105D01*
X57992Y65090D01*
X58022Y65078D01*
X58050Y65061D01*
X58080Y65047D01*
X58107Y65029D01*
X58136Y65012D01*
X60756Y63261D01*
X60782Y63241D01*
X60809Y63223D01*
X60834Y63201D01*
X60860Y63181D01*
X60883Y63158D01*
X60908Y63137D01*
X62022Y62022D01*
X62023Y62022D01*
X63137Y60908D01*
X63158Y60883D01*
X63181Y60860D01*
X63201Y60834D01*
X63223Y60809D01*
X63241Y60782D01*
X63261Y60756D01*
X65012Y58136D01*
X65029Y58107D01*
X65047Y58080D01*
X65061Y58050D01*
X65078Y58022D01*
X65090Y57992D01*
X65105Y57962D01*
X66311Y55051D01*
X66322Y55019D01*
X66334Y54989D01*
X66343Y54957D01*
X66353Y54926D01*
X66360Y54894D01*
X66368Y54862D01*
X66983Y51771D01*
X66987Y51739D01*
X66993Y51707D01*
X66996Y51674D01*
X67000Y51641D01*
Y51609D01*
X67002Y51576D01*
Y48424D01*
X67000Y48391D01*
Y48359D01*
X66996Y48326D01*
X66993Y48293D01*
X66987Y48261D01*
X66983Y48229D01*
X66368Y45138D01*
X66360Y45106D01*
X66353Y45074D01*
X66343Y45043D01*
X66334Y45011D01*
X66322Y44981D01*
X66311Y44949D01*
X65105Y42038D01*
X65090Y42008D01*
X65078Y41978D01*
X65061Y41950D01*
X65047Y41920D01*
X65029Y41893D01*
X65012Y41864D01*
X63261Y39244D01*
X63241Y39218D01*
X63223Y39190D01*
X63201Y39166D01*
X63181Y39140D01*
X63158Y39117D01*
X63137Y39092D01*
X62022Y37978D01*
X62022Y37977D01*
X60908Y36863D01*
X60883Y36842D01*
X60860Y36818D01*
X60834Y36799D01*
X60809Y36777D01*
X60782Y36759D01*
X60756Y36739D01*
X58136Y34988D01*
X58107Y34971D01*
X58080Y34953D01*
X58050Y34938D01*
X58022Y34922D01*
X57992Y34910D01*
X57962Y34895D01*
X55051Y33689D01*
X55019Y33678D01*
X54989Y33666D01*
X54957Y33657D01*
X54926Y33647D01*
X54894Y33640D01*
X54862Y33632D01*
X51771Y33017D01*
X51739Y33013D01*
X51707Y33006D01*
X51674Y33004D01*
X51641Y33000D01*
X51609D01*
X51576Y32998D01*
X48424D01*
X48391Y33000D01*
X48359D01*
X48326Y33004D01*
X48293Y33006D01*
X48261Y33013D01*
X48229Y33017D01*
X45138Y33632D01*
X45106Y33640D01*
X45074Y33647D01*
X45043Y33657D01*
X45011Y33666D01*
X44981Y33679D01*
X44949Y33689D01*
X42038Y34895D01*
X42008Y34910D01*
X41978Y34922D01*
X41950Y34939D01*
X41920Y34953D01*
X41893Y34971D01*
X41864Y34988D01*
X39244Y36739D01*
X39218Y36759D01*
X39190Y36777D01*
X39166Y36799D01*
X39140Y36819D01*
X39117Y36842D01*
X39092Y36863D01*
X37978Y37978D01*
X37977Y37978D01*
X36863Y39092D01*
X36842Y39117D01*
X36818Y39140D01*
X36799Y39166D01*
X36777Y39190D01*
X36759Y39218D01*
X36739Y39244D01*
X34988Y41864D01*
X34971Y41893D01*
X34953Y41920D01*
X34938Y41950D01*
X34922Y41978D01*
X34910Y42008D01*
X34895Y42038D01*
X33689Y44949D01*
X33678Y44981D01*
X33666Y45011D01*
X33657Y45043D01*
X33647Y45074D01*
X33640Y45106D01*
X33632Y45138D01*
X33017Y48229D01*
X33013Y48261D01*
X33006Y48293D01*
X33004Y48326D01*
X33000Y48359D01*
Y48391D01*
X32998Y48424D01*
Y51576D01*
X33000Y51609D01*
Y51641D01*
X33004Y51674D01*
X33006Y51707D01*
X33013Y51739D01*
X33017Y51771D01*
X33632Y54862D01*
X33640Y54894D01*
X33647Y54926D01*
X33657Y54957D01*
X33666Y54989D01*
X33679Y55019D01*
X33689Y55051D01*
X34895Y57962D01*
X34910Y57992D01*
X34922Y58022D01*
X34939Y58050D01*
X34953Y58080D01*
X34971Y58107D01*
X34988Y58136D01*
X36739Y60756D01*
X36759Y60782D01*
X36777Y60809D01*
X36799Y60834D01*
X36819Y60860D01*
X36842Y60883D01*
X36863Y60908D01*
X37978Y62022D01*
X37978Y62023D01*
X39092Y63137D01*
X39117Y63158D01*
X39140Y63181D01*
X39166Y63201D01*
X39190Y63223D01*
X39218Y63241D01*
X39244Y63261D01*
X41864Y65012D01*
X41893Y65029D01*
X41920Y65047D01*
X41950Y65061D01*
X41978Y65078D01*
X42008Y65090D01*
X42038Y65105D01*
X44949Y66311D01*
X44981Y66322D01*
X45011Y66334D01*
X45043Y66343D01*
X45074Y66353D01*
X45106Y66360D01*
X45138Y66368D01*
X48229Y66983D01*
X48261Y66987D01*
X48293Y66993D01*
X48326Y66996D01*
X48359Y67000D01*
X48391D01*
X48424Y67002D01*
X51576D01*
X51609Y67000D01*
D02*
G37*
D15*
X662000Y783500D02*
D03*
X654000D02*
D03*
X606000D02*
D03*
X598000D02*
D03*
D16*
X647500D02*
D03*
X642500D02*
D03*
X637500D02*
D03*
X632500D02*
D03*
X627500D02*
D03*
X622500D02*
D03*
X617500D02*
D03*
X612500D02*
D03*
D17*
X769697Y634529D02*
D03*
X779857Y685330D02*
D03*
X759537D02*
D03*
D18*
X218000Y754000D02*
D03*
X287000D02*
D03*
X544000Y769000D02*
D03*
X715000D02*
D03*
D19*
X252000Y801500D02*
D03*
Y834500D02*
D03*
X227000Y801500D02*
D03*
Y834500D02*
D03*
X277000Y801500D02*
D03*
Y834500D02*
D03*
D20*
X430150Y435150D02*
D03*
Y414850D02*
D03*
X409850D02*
D03*
Y435150D02*
D03*
X442850Y447850D02*
D03*
Y402150D02*
D03*
X397150D02*
D03*
Y447850D02*
D03*
M02*
