M48
;Layer_Color=8421504
;FILE_FORMAT=4:4
METRIC,LZ
;TYPE=PLATED
T01F00S00C0.3000
T02F00S00C0.4000
T04F00S00C1.0000
T05F00S00C1.0000
;TYPE=NON_PLATED
T06F00S00C0.9000
%
T01
X00119417Y00149823
X00192532Y00122174
X00189Y00234696
X00171Y0023495
X00162Y00365
X00201422Y00364998
X002597Y00359
X00266Y00401
X00271122Y00286338
X00319357Y00482827
X003325Y004825
X00170942Y00483616
X0015023Y00477816
X001356Y0045432
X001298Y00447765
X00066802Y00371348
X00349Y00371
X00387455Y00367545
X0039715Y0040215
X0040985Y0041485
X0043015
Y0043515
X0040985
X0039715Y0044785
X0036997Y00444911
X00370002Y0045291
X003747Y00468
X00377761Y00498592
X0042585Y00483
X00458Y00486
X00478Y0047
X00498602Y00470154
X00498604Y00479234
X00491173Y00460272
X004925Y004475
X0048Y00432
X00464526Y0041845
X0047098Y00406718
X0047865Y0038935
X00498Y00382
X00498573Y0041528
X0044285Y0040215
Y0044785
X00431Y0036
X00473Y00359341
X00531Y00362091
Y00354091
X00531114Y0037865
X00551688
X0057Y0037505
X00569572Y00383039
X006008Y004025
X00605Y004175
X00596926Y004296
X00582Y00445
X00570567Y00466946
X00570677Y00475717
X00554Y00477
X00541Y0048
Y0047092
X00622Y00469
X00625Y00479
Y00455
X00661Y00485648
X007095Y00476408
Y00464408
X00693Y0037688
X0062484Y0037108
Y0038827
X00605Y00355
X00667055Y00249885
X00682919Y00249345
X00688719Y00255145
X0068928Y0027211
X00492Y00298
X00459955Y00273045
X00439Y00254
X00401Y00268
X00388Y0026
X00371Y002573
X00363007Y00257627
X00368Y0032004
X0035575Y0041116
X00474Y00229
X00480568Y0014451
X00448056Y00118618
X00436072
X00424072
X00799Y00361
X00752534Y00647579
X00707Y00637
X00652497Y00613439
X00641726Y00619638
X00625Y00621
X00609092Y00660951
X00596Y00592
X00565008Y00578012
X00551617Y00591383
X0049Y00551
X0048205Y00531
X0046968
X00463432Y00515619
X004911Y00505
X0049652Y00526536
X00453Y00578
X00439091Y00626733
X00417Y00625
X00417068Y00616458
X00471Y00661
X00495
X0044831Y007344
X00439025Y007286
X00424942
X00414528Y007344
X00614Y00761
X00634Y00770419
X00648Y00772
X00716454Y00713343
X00734428Y0069537
X00661Y00520446
X00653
X00389281Y00510719
X00383481Y00504389
X00372974Y00526288
X00363474
X00355445Y00526288
X00284989Y0050199
X00305054Y00798322
X00205054
T02
X00805072Y000245
X00794928Y000755
X00419928
X00430072Y000245
X00055072
X00044928Y000755
X00171643Y0015538
X00188357Y0020462
X00185072Y003995
X00174928Y004505
X00304928
X00315072Y003995
X00304928Y003355
X00315072Y002845
X00055072Y003995
X00044928Y004505
X00419928Y003355
X00430072Y002845
X00419928Y002055
X00430072Y001545
X00545072Y002845
X00534928Y003355
X00545072Y003995
X00534928Y004505
X00664928
X00675072Y003995
X00664928Y002055
X00675072Y001545
X00805072Y003995
X00794928Y004505
X00805072Y007745
X00794928Y008255
X00664928Y006955
X00675072Y006445
X00534928Y005655
X00545072Y005145
X00430072
X00419928Y005655
X00430072Y006445
X00419928Y006955
X00430072Y007745
X00419928Y008255
X00044928
X00055072Y007745
X00174928Y006955
X00185072Y006445
X00304928Y005655
X00315072Y005145
T04
X00544Y00769
X00715
X00287Y00754
X00218
T05
X00227Y008015
X00252
X00277
Y008345
X00252
X00227
T06
X00769697Y00634529
X00779857Y0068533
X00759537
M30
