G04*
G04 #@! TF.GenerationSoftware,Altium Limited,Altium Designer,24.1.2 (44)*
G04*
G04 Layer_Physical_Order=2*
G04 Layer_Color=8978557*
%FSLAX44Y44*%
%MOMM*%
G71*
G04*
G04 #@! TF.SameCoordinates,4227E7B6-EBC9-4803-BC49-DE6AE7B22491*
G04*
G04*
G04 #@! TF.FilePolarity,Positive*
G04*
G01*
G75*
%ADD10C,0.2000*%
%ADD17C,0.8500*%
%ADD21C,0.2032*%
%ADD26C,0.3000*%
%ADD27C,0.1600*%
%ADD29C,0.7000*%
%ADD30O,0.9500X1.9000*%
%ADD31O,0.8000X1.6000*%
%ADD32R,2.2000X2.2000*%
%ADD33C,1.7000*%
%ADD34C,0.6000*%
%ADD35R,0.8600X0.2700*%
%ADD36R,0.2700X0.8600*%
%ADD37R,5.6000X5.6000*%
G04:AMPARAMS|DCode=38|XSize=1.4mm|YSize=0.8mm|CornerRadius=0mm|HoleSize=0mm|Usage=FLASHONLY|Rotation=15.000|XOffset=0mm|YOffset=0mm|HoleType=Round|Shape=Rectangle|*
%AMROTATEDRECTD38*
4,1,4,-0.5726,-0.5675,-0.7797,0.2052,0.5726,0.5675,0.7797,-0.2052,-0.5726,-0.5675,0.0*
%
%ADD38ROTATEDRECTD38*%

G04:AMPARAMS|DCode=39|XSize=1.4mm|YSize=0.8mm|CornerRadius=0mm|HoleSize=0mm|Usage=FLASHONLY|Rotation=45.000|XOffset=0mm|YOffset=0mm|HoleType=Round|Shape=Rectangle|*
%AMROTATEDRECTD39*
4,1,4,-0.2121,-0.7778,-0.7778,-0.2121,0.2121,0.7778,0.7778,0.2121,-0.2121,-0.7778,0.0*
%
%ADD39ROTATEDRECTD39*%

%ADD40C,0.8000*%
%ADD41R,1.2000X1.2000*%
%ADD42R,0.6000X0.8000*%
%ADD43R,0.8000X0.6000*%
%ADD44R,0.8000X0.9000*%
%ADD45R,0.9000X0.8000*%
%ADD46R,0.9100X1.2200*%
G36*
X400536Y844749D02*
X381856Y826069D01*
X285214D01*
X284688Y827339D01*
X285402Y828053D01*
X286784Y830447D01*
X287500Y833118D01*
Y835882D01*
X286784Y838553D01*
X285402Y840947D01*
X283447Y842902D01*
X281053Y844284D01*
X279682Y844652D01*
X279849Y845922D01*
X400050D01*
X400536Y844749D01*
D02*
G37*
G36*
X224318Y844652D02*
X222947Y844284D01*
X220553Y842902D01*
X218598Y840947D01*
X217216Y838553D01*
X216500Y835882D01*
Y833118D01*
X217216Y830447D01*
X218598Y828053D01*
X219312Y827339D01*
X218786Y826069D01*
X163764D01*
X145084Y844749D01*
X145570Y845922D01*
X224151D01*
X224318Y844652D01*
D02*
G37*
G36*
X686462Y845993D02*
X686723Y845973D01*
X686982Y845938D01*
X687240Y845891D01*
X687494Y845830D01*
X687745Y845755D01*
X687992Y845668D01*
X688234Y845568D01*
X688470Y845455D01*
X688700Y845330D01*
X688923Y845193D01*
X689139Y845045D01*
X689347Y844886D01*
X689546Y844716D01*
X689736Y844536D01*
X689916Y844346D01*
X690086Y844147D01*
X690245Y843939D01*
X690393Y843723D01*
X690530Y843500D01*
X690655Y843270D01*
X690768Y843034D01*
X690868Y842792D01*
X690955Y842545D01*
X691030Y842294D01*
X691091Y842040D01*
X691138Y841782D01*
X691173Y841523D01*
X691193Y841262D01*
X691200Y841000D01*
Y836500D01*
X694017D01*
Y839750D01*
X693751Y841773D01*
X692970Y843658D01*
X692207Y844652D01*
X692834Y845922D01*
X855922D01*
Y4078D01*
X838173D01*
X837647Y5348D01*
X848343Y16045D01*
X849117Y17202D01*
X849389Y18568D01*
Y462788D01*
Y790949D01*
X849117Y792315D01*
X848675Y792977D01*
Y820420D01*
X848457Y821513D01*
X847839Y822439D01*
X843521Y826757D01*
X842595Y827375D01*
X841502Y827593D01*
X836052D01*
X834959Y827375D01*
X834033Y826757D01*
X828387Y821111D01*
X826163Y823335D01*
X821818Y818989D01*
X818989Y821818D01*
X823335Y826163D01*
X814849Y834648D01*
X802121Y821920D01*
X802953Y821088D01*
X802607Y820441D01*
X802246Y820000D01*
X801970D01*
X801576Y820078D01*
X799080D01*
X798554Y821348D01*
X799590Y822385D01*
X800428Y824406D01*
Y826594D01*
X799590Y828616D01*
X798043Y830163D01*
X796022Y831000D01*
X793834D01*
X791812Y830163D01*
X790265Y828616D01*
X789428Y826594D01*
Y824406D01*
X790265Y822385D01*
X791812Y820838D01*
X793167Y820277D01*
Y818902D01*
X790860Y817947D01*
X790526Y817724D01*
X790155Y817570D01*
X787535Y815819D01*
X787251Y815535D01*
X786917Y815312D01*
X785802Y814197D01*
X785802Y814197D01*
X784688Y813083D01*
X784465Y812749D01*
X784181Y812465D01*
X782430Y809845D01*
X782276Y809474D01*
X782053Y809140D01*
X780847Y806228D01*
X780769Y805834D01*
X780615Y805463D01*
X780000Y802372D01*
Y801970D01*
X779922Y801576D01*
Y798424D01*
X780000Y798030D01*
Y797754D01*
X779559Y797393D01*
X778912Y797047D01*
X778080Y797879D01*
X765352Y785151D01*
X773837Y776665D01*
X778182Y781011D01*
X781011Y778182D01*
X776665Y773837D01*
X778889Y771613D01*
X723075Y715798D01*
X721829Y716046D01*
X721541Y716742D01*
X719853Y718430D01*
X717954Y719216D01*
Y713343D01*
X716454D01*
Y711843D01*
X710581D01*
X711368Y709944D01*
X713056Y708257D01*
X713751Y707968D01*
X713999Y706723D01*
X706863Y699587D01*
X690790Y715660D01*
X689864Y716279D01*
X688771Y716496D01*
X648109D01*
X647017Y716279D01*
X646091Y715660D01*
X607073Y676643D01*
X606455Y675716D01*
X606237Y674624D01*
Y665167D01*
X604853Y663783D01*
X604092Y661945D01*
Y659956D01*
X604374Y659276D01*
X603525Y658006D01*
X601873D01*
X600780Y657788D01*
X599854Y657169D01*
X584240Y641555D01*
X557350D01*
Y652000D01*
X555205D01*
Y669000D01*
X559000D01*
Y681000D01*
X555205D01*
Y682739D01*
X560611Y688145D01*
X578478D01*
X579571Y688363D01*
X580497Y688981D01*
X587669Y696153D01*
X588288Y697079D01*
X588505Y698172D01*
Y701900D01*
X592200D01*
Y718100D01*
X589450D01*
X588924Y719370D01*
X593019Y723465D01*
X593638Y724391D01*
X593855Y725483D01*
Y732000D01*
X597500D01*
Y745000D01*
X585500D01*
Y732000D01*
X588145D01*
Y726666D01*
X583631Y722152D01*
X583012Y721226D01*
X582795Y720133D01*
Y718100D01*
X579100D01*
Y701900D01*
X582795D01*
Y699354D01*
X577295Y693855D01*
X559428D01*
X558335Y693637D01*
X557409Y693019D01*
X550331Y685941D01*
X549712Y685014D01*
X549495Y683922D01*
Y681000D01*
X546000D01*
Y669000D01*
X549495D01*
Y653412D01*
X548225Y653027D01*
X548019Y653336D01*
X546036Y655319D01*
X545109Y655938D01*
X544017Y656155D01*
X500299D01*
X499813Y657328D01*
X500087Y657601D01*
X500873Y659500D01*
X489127D01*
X489913Y657601D01*
X490187Y657328D01*
X489701Y656155D01*
X489216D01*
X488124Y655938D01*
X487197Y655319D01*
X459992Y628113D01*
X442964D01*
X441580Y629497D01*
X439742Y630258D01*
X437753D01*
X435915Y629497D01*
X434509Y628091D01*
X434401Y627830D01*
X433131Y628083D01*
Y639813D01*
X433188Y639837D01*
X434735Y641384D01*
X435572Y643406D01*
Y645594D01*
X434735Y647615D01*
X433188Y649162D01*
X431833Y649723D01*
Y651098D01*
X434140Y652053D01*
X434474Y652276D01*
X434845Y652430D01*
X437465Y654181D01*
X437749Y654465D01*
X438083Y654688D01*
X439198Y655802D01*
X439198Y655803D01*
X440312Y656917D01*
X440535Y657251D01*
X440819Y657535D01*
X442570Y660155D01*
X442724Y660526D01*
X442947Y660860D01*
X444153Y663772D01*
X444231Y664166D01*
X444385Y664537D01*
X445000Y667628D01*
Y668030D01*
X445078Y668424D01*
Y671576D01*
X445000Y671970D01*
Y672246D01*
X445441Y672607D01*
X446088Y672953D01*
X446920Y672121D01*
X459648Y684849D01*
X451163Y693335D01*
X446818Y688989D01*
X443989Y691818D01*
X448335Y696163D01*
X446110Y698387D01*
X457567Y709844D01*
X468145Y699266D01*
Y665216D01*
X466761Y663832D01*
X466000Y661995D01*
Y660005D01*
X466761Y658168D01*
X468168Y656761D01*
X470005Y656000D01*
X471995D01*
X473832Y656761D01*
X475239Y658168D01*
X476000Y660005D01*
Y661995D01*
X475239Y663832D01*
X473855Y665216D01*
Y700288D01*
X473839Y700368D01*
X473855Y700448D01*
X473638Y701541D01*
X473019Y702467D01*
X459586Y715900D01*
X459518Y715945D01*
X459473Y716013D01*
X447355Y728130D01*
X447881Y729400D01*
X449273D01*
X498341Y680331D01*
X499268Y679713D01*
X500360Y679495D01*
X506000D01*
Y677350D01*
X518000D01*
Y679495D01*
X521350D01*
X522443Y679713D01*
X523369Y680331D01*
X523827Y680789D01*
X525000Y680303D01*
Y678500D01*
X538000D01*
Y690500D01*
X528076D01*
X527800Y690555D01*
X527524Y690500D01*
X525000D01*
Y687976D01*
X524976Y687855D01*
X524000D01*
X522907Y687637D01*
X521981Y687019D01*
X520168Y685205D01*
X518000D01*
Y687350D01*
X506000D01*
Y685205D01*
X501543D01*
X453310Y733437D01*
Y735395D01*
X452549Y737232D01*
X451142Y738639D01*
X449305Y739400D01*
X447315D01*
X445478Y738639D01*
X444071Y737232D01*
X443310Y735395D01*
Y733405D01*
X443468Y733025D01*
X442391Y732305D01*
X441857Y732839D01*
X440020Y733600D01*
X438031D01*
X437354Y733320D01*
X436084Y734168D01*
Y770828D01*
X435851Y771999D01*
X435319Y772795D01*
X435572Y773406D01*
Y775594D01*
X434735Y777615D01*
X433188Y779162D01*
X431833Y779723D01*
Y781098D01*
X434140Y782053D01*
X434474Y782276D01*
X434845Y782430D01*
X437465Y784181D01*
X437749Y784465D01*
X438083Y784688D01*
X439198Y785802D01*
X439198Y785803D01*
X440312Y786917D01*
X440535Y787251D01*
X440819Y787535D01*
X442570Y790155D01*
X442724Y790526D01*
X442947Y790860D01*
X444153Y793772D01*
X444231Y794166D01*
X444385Y794537D01*
X445000Y797628D01*
Y798030D01*
X445078Y798424D01*
Y801576D01*
X445000Y801970D01*
Y802246D01*
X445441Y802607D01*
X446088Y802953D01*
X446920Y802121D01*
X459648Y814849D01*
X451163Y823335D01*
X446818Y818989D01*
X443989Y821818D01*
X448335Y826163D01*
X446615Y827882D01*
X454211Y835478D01*
X454984Y836636D01*
X455256Y838001D01*
Y842743D01*
X454984Y844108D01*
X454621Y844652D01*
X455300Y845922D01*
X567166D01*
X567793Y844652D01*
X567030Y843658D01*
X566250Y841773D01*
X565983Y839750D01*
Y836500D01*
X568800D01*
Y841000D01*
X568807Y841262D01*
X568827Y841523D01*
X568862Y841782D01*
X568909Y842040D01*
X568970Y842294D01*
X569045Y842545D01*
X569132Y842792D01*
X569232Y843034D01*
X569345Y843270D01*
X569470Y843500D01*
X569607Y843723D01*
X569755Y843939D01*
X569914Y844147D01*
X570084Y844346D01*
X570265Y844536D01*
X570454Y844716D01*
X570653Y844886D01*
X570861Y845045D01*
X571077Y845193D01*
X571300Y845330D01*
X571530Y845455D01*
X571766Y845568D01*
X572008Y845668D01*
X572255Y845755D01*
X572506Y845830D01*
X572760Y845891D01*
X573018Y845938D01*
X573277Y845973D01*
X573538Y845993D01*
X573800Y846000D01*
X574062Y845993D01*
X574323Y845973D01*
X574582Y845938D01*
X574840Y845891D01*
X575094Y845830D01*
X575345Y845755D01*
X575592Y845668D01*
X575834Y845568D01*
X576070Y845455D01*
X576300Y845330D01*
X576523Y845193D01*
X576739Y845045D01*
X576947Y844886D01*
X577146Y844716D01*
X577336Y844536D01*
X577516Y844346D01*
X577686Y844147D01*
X577845Y843939D01*
X577993Y843723D01*
X578130Y843500D01*
X578255Y843270D01*
X578368Y843034D01*
X578468Y842792D01*
X578555Y842545D01*
X578630Y842294D01*
X578691Y842040D01*
X578738Y841782D01*
X578773Y841523D01*
X578793Y841262D01*
X578800Y841000D01*
Y829000D01*
X578793Y828738D01*
X578773Y828477D01*
X578738Y828218D01*
X578691Y827960D01*
X578630Y827706D01*
X578555Y827455D01*
X578468Y827208D01*
X578368Y826966D01*
X578255Y826730D01*
X578130Y826500D01*
X577993Y826277D01*
X577845Y826061D01*
X577686Y825853D01*
X577516Y825654D01*
X577336Y825464D01*
X577146Y825284D01*
X576947Y825114D01*
X576739Y824955D01*
X576523Y824807D01*
X576300Y824670D01*
X576070Y824545D01*
X575834Y824432D01*
X575592Y824332D01*
X575345Y824245D01*
X575300Y824231D01*
Y822631D01*
X575823Y822700D01*
X577709Y823480D01*
X579327Y824723D01*
X579902Y825471D01*
X581172Y825040D01*
Y802814D01*
X579956Y802540D01*
X579902Y802547D01*
X578792Y803992D01*
X577330Y805115D01*
X575627Y805820D01*
X575300Y805863D01*
Y803769D01*
X575345Y803755D01*
X575592Y803668D01*
X575834Y803568D01*
X576070Y803455D01*
X576300Y803330D01*
X576523Y803193D01*
X576739Y803045D01*
X576947Y802886D01*
X577146Y802716D01*
X577336Y802535D01*
X577516Y802346D01*
X577686Y802147D01*
X577845Y801939D01*
X577993Y801723D01*
X578130Y801500D01*
X578255Y801270D01*
X578368Y801034D01*
X578468Y800792D01*
X578555Y800545D01*
X578630Y800294D01*
X578691Y800040D01*
X578738Y799782D01*
X578773Y799523D01*
X578793Y799262D01*
X578800Y799000D01*
Y791000D01*
X578793Y790738D01*
X578773Y790477D01*
X578738Y790218D01*
X578691Y789960D01*
X578630Y789706D01*
X578555Y789455D01*
X578468Y789208D01*
X578368Y788966D01*
X578255Y788730D01*
X578130Y788500D01*
X577993Y788277D01*
X577845Y788061D01*
X577686Y787853D01*
X577516Y787654D01*
X577336Y787465D01*
X577146Y787284D01*
X576947Y787114D01*
X576739Y786955D01*
X576523Y786807D01*
X576300Y786670D01*
X576070Y786545D01*
X575834Y786432D01*
X575592Y786332D01*
X575345Y786245D01*
X575300Y786231D01*
Y784137D01*
X575627Y784180D01*
X577330Y784886D01*
X578792Y786008D01*
X579915Y787470D01*
X580434Y788723D01*
X581676Y788952D01*
X581829Y788920D01*
X582366Y788116D01*
X583689Y787232D01*
X585250Y786922D01*
X674750D01*
X676311Y787232D01*
X677634Y788116D01*
X678171Y788920D01*
X678324Y788952D01*
X679567Y788723D01*
X680086Y787470D01*
X681208Y786008D01*
X682670Y784886D01*
X684373Y784180D01*
X684700Y784137D01*
Y786231D01*
X684655Y786245D01*
X684408Y786332D01*
X684166Y786432D01*
X683930Y786545D01*
X683700Y786670D01*
X683477Y786807D01*
X683261Y786955D01*
X683053Y787114D01*
X682854Y787284D01*
X682664Y787465D01*
X682484Y787654D01*
X682314Y787853D01*
X682155Y788061D01*
X682007Y788277D01*
X681870Y788500D01*
X681745Y788730D01*
X681632Y788966D01*
X681532Y789208D01*
X681445Y789455D01*
X681370Y789706D01*
X681309Y789960D01*
X681262Y790218D01*
X681227Y790477D01*
X681207Y790738D01*
X681200Y791000D01*
Y799000D01*
X681207Y799262D01*
X681227Y799523D01*
X681262Y799782D01*
X681309Y800040D01*
X681370Y800294D01*
X681445Y800545D01*
X681532Y800792D01*
X681632Y801034D01*
X681745Y801270D01*
X681870Y801500D01*
X682007Y801723D01*
X682155Y801939D01*
X682314Y802147D01*
X682484Y802346D01*
X682664Y802535D01*
X682854Y802716D01*
X683053Y802886D01*
X683261Y803045D01*
X683477Y803193D01*
X683700Y803330D01*
X683930Y803455D01*
X684166Y803568D01*
X684408Y803668D01*
X684655Y803755D01*
X684700Y803769D01*
Y805863D01*
X684373Y805820D01*
X682670Y805115D01*
X681208Y803992D01*
X680098Y802547D01*
X680044Y802540D01*
X678828Y802814D01*
Y825040D01*
X680098Y825471D01*
X680673Y824723D01*
X682291Y823480D01*
X684177Y822700D01*
X684700Y822631D01*
Y824231D01*
X684655Y824245D01*
X684408Y824332D01*
X684166Y824432D01*
X683930Y824545D01*
X683700Y824670D01*
X683477Y824807D01*
X683261Y824955D01*
X683053Y825114D01*
X682854Y825284D01*
X682664Y825464D01*
X682484Y825654D01*
X682314Y825853D01*
X682155Y826061D01*
X682007Y826277D01*
X681870Y826500D01*
X681745Y826730D01*
X681632Y826966D01*
X681532Y827208D01*
X681445Y827455D01*
X681370Y827706D01*
X681309Y827960D01*
X681262Y828218D01*
X681227Y828477D01*
X681207Y828738D01*
X681200Y829000D01*
Y841000D01*
X681207Y841262D01*
X681227Y841523D01*
X681262Y841782D01*
X681309Y842040D01*
X681370Y842294D01*
X681445Y842545D01*
X681532Y842792D01*
X681632Y843034D01*
X681745Y843270D01*
X681870Y843500D01*
X682007Y843723D01*
X682155Y843939D01*
X682314Y844147D01*
X682484Y844346D01*
X682664Y844536D01*
X682854Y844716D01*
X683053Y844886D01*
X683261Y845045D01*
X683477Y845193D01*
X683700Y845330D01*
X683930Y845455D01*
X684166Y845568D01*
X684408Y845668D01*
X684655Y845755D01*
X684906Y845830D01*
X685161Y845891D01*
X685418Y845938D01*
X685677Y845973D01*
X685938Y845993D01*
X686200Y846000D01*
X686462Y845993D01*
D02*
G37*
G36*
X448119Y839479D02*
X441568Y832929D01*
X439849Y834648D01*
X427121Y821920D01*
X427953Y821088D01*
X427607Y820441D01*
X427246Y820000D01*
X426970D01*
X426576Y820078D01*
X424080D01*
X423554Y821348D01*
X424590Y822385D01*
X425428Y824406D01*
Y826594D01*
X424590Y828616D01*
X423043Y830163D01*
X421022Y831000D01*
X418834D01*
X416812Y830163D01*
X415265Y828616D01*
X414428Y826594D01*
Y824406D01*
X415265Y822385D01*
X416812Y820838D01*
X418167Y820277D01*
Y818902D01*
X415860Y817947D01*
X415526Y817724D01*
X415155Y817570D01*
X412535Y815819D01*
X412251Y815535D01*
X411917Y815312D01*
X410802Y814197D01*
X410802Y814197D01*
X409688Y813083D01*
X409465Y812749D01*
X409181Y812465D01*
X407430Y809845D01*
X407276Y809474D01*
X407053Y809140D01*
X405847Y806228D01*
X405769Y805834D01*
X405615Y805463D01*
X405000Y802372D01*
Y801970D01*
X404922Y801576D01*
Y798424D01*
X405000Y798030D01*
Y797754D01*
X404559Y797393D01*
X403912Y797047D01*
X403080Y797879D01*
X390352Y785151D01*
X392422Y783081D01*
X392578Y782847D01*
X392812Y782690D01*
X398837Y776665D01*
X403159Y780988D01*
X403297Y780896D01*
X406011Y778182D01*
X401665Y773837D01*
X403889Y771613D01*
X398031Y765755D01*
X397412Y764829D01*
X397195Y763736D01*
Y753492D01*
X397412Y752400D01*
X398031Y751473D01*
X411281Y738224D01*
X410312Y737255D01*
X356309D01*
X355216Y737038D01*
X354290Y736419D01*
X352726Y734855D01*
X298062D01*
X293091Y739827D01*
X293577Y741000D01*
X300000D01*
Y767000D01*
X274000D01*
Y741000D01*
X284320D01*
X284363Y740788D01*
X284981Y739861D01*
X294861Y729981D01*
X295788Y729362D01*
X296880Y729145D01*
X353909D01*
X355001Y729362D01*
X355927Y729981D01*
X357491Y731545D01*
X410312D01*
X411696Y730161D01*
X413533Y729400D01*
X415523D01*
X417360Y730161D01*
X418767Y731568D01*
X418857Y731785D01*
X420222Y732015D01*
X420346Y731865D01*
X420636Y731269D01*
X419942Y729595D01*
Y727606D01*
X420703Y725768D01*
X422110Y724361D01*
X423522Y723776D01*
X423969Y722427D01*
X417765Y716223D01*
X417102Y715230D01*
X416869Y714060D01*
X416869Y714060D01*
Y700187D01*
X416812Y700163D01*
X415265Y698616D01*
X414428Y696594D01*
Y694406D01*
X415265Y692385D01*
X416812Y690838D01*
X418167Y690277D01*
Y688902D01*
X415860Y687947D01*
X415526Y687724D01*
X415155Y687570D01*
X412535Y685819D01*
X412251Y685535D01*
X411917Y685312D01*
X410802Y684197D01*
X410802Y684197D01*
X409688Y683083D01*
X409465Y682749D01*
X409181Y682465D01*
X407430Y679845D01*
X407276Y679474D01*
X407053Y679140D01*
X405847Y676228D01*
X405769Y675834D01*
X405615Y675463D01*
X405000Y672372D01*
Y671970D01*
X404922Y671576D01*
Y668424D01*
X405000Y668030D01*
Y667754D01*
X404559Y667393D01*
X403912Y667047D01*
X403080Y667879D01*
X390352Y655151D01*
X392576Y652927D01*
X385698Y646050D01*
X382504Y642855D01*
X361500D01*
X360407Y642637D01*
X359481Y642019D01*
X352981Y635519D01*
X352363Y634593D01*
X352215Y633850D01*
X349000D01*
Y623850D01*
X361000D01*
Y633850D01*
X361000D01*
X360528Y634991D01*
X362682Y637145D01*
X383686D01*
X384779Y637363D01*
X385705Y637981D01*
X387717Y639994D01*
X404729Y622981D01*
X405656Y622363D01*
X406748Y622145D01*
X412784D01*
X414168Y620761D01*
X413404Y619865D01*
X412852Y619313D01*
X393167D01*
X381461Y631019D01*
X380535Y631637D01*
X380000Y631744D01*
Y634350D01*
X368000D01*
Y624350D01*
X380000D01*
X380000Y624350D01*
Y624350D01*
X380874Y623531D01*
X389965Y614439D01*
X390891Y613820D01*
X391984Y613603D01*
X412852D01*
X414236Y612219D01*
X416073Y611458D01*
X418063D01*
X419900Y612219D01*
X421307Y613626D01*
X422068Y615463D01*
Y617453D01*
X421307Y619290D01*
X419900Y620697D01*
X420664Y621593D01*
X421239Y622168D01*
X422000Y624005D01*
Y625995D01*
X421239Y627832D01*
X419832Y629239D01*
X417995Y630000D01*
X416005D01*
X414168Y629239D01*
X412784Y627855D01*
X407930D01*
X391754Y644031D01*
X396613Y648889D01*
X398837Y646665D01*
X403182Y651011D01*
X406011Y648182D01*
X401665Y643837D01*
X410151Y635352D01*
X422879Y648080D01*
X422047Y648912D01*
X422393Y649559D01*
X422754Y650000D01*
X423030D01*
X423424Y649922D01*
X425920D01*
X426446Y648652D01*
X425410Y647615D01*
X424572Y645594D01*
Y643406D01*
X425410Y641384D01*
X426957Y639837D01*
X427014Y639813D01*
Y585000D01*
X427014Y585000D01*
X427014Y585000D01*
Y576912D01*
X421078Y570977D01*
X421022Y571000D01*
X418834D01*
X416812Y570163D01*
X415265Y568616D01*
X414428Y566594D01*
Y564406D01*
X415265Y562385D01*
X416812Y560838D01*
X418167Y560277D01*
Y558902D01*
X415860Y557947D01*
X415526Y557724D01*
X415155Y557570D01*
X412535Y555819D01*
X412251Y555535D01*
X411917Y555312D01*
X410802Y554198D01*
X410802Y554198D01*
X409688Y553083D01*
X409465Y552749D01*
X409181Y552465D01*
X407430Y549845D01*
X407276Y549474D01*
X407053Y549140D01*
X405847Y546228D01*
X405769Y545834D01*
X405615Y545463D01*
X405000Y542371D01*
Y541970D01*
X404922Y541576D01*
Y538424D01*
X405000Y538030D01*
Y537754D01*
X404559Y537393D01*
X403912Y537047D01*
X403080Y537879D01*
X390352Y525151D01*
X392091Y523412D01*
X388053Y519374D01*
X384439D01*
X383347Y519157D01*
X382421Y518538D01*
X371087Y507205D01*
X348500D01*
Y508850D01*
X336500D01*
Y507100D01*
X335936Y506987D01*
X335010Y506369D01*
X332173Y503532D01*
X331000Y504018D01*
Y508850D01*
X319000D01*
X318215Y509672D01*
X318188Y509837D01*
X319735Y511384D01*
X320572Y513406D01*
Y515594D01*
X319735Y517615D01*
X318188Y519162D01*
X316833Y519723D01*
Y521098D01*
X319139Y522053D01*
X319474Y522276D01*
X319845Y522430D01*
X322465Y524181D01*
X322749Y524465D01*
X323083Y524688D01*
X324198Y525802D01*
X324198Y525802D01*
X325312Y526917D01*
X325535Y527251D01*
X325819Y527535D01*
X327570Y530155D01*
X327724Y530526D01*
X327947Y530860D01*
X329153Y533772D01*
X329231Y534166D01*
X329385Y534537D01*
X330000Y537629D01*
Y538030D01*
X330078Y538424D01*
Y541576D01*
X330000Y541970D01*
Y542246D01*
X330441Y542607D01*
X331088Y542953D01*
X331920Y542121D01*
X344648Y554849D01*
X336163Y563335D01*
X331818Y558989D01*
X328989Y561818D01*
X333335Y566163D01*
X331110Y568387D01*
X340721Y577997D01*
X340721Y577997D01*
X340721Y577997D01*
X343719Y580995D01*
X349000D01*
Y578850D01*
X360619D01*
Y576150D01*
X349000D01*
Y566150D01*
X352590D01*
Y530504D01*
X351206Y529120D01*
X350445Y527283D01*
Y525294D01*
X351206Y523456D01*
X352613Y522049D01*
X354450Y521288D01*
X356440D01*
X358277Y522049D01*
X359459Y523231D01*
X360642Y522049D01*
X362479Y521288D01*
X364469D01*
X366306Y522049D01*
X367464Y523207D01*
X368224Y523356D01*
X368984Y523207D01*
X370142Y522049D01*
X371979Y521288D01*
X373969D01*
X375806Y522049D01*
X377213Y523456D01*
X377974Y525293D01*
Y527283D01*
X377213Y529120D01*
X375829Y530504D01*
Y611650D01*
X380000D01*
Y621650D01*
X368000D01*
Y611650D01*
X370119D01*
Y530504D01*
X368984Y529369D01*
X368224Y529220D01*
X367464Y529369D01*
X366329Y530504D01*
Y604026D01*
X366111Y605118D01*
X365493Y606045D01*
X361480Y610057D01*
X361000Y611150D01*
X361000D01*
X361000Y611150D01*
Y621150D01*
X349000D01*
Y611150D01*
X352534D01*
X352981Y610481D01*
X360619Y602844D01*
Y588850D01*
X349000D01*
Y586705D01*
X342536D01*
X341444Y586488D01*
X340518Y585869D01*
X338702Y584053D01*
X210934Y711822D01*
X158864Y763891D01*
X158864Y763891D01*
X92697Y830058D01*
X91771Y830677D01*
X90679Y830894D01*
X89353D01*
X88261Y830677D01*
X87334Y830058D01*
X78387Y821111D01*
X76163Y823335D01*
X71818Y818989D01*
X68989Y821818D01*
X73334Y826163D01*
X64849Y834648D01*
X52121Y821920D01*
X52953Y821088D01*
X52607Y820441D01*
X52246Y820000D01*
X51970D01*
X51576Y820078D01*
X49080D01*
X48554Y821348D01*
X49590Y822385D01*
X50428Y824406D01*
Y826594D01*
X49590Y828616D01*
X48043Y830163D01*
X46022Y831000D01*
X43834D01*
X41812Y830163D01*
X40265Y828616D01*
X39428Y826594D01*
Y824406D01*
X40265Y822385D01*
X41812Y820838D01*
X43167Y820277D01*
Y818902D01*
X40860Y817947D01*
X40526Y817724D01*
X40155Y817570D01*
X37535Y815819D01*
X37251Y815535D01*
X36917Y815312D01*
X35802Y814197D01*
X35802Y814197D01*
X34688Y813083D01*
X34465Y812749D01*
X34181Y812465D01*
X32430Y809845D01*
X32276Y809474D01*
X32053Y809140D01*
X30847Y806228D01*
X30769Y805834D01*
X30615Y805463D01*
X30000Y802372D01*
Y801970D01*
X29922Y801576D01*
Y798424D01*
X30000Y798030D01*
Y797754D01*
X29559Y797393D01*
X28912Y797047D01*
X28080Y797879D01*
X15352Y785151D01*
X17576Y782927D01*
X11950Y777301D01*
X9068D01*
Y826932D01*
X23068Y840932D01*
X138807D01*
X159762Y819977D01*
X160920Y819203D01*
X162285Y818931D01*
X383334D01*
X384700Y819203D01*
X385857Y819977D01*
X406812Y840932D01*
X448119D01*
Y839479D01*
D02*
G37*
G36*
X842965Y819238D02*
Y792977D01*
X842523Y792315D01*
X842251Y790949D01*
Y465897D01*
X826728D01*
X825636Y465680D01*
X824710Y465061D01*
X817073Y457424D01*
X814849Y459648D01*
X802121Y446920D01*
X802953Y446088D01*
X802607Y445441D01*
X802246Y445000D01*
X801970D01*
X801576Y445078D01*
X799080D01*
X798554Y446348D01*
X799590Y447385D01*
X800428Y449406D01*
Y451594D01*
X799590Y453616D01*
X798043Y455163D01*
X796022Y456000D01*
X793834D01*
X793777Y455977D01*
X777183Y472571D01*
X776191Y473234D01*
X775020Y473467D01*
X775020Y473467D01*
X715068D01*
X714220Y474737D01*
X714500Y475413D01*
Y477403D01*
X713739Y479240D01*
X712332Y480647D01*
X710495Y481408D01*
X708537D01*
X702279Y487667D01*
X701352Y488285D01*
X700260Y488503D01*
X665216D01*
X663832Y489887D01*
X661995Y490648D01*
X660005D01*
X658168Y489887D01*
X656761Y488480D01*
X656000Y486643D01*
Y484653D01*
X656761Y482816D01*
X658168Y481409D01*
X660005Y480648D01*
X661995D01*
X663832Y481409D01*
X665216Y482793D01*
X699078D01*
X704500Y477371D01*
Y475413D01*
X704780Y474737D01*
X703932Y473467D01*
X691288D01*
X690117Y473234D01*
X689125Y472571D01*
X689125Y472571D01*
X670710Y454156D01*
X669590Y453616D01*
X668043Y455163D01*
X666022Y456000D01*
X663834D01*
X661812Y455163D01*
X660265Y453616D01*
X659428Y451594D01*
Y449406D01*
X660265Y447385D01*
X661812Y445838D01*
X663167Y445277D01*
Y443902D01*
X660860Y442947D01*
X660526Y442724D01*
X660155Y442570D01*
X657535Y440819D01*
X657251Y440535D01*
X656917Y440312D01*
X655802Y439198D01*
X655802Y439197D01*
X654688Y438083D01*
X654465Y437749D01*
X654181Y437465D01*
X652430Y434845D01*
X652276Y434474D01*
X652053Y434140D01*
X650847Y431228D01*
X650769Y430834D01*
X650615Y430463D01*
X650000Y427371D01*
Y426970D01*
X649922Y426576D01*
Y423424D01*
X650000Y423030D01*
Y422754D01*
X649559Y422393D01*
X648912Y422047D01*
X648080Y422879D01*
X635352Y410151D01*
X637576Y407927D01*
X632971Y403322D01*
X628971Y407322D01*
Y446731D01*
X642819Y460579D01*
X643438Y461505D01*
X643655Y462598D01*
Y485510D01*
X643438Y486602D01*
X642819Y487528D01*
X637567Y492780D01*
Y548419D01*
X648972Y559824D01*
X650145Y559338D01*
Y524662D01*
X648761Y523278D01*
X648000Y521441D01*
Y519451D01*
X648761Y517614D01*
X650168Y516207D01*
X652005Y515446D01*
X653995D01*
X655832Y516207D01*
X657000Y517375D01*
X658168Y516207D01*
X660005Y515446D01*
X661995D01*
X663832Y516207D01*
X665239Y517614D01*
X666000Y519451D01*
Y521441D01*
X665239Y523278D01*
X663855Y524662D01*
Y563817D01*
X710182Y610145D01*
X764996D01*
X766089Y610363D01*
X767015Y610981D01*
X785366Y629332D01*
X785984Y630258D01*
X786202Y631350D01*
Y652629D01*
X785984Y653722D01*
X785366Y654648D01*
X781822Y658192D01*
X782047Y658736D01*
Y661123D01*
X781133Y663328D01*
X779446Y665016D01*
X778055Y665592D01*
Y666967D01*
X779446Y667543D01*
X781133Y669231D01*
X782047Y671436D01*
Y673823D01*
X781133Y676028D01*
X779602Y677560D01*
X779731Y678298D01*
X779992Y678830D01*
X780713D01*
X782366Y679273D01*
X783848Y680128D01*
X785058Y681339D01*
X785914Y682821D01*
X786357Y684474D01*
Y686185D01*
X785914Y687839D01*
X785058Y689321D01*
X783848Y690531D01*
X782366Y691387D01*
X780713Y691830D01*
X779001D01*
X777348Y691387D01*
X775866Y690531D01*
X774656Y689321D01*
X773800Y687839D01*
X773357Y686185D01*
Y684474D01*
X773800Y682821D01*
X774656Y681339D01*
X775866Y680128D01*
X776262Y679900D01*
X775922Y678630D01*
X774854D01*
X772648Y677716D01*
X770960Y676028D01*
X770949Y676002D01*
X769536Y675909D01*
X768948Y676928D01*
X767645Y678231D01*
X766049Y679153D01*
X764708Y679512D01*
X764285Y680597D01*
X764290Y680891D01*
X764738Y681339D01*
X765594Y682821D01*
X766037Y684474D01*
Y686185D01*
X765594Y687839D01*
X764738Y689321D01*
X763528Y690531D01*
X762046Y691387D01*
X760393Y691830D01*
X758681D01*
X757028Y691387D01*
X755546Y690531D01*
X754336Y689321D01*
X753480Y687839D01*
X753037Y686185D01*
Y684474D01*
X753480Y682821D01*
X754336Y681339D01*
X755546Y680128D01*
X757028Y679273D01*
X758027Y679005D01*
X758431Y677613D01*
X757746Y676928D01*
X756824Y675331D01*
X756502Y674129D01*
X763347D01*
Y671130D01*
X756502D01*
X756824Y669928D01*
X757746Y668332D01*
X759049Y667028D01*
X760067Y666440D01*
X759975Y665027D01*
X759948Y665016D01*
X758260Y663328D01*
X758035Y662784D01*
X743930D01*
X742837Y662567D01*
X741911Y661948D01*
X737620Y657657D01*
X736350Y658183D01*
Y660000D01*
X726350D01*
Y648000D01*
X736350D01*
Y651145D01*
X738000D01*
X739092Y651363D01*
X740019Y651981D01*
X745112Y657075D01*
X758035D01*
X758260Y656531D01*
X759948Y654843D01*
X761339Y654267D01*
Y652892D01*
X759948Y652316D01*
X758260Y650628D01*
X758108Y650259D01*
X756836D01*
X756773Y650412D01*
X755367Y651818D01*
X753529Y652579D01*
X751540D01*
X749702Y651818D01*
X748296Y650412D01*
X747534Y648574D01*
Y646585D01*
X748296Y644747D01*
X749702Y643341D01*
X751540Y642579D01*
X753529D01*
X755367Y643341D01*
X756576Y644550D01*
X757963D01*
X758260Y643831D01*
X759948Y642143D01*
X762153Y641230D01*
X764540D01*
X766746Y642143D01*
X768434Y643831D01*
X769010Y645222D01*
X770384D01*
X770960Y643831D01*
X772648Y642143D01*
X774854Y641230D01*
X776848D01*
Y637684D01*
X775578Y637343D01*
X774898Y638521D01*
X773688Y639731D01*
X772206Y640587D01*
X770553Y641030D01*
X768841D01*
X767188Y640587D01*
X765706Y639731D01*
X764496Y638521D01*
X763640Y637038D01*
X763197Y635385D01*
Y633674D01*
X763640Y632021D01*
X764496Y630538D01*
X765706Y629328D01*
X767188Y628473D01*
X768489Y628124D01*
X769032Y626871D01*
X762116Y619955D01*
X707302D01*
X706209Y619738D01*
X705283Y619119D01*
X677406Y591242D01*
X677406Y591241D01*
X656525Y570361D01*
X655352Y570847D01*
Y609223D01*
X656736Y610607D01*
X657497Y612444D01*
Y614434D01*
X656736Y616271D01*
X655329Y617678D01*
X654653Y617958D01*
X654355Y619456D01*
X673922Y639023D01*
X673978Y639000D01*
X676166D01*
X678188Y639837D01*
X679735Y641384D01*
X680572Y643406D01*
Y645594D01*
X680549Y645650D01*
X727809Y692911D01*
X729055Y692663D01*
X729341Y691971D01*
X731029Y690283D01*
X732928Y689497D01*
Y695370D01*
X734428D01*
Y696870D01*
X740301D01*
X739514Y698768D01*
X737827Y700456D01*
X737135Y700743D01*
X736887Y701989D01*
X803922Y769023D01*
X803978Y769000D01*
X806166D01*
X808188Y769837D01*
X809735Y771384D01*
X810572Y773406D01*
Y775594D01*
X809735Y777615D01*
X808188Y779162D01*
X806833Y779723D01*
Y781098D01*
X809140Y782053D01*
X809474Y782276D01*
X809845Y782430D01*
X812465Y784181D01*
X812749Y784465D01*
X813083Y784688D01*
X814197Y785802D01*
X814198Y785803D01*
X815312Y786917D01*
X815535Y787251D01*
X815819Y787535D01*
X817570Y790155D01*
X817724Y790526D01*
X817947Y790860D01*
X819153Y793772D01*
X819231Y794166D01*
X819385Y794537D01*
X820000Y797628D01*
Y798030D01*
X820078Y798424D01*
Y801576D01*
X820000Y801970D01*
Y802246D01*
X820441Y802607D01*
X821088Y802953D01*
X821920Y802121D01*
X834648Y814849D01*
X832424Y817073D01*
X837234Y821883D01*
X840320D01*
X842965Y819238D01*
D02*
G37*
G36*
X154827Y759854D02*
X154827Y759854D01*
X204665Y710016D01*
X202111Y707463D01*
X202111Y707463D01*
X197073Y702424D01*
X194849Y704648D01*
X182121Y691920D01*
X182953Y691088D01*
X182607Y690441D01*
X182246Y690000D01*
X181970D01*
X181576Y690078D01*
X179080D01*
X178554Y691348D01*
X179590Y692385D01*
X180428Y694406D01*
Y696594D01*
X179590Y698616D01*
X178043Y700163D01*
X176022Y701000D01*
X173834D01*
X173777Y700977D01*
X98091Y776663D01*
X97099Y777326D01*
X95928Y777558D01*
X95928Y777558D01*
X59759D01*
X59735Y777615D01*
X58188Y779162D01*
X56834Y779723D01*
Y781098D01*
X59140Y782053D01*
X59474Y782276D01*
X59845Y782430D01*
X62465Y784181D01*
X62749Y784465D01*
X63083Y784688D01*
X64198Y785802D01*
X64198Y785803D01*
X65312Y786917D01*
X65535Y787251D01*
X65819Y787535D01*
X67570Y790155D01*
X67724Y790526D01*
X67947Y790860D01*
X69153Y793772D01*
X69231Y794166D01*
X69385Y794537D01*
X70000Y797628D01*
Y798030D01*
X70078Y798424D01*
Y801576D01*
X70000Y801970D01*
Y802246D01*
X70441Y802607D01*
X71088Y802953D01*
X71920Y802121D01*
X84648Y814849D01*
X82424Y817073D01*
X90016Y824665D01*
X154827Y759854D01*
D02*
G37*
G36*
X31011Y778182D02*
X26665Y773837D01*
X35151Y765352D01*
X47879Y778080D01*
X47047Y778912D01*
X47393Y779559D01*
X47754Y780000D01*
X48030D01*
X48424Y779922D01*
X50920D01*
X51446Y778652D01*
X50410Y777615D01*
X49572Y775594D01*
Y773406D01*
X50410Y771384D01*
X51957Y769837D01*
X53978Y769000D01*
X56166D01*
X58188Y769837D01*
X59735Y771384D01*
X59759Y771441D01*
X94662D01*
X169451Y696651D01*
X169428Y696594D01*
Y694406D01*
X170265Y692385D01*
X171812Y690838D01*
X173167Y690277D01*
Y688902D01*
X170860Y687947D01*
X170526Y687724D01*
X170155Y687570D01*
X167535Y685819D01*
X167251Y685535D01*
X166917Y685312D01*
X165802Y684197D01*
X165802Y684197D01*
X164688Y683083D01*
X164465Y682749D01*
X164181Y682465D01*
X162430Y679845D01*
X162276Y679474D01*
X162053Y679140D01*
X160847Y676228D01*
X160769Y675834D01*
X160615Y675463D01*
X160000Y672372D01*
Y671970D01*
X159922Y671576D01*
Y668424D01*
X160000Y668030D01*
Y667754D01*
X159559Y667393D01*
X158912Y667047D01*
X158080Y667879D01*
X145352Y655151D01*
X153837Y646665D01*
X158182Y651011D01*
X161011Y648182D01*
X156665Y643837D01*
X158890Y641613D01*
X148212Y630935D01*
X147593Y630009D01*
X147376Y628917D01*
Y482032D01*
X145992Y480648D01*
X145230Y478811D01*
Y476821D01*
X145992Y474984D01*
X147398Y473577D01*
X149236Y472816D01*
X151225D01*
X153063Y473577D01*
X154469Y474984D01*
X155230Y476821D01*
Y478811D01*
X154469Y480648D01*
X153085Y482032D01*
Y627734D01*
X162927Y637576D01*
X165151Y635352D01*
X177879Y648080D01*
X177047Y648912D01*
X177393Y649559D01*
X177754Y650000D01*
X178030D01*
X178424Y649922D01*
X180920D01*
X181446Y648652D01*
X180410Y647615D01*
X179572Y645594D01*
Y643406D01*
X180410Y641384D01*
X181957Y639837D01*
X183978Y639000D01*
X186166D01*
X188188Y639837D01*
X189735Y641384D01*
X189758Y641441D01*
X224662D01*
X299451Y566651D01*
X299428Y566594D01*
Y564406D01*
X300265Y562385D01*
X301812Y560838D01*
X303167Y560277D01*
Y558902D01*
X300860Y557947D01*
X300526Y557724D01*
X300155Y557570D01*
X297535Y555819D01*
X297251Y555535D01*
X296917Y555312D01*
X295802Y554198D01*
X295802Y554198D01*
X294688Y553083D01*
X294465Y552749D01*
X294181Y552465D01*
X292430Y549845D01*
X292276Y549474D01*
X292053Y549140D01*
X290847Y546228D01*
X290769Y545834D01*
X290615Y545463D01*
X290000Y542371D01*
Y541970D01*
X289922Y541576D01*
Y538424D01*
X290000Y538030D01*
Y537754D01*
X289559Y537393D01*
X288912Y537047D01*
X288080Y537879D01*
X275352Y525151D01*
X283837Y516665D01*
X288182Y521011D01*
X291011Y518182D01*
X286665Y513837D01*
X288890Y511613D01*
X284266Y506990D01*
X283994D01*
X282156Y506228D01*
X280750Y504822D01*
X279989Y502984D01*
Y500995D01*
X280750Y499157D01*
X282156Y497751D01*
X283994Y496990D01*
X285951D01*
X287910Y495031D01*
X288836Y494412D01*
X289928Y494195D01*
X319000D01*
Y487827D01*
X318363D01*
X316525Y487065D01*
X315141Y485681D01*
X271826D01*
X270734Y485464D01*
X269808Y484845D01*
X261981Y477019D01*
X261362Y476093D01*
X261215Y475350D01*
X258000D01*
Y465350D01*
X270000D01*
Y475350D01*
X270000D01*
X269528Y476491D01*
X273009Y479972D01*
X315141D01*
X316525Y478588D01*
X318363Y477827D01*
X320352D01*
X322189Y478588D01*
X322741Y479139D01*
X323267Y479086D01*
X324199Y478801D01*
X324681Y478079D01*
X328578Y474182D01*
X328092Y473009D01*
X281807D01*
X280715Y472791D01*
X279788Y472173D01*
X270952Y463336D01*
X270000Y462650D01*
Y462650D01*
X270000Y462650D01*
X258000D01*
Y459655D01*
X223114D01*
X222022Y459438D01*
X221096Y458819D01*
X208387Y446110D01*
X206163Y448335D01*
X201818Y443989D01*
X198989Y446818D01*
X203335Y451163D01*
X201110Y453387D01*
X210003Y462279D01*
X210622Y463206D01*
X210839Y464298D01*
Y465624D01*
X210622Y466716D01*
X210003Y467642D01*
X192011Y485635D01*
X191084Y486254D01*
X189992Y486471D01*
X175158D01*
X173774Y487855D01*
X171937Y488616D01*
X169947D01*
X168110Y487855D01*
X166703Y486448D01*
X165942Y484611D01*
Y482621D01*
X166703Y480784D01*
X168110Y479377D01*
X169947Y478616D01*
X171937D01*
X173774Y479377D01*
X175158Y480761D01*
X188810D01*
X204610Y464961D01*
X197073Y457424D01*
X194849Y459648D01*
X182121Y446920D01*
X182953Y446088D01*
X182607Y445441D01*
X182246Y445000D01*
X181970D01*
X181576Y445078D01*
X179080D01*
X178554Y446348D01*
X179590Y447385D01*
X180428Y449406D01*
Y451594D01*
X179590Y453616D01*
X178043Y455163D01*
X176022Y456000D01*
X173834D01*
X173777Y455977D01*
X167271Y462483D01*
X166279Y463146D01*
X165108Y463379D01*
X165108Y463379D01*
X61200D01*
X61199Y463379D01*
X60029Y463146D01*
X59037Y462483D01*
X50710Y454156D01*
X49590Y453616D01*
X48043Y455163D01*
X46022Y456000D01*
X43834D01*
X41812Y455163D01*
X40265Y453616D01*
X39428Y451594D01*
Y449406D01*
X40265Y447385D01*
X41812Y445838D01*
X43167Y445277D01*
Y443902D01*
X40860Y442947D01*
X40526Y442724D01*
X40155Y442570D01*
X37535Y440819D01*
X37251Y440535D01*
X36917Y440312D01*
X35802Y439198D01*
X35802Y439197D01*
X34688Y438083D01*
X34465Y437749D01*
X34181Y437465D01*
X32430Y434845D01*
X32276Y434474D01*
X32053Y434140D01*
X30847Y431228D01*
X30769Y430834D01*
X30615Y430463D01*
X30000Y427371D01*
Y426970D01*
X29922Y426576D01*
Y423424D01*
X30000Y423030D01*
Y422754D01*
X29559Y422393D01*
X28912Y422047D01*
X28080Y422879D01*
X15352Y410151D01*
X17576Y407927D01*
X12300Y402651D01*
X9068D01*
Y771591D01*
X13132D01*
X14225Y771808D01*
X15151Y772427D01*
X21613Y778889D01*
X23837Y776665D01*
X28182Y781011D01*
X31011Y778182D01*
D02*
G37*
G36*
X798424Y779922D02*
X800920D01*
X801446Y778652D01*
X800410Y777615D01*
X799572Y775594D01*
Y773406D01*
X799596Y773349D01*
X690654Y664407D01*
X689484Y665033D01*
X690000Y667628D01*
Y668030D01*
X690078Y668424D01*
Y671576D01*
X690000Y671970D01*
Y672246D01*
X690441Y672607D01*
X691088Y672953D01*
X691920Y672121D01*
X704648Y684849D01*
X702424Y687073D01*
X708882Y693531D01*
X782927Y767576D01*
X785151Y765352D01*
X797879Y778080D01*
X797047Y778912D01*
X797393Y779559D01*
X797754Y780000D01*
X798030D01*
X798424Y779922D01*
D02*
G37*
G36*
X423424D02*
X425920D01*
X426446Y778652D01*
X425410Y777615D01*
X424572Y775594D01*
Y773406D01*
X425410Y771384D01*
X426957Y769837D01*
X428978Y769000D01*
X429967D01*
Y732443D01*
X428697Y731917D01*
X427774Y732839D01*
X427288Y733040D01*
X427155Y733705D01*
X426536Y734631D01*
X418949Y742219D01*
X418023Y742838D01*
X416930Y743055D01*
X414524D01*
X402905Y754675D01*
Y762554D01*
X407927Y767576D01*
X410151Y765352D01*
X422879Y778080D01*
X422047Y778912D01*
X422393Y779559D01*
X422754Y780000D01*
X423030D01*
X423424Y779922D01*
D02*
G37*
G36*
X453530Y713881D02*
X442073Y702424D01*
X439849Y704648D01*
X427121Y691920D01*
X427953Y691088D01*
X427607Y690441D01*
X427246Y690000D01*
X426970D01*
X426576Y690078D01*
X424080D01*
X423554Y691348D01*
X424590Y692385D01*
X425428Y694406D01*
Y696594D01*
X424590Y698616D01*
X423043Y700163D01*
X422986Y700187D01*
Y712793D01*
X434476Y724282D01*
X436193Y724361D01*
X438031Y723600D01*
X440020D01*
X441857Y724361D01*
X442453Y724957D01*
X453530Y713881D01*
D02*
G37*
G36*
X702826Y695549D02*
X698387Y691111D01*
X696163Y693335D01*
X691818Y688989D01*
X688989Y691818D01*
X693335Y696163D01*
X684849Y704648D01*
X672121Y691920D01*
X672953Y691088D01*
X672607Y690441D01*
X672246Y690000D01*
X671970D01*
X671576Y690078D01*
X669080D01*
X668554Y691348D01*
X669590Y692385D01*
X670428Y694406D01*
Y696594D01*
X669590Y698616D01*
X668043Y700163D01*
X666022Y701000D01*
X663834D01*
X661812Y700163D01*
X660265Y698616D01*
X659428Y696594D01*
Y694406D01*
X660265Y692385D01*
X661812Y690838D01*
X663167Y690277D01*
Y688902D01*
X660860Y687947D01*
X660526Y687724D01*
X660155Y687570D01*
X657535Y685819D01*
X657251Y685535D01*
X656917Y685312D01*
X655802Y684197D01*
X655802Y684197D01*
X654688Y683083D01*
X654465Y682749D01*
X654181Y682465D01*
X652430Y679845D01*
X652276Y679474D01*
X652053Y679140D01*
X650847Y676228D01*
X650769Y675834D01*
X650615Y675463D01*
X650000Y672372D01*
Y671970D01*
X649922Y671576D01*
Y668424D01*
X650000Y668030D01*
Y667754D01*
X649559Y667393D01*
X648912Y667047D01*
X648080Y667879D01*
X635352Y655151D01*
X643837Y646665D01*
X646143Y648972D01*
X646377Y649128D01*
X646533Y649362D01*
X648182Y651011D01*
X651011Y648182D01*
X646665Y643837D01*
X648889Y641613D01*
X645823Y638547D01*
X645815Y638534D01*
X639416Y632136D01*
X614383Y657169D01*
X614246Y657261D01*
X613493Y657967D01*
X613709Y659031D01*
X614092Y659956D01*
Y661945D01*
X613331Y663783D01*
X611947Y665167D01*
Y673441D01*
X649292Y710787D01*
X687589D01*
X702826Y695549D01*
D02*
G37*
G36*
X334665Y580016D02*
X327073Y572424D01*
X324849Y574648D01*
X312121Y561920D01*
X312953Y561088D01*
X312607Y560441D01*
X312246Y560000D01*
X311970D01*
X311576Y560078D01*
X309080D01*
X308554Y561348D01*
X309590Y562385D01*
X310428Y564406D01*
Y566594D01*
X309590Y568616D01*
X308043Y570163D01*
X306022Y571000D01*
X303834D01*
X303777Y570977D01*
X228091Y646663D01*
X227099Y647326D01*
X225928Y647558D01*
X225928Y647558D01*
X189758D01*
X189735Y647615D01*
X188188Y649162D01*
X186833Y649723D01*
Y651098D01*
X189140Y652053D01*
X189474Y652276D01*
X189845Y652430D01*
X192465Y654181D01*
X192749Y654465D01*
X193083Y654688D01*
X194198Y655802D01*
X194198Y655803D01*
X195312Y656917D01*
X195535Y657251D01*
X195819Y657535D01*
X197570Y660155D01*
X197724Y660526D01*
X197947Y660860D01*
X199153Y663772D01*
X199231Y664166D01*
X199385Y664537D01*
X200000Y667628D01*
Y668030D01*
X200078Y668424D01*
Y671576D01*
X200000Y671970D01*
Y672246D01*
X200441Y672607D01*
X201088Y672953D01*
X201920Y672121D01*
X214648Y684849D01*
X206163Y693335D01*
X201818Y688989D01*
X198989Y691818D01*
X203335Y696163D01*
X201110Y698387D01*
X206149Y703425D01*
X206149Y703425D01*
X208702Y705978D01*
X334665Y580016D01*
D02*
G37*
G36*
X637398Y626080D02*
X638871Y624606D01*
Y623854D01*
X637487Y622471D01*
X636726Y620633D01*
Y618644D01*
X637487Y616806D01*
X638894Y615399D01*
X639570Y615119D01*
X639868Y613621D01*
X634306Y608059D01*
X574427D01*
X574427Y608059D01*
X573257Y607826D01*
X572264Y607163D01*
X572264Y607163D01*
X557791Y592689D01*
X556344Y593038D01*
X555856Y594215D01*
X554450Y595621D01*
X552612Y596383D01*
X550623D01*
X548785Y595621D01*
X547379Y594215D01*
X547290Y594000D01*
X538350D01*
Y582000D01*
X545442D01*
X545928Y580827D01*
X536078Y570977D01*
X536022Y571000D01*
X533834D01*
X531812Y570163D01*
X530265Y568616D01*
X529428Y566594D01*
Y564406D01*
X530265Y562385D01*
X531812Y560838D01*
X533167Y560277D01*
Y558902D01*
X530860Y557947D01*
X530526Y557724D01*
X530155Y557570D01*
X527535Y555819D01*
X527251Y555535D01*
X526917Y555312D01*
X525802Y554198D01*
X525802Y554198D01*
X524688Y553083D01*
X524465Y552749D01*
X524181Y552465D01*
X522430Y549845D01*
X522276Y549474D01*
X522053Y549140D01*
X520847Y546228D01*
X520769Y545834D01*
X520615Y545463D01*
X520000Y542371D01*
Y541970D01*
X519922Y541576D01*
Y538424D01*
X520000Y538030D01*
Y537754D01*
X519559Y537393D01*
X518912Y537047D01*
X518080Y537879D01*
X505352Y525151D01*
X513837Y516665D01*
X518182Y521011D01*
X521011Y518182D01*
X516665Y513837D01*
X518890Y511613D01*
X514184Y506907D01*
X505992Y515099D01*
X505066Y515718D01*
X503973Y515935D01*
X500786D01*
X499402Y517319D01*
X497565Y518080D01*
X495575D01*
X493738Y517319D01*
X492331Y515912D01*
X491570Y514075D01*
Y512085D01*
X491582Y512056D01*
X490877Y511000D01*
X489907D01*
X487701Y510087D01*
X486013Y508399D01*
X485227Y506500D01*
X496973D01*
X496756Y507024D01*
X497329Y507882D01*
X497674Y508125D01*
X499402Y508841D01*
X500786Y510225D01*
X502791D01*
X512165Y500851D01*
X529235Y483781D01*
X530161Y483162D01*
X531254Y482945D01*
X535433D01*
X536282Y481675D01*
X536000Y480995D01*
Y479005D01*
X536761Y477168D01*
X537639Y476290D01*
X538027Y475460D01*
X537639Y474630D01*
X536761Y473752D01*
X536000Y471914D01*
Y469925D01*
X536761Y468088D01*
X538168Y466681D01*
X540005Y465920D01*
X541995D01*
X543832Y466681D01*
X544072Y466921D01*
X546412Y464581D01*
X547095Y464125D01*
X546898Y462889D01*
X546884Y462855D01*
X535518D01*
X534425Y462637D01*
X533499Y462019D01*
X502862Y431381D01*
X502243Y430455D01*
X502025Y429362D01*
Y420558D01*
X500755Y419788D01*
X499568Y420280D01*
X498182D01*
X497238Y421060D01*
X497070Y421444D01*
Y439830D01*
X500319Y443079D01*
X500938Y444005D01*
X501155Y445098D01*
Y460467D01*
X506422Y465734D01*
X507041Y466661D01*
X507258Y467753D01*
Y481636D01*
X507041Y482729D01*
X506422Y483655D01*
X501059Y489019D01*
X500132Y489637D01*
X499040Y489855D01*
X495842D01*
X479114Y506582D01*
Y516650D01*
X479105Y516698D01*
Y525433D01*
X480375Y526282D01*
X481055Y526000D01*
X483045D01*
X484882Y526761D01*
X486289Y528168D01*
X487050Y530005D01*
Y531995D01*
X486289Y533832D01*
X484905Y535216D01*
Y545814D01*
X486175Y546340D01*
X486601Y545913D01*
X488500Y545127D01*
Y551000D01*
Y556873D01*
X486601Y556087D01*
X486175Y555660D01*
X484905Y556186D01*
Y564868D01*
X505182Y585145D01*
X525650D01*
Y582000D01*
X535650D01*
Y594000D01*
X525650D01*
Y590855D01*
X504000D01*
X502907Y590638D01*
X501981Y590019D01*
X480031Y568069D01*
X479412Y567142D01*
X479195Y566050D01*
Y539598D01*
X477925Y539112D01*
X472855Y544183D01*
Y567650D01*
X476000D01*
Y577650D01*
X464000D01*
Y567650D01*
X467145D01*
Y543000D01*
X467363Y541908D01*
X467981Y540981D01*
X472234Y536729D01*
X471514Y535652D01*
X470675Y536000D01*
X468686D01*
X466848Y535239D01*
X465442Y533832D01*
X464680Y531995D01*
Y530005D01*
X465442Y528168D01*
X466848Y526761D01*
X466877Y526749D01*
Y508914D01*
X463397Y505434D01*
X436520D01*
X435428Y505217D01*
X434501Y504598D01*
X417531Y487628D01*
X416912Y486702D01*
X416695Y485610D01*
Y480391D01*
X416912Y479298D01*
X417531Y478372D01*
X419295Y476608D01*
Y469825D01*
X418122Y469339D01*
X392135Y495325D01*
Y501859D01*
X393405Y502111D01*
X394033Y500596D01*
X395440Y499189D01*
X397277Y498428D01*
X399267D01*
X401104Y499189D01*
X402511Y500596D01*
X403272Y502433D01*
Y504391D01*
X407192Y508311D01*
X410151Y505352D01*
X422879Y518080D01*
X422047Y518912D01*
X422393Y519559D01*
X422754Y520000D01*
X423030D01*
X423424Y519922D01*
X425920D01*
X426446Y518652D01*
X425410Y517615D01*
X424572Y515594D01*
Y513406D01*
X425410Y511384D01*
X426957Y509837D01*
X428978Y509000D01*
X431166D01*
X433188Y509837D01*
X434735Y511384D01*
X435572Y513406D01*
Y515594D01*
X434735Y517615D01*
X433188Y519162D01*
X431833Y519723D01*
Y521098D01*
X434140Y522053D01*
X434474Y522276D01*
X434845Y522430D01*
X437465Y524181D01*
X437749Y524465D01*
X438083Y524688D01*
X439198Y525802D01*
X439198Y525802D01*
X440312Y526917D01*
X440535Y527251D01*
X440819Y527535D01*
X442570Y530155D01*
X442724Y530526D01*
X442947Y530860D01*
X444153Y533772D01*
X444231Y534166D01*
X444385Y534537D01*
X445000Y537629D01*
Y538030D01*
X445078Y538424D01*
Y541576D01*
X445000Y541970D01*
Y542246D01*
X445441Y542607D01*
X446088Y542953D01*
X446920Y542121D01*
X459648Y554849D01*
X451163Y563335D01*
X446818Y558989D01*
X443989Y561818D01*
X448335Y566163D01*
X446767Y567730D01*
X452037Y573000D01*
X453995D01*
X455832Y573761D01*
X457239Y575168D01*
X458000Y577005D01*
Y578995D01*
X457239Y580832D01*
X457050Y581021D01*
X457576Y582291D01*
X464000D01*
Y580350D01*
X476000D01*
Y590350D01*
X464000D01*
Y588409D01*
X433131D01*
Y622434D01*
X434401Y622686D01*
X434509Y622426D01*
X435915Y621019D01*
X437753Y620258D01*
X439742D01*
X441580Y621019D01*
X442964Y622403D01*
X461174D01*
X462267Y622621D01*
X463193Y623240D01*
X490398Y650445D01*
X533650D01*
Y647500D01*
X539650D01*
Y646000D01*
X541150D01*
Y639000D01*
X543757D01*
X543981Y638665D01*
X545965Y636681D01*
X546891Y636063D01*
X547983Y635845D01*
X585422D01*
X586515Y636063D01*
X587441Y636681D01*
X603055Y652296D01*
X611181D01*
X637398Y626080D01*
D02*
G37*
G36*
X668424Y649922D02*
X670920D01*
X671446Y648652D01*
X670410Y647615D01*
X669572Y645594D01*
Y643406D01*
X669596Y643349D01*
X647743Y621496D01*
X646245Y621794D01*
X645965Y622471D01*
X644581Y623854D01*
Y625789D01*
X644363Y626881D01*
X643745Y627808D01*
X643454Y628098D01*
X649861Y634505D01*
X649869Y634518D01*
X652927Y637576D01*
X655151Y635352D01*
X667879Y648080D01*
X667047Y648912D01*
X667393Y649559D01*
X667754Y650000D01*
X668030D01*
X668424Y649922D01*
D02*
G37*
G36*
X647978Y611283D02*
X648258Y610607D01*
X649642Y609223D01*
Y568569D01*
X632693Y551620D01*
X632074Y550694D01*
X631857Y549601D01*
Y491598D01*
X632074Y490505D01*
X632693Y489579D01*
X634749Y487523D01*
X634263Y486350D01*
X628000D01*
Y484178D01*
X627045Y483988D01*
X626654Y483727D01*
X625995Y484000D01*
X624005D01*
X622168Y483239D01*
X620761Y481832D01*
X620000Y479995D01*
Y478005D01*
X620761Y476168D01*
X621659Y475270D01*
X621133Y474000D01*
X621005D01*
X619168Y473239D01*
X617761Y471832D01*
X617000Y469995D01*
Y468005D01*
X617761Y466168D01*
X619168Y464761D01*
X621005Y464000D01*
X622995D01*
X624832Y464761D01*
X626216Y466145D01*
X628000D01*
Y463650D01*
X636156D01*
X636642Y462477D01*
X631019Y456854D01*
X629521Y457152D01*
X629239Y457832D01*
X627832Y459239D01*
X625995Y460000D01*
X624005D01*
X622168Y459239D01*
X620988Y458059D01*
X616350D01*
Y462000D01*
X607805D01*
Y472566D01*
X607588Y473659D01*
X606969Y474585D01*
X598855Y482699D01*
Y500650D01*
X602000D01*
Y510650D01*
X590000D01*
Y500650D01*
X593145D01*
Y481516D01*
X593363Y480424D01*
X593981Y479498D01*
X602095Y471384D01*
Y462000D01*
X593650D01*
Y458855D01*
X590182D01*
X587019Y462019D01*
X586092Y462637D01*
X585000Y462855D01*
X575206D01*
X574720Y464028D01*
X574806Y464114D01*
X575567Y465951D01*
Y467941D01*
X574806Y469778D01*
X574137Y470447D01*
X573563Y471390D01*
X574137Y472107D01*
X574916Y472885D01*
X575677Y474723D01*
Y476712D01*
X574916Y478549D01*
X573509Y479956D01*
X571671Y480717D01*
X569682D01*
X567845Y479956D01*
X566460Y478572D01*
X561627D01*
X560534Y478355D01*
X560210Y478138D01*
X560128Y478129D01*
X558812Y478559D01*
X558731Y478643D01*
X558239Y479832D01*
X556832Y481239D01*
X554995Y482000D01*
X553005D01*
X552698Y481873D01*
X546752Y487819D01*
X545826Y488437D01*
X544733Y488655D01*
X532436D01*
X518221Y502870D01*
X522927Y507576D01*
X525151Y505352D01*
X537879Y518080D01*
X537047Y518912D01*
X537393Y519559D01*
X537754Y520000D01*
X538030D01*
X538424Y519922D01*
X540920D01*
X541446Y518652D01*
X540410Y517615D01*
X539572Y515594D01*
Y513406D01*
X540410Y511384D01*
X541957Y509837D01*
X543978Y509000D01*
X546166D01*
X548188Y509837D01*
X549735Y511384D01*
X550572Y513406D01*
Y515291D01*
X590000D01*
Y513350D01*
X602000D01*
Y523350D01*
X590000D01*
Y521409D01*
X550602D01*
X550217Y522679D01*
X552465Y524181D01*
X552749Y524465D01*
X553083Y524688D01*
X554198Y525802D01*
X554198Y525802D01*
X555312Y526917D01*
X555535Y527251D01*
X555819Y527535D01*
X557570Y530155D01*
X557724Y530526D01*
X557947Y530860D01*
X559153Y533772D01*
X559231Y534166D01*
X559385Y534537D01*
X560000Y537629D01*
Y538030D01*
X560078Y538424D01*
Y541576D01*
X560000Y541970D01*
Y542246D01*
X560441Y542607D01*
X561088Y542953D01*
X561920Y542121D01*
X574648Y554849D01*
X566163Y563335D01*
X561818Y558989D01*
X558989Y561818D01*
X563335Y566163D01*
X560265Y569232D01*
X564046Y573012D01*
X566003D01*
X567840Y573774D01*
X569247Y575180D01*
X570008Y577018D01*
Y579007D01*
X569247Y580845D01*
X567840Y582251D01*
X566003Y583012D01*
X564014D01*
X562176Y582251D01*
X560769Y580845D01*
X560008Y579007D01*
Y577050D01*
X556228Y573270D01*
X554849Y574648D01*
X542121Y561920D01*
X542953Y561088D01*
X542607Y560441D01*
X542246Y560000D01*
X541970D01*
X541576Y560078D01*
X539080D01*
X538554Y561348D01*
X539590Y562385D01*
X540428Y564406D01*
Y566594D01*
X540404Y566651D01*
X575694Y601941D01*
X635573D01*
X635573Y601941D01*
X636743Y602174D01*
X637736Y602837D01*
X646480Y611581D01*
X647978Y611283D01*
D02*
G37*
G36*
X448950Y581021D02*
X448761Y580832D01*
X448000Y578995D01*
Y577037D01*
X442730Y571767D01*
X439849Y574648D01*
X427121Y561920D01*
X427953Y561088D01*
X427607Y560441D01*
X427246Y560000D01*
X426970D01*
X426576Y560078D01*
X424080D01*
X423554Y561348D01*
X424590Y562385D01*
X425428Y564406D01*
Y566594D01*
X425404Y566651D01*
X432235Y573482D01*
X432898Y574475D01*
X433131Y575645D01*
Y582291D01*
X448424D01*
X448950Y581021D01*
D02*
G37*
G36*
X308424Y519922D02*
X310920D01*
X311446Y518652D01*
X310410Y517615D01*
X309572Y515594D01*
Y513406D01*
X310410Y511384D01*
X311957Y509837D01*
X312014Y509813D01*
Y507628D01*
X312013Y507628D01*
X312246Y506457D01*
X312910Y505465D01*
X316687Y501687D01*
X316687Y501687D01*
X317454Y501175D01*
X317316Y500092D01*
X317243Y499905D01*
X291111D01*
X289988Y501027D01*
Y502984D01*
X289504Y504153D01*
X292927Y507576D01*
X295151Y505352D01*
X307879Y518080D01*
X307047Y518912D01*
X307393Y519559D01*
X307754Y520000D01*
X308030D01*
X308424Y519922D01*
D02*
G37*
G36*
X373082Y500362D02*
X372761Y499586D01*
Y497597D01*
X373522Y495760D01*
X373603Y495678D01*
X373117Y494505D01*
X348500D01*
Y496150D01*
X336500D01*
Y487367D01*
X335758Y486968D01*
X335230Y486781D01*
X333495Y487500D01*
X331506D01*
X331000Y487838D01*
Y494532D01*
X331747Y495031D01*
X335840Y499124D01*
X336500Y498850D01*
Y498850D01*
X348500D01*
Y501495D01*
X372270D01*
X373082Y500362D01*
D02*
G37*
G36*
X493602Y471117D02*
Y469159D01*
X494363Y467322D01*
X495399Y466286D01*
X494572Y465359D01*
X492673Y466145D01*
Y460272D01*
X489673D01*
Y467325D01*
X486200D01*
Y460325D01*
X483200D01*
Y467695D01*
X482742Y468381D01*
X483000Y469005D01*
Y470995D01*
X482239Y472832D01*
X480832Y474239D01*
X479954Y474603D01*
X479914Y474805D01*
X479295Y475731D01*
X478358Y476669D01*
X477431Y477287D01*
X476339Y477505D01*
X472000D01*
Y478650D01*
X460000D01*
Y477318D01*
X456187D01*
Y478650D01*
X444187D01*
Y468650D01*
X445233D01*
X445744Y467500D01*
X445107Y466650D01*
X444000D01*
Y459350D01*
X441000D01*
Y466650D01*
X440705D01*
Y487480D01*
X442013Y488789D01*
X443187Y488303D01*
Y487850D01*
X450187D01*
Y486350D01*
X451687D01*
Y480350D01*
X455961D01*
X456500Y480127D01*
Y486000D01*
X459500D01*
Y480127D01*
X460038Y480350D01*
X464500D01*
Y486350D01*
X466000D01*
Y487850D01*
X473000D01*
Y489959D01*
X474270Y490449D01*
X493602Y471117D01*
D02*
G37*
G36*
X386303Y472012D02*
X386321Y471678D01*
X386022Y470496D01*
X385548Y470178D01*
X384995Y469351D01*
X384801Y468376D01*
Y462933D01*
X383531Y462506D01*
X379504Y466533D01*
X379700Y467005D01*
Y468995D01*
X378939Y470832D01*
X377532Y472239D01*
X375695Y473000D01*
X373705D01*
X371868Y472239D01*
X370461Y470832D01*
X369700Y468995D01*
Y467005D01*
X370461Y465168D01*
X371868Y463761D01*
X373705Y463000D01*
X374963D01*
X377966Y459997D01*
X377801Y459168D01*
Y454850D01*
X377995Y453875D01*
X378499Y453120D01*
X378350Y451850D01*
X378350Y451850D01*
Y449000D01*
X385650D01*
Y446000D01*
X378350D01*
Y445355D01*
X374970D01*
Y445905D01*
X374209Y447743D01*
X373764Y448188D01*
X375088Y449512D01*
X375875Y451410D01*
X364129D01*
X364915Y449512D01*
X366208Y448219D01*
X365731Y447743D01*
X365449Y447062D01*
X363951Y446764D01*
X361161Y449555D01*
X360921Y449914D01*
X334354Y476481D01*
X334652Y477979D01*
X335332Y478261D01*
X336716Y479645D01*
X378669D01*
X386303Y472012D01*
D02*
G37*
G36*
X789451Y451651D02*
X789428Y451594D01*
Y449406D01*
X790265Y447385D01*
X791812Y445838D01*
X793167Y445277D01*
Y443902D01*
X790860Y442947D01*
X790526Y442724D01*
X790155Y442570D01*
X787535Y440819D01*
X787251Y440535D01*
X786917Y440312D01*
X785802Y439198D01*
X785802Y439197D01*
X784688Y438083D01*
X784465Y437749D01*
X784181Y437465D01*
X782430Y434845D01*
X782276Y434474D01*
X782053Y434140D01*
X780847Y431228D01*
X780769Y430834D01*
X780615Y430463D01*
X780000Y427371D01*
Y426970D01*
X779922Y426576D01*
Y423424D01*
X780000Y423030D01*
Y422754D01*
X779559Y422393D01*
X778912Y422047D01*
X778080Y422879D01*
X765352Y410151D01*
X767576Y407927D01*
X764840Y405191D01*
X764199D01*
X730745Y438645D01*
X729818Y439263D01*
X728726Y439481D01*
X722035D01*
X711441Y450075D01*
X710515Y450694D01*
X709422Y450911D01*
X704370D01*
X703277Y450694D01*
X702351Y450075D01*
X698387Y446110D01*
X696163Y448335D01*
X691818Y443989D01*
X688989Y446818D01*
X693335Y451163D01*
X691111Y453387D01*
X699277Y461553D01*
X705284D01*
X706668Y460169D01*
X708505Y459408D01*
X710495D01*
X712332Y460169D01*
X713739Y461576D01*
X714500Y463413D01*
Y465403D01*
X714220Y466079D01*
X715068Y467349D01*
X773753D01*
X789451Y451651D01*
D02*
G37*
G36*
X331663Y466006D02*
Y462014D01*
X327073Y457424D01*
X324849Y459648D01*
X312121Y446920D01*
X312953Y446088D01*
X312607Y445441D01*
X312246Y445000D01*
X311970D01*
X311576Y445078D01*
X309080D01*
X308554Y446348D01*
X309590Y447385D01*
X310428Y449406D01*
Y451594D01*
X309590Y453616D01*
X308043Y455163D01*
X306022Y456000D01*
X303834D01*
X301812Y455163D01*
X300265Y453616D01*
X299428Y451594D01*
Y449406D01*
X300265Y447385D01*
X301812Y445838D01*
X303167Y445277D01*
Y443902D01*
X300860Y442947D01*
X300526Y442724D01*
X300155Y442570D01*
X297535Y440819D01*
X297251Y440535D01*
X296917Y440312D01*
X295802Y439198D01*
X295802Y439197D01*
X294688Y438083D01*
X294465Y437749D01*
X294181Y437465D01*
X292430Y434845D01*
X292276Y434474D01*
X292053Y434140D01*
X290847Y431228D01*
X290769Y430834D01*
X290615Y430463D01*
X290000Y427371D01*
Y426970D01*
X289922Y426576D01*
Y423424D01*
X290000Y423030D01*
Y422754D01*
X289559Y422393D01*
X288912Y422047D01*
X288080Y422879D01*
X275352Y410151D01*
X277576Y407927D01*
X273504Y403855D01*
X270216D01*
X268832Y405239D01*
X266995Y406000D01*
X265005D01*
X263168Y405239D01*
X261761Y403832D01*
X261000Y401995D01*
Y400005D01*
X261761Y398168D01*
X263168Y396761D01*
X265005Y396000D01*
X266995D01*
X268832Y396761D01*
X270216Y398145D01*
X274686D01*
X275779Y398363D01*
X276705Y398981D01*
X281613Y403890D01*
X283837Y401665D01*
X288182Y406011D01*
X291011Y403182D01*
X286665Y398837D01*
X294824Y390679D01*
X294361Y389409D01*
X264000D01*
Y391350D01*
X252000D01*
Y391350D01*
X251276Y391050D01*
X240663Y401662D01*
X239671Y402326D01*
X238500Y402558D01*
X238500Y402558D01*
X189758D01*
X189735Y402615D01*
X188188Y404162D01*
X186833Y404723D01*
Y406098D01*
X189140Y407053D01*
X189474Y407276D01*
X189845Y407430D01*
X192465Y409181D01*
X192749Y409465D01*
X193083Y409688D01*
X194198Y410802D01*
X194198Y410802D01*
X195312Y411917D01*
X195535Y412251D01*
X195819Y412535D01*
X197570Y415155D01*
X197724Y415526D01*
X197947Y415860D01*
X199153Y418772D01*
X199231Y419166D01*
X199385Y419537D01*
X200000Y422629D01*
Y423030D01*
X200078Y423424D01*
Y426576D01*
X200000Y426970D01*
Y427246D01*
X200441Y427607D01*
X201088Y427953D01*
X201920Y427121D01*
X214648Y439849D01*
X212424Y442073D01*
X224297Y453946D01*
X258000D01*
Y452650D01*
X270000D01*
Y454934D01*
X270396Y455013D01*
X271322Y455631D01*
X282990Y467299D01*
X330370D01*
X331663Y466006D01*
D02*
G37*
G36*
X460000Y468650D02*
X472000D01*
X472000Y468650D01*
X472885Y468541D01*
X473447Y467387D01*
X472856Y466325D01*
X467000D01*
Y460908D01*
X465149D01*
X464056Y460691D01*
X463130Y460072D01*
X458413Y455355D01*
X454350D01*
X453257Y455137D01*
X452827Y454850D01*
X451000D01*
Y456000D01*
X449850D01*
Y457827D01*
X450137Y458257D01*
X450355Y459350D01*
Y463817D01*
X452205Y465668D01*
X452824Y466594D01*
X453041Y467687D01*
Y468650D01*
X456187D01*
Y471609D01*
X460000D01*
Y468650D01*
D02*
G37*
G36*
X130880Y455991D02*
X130600Y455314D01*
Y453939D01*
X130600Y453325D01*
X129457Y452765D01*
X128805D01*
X127614Y452272D01*
X126795Y452435D01*
X85894D01*
X84801Y452217D01*
X83875Y451599D01*
X78387Y446110D01*
X76163Y448335D01*
X71818Y443989D01*
X68989Y446818D01*
X73334Y451163D01*
X68410Y456088D01*
X68896Y457261D01*
X130032D01*
X130880Y455991D01*
D02*
G37*
G36*
X586981Y453981D02*
X587907Y453363D01*
X589000Y453145D01*
X593650D01*
Y450000D01*
X602095D01*
Y433252D01*
X600825Y432772D01*
X599758Y433839D01*
X597920Y434600D01*
X595931D01*
X594094Y433839D01*
X592687Y432432D01*
X591926Y430594D01*
Y428605D01*
X592687Y426768D01*
X594071Y425384D01*
Y406165D01*
X594288Y405072D01*
X594907Y404146D01*
X595800Y403253D01*
Y401505D01*
X596561Y399668D01*
X597968Y398261D01*
X599805Y397500D01*
X601795D01*
X603632Y398261D01*
X605039Y399668D01*
X605800Y401505D01*
Y403495D01*
X605039Y405332D01*
X603632Y406739D01*
X601795Y407500D01*
X599805D01*
X599781Y407517D01*
Y413969D01*
X601051Y414378D01*
X602168Y413261D01*
X604005Y412500D01*
X605995D01*
X607832Y413261D01*
X609239Y414668D01*
X610000Y416505D01*
Y418495D01*
X609239Y420332D01*
X607832Y421739D01*
X607805Y421750D01*
Y450000D01*
X616350D01*
Y451941D01*
X620988D01*
X622168Y450761D01*
X622917Y450451D01*
X623479Y449006D01*
X623261Y447914D01*
Y406140D01*
X623261Y406140D01*
X623479Y405047D01*
X624098Y404121D01*
X630290Y397929D01*
X631216Y397310D01*
X632308Y397093D01*
X633634D01*
X634726Y397310D01*
X635653Y397929D01*
X641613Y403889D01*
X643837Y401665D01*
X648182Y406011D01*
X651011Y403182D01*
X646665Y398837D01*
X648889Y396613D01*
X643401Y391125D01*
X629056D01*
X627672Y392509D01*
X625835Y393270D01*
X623845D01*
X622008Y392509D01*
X620601Y391102D01*
X619840Y389265D01*
Y387275D01*
X620120Y386599D01*
X619272Y385329D01*
X602739D01*
X591555Y396513D01*
X590563Y397176D01*
X590000Y397288D01*
Y399350D01*
X578000D01*
Y398122D01*
X576730Y397596D01*
X572663Y401662D01*
X571671Y402326D01*
X570500Y402558D01*
X570500Y402558D01*
X549758D01*
X549735Y402615D01*
X548188Y404162D01*
X546833Y404723D01*
Y406098D01*
X549140Y407053D01*
X549474Y407276D01*
X549845Y407430D01*
X552465Y409181D01*
X552749Y409465D01*
X553083Y409688D01*
X554198Y410802D01*
X554198Y410802D01*
X555312Y411917D01*
X555535Y412251D01*
X555819Y412535D01*
X557570Y415155D01*
X557724Y415526D01*
X557947Y415860D01*
X559153Y418772D01*
X559231Y419166D01*
X559385Y419537D01*
X560000Y422629D01*
Y423030D01*
X560078Y423424D01*
Y426576D01*
X560000Y426970D01*
Y427246D01*
X560441Y427607D01*
X561088Y427953D01*
X561920Y427121D01*
X566266Y431467D01*
X566935Y430797D01*
X567861Y430178D01*
X568954Y429961D01*
X581063D01*
X582155Y430178D01*
X583081Y430797D01*
X584019Y431735D01*
X584637Y432661D01*
X584855Y433753D01*
Y440784D01*
X586239Y442168D01*
X587000Y444005D01*
Y445995D01*
X586239Y447832D01*
X584832Y449239D01*
X582995Y450000D01*
X581005D01*
X579168Y449239D01*
X577761Y447832D01*
X577000Y445995D01*
Y444005D01*
X577761Y442168D01*
X579145Y440784D01*
Y435671D01*
X572129D01*
X571643Y436844D01*
X574648Y439849D01*
X566163Y448335D01*
X561818Y443989D01*
X558989Y446818D01*
X563335Y451163D01*
X558526Y455972D01*
X559012Y457145D01*
X583817D01*
X586981Y453981D01*
D02*
G37*
G36*
X842251Y20046D02*
X832632Y10427D01*
X764093D01*
Y21932D01*
X771332Y29171D01*
X773837Y26665D01*
X778182Y31011D01*
X781011Y28182D01*
X776665Y23837D01*
X785151Y15352D01*
X797879Y28080D01*
X797047Y28912D01*
X797393Y29559D01*
X797754Y30000D01*
X798030D01*
X798424Y29922D01*
X800920D01*
X801446Y28652D01*
X800410Y27615D01*
X799572Y25594D01*
Y23406D01*
X800410Y21384D01*
X801957Y19837D01*
X803978Y19000D01*
X806166D01*
X808188Y19837D01*
X809735Y21384D01*
X810572Y23406D01*
Y25594D01*
X809735Y27615D01*
X808188Y29162D01*
X806833Y29723D01*
Y31098D01*
X809140Y32053D01*
X809474Y32276D01*
X809845Y32430D01*
X812465Y34181D01*
X812749Y34465D01*
X813083Y34688D01*
X814197Y35802D01*
X814198Y35803D01*
X815312Y36917D01*
X815535Y37251D01*
X815819Y37535D01*
X817570Y40155D01*
X817724Y40526D01*
X817947Y40860D01*
X819153Y43772D01*
X819231Y44166D01*
X819385Y44537D01*
X820000Y47628D01*
Y48030D01*
X820078Y48424D01*
Y51576D01*
X820000Y51970D01*
Y52246D01*
X820441Y52607D01*
X821088Y52953D01*
X821920Y52121D01*
X834648Y64849D01*
X826163Y73334D01*
X821818Y68989D01*
X818989Y71818D01*
X823335Y76163D01*
X821111Y78387D01*
X823963Y81239D01*
X824582Y82165D01*
X824799Y83258D01*
Y93980D01*
X824582Y95072D01*
X823963Y95999D01*
X714489Y205473D01*
X713562Y206091D01*
X712470Y206309D01*
X704768D01*
X703675Y206091D01*
X702749Y205473D01*
X698387Y201110D01*
X696163Y203335D01*
X691818Y198989D01*
X688989Y201818D01*
X693335Y206163D01*
X691036Y208461D01*
X691357Y208940D01*
X691574Y210033D01*
Y250929D01*
X692958Y252313D01*
X693719Y254150D01*
Y256139D01*
X692958Y257977D01*
X691551Y259384D01*
X690871Y259666D01*
X690573Y261164D01*
X744969Y315559D01*
X745587Y316486D01*
X745805Y317578D01*
Y355000D01*
X754350D01*
Y357431D01*
X795498D01*
X796168Y356761D01*
X798005Y356000D01*
X799995D01*
X801832Y356761D01*
X803239Y358168D01*
X804000Y360005D01*
Y361995D01*
X803239Y363832D01*
X801832Y365239D01*
X799995Y366000D01*
X798005D01*
X796168Y365239D01*
X795498Y364569D01*
X754350D01*
Y367000D01*
X745679D01*
X745587Y367459D01*
X744969Y368386D01*
X740255Y373099D01*
X739329Y373718D01*
X738237Y373935D01*
X698567D01*
X697718Y375205D01*
X698000Y375886D01*
Y377875D01*
X697239Y379712D01*
X695832Y381119D01*
X693995Y381880D01*
X692005D01*
X690168Y381119D01*
X688784Y379735D01*
X654977D01*
X654451Y381005D01*
X669290Y395844D01*
X670410Y396384D01*
X671957Y394837D01*
X673978Y394000D01*
X676166D01*
X678188Y394837D01*
X679735Y396384D01*
X680572Y398406D01*
Y400594D01*
X679735Y402615D01*
X678188Y404162D01*
X676833Y404723D01*
Y406098D01*
X679140Y407053D01*
X679474Y407276D01*
X679845Y407430D01*
X682465Y409181D01*
X682749Y409465D01*
X683083Y409688D01*
X684197Y410802D01*
X684198Y410802D01*
X685312Y411917D01*
X685535Y412251D01*
X685819Y412535D01*
X687570Y415155D01*
X687724Y415526D01*
X687947Y415860D01*
X689153Y418772D01*
X689231Y419166D01*
X689385Y419537D01*
X690000Y422629D01*
Y423030D01*
X690078Y423424D01*
Y426576D01*
X690000Y426970D01*
Y427246D01*
X690441Y427607D01*
X691088Y427953D01*
X691920Y427121D01*
X704648Y439849D01*
X702424Y442073D01*
X705552Y445201D01*
X708240D01*
X718833Y434607D01*
X719760Y433988D01*
X720852Y433771D01*
X727543D01*
X760997Y400317D01*
X761924Y399698D01*
X763016Y399481D01*
X766022D01*
X767115Y399698D01*
X768041Y400317D01*
X771613Y403889D01*
X773837Y401665D01*
X778182Y406011D01*
X781011Y403182D01*
X776665Y398837D01*
X785151Y390352D01*
X797879Y403080D01*
X797047Y403912D01*
X797393Y404559D01*
X797754Y405000D01*
X798030D01*
X798424Y404922D01*
X800920D01*
X801446Y403652D01*
X800410Y402615D01*
X799572Y400594D01*
Y398406D01*
X800410Y396384D01*
X801957Y394837D01*
X803978Y394000D01*
X806166D01*
X808188Y394837D01*
X809735Y396384D01*
X810572Y398406D01*
Y400594D01*
X809735Y402615D01*
X808188Y404162D01*
X806833Y404723D01*
Y406098D01*
X809140Y407053D01*
X809474Y407276D01*
X809845Y407430D01*
X812465Y409181D01*
X812749Y409465D01*
X813083Y409688D01*
X814197Y410802D01*
X814198Y410802D01*
X815312Y411917D01*
X815535Y412251D01*
X815819Y412535D01*
X817570Y415155D01*
X817724Y415526D01*
X817947Y415860D01*
X819153Y418772D01*
X819231Y419166D01*
X819385Y419537D01*
X820000Y422629D01*
Y423030D01*
X820078Y423424D01*
Y426576D01*
X820000Y426970D01*
Y427246D01*
X820441Y427607D01*
X821088Y427953D01*
X821920Y427121D01*
X834648Y439849D01*
X826163Y448335D01*
X821818Y443989D01*
X818989Y446818D01*
X823335Y451163D01*
X821111Y453387D01*
X827911Y460187D01*
X842251D01*
Y20046D01*
D02*
G37*
G36*
X356643Y446117D02*
X356883Y445758D01*
X365549Y437092D01*
X365626Y437040D01*
X366052Y436614D01*
X365526Y435344D01*
X350664D01*
X349572Y435127D01*
X348646Y434508D01*
X344210Y430073D01*
X343591Y429146D01*
X343374Y428054D01*
Y408220D01*
X340477Y405322D01*
X340369Y405161D01*
X311712Y376505D01*
X264000D01*
Y378650D01*
X252000D01*
Y368650D01*
X252000D01*
X252322Y367513D01*
X252343Y367380D01*
X244981Y360019D01*
X244363Y359092D01*
X244145Y358000D01*
Y288000D01*
X244363Y286908D01*
X244981Y285981D01*
X246631Y284331D01*
X247558Y283713D01*
X248000Y283624D01*
Y281350D01*
X260000D01*
Y291350D01*
X249855D01*
Y356818D01*
X253533Y360495D01*
X254370Y360136D01*
X254700Y359867D01*
Y358005D01*
X255461Y356168D01*
X256868Y354761D01*
X258706Y354000D01*
X260695D01*
X262532Y354761D01*
X263916Y356145D01*
X295079D01*
X296171Y356362D01*
X297098Y356981D01*
X302259Y362143D01*
X326994D01*
Y359998D01*
X338994D01*
Y369998D01*
X326994D01*
Y367853D01*
X317886D01*
X317400Y369026D01*
X325821Y377447D01*
X326994Y376961D01*
Y372698D01*
X338994D01*
Y376634D01*
X344353D01*
X344879Y375364D01*
X343913Y374399D01*
X343127Y372500D01*
X349000D01*
Y371000D01*
X350500D01*
Y365127D01*
X352399Y365913D01*
X353380Y366895D01*
X354650Y366369D01*
Y365270D01*
X354650Y365000D01*
Y364000D01*
X354650Y363730D01*
Y358500D01*
X360650D01*
X366650D01*
Y363730D01*
X366650Y364000D01*
Y365000D01*
X366650Y365270D01*
Y370500D01*
X360650D01*
Y373500D01*
X366650D01*
Y375377D01*
X367080Y375572D01*
X368350Y374755D01*
Y366000D01*
X369495D01*
Y363000D01*
X368350D01*
Y351000D01*
X370945D01*
Y326457D01*
X369889Y325752D01*
X369500Y325913D01*
Y320040D01*
Y314167D01*
X369889Y314328D01*
X370945Y313623D01*
Y262300D01*
X370005D01*
X368168Y261539D01*
X367874Y261245D01*
X366405Y262714D01*
X364507Y263500D01*
Y257627D01*
X363007D01*
Y256127D01*
X357134D01*
X357549Y255125D01*
X356700Y253855D01*
X346350D01*
Y257000D01*
X337763D01*
X337237Y258270D01*
X363461Y284493D01*
X364080Y285420D01*
X364297Y286512D01*
Y313705D01*
X365567Y314554D01*
X366500Y314167D01*
Y320040D01*
Y325913D01*
X365567Y325527D01*
X364297Y326375D01*
Y338407D01*
X364080Y339499D01*
X363461Y340425D01*
X362523Y341363D01*
X361597Y341982D01*
X360505Y342199D01*
X350658D01*
X349565Y341982D01*
X348639Y341363D01*
X338387Y331110D01*
X336163Y333335D01*
X331818Y328989D01*
X328989Y331818D01*
X333335Y336163D01*
X324849Y344648D01*
X312121Y331920D01*
X312953Y331088D01*
X312607Y330441D01*
X312246Y330000D01*
X311970D01*
X311576Y330078D01*
X309080D01*
X308554Y331348D01*
X309590Y332385D01*
X310428Y334406D01*
Y336594D01*
X309590Y338616D01*
X308043Y340163D01*
X306022Y341000D01*
X303834D01*
X301812Y340163D01*
X300265Y338616D01*
X299428Y336594D01*
Y334406D01*
X300265Y332385D01*
X301812Y330838D01*
X303167Y330277D01*
Y328902D01*
X300860Y327947D01*
X300526Y327724D01*
X300155Y327570D01*
X297535Y325819D01*
X297251Y325535D01*
X296917Y325312D01*
X295802Y324198D01*
X295802Y324197D01*
X294688Y323083D01*
X294465Y322749D01*
X294181Y322465D01*
X292430Y319845D01*
X292276Y319474D01*
X292053Y319139D01*
X290847Y316228D01*
X290769Y315834D01*
X290615Y315463D01*
X290000Y312372D01*
Y311970D01*
X289922Y311576D01*
Y308424D01*
X290000Y308030D01*
Y307754D01*
X289559Y307393D01*
X288912Y307047D01*
X288080Y307879D01*
X275352Y295151D01*
X275624Y294878D01*
X272085Y291338D01*
X270128D01*
X268290Y290577D01*
X266883Y289171D01*
X266122Y287333D01*
Y285344D01*
X266883Y283506D01*
X268290Y282100D01*
X270128Y281338D01*
X272117D01*
X273954Y282100D01*
X275361Y283506D01*
X276122Y285344D01*
Y287301D01*
X279662Y290841D01*
X283837Y286665D01*
X288182Y291011D01*
X291011Y288182D01*
X286665Y283837D01*
X295151Y275352D01*
X307879Y288080D01*
X307047Y288912D01*
X307393Y289559D01*
X307754Y290000D01*
X308030D01*
X308424Y289922D01*
X310920D01*
X311446Y288652D01*
X310410Y287615D01*
X309572Y285594D01*
Y283406D01*
X310410Y281384D01*
X311957Y279837D01*
X312014Y279813D01*
Y267571D01*
X309629Y265187D01*
X259331D01*
X257138Y267380D01*
X257250Y268650D01*
X260000D01*
Y278650D01*
X248000D01*
Y277230D01*
X246172D01*
X246172Y277230D01*
X245001Y276998D01*
X244009Y276334D01*
X186194Y218520D01*
X185532Y217528D01*
X185299Y216357D01*
X185299Y216357D01*
Y209206D01*
X184141Y208318D01*
X183047Y206423D01*
X182762Y204253D01*
X183328Y202140D01*
X184221Y200977D01*
X183533Y199786D01*
X181058Y200112D01*
X180658Y200086D01*
X180259Y200138D01*
X177114Y199932D01*
X176726Y199828D01*
X176325Y199802D01*
X174803Y199394D01*
X174803Y199394D01*
X173281Y198986D01*
X172921Y198809D01*
X172533Y198705D01*
X169706Y197311D01*
X169388Y197066D01*
X169027Y196889D01*
X166527Y194970D01*
X166262Y194668D01*
X165943Y194423D01*
X163865Y192054D01*
X163664Y191706D01*
X163400Y191404D01*
X161824Y188674D01*
X161695Y188294D01*
X161557Y188055D01*
X160993Y187963D01*
X160260Y187987D01*
X159956Y189123D01*
X142569Y184464D01*
Y184464D01*
X142100Y183853D01*
X135144D01*
X127061Y191936D01*
Y356710D01*
X162927Y392576D01*
X165151Y390352D01*
X177879Y403080D01*
X177047Y403912D01*
X177393Y404559D01*
X177754Y405000D01*
X178030D01*
X178424Y404922D01*
X180920D01*
X181446Y403652D01*
X180410Y402615D01*
X179572Y400594D01*
Y398406D01*
X180410Y396384D01*
X181957Y394837D01*
X183978Y394000D01*
X186166D01*
X188188Y394837D01*
X189735Y396384D01*
X189758Y396441D01*
X237233D01*
X249837Y383837D01*
X249837Y383837D01*
X250830Y383174D01*
X252000Y382941D01*
Y381350D01*
X264000D01*
Y383291D01*
X301923D01*
X301923Y383291D01*
X303093Y383524D01*
X304086Y384187D01*
X313922Y394023D01*
X313978Y394000D01*
X316166D01*
X318188Y394837D01*
X319735Y396384D01*
X320572Y398406D01*
Y400594D01*
X319735Y402615D01*
X318188Y404162D01*
X316833Y404723D01*
Y406098D01*
X319139Y407053D01*
X319474Y407276D01*
X319845Y407430D01*
X322465Y409181D01*
X322749Y409465D01*
X323083Y409688D01*
X324198Y410802D01*
X324198Y410802D01*
X325312Y411917D01*
X325535Y412251D01*
X325819Y412535D01*
X327570Y415155D01*
X327724Y415526D01*
X327947Y415860D01*
X329153Y418772D01*
X329231Y419166D01*
X329385Y419537D01*
X330000Y422629D01*
Y423030D01*
X330078Y423424D01*
Y426576D01*
X330000Y426970D01*
Y427246D01*
X330441Y427607D01*
X331088Y427953D01*
X331920Y427121D01*
X344648Y439849D01*
X336163Y448335D01*
X331818Y443989D01*
X328989Y446818D01*
X333335Y451163D01*
X331110Y453387D01*
X336537Y458813D01*
X337155Y459739D01*
X337373Y460832D01*
Y463728D01*
X338546Y464214D01*
X356643Y446117D01*
D02*
G37*
G36*
X125561Y444933D02*
X126968Y443526D01*
X128805Y442765D01*
X130795D01*
X131475Y443047D01*
X132745Y442198D01*
Y399898D01*
X132962Y398805D01*
X133581Y397879D01*
X134519Y396942D01*
X135445Y396323D01*
X136537Y396105D01*
X142647D01*
X143739Y396323D01*
X144665Y396942D01*
X151613Y403889D01*
X153837Y401665D01*
X158182Y406011D01*
X161011Y403182D01*
X156665Y398837D01*
X158890Y396613D01*
X122187Y359911D01*
X121568Y358985D01*
X121351Y357892D01*
Y190754D01*
X121568Y189662D01*
X122187Y188735D01*
X131943Y178979D01*
X132869Y178361D01*
X133962Y178143D01*
X144263D01*
X145675Y172873D01*
X151024Y174306D01*
X152031Y173533D01*
Y170435D01*
X146710Y169009D01*
X147356Y166601D01*
X146582Y165593D01*
X132333D01*
X131240Y165376D01*
X130314Y164757D01*
X120380Y154823D01*
X118423D01*
X116585Y154062D01*
X115178Y152655D01*
X114417Y150817D01*
Y148828D01*
X115178Y146990D01*
X116585Y145584D01*
X118423Y144823D01*
X120412D01*
X122249Y145584D01*
X123656Y146990D01*
X124417Y148828D01*
Y150785D01*
X133515Y159884D01*
X149156D01*
X149816Y157418D01*
X167203Y162077D01*
X166898Y163214D01*
X167521Y163601D01*
X168055Y163802D01*
X168294Y163664D01*
X168596Y163400D01*
X170758Y162152D01*
X170578Y160789D01*
X169162Y160409D01*
X167426Y159077D01*
X166332Y157182D01*
X166047Y155013D01*
X166613Y152900D01*
X167945Y151164D01*
X168584Y150795D01*
Y141151D01*
X116172D01*
X116172Y141151D01*
X115001Y140918D01*
X114009Y140255D01*
X114009Y140255D01*
X52313Y78559D01*
X49614D01*
X49590Y78616D01*
X48043Y80163D01*
X46022Y81000D01*
X43834D01*
X41812Y80163D01*
X40265Y78616D01*
X39428Y76594D01*
Y74406D01*
X40265Y72385D01*
X41812Y70838D01*
X43167Y70277D01*
Y68902D01*
X40860Y67947D01*
X40526Y67724D01*
X40155Y67570D01*
X37535Y65819D01*
X37251Y65535D01*
X36917Y65312D01*
X35802Y64198D01*
X35802Y64198D01*
X34688Y63083D01*
X34465Y62749D01*
X34181Y62465D01*
X32430Y59845D01*
X32276Y59474D01*
X32053Y59140D01*
X30847Y56228D01*
X30769Y55834D01*
X30615Y55463D01*
X30000Y52372D01*
Y51970D01*
X29922Y51576D01*
Y48424D01*
X30000Y48030D01*
Y47754D01*
X29559Y47393D01*
X28912Y47047D01*
X28080Y47879D01*
X15352Y35151D01*
X17576Y32927D01*
X11187Y26538D01*
X9068Y28656D01*
Y396941D01*
X13482D01*
X14575Y397159D01*
X15501Y397777D01*
X21613Y403890D01*
X23837Y401665D01*
X28182Y406011D01*
X31011Y403182D01*
X26665Y398837D01*
X28890Y396613D01*
X20841Y388565D01*
X20222Y387639D01*
X20005Y386546D01*
Y382191D01*
X20222Y381099D01*
X20841Y380173D01*
X31685Y369329D01*
X32611Y368711D01*
X33703Y368493D01*
X62586D01*
X63970Y367109D01*
X65807Y366348D01*
X67797D01*
X69634Y367109D01*
X71041Y368516D01*
X71802Y370353D01*
Y372343D01*
X71041Y374180D01*
X69634Y375587D01*
X67797Y376348D01*
X65807D01*
X63970Y375587D01*
X62586Y374203D01*
X34886D01*
X25715Y383374D01*
Y385364D01*
X32927Y392576D01*
X35151Y390352D01*
X47879Y403080D01*
X47047Y403912D01*
X47393Y404559D01*
X47754Y405000D01*
X48030D01*
X48424Y404922D01*
X50920D01*
X51446Y403652D01*
X50410Y402615D01*
X49572Y400594D01*
Y398406D01*
X50410Y396384D01*
X51957Y394837D01*
X53978Y394000D01*
X56166D01*
X58188Y394837D01*
X59735Y396384D01*
X60572Y398406D01*
Y400594D01*
X59735Y402615D01*
X58188Y404162D01*
X56834Y404723D01*
Y406098D01*
X59140Y407053D01*
X59474Y407276D01*
X59845Y407430D01*
X62465Y409181D01*
X62749Y409465D01*
X63083Y409688D01*
X64198Y410802D01*
X64198Y410802D01*
X65312Y411917D01*
X65535Y412251D01*
X65819Y412535D01*
X67570Y415155D01*
X67724Y415526D01*
X67947Y415860D01*
X69153Y418772D01*
X69231Y419166D01*
X69385Y419537D01*
X70000Y422629D01*
Y423030D01*
X70078Y423424D01*
Y426576D01*
X70000Y426970D01*
Y427246D01*
X70441Y427607D01*
X71088Y427953D01*
X71920Y427121D01*
X84648Y439849D01*
X82424Y442073D01*
X87076Y446725D01*
X124819D01*
X125561Y444933D01*
D02*
G37*
G36*
X529817Y448466D02*
X530265Y447385D01*
X531812Y445838D01*
X533167Y445277D01*
Y443902D01*
X530860Y442947D01*
X530526Y442724D01*
X530155Y442570D01*
X527535Y440819D01*
X527251Y440535D01*
X526917Y440312D01*
X525802Y439198D01*
X525802Y439197D01*
X524688Y438083D01*
X524465Y437749D01*
X524181Y437465D01*
X522430Y434845D01*
X522276Y434474D01*
X522053Y434140D01*
X520847Y431228D01*
X520769Y430834D01*
X520615Y430463D01*
X520000Y427371D01*
Y426970D01*
X519922Y426576D01*
Y423424D01*
X520000Y423030D01*
Y422754D01*
X519559Y422393D01*
X518912Y422047D01*
X518080Y422879D01*
X508908Y413707D01*
X507735Y414193D01*
Y428180D01*
X528319Y448764D01*
X529817Y448466D01*
D02*
G37*
G36*
X169451Y451651D02*
X169428Y451594D01*
Y449406D01*
X170265Y447385D01*
X171812Y445838D01*
X173167Y445277D01*
Y443902D01*
X170860Y442947D01*
X170526Y442724D01*
X170155Y442570D01*
X167535Y440819D01*
X167251Y440535D01*
X166917Y440312D01*
X165802Y439198D01*
X165802Y439197D01*
X164688Y438083D01*
X164465Y437749D01*
X164181Y437465D01*
X162430Y434845D01*
X162276Y434474D01*
X162053Y434140D01*
X160847Y431228D01*
X160769Y430834D01*
X160615Y430463D01*
X160000Y427371D01*
Y426970D01*
X159922Y426576D01*
Y423424D01*
X160000Y423030D01*
Y422754D01*
X159559Y422393D01*
X158912Y422047D01*
X158080Y422879D01*
X145352Y410151D01*
X147576Y407927D01*
X141464Y401815D01*
X138455D01*
Y450104D01*
X139839Y451488D01*
X140600Y453325D01*
Y455314D01*
X140320Y455991D01*
X141168Y457261D01*
X163841D01*
X169451Y451651D01*
D02*
G37*
G36*
X538424Y404922D02*
X540920D01*
X541446Y403652D01*
X540410Y402615D01*
X539572Y400594D01*
Y398406D01*
X540410Y396384D01*
X541957Y394837D01*
X543978Y394000D01*
X546166D01*
X548188Y394837D01*
X549735Y396384D01*
X549758Y396441D01*
X569233D01*
X573837Y391837D01*
X573837Y391837D01*
X574829Y391174D01*
X576000Y390941D01*
X576000Y390941D01*
X578000D01*
Y389350D01*
X590000D01*
X590000Y389350D01*
Y389350D01*
X590878Y388538D01*
X599309Y380107D01*
X599309Y380107D01*
X600302Y379444D01*
X601472Y379211D01*
X604121D01*
X604647Y377941D01*
X590976Y364270D01*
X578904D01*
X578779Y365540D01*
X579393Y365662D01*
X580319Y366281D01*
X586019Y371981D01*
X586637Y372907D01*
X586855Y374000D01*
Y376650D01*
X590000D01*
Y386650D01*
X578000D01*
Y376650D01*
X581145D01*
Y375182D01*
X577118Y371155D01*
X574835D01*
X574324Y372425D01*
X575000Y374056D01*
Y376045D01*
X574239Y377882D01*
X572863Y379258D01*
X573811Y380206D01*
X574572Y382044D01*
Y384033D01*
X573811Y385871D01*
X572404Y387277D01*
X570566Y388039D01*
X568577D01*
X566740Y387277D01*
X566058Y386596D01*
X519828D01*
X518387Y388036D01*
X522927Y392576D01*
X525151Y390352D01*
X537879Y403080D01*
X537047Y403912D01*
X537393Y404559D01*
X537754Y405000D01*
X538030D01*
X538424Y404922D01*
D02*
G37*
G36*
X371636Y397054D02*
Y388024D01*
X365957Y382344D01*
X338994D01*
Y382698D01*
X332731D01*
X332245Y383871D01*
X345560Y397187D01*
X346733Y396701D01*
Y384625D01*
X362733D01*
Y394586D01*
X366813D01*
X367905Y394803D01*
X368831Y395422D01*
X369769Y396359D01*
X370387Y397286D01*
X371636Y397054D01*
D02*
G37*
G36*
X513837Y401665D02*
X518182Y406011D01*
X521011Y403182D01*
X516665Y398837D01*
X518890Y396613D01*
X512994Y390718D01*
X512375Y389791D01*
X512158Y388699D01*
Y387374D01*
X512375Y386281D01*
X512994Y385355D01*
X514235Y384114D01*
X513749Y382941D01*
X504000D01*
Y383194D01*
X503087Y385399D01*
X501399Y387086D01*
X501190Y388136D01*
X506899Y393845D01*
X507518Y394771D01*
X507735Y395863D01*
Y406108D01*
X508908Y406594D01*
X513837Y401665D01*
D02*
G37*
G36*
X453257Y394863D02*
X454350Y394645D01*
X464318D01*
X465331Y393631D01*
X466258Y393013D01*
X467350Y392795D01*
X473365D01*
X474139Y391525D01*
X473650Y390345D01*
Y388355D01*
X473741Y388136D01*
X473650Y388000D01*
X473650D01*
Y381030D01*
X472477Y380544D01*
X470852Y382169D01*
X469926Y382788D01*
X468833Y383005D01*
X453763D01*
X450355Y386413D01*
Y390650D01*
X450137Y391743D01*
X449850Y392173D01*
Y394000D01*
X451000D01*
Y395150D01*
X452827D01*
X453257Y394863D01*
D02*
G37*
G36*
X380350Y411903D02*
Y410150D01*
X380350D01*
Y409850D01*
X380350D01*
Y405150D01*
X380350D01*
Y404850D01*
X380350D01*
Y400150D01*
X380350D01*
Y399850D01*
X380350D01*
Y395150D01*
X389000D01*
Y394000D01*
X390150D01*
Y392173D01*
X389863Y391743D01*
X389645Y390650D01*
Y382682D01*
X381818Y374855D01*
X378350D01*
Y378000D01*
X371347D01*
X370861Y379173D01*
X376510Y384823D01*
X377129Y385749D01*
X377346Y386841D01*
Y410559D01*
X379177Y412389D01*
X380350Y411903D01*
D02*
G37*
G36*
X399000Y383350D02*
X399645D01*
Y361061D01*
X377828Y339244D01*
X376655Y339730D01*
Y351000D01*
X378350D01*
Y363000D01*
X375205D01*
Y366000D01*
X378350D01*
Y369145D01*
X381183D01*
X381250Y369045D01*
X393328D01*
X392541Y370944D01*
X390854Y372632D01*
X389872Y373038D01*
X389574Y374537D01*
X394519Y379481D01*
X395137Y380407D01*
X395355Y381500D01*
Y383350D01*
X396000D01*
Y390650D01*
X399000D01*
Y383350D01*
D02*
G37*
G36*
X620122Y372755D02*
X619840Y372075D01*
Y370086D01*
X620601Y368248D01*
X622008Y366841D01*
X623845Y366080D01*
X625835D01*
X627672Y366841D01*
X629056Y368225D01*
X731542D01*
X731650Y367000D01*
X731650D01*
Y363855D01*
X601937D01*
X600845Y363638D01*
X599919Y363019D01*
X593434Y356535D01*
X592816Y355608D01*
X592598Y354516D01*
Y350851D01*
X590983Y349236D01*
X589809Y349722D01*
Y358561D01*
X592158D01*
X593251Y358778D01*
X594177Y359397D01*
X608806Y374025D01*
X619273D01*
X620122Y372755D01*
D02*
G37*
G36*
X526000Y362454D02*
Y361097D01*
X526761Y359259D01*
X527929Y358091D01*
X526761Y356924D01*
X526000Y355086D01*
Y353097D01*
X526761Y351259D01*
X528168Y349852D01*
X529498Y349301D01*
X529245Y348032D01*
X461714D01*
X460329Y349416D01*
X460855Y350686D01*
X475402D01*
X476495Y350904D01*
X477421Y351522D01*
X485085Y359186D01*
X519753D01*
X520846Y359403D01*
X521772Y360022D01*
X524730Y362980D01*
X526000Y362454D01*
D02*
G37*
G36*
X551349Y341148D02*
X542121Y331920D01*
X542953Y331088D01*
X542607Y330441D01*
X542246Y330000D01*
X541970D01*
X541576Y330078D01*
X539080D01*
X538554Y331348D01*
X539590Y332385D01*
X540428Y334406D01*
Y336594D01*
X539590Y338616D01*
X538043Y340163D01*
X536022Y341000D01*
X533834D01*
X531812Y340163D01*
X530265Y338616D01*
X529428Y336594D01*
Y334406D01*
X530265Y332385D01*
X531812Y330838D01*
X533167Y330277D01*
Y328902D01*
X530860Y327947D01*
X530526Y327724D01*
X530155Y327570D01*
X527535Y325819D01*
X527251Y325535D01*
X526917Y325312D01*
X525802Y324198D01*
X525802Y324197D01*
X524688Y323083D01*
X524465Y322749D01*
X524181Y322465D01*
X522430Y319845D01*
X522276Y319474D01*
X522053Y319139D01*
X520847Y316228D01*
X520769Y315834D01*
X520615Y315463D01*
X520000Y312372D01*
Y311970D01*
X519922Y311576D01*
Y308424D01*
X520000Y308030D01*
Y307754D01*
X519559Y307393D01*
X518912Y307047D01*
X518080Y307879D01*
X508207Y298006D01*
X497000D01*
Y298995D01*
X496239Y300832D01*
X494832Y302239D01*
X492995Y303000D01*
X491005D01*
X489168Y302239D01*
X487761Y300832D01*
X487246Y299588D01*
X485827Y299211D01*
X484693Y300345D01*
Y323343D01*
X484571Y323954D01*
X485275Y325023D01*
X485500Y325189D01*
X500655D01*
Y341189D01*
X500655D01*
X500986Y342322D01*
X550863D01*
X551349Y341148D01*
D02*
G37*
G36*
X408745Y354629D02*
Y354292D01*
X408963Y353199D01*
X409581Y352273D01*
X413932Y347922D01*
X414858Y347304D01*
X415951Y347086D01*
X438604D01*
X439794Y345896D01*
X439849Y344648D01*
X439547Y344346D01*
X427121Y331920D01*
X427953Y331088D01*
X427607Y330441D01*
X427246Y330000D01*
X426970D01*
X426576Y330078D01*
X424080D01*
X423554Y331348D01*
X424590Y332385D01*
X425428Y334406D01*
Y336594D01*
X424590Y338616D01*
X423043Y340163D01*
X421022Y341000D01*
X418834D01*
X416812Y340163D01*
X415265Y338616D01*
X414428Y336594D01*
Y334406D01*
X415265Y332385D01*
X416812Y330838D01*
X418167Y330277D01*
Y328902D01*
X415860Y327947D01*
X415526Y327724D01*
X415155Y327570D01*
X412535Y325819D01*
X412251Y325535D01*
X411917Y325312D01*
X410802Y324198D01*
X410802Y324197D01*
X409688Y323083D01*
X409465Y322749D01*
X409181Y322465D01*
X407430Y319845D01*
X407276Y319474D01*
X407053Y319139D01*
X405847Y316228D01*
X405769Y315834D01*
X405615Y315463D01*
X405000Y312372D01*
Y311970D01*
X404922Y311576D01*
Y308424D01*
X405000Y308030D01*
Y307754D01*
X404559Y307393D01*
X403912Y307047D01*
X403080Y307879D01*
X390352Y295151D01*
X398837Y286665D01*
X403182Y291011D01*
X406011Y288182D01*
X401665Y283837D01*
X403923Y281579D01*
X398981Y276638D01*
X398363Y275712D01*
X398145Y274619D01*
Y272216D01*
X396761Y270832D01*
X396000Y268995D01*
Y267005D01*
X396761Y265168D01*
X398168Y263761D01*
X400005Y263000D01*
X401995D01*
X403832Y263761D01*
X405239Y265168D01*
X406000Y267005D01*
Y268995D01*
X405239Y270832D01*
X403855Y272216D01*
Y273437D01*
X407960Y277542D01*
X410151Y275352D01*
X422879Y288080D01*
X422047Y288912D01*
X422393Y289559D01*
X422754Y290000D01*
X423030D01*
X423424Y289922D01*
X425920D01*
X426446Y288652D01*
X425410Y287615D01*
X424572Y285594D01*
Y283406D01*
X425410Y281384D01*
X426957Y279837D01*
X427014Y279813D01*
Y262000D01*
Y216912D01*
X421078Y210977D01*
X421022Y211000D01*
X418834D01*
X416812Y210163D01*
X415265Y208616D01*
X414428Y206594D01*
Y204406D01*
X415265Y202385D01*
X416812Y200838D01*
X418167Y200277D01*
Y198902D01*
X415860Y197947D01*
X415526Y197724D01*
X415155Y197570D01*
X412535Y195819D01*
X412251Y195535D01*
X411917Y195312D01*
X410802Y194198D01*
X410802Y194198D01*
X409688Y193083D01*
X409465Y192749D01*
X409181Y192465D01*
X407430Y189845D01*
X407276Y189474D01*
X407053Y189140D01*
X405847Y186228D01*
X405769Y185834D01*
X405615Y185463D01*
X405000Y182372D01*
Y181970D01*
X404922Y181576D01*
Y178424D01*
X405000Y178030D01*
Y177754D01*
X404559Y177393D01*
X403912Y177047D01*
X403080Y177879D01*
X390352Y165151D01*
X398837Y156665D01*
X403182Y161011D01*
X406011Y158182D01*
X401665Y153837D01*
X403889Y151613D01*
X394870Y142594D01*
X394870Y142594D01*
X377305Y125029D01*
X196748D01*
X195364Y126413D01*
X193527Y127174D01*
X191537D01*
X189700Y126413D01*
X188293Y125006D01*
X187532Y123169D01*
Y121179D01*
X188293Y119342D01*
X189700Y117935D01*
X191537Y117174D01*
X193527D01*
X195364Y117935D01*
X196748Y119319D01*
X378488D01*
X379580Y119537D01*
X380506Y120155D01*
X396889Y136538D01*
X416827Y116599D01*
X417753Y115981D01*
X418846Y115763D01*
X419856D01*
X421240Y114379D01*
X423078Y113618D01*
X425067D01*
X425743Y113898D01*
X427014Y113050D01*
Y86912D01*
X421078Y80977D01*
X421022Y81000D01*
X418834D01*
X416812Y80163D01*
X415265Y78616D01*
X414428Y76594D01*
Y74406D01*
X415265Y72385D01*
X416812Y70838D01*
X418167Y70277D01*
Y68902D01*
X415860Y67947D01*
X415526Y67724D01*
X415155Y67570D01*
X412535Y65819D01*
X412251Y65535D01*
X411917Y65312D01*
X410802Y64198D01*
X410802Y64198D01*
X409688Y63083D01*
X409465Y62749D01*
X409181Y62465D01*
X407430Y59845D01*
X407276Y59474D01*
X407053Y59140D01*
X405847Y56228D01*
X405769Y55834D01*
X405615Y55463D01*
X405000Y52372D01*
Y51970D01*
X404922Y51576D01*
Y48424D01*
X405000Y48030D01*
Y47754D01*
X404559Y47393D01*
X403912Y47047D01*
X403080Y47879D01*
X390352Y35151D01*
X391962Y33541D01*
X384823Y26403D01*
X384204Y25477D01*
X383987Y24384D01*
Y10427D01*
X27298D01*
X15224Y22501D01*
X21613Y28890D01*
X23837Y26665D01*
X28182Y31011D01*
X31011Y28182D01*
X26665Y23837D01*
X35151Y15352D01*
X45036Y25237D01*
X45269Y25393D01*
X45426Y25627D01*
X47879Y28080D01*
X47047Y28912D01*
X47393Y29559D01*
X47754Y30000D01*
X48030D01*
X48424Y29922D01*
X50920D01*
X51446Y28652D01*
X50410Y27615D01*
X49572Y25594D01*
Y23406D01*
X50410Y21384D01*
X51957Y19837D01*
X53978Y19000D01*
X56166D01*
X58188Y19837D01*
X59735Y21384D01*
X60572Y23406D01*
Y25594D01*
X59735Y27615D01*
X58188Y29162D01*
X56834Y29723D01*
Y31098D01*
X59140Y32053D01*
X59474Y32276D01*
X59845Y32430D01*
X62465Y34181D01*
X62749Y34465D01*
X63083Y34688D01*
X64198Y35802D01*
X64198Y35803D01*
X65312Y36917D01*
X65535Y37251D01*
X65819Y37535D01*
X67570Y40155D01*
X67724Y40526D01*
X67947Y40860D01*
X69153Y43772D01*
X69231Y44166D01*
X69385Y44537D01*
X70000Y47628D01*
Y48030D01*
X70078Y48424D01*
Y51576D01*
X70000Y51970D01*
Y52246D01*
X70441Y52607D01*
X71088Y52953D01*
X71920Y52121D01*
X84648Y64849D01*
X76163Y73334D01*
X71818Y68989D01*
X68989Y71818D01*
X73334Y76163D01*
X71111Y78387D01*
X76060Y83337D01*
X76679Y84263D01*
X76897Y85355D01*
Y88698D01*
X119635Y131437D01*
X200840D01*
X201933Y131655D01*
X202859Y132274D01*
X222999Y152413D01*
X223617Y153340D01*
X223835Y154432D01*
Y165207D01*
X223617Y166299D01*
X222999Y167225D01*
X216166Y174058D01*
X216495Y175285D01*
X217431Y175536D01*
X214325Y187127D01*
X208976Y185694D01*
X207969Y186467D01*
Y189565D01*
X213290Y190991D01*
Y190991D01*
X213759Y191602D01*
X220619D01*
X221711Y191819D01*
X222637Y192438D01*
X285672Y255473D01*
X312470D01*
X313563Y255690D01*
X314363Y256225D01*
X319387D01*
X323650Y251963D01*
Y245000D01*
X333650D01*
Y255340D01*
X334086Y255427D01*
X335013Y256045D01*
X335080Y256113D01*
X336350Y255587D01*
Y245000D01*
X346350D01*
Y248145D01*
X376963D01*
X378055Y248363D01*
X378981Y248981D01*
X379919Y249919D01*
X380537Y250845D01*
X380755Y251937D01*
Y261548D01*
X381928Y262034D01*
X383000Y260963D01*
Y259005D01*
X383761Y257168D01*
X385168Y255761D01*
X387005Y255000D01*
X388995D01*
X390832Y255761D01*
X392239Y257168D01*
X393000Y259005D01*
Y260995D01*
X392239Y262832D01*
X390832Y264239D01*
X388995Y265000D01*
X387037D01*
X384855Y267183D01*
Y332398D01*
X407572Y355115D01*
X408745Y354629D01*
D02*
G37*
G36*
X731650Y355000D02*
X740095D01*
Y318761D01*
X695298Y273964D01*
X693800Y274262D01*
X693519Y274942D01*
X692112Y276349D01*
X690274Y277110D01*
X688317D01*
X669868Y295560D01*
X668942Y296178D01*
X667849Y296396D01*
X606855D01*
Y310650D01*
X610000D01*
Y320650D01*
X598000D01*
Y313673D01*
X596827Y313187D01*
X587433Y322581D01*
Y330330D01*
X587215Y331423D01*
X586597Y332349D01*
X582917Y336029D01*
X581991Y336647D01*
X580898Y336865D01*
X575324D01*
X574231Y336647D01*
X573305Y336029D01*
X568387Y331110D01*
X566163Y333335D01*
X561818Y328989D01*
X558989Y331818D01*
X563335Y336163D01*
X558349Y341148D01*
X558835Y342322D01*
X571475D01*
X573553Y340244D01*
X574479Y339625D01*
X575572Y339408D01*
X588047D01*
X589140Y339625D01*
X590066Y340244D01*
X597472Y347650D01*
X598091Y348576D01*
X598308Y349669D01*
Y352767D01*
X599054Y353372D01*
X600409Y353017D01*
X600761Y352168D01*
X602145Y350784D01*
Y333350D01*
X598000D01*
Y323350D01*
X610000D01*
Y333350D01*
X607855D01*
Y350784D01*
X609239Y352168D01*
X610000Y354005D01*
Y355995D01*
X609635Y356875D01*
X610484Y358145D01*
X731650D01*
Y355000D01*
D02*
G37*
G36*
X581723Y329147D02*
Y321399D01*
X581940Y320306D01*
X582559Y319380D01*
X595844Y306095D01*
X596770Y305476D01*
X597863Y305259D01*
X601145D01*
Y293541D01*
X601362Y292448D01*
X601981Y291522D01*
X602907Y290903D01*
X604000Y290686D01*
X666667D01*
X684280Y273073D01*
Y271116D01*
X685041Y269278D01*
X686448Y267871D01*
X687128Y267590D01*
X687426Y266091D01*
X673074Y251739D01*
X671575Y252037D01*
X671294Y252717D01*
X669887Y254124D01*
X668049Y254885D01*
X666060D01*
X664222Y254124D01*
X663042Y252944D01*
X572382D01*
X568401Y256925D01*
X567408Y257588D01*
X566238Y257821D01*
X566238Y257821D01*
X548382D01*
Y280031D01*
X549735Y281384D01*
X550572Y283406D01*
Y285594D01*
X549735Y287615D01*
X548188Y289162D01*
X546833Y289723D01*
Y291098D01*
X549140Y292053D01*
X549474Y292276D01*
X549845Y292430D01*
X552465Y294181D01*
X552749Y294465D01*
X553083Y294688D01*
X554198Y295802D01*
X554198Y295802D01*
X555312Y296917D01*
X555535Y297251D01*
X555819Y297535D01*
X557570Y300155D01*
X557724Y300526D01*
X557947Y300860D01*
X559153Y303772D01*
X559231Y304166D01*
X559385Y304537D01*
X560000Y307628D01*
Y308030D01*
X560078Y308424D01*
Y311576D01*
X560000Y311970D01*
Y312246D01*
X560441Y312607D01*
X561088Y312953D01*
X561920Y312121D01*
X574648Y324849D01*
X572424Y327073D01*
X576506Y331155D01*
X579715D01*
X581723Y329147D01*
D02*
G37*
G36*
X358587Y287694D02*
X331811Y260919D01*
X329587D01*
X328495Y260702D01*
X327569Y260083D01*
X326631Y259145D01*
X326514Y258970D01*
X324924Y258763D01*
X322589Y261099D01*
X321662Y261717D01*
X320570Y261935D01*
X316688D01*
X316202Y263108D01*
X317235Y264141D01*
X317235Y264142D01*
X317898Y265134D01*
X318131Y266304D01*
Y279813D01*
X318188Y279837D01*
X319735Y281384D01*
X320572Y283406D01*
Y285594D01*
X319735Y287615D01*
X318188Y289162D01*
X316833Y289723D01*
Y291098D01*
X319139Y292053D01*
X319474Y292276D01*
X319845Y292430D01*
X322465Y294181D01*
X322749Y294465D01*
X323083Y294688D01*
X324198Y295802D01*
X324198Y295802D01*
X325312Y296917D01*
X325535Y297251D01*
X325819Y297535D01*
X327570Y300155D01*
X327724Y300526D01*
X327947Y300860D01*
X329153Y303772D01*
X329231Y304166D01*
X329385Y304537D01*
X330000Y307628D01*
Y308030D01*
X330078Y308424D01*
Y311576D01*
X330000Y311970D01*
Y312246D01*
X330441Y312607D01*
X331088Y312953D01*
X331920Y312121D01*
X344648Y324849D01*
X342424Y327073D01*
X351840Y336489D01*
X358587D01*
Y287694D01*
D02*
G37*
G36*
X455804Y331068D02*
X464984D01*
X475383Y320670D01*
Y297671D01*
X475601Y296578D01*
X476219Y295652D01*
X482145Y289726D01*
Y281350D01*
X479000D01*
Y271350D01*
X491000D01*
Y281350D01*
X487855D01*
Y287448D01*
X489028Y287934D01*
X497049Y279914D01*
Y262604D01*
X497266Y261512D01*
X497885Y260586D01*
X505727Y252743D01*
X506654Y252125D01*
X507746Y251907D01*
X509858D01*
Y248762D01*
X519858D01*
Y260762D01*
X509858D01*
Y258439D01*
X508588Y257957D01*
X502758Y263787D01*
Y281096D01*
X502541Y282189D01*
X501922Y283115D01*
X493803Y291235D01*
X494428Y292405D01*
X494977Y292296D01*
X508207D01*
X513837Y286665D01*
X518182Y291011D01*
X521011Y288182D01*
X516665Y283837D01*
X525151Y275352D01*
X537879Y288080D01*
X537047Y288912D01*
X537393Y289559D01*
X537754Y290000D01*
X538030D01*
X538424Y289922D01*
X540920D01*
X541446Y288652D01*
X540410Y287615D01*
X539572Y285594D01*
Y283406D01*
X540410Y281384D01*
X541957Y279837D01*
X542265Y279709D01*
Y257821D01*
X532558D01*
Y260762D01*
X522558D01*
Y248762D01*
X532558D01*
Y251703D01*
X564971D01*
X568952Y247722D01*
X568952Y247722D01*
X569944Y247059D01*
X571115Y246826D01*
X571115Y246826D01*
X663043D01*
X664222Y245646D01*
X664903Y245365D01*
X665201Y243867D01*
X646061Y224727D01*
X645442Y223800D01*
X645225Y222708D01*
Y175024D01*
X635352Y165151D01*
X643837Y156665D01*
X648182Y161011D01*
X651011Y158182D01*
X646665Y153837D01*
X648889Y151613D01*
X638841Y141565D01*
X531648D01*
X530555Y141347D01*
X529629Y140729D01*
X516174Y127273D01*
X441872D01*
X440780Y127056D01*
X439854Y126437D01*
X437035Y123618D01*
X435078D01*
X434401Y123338D01*
X433131Y124186D01*
Y149813D01*
X433188Y149837D01*
X434735Y151384D01*
X435572Y153406D01*
Y155594D01*
X434735Y157615D01*
X433188Y159162D01*
X431833Y159723D01*
Y161098D01*
X434140Y162053D01*
X434474Y162276D01*
X434845Y162430D01*
X437465Y164181D01*
X437749Y164465D01*
X438083Y164688D01*
X439198Y165802D01*
X439198Y165802D01*
X440312Y166917D01*
X440535Y167251D01*
X440819Y167535D01*
X442570Y170155D01*
X442724Y170526D01*
X442947Y170860D01*
X444153Y173772D01*
X444231Y174166D01*
X444385Y174537D01*
X445000Y177628D01*
Y178030D01*
X445078Y178424D01*
Y181576D01*
X445000Y181970D01*
Y182246D01*
X445441Y182607D01*
X446088Y182953D01*
X446920Y182121D01*
X459648Y194849D01*
X457424Y197073D01*
X464308Y203957D01*
X468000D01*
Y202650D01*
X471363D01*
Y142646D01*
X469979Y141262D01*
X469218Y139425D01*
Y137435D01*
X469979Y135598D01*
X471386Y134191D01*
X473223Y133430D01*
X475213D01*
X477050Y134191D01*
X478457Y135598D01*
X479218Y137435D01*
Y139425D01*
X478457Y141262D01*
X477073Y142646D01*
Y202650D01*
X480000D01*
Y212650D01*
X468000D01*
Y209667D01*
X463125D01*
X462033Y209449D01*
X461107Y208830D01*
X453387Y201110D01*
X451163Y203335D01*
X446818Y198989D01*
X443989Y201818D01*
X448335Y206163D01*
X446110Y208387D01*
X451599Y213875D01*
X452217Y214801D01*
X452435Y215894D01*
Y243420D01*
X452217Y244513D01*
X451599Y245439D01*
X444000Y253037D01*
Y254995D01*
X443239Y256832D01*
X442400Y257671D01*
X442926Y258941D01*
X479000D01*
Y258650D01*
X491000D01*
Y268650D01*
X479000D01*
Y265059D01*
X433131D01*
Y279813D01*
X433188Y279837D01*
X434735Y281384D01*
X435572Y283406D01*
Y285594D01*
X434735Y287615D01*
X433188Y289162D01*
X431833Y289723D01*
Y291098D01*
X434140Y292053D01*
X434474Y292276D01*
X434845Y292430D01*
X437465Y294181D01*
X437749Y294465D01*
X438083Y294688D01*
X439198Y295802D01*
X439198Y295802D01*
X440312Y296917D01*
X440535Y297251D01*
X440819Y297535D01*
X442570Y300155D01*
X442724Y300526D01*
X442947Y300860D01*
X444153Y303772D01*
X444231Y304166D01*
X444385Y304537D01*
X445000Y307628D01*
Y308030D01*
X445078Y308424D01*
Y311576D01*
X445000Y311970D01*
Y312246D01*
X445441Y312607D01*
X446088Y312953D01*
X446920Y312121D01*
X450928Y316129D01*
X452024Y315429D01*
Y308137D01*
X452241Y307045D01*
X452860Y306119D01*
X462981Y295998D01*
Y280109D01*
X460917Y278045D01*
X458960D01*
X457122Y277284D01*
X455716Y275877D01*
X454955Y274040D01*
Y272051D01*
X455716Y270213D01*
X457122Y268806D01*
X458960Y268045D01*
X460949D01*
X462787Y268806D01*
X464194Y270213D01*
X464955Y272051D01*
Y274008D01*
X467855Y276908D01*
X468474Y277834D01*
X468691Y278927D01*
Y297180D01*
X468474Y298272D01*
X467855Y299199D01*
X457733Y309320D01*
Y316891D01*
X457516Y317984D01*
X456897Y318910D01*
X455303Y320504D01*
X459648Y324849D01*
X454444Y330053D01*
X455081Y331212D01*
X455804Y331068D01*
D02*
G37*
G36*
X434761Y251168D02*
X436168Y249761D01*
X438005Y249000D01*
X439963D01*
X446725Y242237D01*
Y217076D01*
X442073Y212424D01*
X439849Y214648D01*
X427121Y201920D01*
X427953Y201088D01*
X427607Y200441D01*
X427246Y200000D01*
X426970D01*
X426576Y200078D01*
X424080D01*
X423554Y201348D01*
X424590Y202385D01*
X425428Y204406D01*
Y206594D01*
X425404Y206651D01*
X432235Y213482D01*
X432898Y214475D01*
X433131Y215645D01*
Y251784D01*
X434401Y252037D01*
X434761Y251168D01*
D02*
G37*
G36*
X678399Y247193D02*
X678680Y246513D01*
X679860Y245333D01*
Y224759D01*
X666078Y210977D01*
X666022Y211000D01*
X663834D01*
X661812Y210163D01*
X660265Y208616D01*
X659428Y206594D01*
Y204406D01*
X660265Y202385D01*
X661812Y200838D01*
X663167Y200277D01*
Y198902D01*
X660860Y197947D01*
X660526Y197724D01*
X660155Y197570D01*
X657535Y195819D01*
X657251Y195535D01*
X656917Y195312D01*
X655802Y194198D01*
X655802Y194198D01*
X654688Y193083D01*
X654465Y192749D01*
X654181Y192465D01*
X652430Y189845D01*
X652276Y189474D01*
X652205Y189366D01*
X650935Y189531D01*
Y221525D01*
X676900Y247491D01*
X678399Y247193D01*
D02*
G37*
G36*
X248000Y269878D02*
Y268650D01*
X250941D01*
Y266192D01*
X250941Y266192D01*
X251174Y265021D01*
X251837Y264029D01*
X255901Y259965D01*
X255901Y259965D01*
X256894Y259302D01*
X258064Y259069D01*
X258064Y259069D01*
X279534D01*
X280021Y257896D01*
X219436Y197312D01*
X211596D01*
X210184Y202582D01*
X192797Y197923D01*
X193102Y196786D01*
X192479Y196399D01*
X191945Y196198D01*
X191706Y196336D01*
X191404Y196600D01*
X189242Y197848D01*
X189422Y199211D01*
X190838Y199591D01*
X192574Y200923D01*
X193668Y202818D01*
X193953Y204987D01*
X193387Y207100D01*
X192055Y208836D01*
X191416Y209205D01*
Y215090D01*
X246730Y270404D01*
X248000Y269878D01*
D02*
G37*
G36*
X819089Y92797D02*
Y84440D01*
X817073Y82424D01*
X814849Y84648D01*
X802121Y71920D01*
X802953Y71088D01*
X802607Y70441D01*
X802246Y70000D01*
X801970D01*
X801576Y70078D01*
X799080D01*
X798554Y71348D01*
X799590Y72385D01*
X800428Y74406D01*
Y76594D01*
X799590Y78616D01*
X798043Y80163D01*
X796022Y81000D01*
X793834D01*
X791812Y80163D01*
X790265Y78616D01*
X790241Y78559D01*
X755339D01*
X680549Y153349D01*
X680572Y153406D01*
Y155594D01*
X679735Y157615D01*
X678188Y159162D01*
X676833Y159723D01*
Y161098D01*
X679140Y162053D01*
X679474Y162276D01*
X679845Y162430D01*
X682465Y164181D01*
X682749Y164465D01*
X683083Y164688D01*
X684197Y165802D01*
X684198Y165802D01*
X685312Y166917D01*
X685535Y167251D01*
X685819Y167535D01*
X687570Y170155D01*
X687724Y170526D01*
X687947Y170860D01*
X689153Y173772D01*
X689231Y174166D01*
X689385Y174537D01*
X690000Y177628D01*
Y178030D01*
X690078Y178424D01*
Y181576D01*
X690000Y181970D01*
Y182246D01*
X690441Y182607D01*
X691088Y182953D01*
X691920Y182121D01*
X704648Y194849D01*
X702424Y197073D01*
X705950Y200599D01*
X711288D01*
X819089Y92797D01*
D02*
G37*
G36*
X218125Y164024D02*
Y155615D01*
X199658Y137147D01*
X175247D01*
X174533Y138417D01*
X174701Y139264D01*
X174701Y139264D01*
Y150794D01*
X175859Y151682D01*
X176953Y153577D01*
X177238Y155747D01*
X176672Y157860D01*
X175780Y159023D01*
X176467Y160214D01*
X178942Y159888D01*
X179342Y159914D01*
X179741Y159862D01*
X182886Y160068D01*
X183274Y160172D01*
X183675Y160198D01*
X185197Y160606D01*
X185197Y160606D01*
X186719Y161014D01*
X187079Y161191D01*
X187467Y161295D01*
X190294Y162689D01*
X190612Y162934D01*
X190973Y163111D01*
X193473Y165030D01*
X193738Y165332D01*
X194057Y165577D01*
X196135Y167946D01*
X196336Y168294D01*
X196600Y168596D01*
X198176Y171326D01*
X198305Y171706D01*
X198443Y171945D01*
X199006Y172037D01*
X199740Y172013D01*
X200044Y170877D01*
X208899Y173250D01*
X218125Y164024D01*
D02*
G37*
G36*
X668424Y159922D02*
X670920D01*
X671446Y158652D01*
X670410Y157615D01*
X669572Y155594D01*
Y153406D01*
X670410Y151384D01*
X671957Y149837D01*
X673978Y149000D01*
X676166D01*
X676223Y149023D01*
X751909Y73337D01*
X752901Y72674D01*
X754072Y72442D01*
X754072Y72442D01*
X790241D01*
X790265Y72385D01*
X791812Y70838D01*
X793167Y70277D01*
Y68902D01*
X790860Y67947D01*
X790526Y67724D01*
X790155Y67570D01*
X787535Y65819D01*
X787251Y65535D01*
X786917Y65312D01*
X785802Y64198D01*
X785802Y64198D01*
X784688Y63083D01*
X784465Y62749D01*
X784181Y62465D01*
X782430Y59845D01*
X782276Y59474D01*
X782053Y59140D01*
X780847Y56228D01*
X780769Y55834D01*
X780615Y55463D01*
X780000Y52372D01*
Y51970D01*
X779922Y51576D01*
Y48424D01*
X780000Y48030D01*
Y47754D01*
X779559Y47393D01*
X778912Y47047D01*
X778080Y47879D01*
X765352Y35151D01*
X767295Y33208D01*
X759219Y25133D01*
X758600Y24207D01*
X758383Y23114D01*
Y10427D01*
X389697D01*
Y23201D01*
X395999Y29504D01*
X398837Y26665D01*
X403182Y31011D01*
X406011Y28182D01*
X401665Y23837D01*
X410151Y15352D01*
X422879Y28080D01*
X422047Y28912D01*
X422393Y29559D01*
X422754Y30000D01*
X423030D01*
X423424Y29922D01*
X425920D01*
X426446Y28652D01*
X425410Y27615D01*
X424572Y25594D01*
Y23406D01*
X425410Y21384D01*
X426957Y19837D01*
X428978Y19000D01*
X431166D01*
X433188Y19837D01*
X434735Y21384D01*
X435572Y23406D01*
Y25594D01*
X434735Y27615D01*
X433188Y29162D01*
X431833Y29723D01*
Y31098D01*
X434140Y32053D01*
X434474Y32276D01*
X434845Y32430D01*
X437465Y34181D01*
X437749Y34465D01*
X438083Y34688D01*
X439198Y35802D01*
X439198Y35803D01*
X440312Y36917D01*
X440535Y37251D01*
X440819Y37535D01*
X442570Y40155D01*
X442724Y40526D01*
X442947Y40860D01*
X444153Y43772D01*
X444231Y44166D01*
X444385Y44537D01*
X445000Y47628D01*
Y48030D01*
X445078Y48424D01*
Y51576D01*
X445000Y51970D01*
Y52246D01*
X445441Y52607D01*
X446088Y52953D01*
X446920Y52121D01*
X459648Y64849D01*
X451163Y73334D01*
X446818Y68989D01*
X443989Y71818D01*
X448335Y76163D01*
X446110Y78387D01*
X476237Y108513D01*
X476856Y109439D01*
X477073Y110532D01*
Y114402D01*
X478457Y115786D01*
X479218Y117623D01*
Y119613D01*
X478936Y120293D01*
X479785Y121563D01*
X517356D01*
X518448Y121781D01*
X519375Y122399D01*
X532830Y135855D01*
X640023D01*
X641116Y136072D01*
X642042Y136691D01*
X652927Y147576D01*
X655151Y145352D01*
X667879Y158080D01*
X667047Y158912D01*
X667393Y159559D01*
X667754Y160000D01*
X668030D01*
X668424Y159922D01*
D02*
G37*
G36*
X423424D02*
X425920D01*
X426446Y158652D01*
X425410Y157615D01*
X424572Y155594D01*
Y153406D01*
X425410Y151384D01*
X426957Y149837D01*
X427014Y149813D01*
Y124186D01*
X425743Y123338D01*
X425067Y123618D01*
X423078D01*
X421240Y122857D01*
X419942Y121559D01*
X400926Y140575D01*
X407927Y147576D01*
X410151Y145352D01*
X422879Y158080D01*
X422047Y158912D01*
X422393Y159559D01*
X422754Y160000D01*
X423030D01*
X423424Y159922D01*
D02*
G37*
G36*
X469500Y120293D02*
X469218Y119613D01*
Y117623D01*
X469979Y115786D01*
X471363Y114402D01*
Y111714D01*
X442073Y82424D01*
X439849Y84648D01*
X427121Y71920D01*
X427953Y71088D01*
X427607Y70441D01*
X427246Y70000D01*
X426970D01*
X426576Y70078D01*
X424080D01*
X423554Y71348D01*
X424590Y72385D01*
X425428Y74406D01*
Y76594D01*
X425404Y76651D01*
X432235Y83482D01*
X432898Y84475D01*
X433131Y85645D01*
Y113050D01*
X434401Y113898D01*
X435078Y113618D01*
X437067D01*
X438905Y114379D01*
X440311Y115786D01*
X441072Y117623D01*
Y119581D01*
X443055Y121563D01*
X468651D01*
X469500Y120293D01*
D02*
G37*
G36*
X7466Y20166D02*
X22283Y5348D01*
X21757Y4078D01*
X4078D01*
Y21894D01*
X5252Y22380D01*
X7466Y20166D01*
D02*
G37*
%LPC*%
G36*
X568800Y833500D02*
X565983D01*
Y830250D01*
X566250Y828227D01*
X567030Y826342D01*
X568273Y824723D01*
X569892Y823480D01*
X571777Y822700D01*
X572300Y822631D01*
Y824231D01*
X572255Y824245D01*
X572008Y824332D01*
X571766Y824432D01*
X571530Y824545D01*
X571300Y824670D01*
X571077Y824807D01*
X570861Y824955D01*
X570653Y825114D01*
X570454Y825284D01*
X570265Y825464D01*
X570084Y825654D01*
X569914Y825853D01*
X569755Y826061D01*
X569607Y826277D01*
X569470Y826500D01*
X569345Y826730D01*
X569232Y826966D01*
X569132Y827208D01*
X569045Y827455D01*
X568970Y827706D01*
X568909Y827960D01*
X568862Y828218D01*
X568827Y828477D01*
X568807Y828738D01*
X568800Y829000D01*
Y833500D01*
D02*
G37*
G36*
X694017D02*
X691200D01*
Y829000D01*
X691193Y828738D01*
X691173Y828477D01*
X691138Y828218D01*
X691091Y827960D01*
X691030Y827706D01*
X690955Y827455D01*
X690868Y827208D01*
X690768Y826966D01*
X690655Y826730D01*
X690530Y826500D01*
X690393Y826277D01*
X690245Y826061D01*
X690086Y825853D01*
X689916Y825654D01*
X689736Y825464D01*
X689546Y825284D01*
X689347Y825114D01*
X689139Y824955D01*
X688923Y824807D01*
X688700Y824670D01*
X688470Y824545D01*
X688234Y824432D01*
X687992Y824332D01*
X687745Y824245D01*
X687700Y824231D01*
Y822631D01*
X688223Y822700D01*
X690108Y823480D01*
X691727Y824723D01*
X692970Y826342D01*
X693751Y828227D01*
X694017Y830250D01*
Y833500D01*
D02*
G37*
G36*
X687700Y805863D02*
Y803769D01*
X687745Y803755D01*
X687992Y803668D01*
X688234Y803568D01*
X688470Y803455D01*
X688700Y803330D01*
X688923Y803193D01*
X689139Y803045D01*
X689347Y802886D01*
X689546Y802716D01*
X689736Y802535D01*
X689916Y802346D01*
X690086Y802147D01*
X690245Y801939D01*
X690393Y801723D01*
X690530Y801500D01*
X690655Y801270D01*
X690768Y801034D01*
X690868Y800792D01*
X690955Y800545D01*
X691030Y800294D01*
X691091Y800040D01*
X691138Y799782D01*
X691173Y799523D01*
X691193Y799262D01*
X691200Y799000D01*
Y796500D01*
X693260D01*
Y799000D01*
X693020Y800827D01*
X692315Y802530D01*
X691192Y803992D01*
X689730Y805115D01*
X688027Y805820D01*
X687700Y805863D01*
D02*
G37*
G36*
X572300D02*
X571973Y805820D01*
X570270Y805115D01*
X568808Y803992D01*
X567686Y802530D01*
X566980Y800827D01*
X566740Y799000D01*
Y796500D01*
X568800D01*
Y799000D01*
X568807Y799262D01*
X568827Y799523D01*
X568862Y799782D01*
X568909Y800040D01*
X568970Y800294D01*
X569045Y800545D01*
X569132Y800792D01*
X569232Y801034D01*
X569345Y801270D01*
X569470Y801500D01*
X569607Y801723D01*
X569755Y801939D01*
X569914Y802147D01*
X570084Y802346D01*
X570265Y802535D01*
X570454Y802716D01*
X570653Y802886D01*
X570861Y803045D01*
X571077Y803193D01*
X571300Y803330D01*
X571530Y803455D01*
X571766Y803568D01*
X572008Y803668D01*
X572255Y803755D01*
X572300Y803769D01*
Y805863D01*
D02*
G37*
G36*
X693260Y793500D02*
X691200D01*
Y791000D01*
X691193Y790738D01*
X691173Y790477D01*
X691138Y790218D01*
X691091Y789960D01*
X691030Y789706D01*
X690955Y789455D01*
X690868Y789208D01*
X690768Y788966D01*
X690655Y788730D01*
X690530Y788500D01*
X690393Y788277D01*
X690245Y788061D01*
X690086Y787853D01*
X689916Y787654D01*
X689736Y787465D01*
X689546Y787284D01*
X689347Y787114D01*
X689139Y786955D01*
X688923Y786807D01*
X688700Y786670D01*
X688470Y786545D01*
X688234Y786432D01*
X687992Y786332D01*
X687745Y786245D01*
X687700Y786231D01*
Y784137D01*
X688027Y784180D01*
X689730Y784886D01*
X691192Y786008D01*
X692315Y787470D01*
X693020Y789173D01*
X693260Y791000D01*
Y793500D01*
D02*
G37*
G36*
X568800D02*
X566740D01*
Y791000D01*
X566980Y789173D01*
X567686Y787470D01*
X568808Y786008D01*
X570270Y784886D01*
X571973Y784180D01*
X572300Y784137D01*
Y786231D01*
X572255Y786245D01*
X572008Y786332D01*
X571766Y786432D01*
X571530Y786545D01*
X571300Y786670D01*
X571077Y786807D01*
X570861Y786955D01*
X570653Y787114D01*
X570454Y787284D01*
X570265Y787465D01*
X570084Y787654D01*
X569914Y787853D01*
X569755Y788061D01*
X569607Y788277D01*
X569470Y788500D01*
X569345Y788730D01*
X569232Y788966D01*
X569132Y789208D01*
X569045Y789455D01*
X568970Y789706D01*
X568909Y789960D01*
X568862Y790218D01*
X568827Y790477D01*
X568807Y790738D01*
X568800Y791000D01*
Y793500D01*
D02*
G37*
G36*
X558000Y783000D02*
X545500D01*
Y770500D01*
X558000D01*
Y783000D01*
D02*
G37*
G36*
X542500D02*
X530000D01*
Y770500D01*
X542500D01*
Y783000D01*
D02*
G37*
G36*
X614995Y766000D02*
X613005D01*
X611168Y765239D01*
X609784Y763855D01*
X607000D01*
Y766000D01*
X595000D01*
Y753000D01*
X607000D01*
Y758145D01*
X609784D01*
X611168Y756761D01*
X613005Y756000D01*
X614995D01*
X616832Y756761D01*
X618239Y758168D01*
X619000Y760005D01*
Y761995D01*
X618239Y763832D01*
X616832Y765239D01*
X614995Y766000D01*
D02*
G37*
G36*
X634995Y775419D02*
X633005D01*
X631168Y774658D01*
X629761Y773251D01*
X629000Y771413D01*
Y769424D01*
X629333Y768620D01*
X628484Y767350D01*
X628000D01*
Y757350D01*
X640000D01*
Y767350D01*
X639515D01*
X638667Y768620D01*
X639000Y769424D01*
Y771413D01*
X638239Y773251D01*
X636832Y774658D01*
X634995Y775419D01*
D02*
G37*
G36*
X648995Y777000D02*
X647005D01*
X645168Y776239D01*
X643761Y774832D01*
X643000Y772995D01*
Y771005D01*
X643761Y769168D01*
X645168Y767761D01*
X647005Y767000D01*
X648995D01*
X650832Y767761D01*
X652216Y769145D01*
X654236D01*
X656302Y767079D01*
X656000Y766350D01*
X656000D01*
Y756350D01*
X668000D01*
Y766350D01*
X664670D01*
X664638Y766511D01*
X664019Y767438D01*
X657438Y774019D01*
X656511Y774638D01*
X655419Y774855D01*
X652216D01*
X650832Y776239D01*
X648995Y777000D01*
D02*
G37*
G36*
X728000Y782000D02*
X702000D01*
Y756000D01*
X728000D01*
Y782000D01*
D02*
G37*
G36*
X558000Y767500D02*
X545500D01*
Y755000D01*
X558000D01*
Y767500D01*
D02*
G37*
G36*
X542500D02*
X530000D01*
Y755000D01*
X542500D01*
Y767500D01*
D02*
G37*
G36*
X641000Y755650D02*
X635500D01*
Y751150D01*
X641000D01*
Y755650D01*
D02*
G37*
G36*
X632500D02*
X627000D01*
Y751150D01*
X632500D01*
Y755650D01*
D02*
G37*
G36*
X669000Y754650D02*
X663500D01*
Y750150D01*
X669000D01*
Y754650D01*
D02*
G37*
G36*
X660500D02*
X655000D01*
Y750150D01*
X660500D01*
Y754650D01*
D02*
G37*
G36*
X641000Y748150D02*
X635500D01*
Y743650D01*
X641000D01*
Y748150D01*
D02*
G37*
G36*
X632500D02*
X627000D01*
Y743650D01*
X632500D01*
Y748150D01*
D02*
G37*
G36*
X669000Y747150D02*
X663500D01*
Y742650D01*
X669000D01*
Y747150D01*
D02*
G37*
G36*
X660500D02*
X655000D01*
Y742650D01*
X660500D01*
Y747150D01*
D02*
G37*
G36*
X660350Y734000D02*
X655850D01*
Y728500D01*
X660350D01*
Y734000D01*
D02*
G37*
G36*
X652850D02*
X648350D01*
Y728500D01*
X652850D01*
Y734000D01*
D02*
G37*
G36*
X616500Y745000D02*
X604500D01*
Y732000D01*
X615495D01*
Y725163D01*
Y718100D01*
X611800D01*
Y701900D01*
X624900D01*
Y718100D01*
X621205D01*
Y722309D01*
X636650D01*
Y721000D01*
X646650D01*
Y733000D01*
X636650D01*
Y728018D01*
X621205D01*
Y734454D01*
X620988Y735546D01*
X620369Y736473D01*
X617981Y738860D01*
X617055Y739479D01*
X616500Y739589D01*
Y745000D01*
D02*
G37*
G36*
X660350Y725500D02*
X655850D01*
Y720000D01*
X660350D01*
Y725500D01*
D02*
G37*
G36*
X652850D02*
X648350D01*
Y720000D01*
X652850D01*
Y725500D01*
D02*
G37*
G36*
X714955Y719216D02*
X713056Y718430D01*
X711368Y716742D01*
X710581Y714843D01*
X714955D01*
Y719216D01*
D02*
G37*
G36*
X519000Y675650D02*
X513500D01*
Y671150D01*
X519000D01*
Y675650D01*
D02*
G37*
G36*
X510500D02*
X505000D01*
Y671150D01*
X510500D01*
Y675650D01*
D02*
G37*
G36*
X539000Y672500D02*
X533000D01*
Y667000D01*
X539000D01*
Y672500D01*
D02*
G37*
G36*
X530000D02*
X524000D01*
Y667000D01*
X530000D01*
Y672500D01*
D02*
G37*
G36*
X519000Y668150D02*
X513500D01*
Y663650D01*
X519000D01*
Y668150D01*
D02*
G37*
G36*
X510500D02*
X505000D01*
Y663650D01*
X510500D01*
Y668150D01*
D02*
G37*
G36*
X496500Y666873D02*
Y662500D01*
X500873D01*
X500087Y664399D01*
X498399Y666087D01*
X496500Y666873D01*
D02*
G37*
G36*
X493500D02*
X491601Y666087D01*
X489913Y664399D01*
X489127Y662500D01*
X493500D01*
Y666873D01*
D02*
G37*
G36*
X539000Y664000D02*
X533000D01*
Y658500D01*
X539000D01*
Y664000D01*
D02*
G37*
G36*
X530000D02*
X524000D01*
Y658500D01*
X530000D01*
Y664000D01*
D02*
G37*
G36*
X278382Y812000D02*
X275618D01*
X272947Y811284D01*
X270553Y809902D01*
X268598Y807947D01*
X267216Y805553D01*
X266500Y802882D01*
Y800118D01*
X267216Y797447D01*
X268598Y795053D01*
X270553Y793098D01*
X272947Y791716D01*
X275618Y791000D01*
X278382D01*
X281053Y791716D01*
X283447Y793098D01*
X285402Y795053D01*
X286784Y797447D01*
X287500Y800118D01*
Y802882D01*
X286784Y805553D01*
X285402Y807947D01*
X283447Y809902D01*
X281053Y811284D01*
X278382Y812000D01*
D02*
G37*
G36*
X253382D02*
X250618D01*
X247947Y811284D01*
X245553Y809902D01*
X243598Y807947D01*
X242216Y805553D01*
X241500Y802882D01*
Y800118D01*
X242216Y797447D01*
X243598Y795053D01*
X245553Y793098D01*
X247947Y791716D01*
X250618Y791000D01*
X253382D01*
X256053Y791716D01*
X258447Y793098D01*
X260402Y795053D01*
X261784Y797447D01*
X262500Y800118D01*
Y802882D01*
X261784Y805553D01*
X260402Y807947D01*
X258447Y809902D01*
X256053Y811284D01*
X253382Y812000D01*
D02*
G37*
G36*
X228382D02*
X225618D01*
X222947Y811284D01*
X220553Y809902D01*
X218598Y807947D01*
X217216Y805553D01*
X216500Y802882D01*
Y800118D01*
X217216Y797447D01*
X218598Y795053D01*
X220553Y793098D01*
X222947Y791716D01*
X225618Y791000D01*
X228382D01*
X231053Y791716D01*
X233447Y793098D01*
X235402Y795053D01*
X236784Y797447D01*
X237500Y800118D01*
Y802882D01*
X236784Y805553D01*
X235402Y807947D01*
X233447Y809902D01*
X231053Y811284D01*
X228382Y812000D01*
D02*
G37*
G36*
X306049Y803322D02*
X304059D01*
X302222Y802561D01*
X300815Y801154D01*
X300054Y799317D01*
Y798369D01*
X284272Y782587D01*
X225836D01*
X210054Y798369D01*
Y799317D01*
X209293Y801154D01*
X207886Y802561D01*
X206049Y803322D01*
X204059D01*
X202222Y802561D01*
X200815Y801154D01*
X200054Y799317D01*
Y797327D01*
X200815Y795490D01*
X202222Y794083D01*
X204059Y793322D01*
X205007D01*
X221835Y776495D01*
X222992Y775721D01*
X224358Y775449D01*
X285750D01*
X287116Y775721D01*
X288273Y776495D01*
X305101Y793322D01*
X306049D01*
X307886Y794083D01*
X309293Y795490D01*
X310054Y797327D01*
Y799317D01*
X309293Y801154D01*
X307886Y802561D01*
X306049Y803322D01*
D02*
G37*
G36*
X231000Y767000D02*
X205000D01*
Y741000D01*
X231000D01*
Y767000D01*
D02*
G37*
G36*
X740301Y693870D02*
X735928D01*
Y689497D01*
X737827Y690283D01*
X739514Y691971D01*
X740301Y693870D01*
D02*
G37*
G36*
X723650Y660000D02*
X713650D01*
Y648000D01*
X715795D01*
Y643000D01*
X713650D01*
Y639855D01*
X711216D01*
X709832Y641239D01*
X707995Y642000D01*
X706005D01*
X704168Y641239D01*
X702761Y639832D01*
X702000Y637995D01*
Y636005D01*
X702761Y634168D01*
X704168Y632761D01*
X706005Y632000D01*
X707995D01*
X709832Y632761D01*
X711216Y634145D01*
X713650D01*
Y631000D01*
X723650D01*
Y643000D01*
X721505D01*
Y648000D01*
X723650D01*
Y660000D01*
D02*
G37*
G36*
X737350Y644000D02*
X732850D01*
Y638500D01*
X737350D01*
Y644000D01*
D02*
G37*
G36*
X729850D02*
X725350D01*
Y638500D01*
X729850D01*
Y644000D01*
D02*
G37*
G36*
X737350Y635500D02*
X732850D01*
Y630000D01*
X737350D01*
Y635500D01*
D02*
G37*
G36*
X729850D02*
X725350D01*
Y630000D01*
X729850D01*
Y635500D01*
D02*
G37*
G36*
X538150Y644500D02*
X533650D01*
Y639000D01*
X538150D01*
Y644500D01*
D02*
G37*
G36*
X626500Y626873D02*
Y622500D01*
X630873D01*
X630087Y624399D01*
X628399Y626087D01*
X626500Y626873D01*
D02*
G37*
G36*
X623500D02*
X621601Y626087D01*
X619913Y624399D01*
X619127Y622500D01*
X623500D01*
Y626873D01*
D02*
G37*
G36*
X630873Y619500D02*
X626500D01*
Y615127D01*
X628399Y615913D01*
X630087Y617601D01*
X630873Y619500D01*
D02*
G37*
G36*
X623500D02*
X619127D01*
X619913Y617601D01*
X621601Y615913D01*
X623500Y615127D01*
Y619500D01*
D02*
G37*
G36*
X491500Y556873D02*
Y552500D01*
X495873D01*
X495087Y554399D01*
X493399Y556087D01*
X491500Y556873D01*
D02*
G37*
G36*
X495873Y549500D02*
X491500D01*
Y545127D01*
X493399Y545913D01*
X495087Y547601D01*
X495873Y549500D01*
D02*
G37*
G36*
X496973Y503500D02*
X492600D01*
Y499127D01*
X494499Y499913D01*
X496186Y501601D01*
X496973Y503500D01*
D02*
G37*
G36*
X489600D02*
X485227D01*
X486013Y501601D01*
X487701Y499913D01*
X489600Y499127D01*
Y503500D01*
D02*
G37*
G36*
X597500Y597873D02*
Y593500D01*
X601873D01*
X601087Y595399D01*
X599399Y597087D01*
X597500Y597873D01*
D02*
G37*
G36*
X594500D02*
X592601Y597087D01*
X590913Y595399D01*
X590127Y593500D01*
X594500D01*
Y597873D01*
D02*
G37*
G36*
X601873Y590500D02*
X597500D01*
Y586127D01*
X599399Y586913D01*
X601087Y588601D01*
X601873Y590500D01*
D02*
G37*
G36*
X594500D02*
X590127D01*
X590913Y588601D01*
X592601Y586913D01*
X594500Y586127D01*
Y590500D01*
D02*
G37*
G36*
X473000Y484850D02*
X467500D01*
Y480350D01*
X473000D01*
Y484850D01*
D02*
G37*
G36*
X448687D02*
X443187D01*
Y480350D01*
X448687D01*
Y484850D01*
D02*
G37*
G36*
X371502Y458783D02*
Y454410D01*
X375875D01*
X375088Y456309D01*
X373400Y457997D01*
X371502Y458783D01*
D02*
G37*
G36*
X368502D02*
X366603Y457997D01*
X364915Y456309D01*
X364129Y454410D01*
X368502D01*
Y458783D01*
D02*
G37*
G36*
X347500Y369500D02*
X343127D01*
X343913Y367601D01*
X345601Y365913D01*
X347500Y365127D01*
Y369500D01*
D02*
G37*
G36*
X162995Y370000D02*
X161005D01*
X159168Y369239D01*
X157761Y367832D01*
X157000Y365995D01*
Y364005D01*
X157761Y362168D01*
X159168Y360761D01*
X161005Y360000D01*
X162995D01*
X164832Y360761D01*
X166216Y362145D01*
X197204D01*
X198590Y360759D01*
X200427Y359998D01*
X202417D01*
X204254Y360759D01*
X205661Y362166D01*
X206422Y364003D01*
Y365993D01*
X205661Y367830D01*
X204254Y369237D01*
X202417Y369998D01*
X200427D01*
X198590Y369237D01*
X197208Y367855D01*
X166216D01*
X164832Y369239D01*
X162995Y370000D01*
D02*
G37*
G36*
X366650Y355500D02*
X362150D01*
Y350000D01*
X366650D01*
Y355500D01*
D02*
G37*
G36*
X359150D02*
X354650D01*
Y350000D01*
X359150D01*
Y355500D01*
D02*
G37*
G36*
X361507Y263500D02*
X359608Y262714D01*
X357920Y261026D01*
X357134Y259127D01*
X361507D01*
Y263500D01*
D02*
G37*
G36*
X171995Y239950D02*
X170005D01*
X168168Y239189D01*
X166761Y237782D01*
X166000Y235945D01*
Y233955D01*
X166761Y232118D01*
X168168Y230711D01*
X170005Y229950D01*
X171995D01*
X173832Y230711D01*
X175216Y232095D01*
X180005D01*
X180060Y232059D01*
X181152Y231841D01*
X184784D01*
X186168Y230457D01*
X188005Y229696D01*
X189995D01*
X191832Y230457D01*
X193239Y231864D01*
X194000Y233701D01*
Y235691D01*
X193239Y237528D01*
X191832Y238935D01*
X189995Y239696D01*
X188005D01*
X186168Y238935D01*
X184784Y237551D01*
X182045D01*
X181991Y237588D01*
X180898Y237805D01*
X175216D01*
X173832Y239189D01*
X171995Y239950D01*
D02*
G37*
G36*
X393328Y366045D02*
X388955D01*
Y361672D01*
X390854Y362459D01*
X392541Y364146D01*
X393328Y366045D01*
D02*
G37*
G36*
X385955D02*
X381582D01*
X382368Y364146D01*
X384056Y362459D01*
X385955Y361672D01*
Y366045D01*
D02*
G37*
G36*
X474995Y234000D02*
X473005D01*
X471168Y233239D01*
X469761Y231832D01*
X469000Y229995D01*
Y228005D01*
X469574Y226620D01*
X468920Y225350D01*
X468000D01*
Y215350D01*
X480000D01*
Y225350D01*
X479080D01*
X478426Y226620D01*
X479000Y228005D01*
Y229995D01*
X478239Y231832D01*
X476832Y233239D01*
X474995Y234000D01*
D02*
G37*
%LPD*%
D10*
X527558Y254762D02*
X545323D01*
Y284248D01*
Y254762D02*
X566238D01*
X571115Y249885D01*
X545072Y284500D02*
X545323Y284248D01*
X53580Y75500D02*
X116172Y138092D01*
X170471D01*
X44928Y75500D02*
X53580D01*
X171643Y139264D02*
Y155380D01*
X170471Y138092D02*
X171643Y139264D01*
X419928Y695500D02*
Y714060D01*
X433025Y727157D02*
Y770828D01*
X419928Y714060D02*
X433025Y727157D01*
X775020Y470408D02*
X794928Y450500D01*
X691288Y470408D02*
X775020D01*
X671380Y450500D02*
X691288Y470408D01*
X571115Y249885D02*
X667055D01*
X682919Y223492D02*
Y249345D01*
X664928Y205500D02*
X682919Y223492D01*
X188357Y216357D02*
X246172Y274172D01*
X188357Y204620D02*
Y216357D01*
X246172Y274172D02*
X250822D01*
X258064Y262128D02*
X310896D01*
X254000Y266192D02*
Y273650D01*
Y266192D02*
X258064Y262128D01*
X315072Y266304D02*
Y284500D01*
X310896Y262128D02*
X315072Y266304D01*
X430072Y773781D02*
X433025Y770828D01*
X589392Y394350D02*
X601472Y382270D01*
X584000Y394350D02*
X589392D01*
X601472Y382270D02*
X651390D01*
X668620Y399500D01*
X493000Y412750D02*
X494765Y414515D01*
X497808D01*
X493000Y408350D02*
Y412750D01*
X497808Y414515D02*
X498573Y415280D01*
X315072Y507628D02*
Y514500D01*
X318850Y503850D02*
X325000D01*
X315072Y507628D02*
X318850Y503850D01*
X95928Y774500D02*
X174928Y695500D01*
X185072Y644500D02*
X225928D01*
X304928Y565500D01*
X55072Y774500D02*
X95928D01*
X430072Y773781D02*
Y774500D01*
Y215645D02*
Y262000D01*
Y284500D01*
Y262000D02*
X483350D01*
X485000Y263650D01*
X534928Y565500D02*
X574427Y605000D01*
X635573D01*
X675072Y644500D01*
X805072Y774500D01*
X754072Y75500D02*
X794928D01*
X675072Y154500D02*
X754072Y75500D01*
X545072Y399500D02*
Y400656D01*
X583650Y394000D02*
X584000Y394350D01*
X576000Y394000D02*
X583650D01*
X570500Y399500D02*
X576000Y394000D01*
X545072Y399500D02*
X570500D01*
X548923Y518350D02*
X596000D01*
X545072Y514500D02*
X548923Y518350D01*
X664928Y450500D02*
X671380D01*
X668620Y399500D02*
X675072D01*
X419928Y75500D02*
X430072Y85645D01*
Y154500D01*
X419928Y205500D02*
X430072Y215645D01*
X301923Y386350D02*
X315072Y399500D01*
X258000Y386350D02*
X301923D01*
X257650Y386000D02*
X258000Y386350D01*
X252000Y386000D02*
X257650D01*
X238500Y399500D02*
X252000Y386000D01*
X185072Y399500D02*
X238500D01*
X51380Y450500D02*
X61199Y460320D01*
X44928Y450500D02*
X51380D01*
X61199Y460320D02*
X165108D01*
X174928Y450500D01*
X430072Y585000D02*
Y644500D01*
Y575645D02*
Y585000D01*
X430422Y585350D02*
X470000D01*
X430072Y585000D02*
X430422Y585350D01*
X612350Y455000D02*
X625000D01*
X611350Y456000D02*
X612350Y455000D01*
X419928Y565500D02*
X430072Y575645D01*
D17*
X769697Y634529D02*
D03*
X779857Y685330D02*
D03*
X759537D02*
D03*
D21*
X363007Y257815D02*
X368000Y262808D01*
X363007Y257627D02*
Y257815D01*
X368000Y262808D02*
Y320040D01*
D26*
X205054Y798322D02*
X224358Y779018D01*
X285750D02*
X305054Y798322D01*
X224358Y779018D02*
X285750D01*
X437728Y824865D02*
X438551D01*
X845820Y462788D02*
Y790949D01*
Y18568D02*
Y462788D01*
X761238Y6858D02*
X834110D01*
X386334D02*
X761238D01*
X25820D02*
X386334D01*
X9989Y22689D02*
X25820Y6858D01*
X5500Y27178D02*
X9989Y22689D01*
X5500Y400685D02*
Y774192D01*
Y27178D02*
Y400685D01*
Y774192D02*
Y828410D01*
X834110Y6858D02*
X845820Y18568D01*
X5500Y828410D02*
X21590Y844500D01*
X140285D02*
X162285Y822500D01*
X21590Y844500D02*
X140285D01*
X451687Y838001D02*
Y842743D01*
X405334Y844500D02*
X449930D01*
X438551Y824865D02*
X451687Y838001D01*
X449930Y844500D02*
X451687Y842743D01*
X383334Y822500D02*
X405334Y844500D01*
X162285Y822500D02*
X383334D01*
X749350Y361000D02*
X799000D01*
D27*
X424518Y729024D02*
X424942Y728600D01*
X424518Y729024D02*
Y732613D01*
X416930Y740200D02*
X424518Y732613D01*
X400050Y753492D02*
X413342Y740200D01*
X400050Y763736D02*
X412272Y775958D01*
X400050Y753492D02*
Y763736D01*
X413342Y740200D02*
X416930D01*
X457567Y713881D02*
X471000Y700448D01*
Y661000D02*
Y700288D01*
X437728Y694042D02*
X457567Y713881D01*
X443145Y728303D02*
X457454Y713994D01*
X438748Y625258D02*
X461174D01*
X489216Y653300D02*
X544017D01*
X461174Y625258D02*
X489216Y653300D01*
X387717Y644031D02*
X400958Y657272D01*
X383686Y640000D02*
X387717Y644031D01*
X406748Y625000D01*
X417000D01*
X374350Y629000D02*
X379442D01*
X391984Y616458D02*
X417068D01*
X379442Y629000D02*
X391984Y616458D01*
X836052Y824738D02*
X841502D01*
X845820Y790949D02*
Y820420D01*
X841502Y824738D02*
X845820Y820420D01*
X824042Y812728D02*
X836052Y824738D01*
X812728Y824042D02*
X824042Y812728D01*
X688771Y713641D02*
X706863Y695549D01*
X694042Y682728D02*
X706863Y695549D01*
X787272Y775958D01*
X639416Y628098D02*
Y628098D01*
X641726Y619638D02*
Y625789D01*
X639416Y628098D02*
X647842Y636524D01*
X639416Y628098D02*
X641726Y625789D01*
X612364Y655151D02*
X639416Y628098D01*
X647842Y636524D02*
Y636528D01*
X601873Y655151D02*
X612364D01*
X647842Y636528D02*
X657272Y645958D01*
X410580Y154266D02*
Y157650D01*
X644358Y651147D02*
Y655672D01*
X645958Y657272D01*
X503973Y513080D02*
X514184Y502870D01*
X496570Y513080D02*
X503973D01*
X398272Y503428D02*
X410802Y515958D01*
X412272D01*
X398272Y503428D02*
X398272D01*
X400958Y527272D02*
X412272Y515958D01*
X514184Y502870D02*
X527272Y515958D01*
X514184Y502870D02*
X531254Y485800D01*
X728726Y436626D02*
X763016Y402336D01*
X720852Y436626D02*
X728726D01*
X763016Y402336D02*
X766022D01*
X704370Y448056D02*
X709422D01*
X720852Y436626D01*
X766022Y402336D02*
X775958Y412272D01*
X694042Y437728D02*
X704370Y448056D01*
X640800Y462598D02*
Y485510D01*
X626116Y447914D02*
X640800Y462598D01*
X626116Y406140D02*
Y447914D01*
X633634Y399948D02*
X645958Y412272D01*
X632308Y399948D02*
X633634D01*
X626116Y406140D02*
X632308Y399948D01*
X410580Y154266D02*
X412272Y155958D01*
X396889Y140575D02*
X410580Y154266D01*
Y153408D02*
Y154266D01*
X634712Y491598D02*
X640800Y485510D01*
X634712Y491598D02*
Y549601D01*
X652497Y567386D01*
X645958Y412272D02*
X657272Y400958D01*
X568870Y383741D02*
X569572Y383039D01*
X518645Y383741D02*
X568870D01*
X515013Y388699D02*
X527272Y400958D01*
X515013Y387374D02*
X518645Y383741D01*
X515013Y387374D02*
Y388699D01*
X532211Y377700D02*
X550211D01*
X565913Y371900D02*
X569063Y375050D01*
X518262Y365641D02*
X524521Y371900D01*
X565913D01*
X569063Y375050D02*
X570000D01*
X526012Y368300D02*
X578300D01*
X584000Y374000D01*
X519753Y362041D02*
X526012Y368300D01*
X568954Y432816D02*
X581063D01*
X564042Y437728D02*
X568954Y432816D01*
X582000Y433753D02*
Y445000D01*
X581063Y432816D02*
X582000Y433753D01*
X552728Y449042D02*
X564042Y437728D01*
X694042Y192728D02*
X704768Y203454D01*
X712470D02*
X821944Y93980D01*
X704768Y203454D02*
X712470D01*
X821944Y83258D02*
Y93980D01*
X812728Y74042D02*
X821944Y83258D01*
X575324Y334010D02*
X580898D01*
X584578Y321399D02*
Y330330D01*
X580898Y334010D02*
X584578Y330330D01*
Y321399D02*
X597863Y308114D01*
X604000D01*
Y315650D01*
Y293541D02*
Y308114D01*
X564042Y322728D02*
X575324Y334010D01*
X575572Y342263D02*
X588047D01*
X595453Y349669D01*
Y354516D01*
X601937Y361000D01*
X736650D01*
X460531Y345177D02*
X572658D01*
X575572Y342263D01*
X531672Y353419D02*
X580375D01*
X581809Y351985D01*
X531000Y354091D02*
X531672Y353419D01*
X499904Y262604D02*
X507746Y254762D01*
X514858D01*
X499904Y262604D02*
Y281096D01*
X481838Y299162D02*
X499904Y281096D01*
X417500Y387500D02*
Y390650D01*
Y387500D02*
X417850Y387150D01*
Y378867D02*
Y387150D01*
X415700Y376717D02*
X417850Y378867D01*
X415700Y355283D02*
Y376717D01*
Y355283D02*
X417442Y353541D01*
X441277D01*
X457295Y337523D01*
X467658D01*
X468595Y336586D01*
Y336586D02*
Y336586D01*
Y336586D02*
X481838Y323343D01*
Y299162D02*
Y323343D01*
X437728Y74042D02*
Y74042D01*
X474218Y110532D02*
Y118618D01*
X437728Y74042D02*
X474218Y110532D01*
X473350Y206812D02*
X474218Y205944D01*
Y138430D02*
Y205944D01*
X463125Y206812D02*
X473350D01*
X449042Y192728D02*
X463125Y206812D01*
X473350Y207000D02*
X474000Y207650D01*
X192532Y122174D02*
X378488D01*
X396889Y140575D01*
X418846Y118618D01*
X396889Y140575D02*
Y140575D01*
X418846Y118618D02*
X424072D01*
X437728Y204042D02*
X449580Y215894D01*
X439000Y254000D02*
X449580Y243420D01*
Y215894D02*
Y243420D01*
X454879Y308137D02*
Y316891D01*
X465836Y278927D02*
Y297180D01*
X459955Y273045D02*
X465836Y278927D01*
X454879Y308137D02*
X465836Y297180D01*
X133962Y180998D02*
X152815D01*
X124206Y357892D02*
X167272Y400958D01*
X124206Y190754D02*
Y357892D01*
Y190754D02*
X133962Y180998D01*
X152815D02*
X154886Y178928D01*
X200840Y134292D02*
X220980Y154432D01*
X207185Y179002D02*
X220980Y165207D01*
Y154432D02*
Y165207D01*
X118453Y134292D02*
X200840D01*
X74042Y89881D02*
X118453Y134292D01*
X284490Y258328D02*
X312470D01*
X220619Y194457D02*
X284490Y258328D01*
X313222Y259080D02*
X320570D01*
X312470Y258328D02*
X313222Y259080D01*
X320570D02*
X328650Y251000D01*
X203043Y194457D02*
X220619D01*
X203043D02*
X205114Y192386D01*
X204130Y705444D02*
X204130D01*
X207975Y709289D01*
X192728Y694042D02*
X204130Y705444D01*
X338702Y580016D02*
Y580016D01*
X338702Y580016D02*
X338702Y580016D01*
X208915Y709803D02*
X338702Y580016D01*
X156845Y761873D02*
X208915Y709803D01*
X322728Y564042D02*
X338702Y580016D01*
X342536Y583850D01*
X89353Y828039D02*
X90679D01*
X156845Y761872D01*
X74042Y812728D02*
X89353Y828039D01*
X135600Y399898D02*
X136537Y398960D01*
X142647D01*
X155958Y412272D01*
X135600Y399898D02*
Y454320D01*
X155958Y412272D02*
X167272Y400958D01*
X207984Y464298D02*
Y465624D01*
X192728Y449042D02*
X207984Y464298D01*
X189992Y483616D02*
X207984Y465624D01*
X170942Y483616D02*
X189992D01*
X74042Y437728D02*
X85894Y449580D01*
X126795D01*
X128609Y447765D02*
X129800D01*
X126795Y449580D02*
X128609Y447765D01*
X384439Y516519D02*
X389235D01*
X399988Y527272D01*
X372270Y504350D02*
X384439Y516519D01*
X343000Y504350D02*
X372270D01*
X399988Y527272D02*
X400958D01*
X331552Y470154D02*
X334518Y467188D01*
X281807Y470154D02*
X331552D01*
X322728Y449042D02*
X334518Y460832D01*
Y467188D01*
X269303Y457650D02*
X281807Y470154D01*
X350658Y339344D02*
X360505D01*
X361442Y338407D01*
X332994Y258064D02*
X361442Y286512D01*
Y338407D01*
X334042Y322728D02*
X334042D01*
X350658Y339344D01*
X401000Y268000D02*
Y274619D01*
X412272Y285891D01*
X449042Y322728D02*
X454879Y316891D01*
X449042Y322728D02*
X449042D01*
X515958Y412272D02*
X527272Y400958D01*
X477861Y498000D02*
X495785Y480076D01*
X497762D02*
X498604Y479234D01*
X495785Y480076D02*
X497762D01*
X442837Y493650D02*
X475106D01*
X498602Y470154D01*
X498300Y461650D02*
X504404Y467753D01*
X494659Y487000D02*
X499040D01*
X498300Y445098D02*
Y461650D01*
X499040Y487000D02*
X504404Y481636D01*
Y467753D02*
Y481636D01*
X438000Y498000D02*
X477861D01*
X494215Y441013D02*
X498300Y445098D01*
X487667Y414650D02*
X494215Y421198D01*
Y441013D01*
X531676Y361415D02*
X592158D01*
X531000Y362091D02*
X531676Y361415D01*
X592158D02*
X607623Y376880D01*
X469731Y507732D02*
Y530949D01*
X482050Y531000D02*
Y566050D01*
X469680Y531000D02*
X469731Y530949D01*
X482050Y566050D02*
X504000Y588000D01*
X464580Y502579D02*
X469731Y507732D01*
X355000Y571150D02*
X355445Y570705D01*
X372974Y526288D02*
Y615624D01*
X363474Y526288D02*
Y604026D01*
X355000Y612500D02*
X363474Y604026D01*
X372974Y615624D02*
X374000Y616650D01*
X355445Y526288D02*
Y570705D01*
X661000Y485648D02*
X700260D01*
X709500Y476408D01*
X653000Y562798D02*
X679425Y589223D01*
X653000Y520446D02*
Y562798D01*
X679425Y589223D02*
Y589223D01*
X661000Y565000D02*
X709000Y613000D01*
X661000Y520446D02*
Y565000D01*
X679425Y589223D02*
X707302Y617100D01*
X180898Y234950D02*
X181152Y234696D01*
X171000Y234950D02*
X180898D01*
X181152Y234696D02*
X189000D01*
X609092Y660951D02*
Y674624D01*
X648109Y713641D01*
X688771D01*
X33703Y371348D02*
X66802D01*
X22860Y382191D02*
X33703Y371348D01*
X22860Y382191D02*
Y386546D01*
X37272Y400958D01*
Y400958D01*
X826728Y463042D02*
X845566D01*
X845820Y462788D01*
X812728Y449042D02*
X812728D01*
X826728Y463042D01*
X761238Y6858D02*
Y23114D01*
X775396Y37272D01*
X775958D01*
X386334Y6858D02*
X386842Y7366D01*
Y24384D01*
X399730Y37272D01*
X400958D01*
X9989Y22689D02*
X11375D01*
X25958Y37272D02*
X25958D01*
X11375Y22689D02*
X25958Y37272D01*
X5500Y400685D02*
X6389Y399796D01*
X13482D01*
X25958Y412272D02*
X25958D01*
X13482Y399796D02*
X25958Y412272D01*
X5500Y774192D02*
X5754Y774446D01*
X13132D02*
X25958Y787272D01*
X5754Y774446D02*
X13132D01*
X25958Y787272D02*
X25958D01*
X531254Y485800D02*
X544733D01*
X553533Y477000D02*
X554000D01*
X544733Y485800D02*
X553533Y477000D01*
X652497Y567386D02*
Y613439D01*
X682728Y694042D02*
X694042Y682728D01*
X645958Y657272D02*
X657272Y645958D01*
X734428Y695370D02*
X757168Y672629D01*
X763347D01*
X654350Y727000D02*
X702798D01*
X716454Y713343D01*
X439323Y728303D02*
X443145D01*
X439025Y728600D02*
X439323Y728303D01*
X500360Y682350D02*
X512000D01*
X448310Y734400D02*
X500360Y682350D01*
X353909Y732000D02*
X356309Y734400D01*
X414528D01*
X296880Y732000D02*
X353909D01*
X337029Y504350D02*
X342000D01*
X289928Y497050D02*
X329729D01*
X337029Y504350D01*
X342000D02*
X342500Y503850D01*
X343000Y504350D01*
X698094Y464408D02*
X709500D01*
X682728Y449042D02*
X698094Y464408D01*
X682728Y449042D02*
X682728D01*
X624840Y371080D02*
X738237D01*
X742950Y366367D01*
X644584Y388270D02*
X657272Y400958D01*
X624840Y388270D02*
X644584D01*
X657272Y400958D02*
X657272D01*
X604000Y293541D02*
X667849D01*
X689280Y272110D01*
X688719Y210033D02*
Y255145D01*
X682728Y204042D02*
X688719Y210033D01*
X441872Y124418D02*
X517356D01*
X436072Y118618D02*
X441872Y124418D01*
X517356D02*
X531648Y138710D01*
X640023D01*
X657272Y155958D01*
X657272D01*
X400958Y167272D02*
X410580Y157650D01*
X119417Y149823D02*
X119417D01*
X132333Y162738D01*
X154152D02*
X156957Y165543D01*
X132333Y162738D02*
X154152D01*
X205114Y181072D02*
Y192386D01*
X154886Y167614D02*
Y178928D01*
Y167614D02*
X156957Y165543D01*
X74042Y85355D02*
Y89881D01*
X62728Y74042D02*
X74042Y85355D01*
X62728Y74042D02*
Y74042D01*
X167272Y400958D02*
Y400958D01*
X162000Y365000D02*
X201422D01*
X150230Y477816D02*
Y628917D01*
X167272Y645958D01*
Y645958D01*
X258000Y373650D02*
X312895D01*
X342495Y403250D01*
Y403304D02*
X346229Y407037D01*
Y428054D01*
X350664Y432489D01*
X342495Y403250D02*
Y403304D01*
X350664Y432489D02*
X385639D01*
X349829Y405546D02*
Y426563D01*
X346095Y401759D02*
Y401813D01*
X349829Y405546D01*
X312934Y368598D02*
X346095Y401759D01*
X359549Y397441D02*
X366813D01*
X354733Y392625D02*
X359549Y397441D01*
X367750Y417810D02*
X368850Y418910D01*
X367750Y398378D02*
Y417810D01*
X366813Y397441D02*
X367750Y398378D01*
X299586Y368598D02*
X312934D01*
X254500Y365500D02*
X296488D01*
X299586Y368598D01*
X334785Y379489D02*
X367139D01*
X374491Y386841D02*
Y411741D01*
X332994Y377698D02*
X334785Y379489D01*
X367139D02*
X374491Y386841D01*
Y411741D02*
X380230Y417480D01*
X385630D01*
X385650Y417500D01*
X295079Y359000D02*
X301077Y364998D01*
X332994D01*
X259700Y359000D02*
X295079D01*
X350766Y427500D02*
X385650D01*
X349829Y426563D02*
X350766Y427500D01*
X326000Y491150D02*
X326700Y490450D01*
Y480098D02*
Y490450D01*
X358902Y447776D02*
Y447896D01*
X326700Y480098D02*
X358902Y447896D01*
Y447776D02*
X367568Y439111D01*
X367593D01*
X369204Y437500D02*
X385650D01*
X367593Y439111D02*
X369204Y437500D01*
X325000Y491150D02*
X326000D01*
X264000Y457650D02*
X269303D01*
X322728Y449042D02*
X334042Y437728D01*
X223114Y456800D02*
X264000D01*
X411600Y354292D02*
X415951Y349941D01*
X411600Y354292D02*
Y378415D01*
X455804Y333923D02*
X466167D01*
X415951Y349941D02*
X439786D01*
X455804Y333923D01*
X478238Y297671D02*
X485000Y290909D01*
Y276350D02*
Y290909D01*
X478238Y297671D02*
Y321852D01*
X466167Y333923D02*
X478238Y321852D01*
X458786Y341123D02*
X469154D01*
X477088Y333189D01*
X492655D01*
X427560Y372350D02*
X458786Y341123D01*
X423000Y372350D02*
X427560D01*
X373350Y357000D02*
X373800Y356550D01*
Y260326D02*
Y356550D01*
X371000Y257300D02*
Y257526D01*
X373800Y260326D01*
X372350Y357000D02*
X372850Y356500D01*
X372350Y357000D02*
Y369350D01*
X328650Y251000D02*
Y257127D01*
X329587Y258064D01*
X332994D01*
X322728Y334042D02*
X334042Y322728D01*
X372350Y369350D02*
X375000Y372000D01*
X485350Y418165D02*
Y430063D01*
X466000Y474650D02*
X476339D01*
X400437Y784911D02*
X403123D01*
X397283Y784865D02*
X398837Y783311D01*
X618350Y725163D02*
Y734454D01*
X610500Y738500D02*
X612159Y736841D01*
X615963D01*
X618350Y734454D01*
Y710000D02*
Y725163D01*
X639813D02*
X641650Y727000D01*
X618350Y725163D02*
X639813D01*
X601000Y759500D02*
X602500Y761000D01*
X614000D01*
X559428Y691000D02*
X578478D01*
X585650Y698172D02*
Y710000D01*
X578478Y691000D02*
X585650Y698172D01*
Y710000D02*
Y720133D01*
X552350Y683922D02*
X559428Y691000D01*
X552350Y674850D02*
Y683922D01*
X591000Y725483D02*
Y738000D01*
X585650Y720133D02*
X591000Y725483D01*
X495000Y661000D02*
X502350D01*
X454741Y407109D02*
X470590D01*
X470980Y406718D01*
X454350Y407500D02*
X454741Y407109D01*
X476250Y486000D02*
X481750Y480500D01*
X458000Y486000D02*
X476250D01*
X371050Y422110D02*
X385260D01*
X385650Y422500D01*
X355750Y411160D02*
Y418510D01*
X356150Y418910D01*
X368850Y419910D02*
X371050Y422110D01*
X368850Y418910D02*
Y419910D01*
X376500Y491650D02*
X402500Y465650D01*
X343000Y491650D02*
X376500D01*
X379852Y482500D02*
X397150Y465202D01*
X332500Y482500D02*
X379852D01*
X342500Y491150D02*
X343000Y491650D01*
X402500Y459350D02*
Y465650D01*
X284989Y501990D02*
X289928Y497050D01*
X355000Y633500D02*
X361500Y640000D01*
X383686D01*
X355000Y612500D02*
Y616150D01*
Y628850D02*
Y633500D01*
X400958Y657272D02*
X400958D01*
X342536Y583850D02*
X355000D01*
X468650Y431483D02*
Y446150D01*
X460017Y422850D02*
X468650Y431483D01*
X589000Y456000D02*
X598650D01*
X585000Y460000D02*
X589000Y456000D01*
X535518Y460000D02*
X585000D01*
X504880Y429362D02*
X535518Y460000D01*
X596926Y406165D02*
Y429600D01*
Y406165D02*
X600591Y402500D01*
X600800D01*
X604950Y417550D02*
X605000Y417500D01*
X604950Y417550D02*
Y472566D01*
X605000Y329350D02*
Y355000D01*
X604000Y328350D02*
X605000Y329350D01*
X468650Y446150D02*
X470000Y447500D01*
X492500D01*
X776047Y647230D02*
X779703Y643574D01*
X763298Y617100D02*
X779703Y633504D01*
Y643574D01*
X476250Y516660D02*
X476259Y516650D01*
Y505400D02*
Y516650D01*
Y505400D02*
X494659Y487000D01*
X490550Y505550D02*
X491100Y505000D01*
X490550Y505550D02*
Y550450D01*
X490000Y551000D02*
X490550Y550450D01*
X436443Y376372D02*
Y376372D01*
Y376372D02*
X459274Y353541D01*
X475402D01*
X432500Y380315D02*
X436443Y376372D01*
X475402Y353541D02*
X483902Y362041D01*
X519753D01*
X470676Y365641D02*
X518262D01*
X584000Y374000D02*
Y381650D01*
X430300Y375408D02*
X460531Y345177D01*
X478650Y382000D02*
Y389350D01*
X452580Y380150D02*
X468833D01*
X474283Y374700D01*
X447500Y385230D02*
X452580Y380150D01*
X264000Y475000D02*
X271826Y482827D01*
X319357D01*
X264000Y470350D02*
Y475000D01*
X389281Y494143D02*
X417500Y465923D01*
Y459350D02*
Y465923D01*
X412500Y459350D02*
Y465832D01*
X383561Y494771D02*
X412500Y465832D01*
X378423Y494818D02*
X407500Y465741D01*
Y459350D02*
Y465741D01*
X389281Y510719D02*
X389281Y510719D01*
X389281Y494143D02*
Y510719D01*
X383561Y494771D02*
Y504309D01*
X383481Y504389D02*
X383561Y504309D01*
X378423Y494818D02*
Y497929D01*
X377761Y498592D02*
X378423Y497929D01*
X397500Y459350D02*
Y462500D01*
X397150Y462850D02*
X397500Y462500D01*
X397150Y462850D02*
Y465202D01*
X370979Y444911D02*
X373389Y442500D01*
X385650D01*
X370173Y452910D02*
X375480Y447603D01*
X385547D01*
X370002Y452910D02*
X370173D01*
X369970Y444911D02*
X370979D01*
X447500Y465000D02*
X450187Y467687D01*
Y473650D01*
X447500Y459350D02*
Y465000D01*
X476339Y474650D02*
X477276Y473713D01*
Y470724D02*
X478000Y470000D01*
X477276Y470724D02*
Y473713D01*
X478000Y461263D02*
Y470000D01*
X477063Y460325D02*
X478000Y461263D01*
X472000Y460325D02*
X477063D01*
X472000Y460253D02*
Y460325D01*
X454368Y412518D02*
X479703D01*
X485350Y418165D01*
X155958Y657272D02*
X167272Y645958D01*
X192728Y694042D02*
X204042Y682728D01*
X247000Y358000D02*
X254500Y365500D01*
X247000Y288000D02*
Y358000D01*
X419550Y485610D02*
X436520Y502579D01*
X464580D01*
X419550Y480391D02*
Y485610D01*
X422150Y459700D02*
Y477791D01*
X419550Y480391D02*
X422150Y477791D01*
X425850Y481810D02*
X427500Y480159D01*
Y459350D02*
Y480159D01*
X425850Y481810D02*
Y483000D01*
X432150Y492150D02*
X438000Y498000D01*
X432150Y459700D02*
Y492150D01*
X437850Y488663D02*
X442837Y493650D01*
X437850Y459700D02*
Y488663D01*
X437500Y459350D02*
X437850Y459700D01*
X402500Y359879D02*
Y390650D01*
X377900Y335279D02*
X402500Y359879D01*
X382000Y333580D02*
X407500Y359080D01*
Y390650D01*
X558308Y466600D02*
X558326Y466618D01*
X570203D01*
X570549Y466964D01*
X548431Y466600D02*
X558308D01*
X544774Y470257D02*
X548431Y466600D01*
X541663Y470257D02*
X544774D01*
X541000Y470920D02*
X541663Y470257D01*
X541409Y479420D02*
X550129Y470700D01*
X556609D01*
X561627Y475717D02*
X570677D01*
X556609Y470700D02*
X561627Y475717D01*
X476250Y516660D02*
Y536750D01*
X470000Y543000D02*
X476250Y536750D01*
X481858Y480500D02*
X484700Y477659D01*
Y460325D02*
Y477659D01*
X481750Y480500D02*
X481858D01*
X484700Y404815D02*
Y411683D01*
X485700Y412683D01*
Y412717D01*
X487633Y414650D01*
X487667D01*
X481600Y401715D02*
X484700Y404815D01*
X469750Y399750D02*
X479635D01*
X454354Y402496D02*
X467004D01*
X469750Y399750D01*
X474283Y374700D02*
X483017D01*
X450062Y374350D02*
X463000D01*
X442500Y381912D02*
X447350Y377062D01*
X442500Y381912D02*
Y390650D01*
X447350Y377062D02*
Y377062D01*
Y377062D02*
X450062Y374350D01*
X443250Y375363D02*
Y375363D01*
Y375363D02*
X450663Y367950D01*
X437500Y381113D02*
X443250Y375363D01*
X450663Y367950D02*
X468367D01*
X432500Y380315D02*
Y390650D01*
X427500Y379517D02*
Y390650D01*
Y379517D02*
X430300Y376717D01*
Y375408D02*
Y376717D01*
X422500Y372850D02*
X423000Y372350D01*
X422500Y372850D02*
Y390650D01*
X35151Y773837D02*
X37272Y775958D01*
X25958Y787272D02*
X37272Y775958D01*
X62728Y824042D02*
X74042Y812728D01*
X437728Y824042D02*
Y824865D01*
X359650Y371000D02*
X360650Y372000D01*
X349000Y371000D02*
X359650D01*
X480000Y432000D02*
X480707Y431293D01*
X484120D01*
X485350Y430063D01*
X464076Y418000D02*
Y418000D01*
X468187Y422111D01*
X471896Y423557D02*
Y424754D01*
X470450Y422111D02*
X471896Y423557D01*
X468187Y422111D02*
X470450D01*
X462886Y418000D02*
X464076D01*
X462386Y417500D02*
X462886Y418000D01*
X454350Y417500D02*
X462386D01*
X471896Y424754D02*
X472650Y424000D01*
X480000Y432000D02*
Y438650D01*
X481350Y440000D01*
X490967Y460478D02*
X491173Y460272D01*
X484853Y460478D02*
X490967D01*
X484700Y460325D02*
X484853Y460478D01*
X465149Y458053D02*
X469800D01*
X472000Y460253D01*
X459595Y452500D02*
X465149Y458053D01*
X454350Y452500D02*
X459595D01*
X450537Y486000D02*
X458000D01*
X451000Y474463D02*
X465813D01*
X466000Y474650D01*
X450187Y473650D02*
X451000Y474463D01*
X450187Y486350D02*
X450537Y486000D01*
X444350Y486350D02*
X450187D01*
X607623Y376880D02*
X693000D01*
X385547Y447603D02*
X385650Y447500D01*
X423350Y360000D02*
X431000D01*
X423000Y359650D02*
X423350Y360000D01*
X471809Y359341D02*
X473000D01*
X469500Y361650D02*
X471809Y359341D01*
X463000Y361650D02*
X469500D01*
X491350Y382000D02*
X498000D01*
X287000Y741880D02*
X296880Y732000D01*
X287000Y741880D02*
Y754000D01*
X400958Y787272D02*
X404920Y783311D01*
X412272Y775958D01*
X403123Y784911D02*
X404723Y783311D01*
X404920D01*
X394597Y784865D02*
X397283D01*
X398837Y783311D02*
X400437Y784911D01*
X465500Y397500D02*
X467350Y395650D01*
X493000D01*
X485025Y387342D02*
X487033Y389350D01*
X498367D01*
X504880Y395863D01*
Y429362D01*
X454350Y397500D02*
X465500D01*
X481600Y401715D02*
Y401715D01*
X479635Y399750D02*
X481600Y401715D01*
X625000Y479000D02*
X625787D01*
X628137Y481350D02*
X634000D01*
X625787Y479000D02*
X628137Y481350D01*
X442500Y484500D02*
X444350Y486350D01*
X442500Y459350D02*
Y484500D01*
X432150Y459700D02*
X432500Y459350D01*
X422150Y459700D02*
X422500Y459350D01*
X377900Y251937D02*
Y335279D01*
X341350Y251000D02*
X376963D01*
X377900Y251937D01*
X382000Y266000D02*
X388000Y260000D01*
X382000Y266000D02*
Y333580D01*
X387455Y367545D02*
X388545D01*
X397500Y376500D02*
Y390650D01*
X388545Y367545D02*
X397500Y376500D01*
X502350Y661000D02*
X511000Y669650D01*
X512000D01*
X468367Y367950D02*
X470676Y365641D01*
X472422Y370600D02*
X496148D01*
X468463Y374559D02*
X472422Y370600D01*
X463209Y374559D02*
X468463D01*
X483017Y374700D02*
X485025Y376708D01*
Y387342D01*
X463000Y374350D02*
X463209Y374559D01*
X500489Y374941D02*
X510895D01*
X496148Y370600D02*
X500489Y374941D01*
X454350Y402500D02*
X454354Y402496D01*
X707302Y617100D02*
X763298D01*
X374700Y467300D02*
Y468000D01*
Y467300D02*
X382650Y459350D01*
X707000Y637000D02*
X718650D01*
X541000Y479420D02*
X541409D01*
X474000Y220350D02*
Y229000D01*
X622000Y469000D02*
X633650D01*
X634000Y468650D01*
X543350Y588000D02*
X548235D01*
X551617Y591383D01*
X504000Y588000D02*
X530650D01*
X412500Y387500D02*
Y390650D01*
Y387500D02*
X412850Y387150D01*
X411600Y378415D02*
X412850Y379665D01*
Y387150D01*
X437500Y381113D02*
Y390650D01*
X552728Y565732D02*
X565008Y578012D01*
X552728Y564042D02*
Y565732D01*
Y334042D02*
X564042Y322728D01*
X682728Y204042D02*
X694042Y192728D01*
X530500Y685000D02*
X531000D01*
X524000D02*
X530500D01*
X204042Y437728D02*
X223114Y456800D01*
X374000Y629350D02*
X374350Y629000D01*
X439042Y564042D02*
X453000Y578000D01*
X453000D01*
X437728Y564042D02*
X439042D01*
X248650Y286350D02*
X254000D01*
X247000Y288000D02*
X248650Y286350D01*
X373000Y372350D02*
X373350Y372000D01*
X383000D02*
X392500Y381500D01*
Y390650D01*
X454350Y422500D02*
X454700Y422850D01*
X460017D01*
X447500Y385230D02*
Y390650D01*
X382650Y459350D02*
X392500D01*
X375000Y372000D02*
X383000D01*
X470000Y543000D02*
Y572650D01*
X742950Y317578D02*
Y366367D01*
X648080Y222708D02*
X742950Y317578D01*
X648080Y169393D02*
Y222708D01*
X645958Y167272D02*
X648080Y169393D01*
X412272Y645553D02*
Y645958D01*
X400958Y657272D02*
X412272Y645958D01*
X546000Y640683D02*
Y651317D01*
Y640683D02*
X547983Y638700D01*
X585422D01*
X601873Y655151D01*
X544017Y653300D02*
X546000Y651317D01*
X513837Y295151D02*
X515958Y297272D01*
X494977Y295151D02*
X513837D01*
X492128Y298000D02*
X494977Y295151D01*
X492000Y298000D02*
X492128D01*
X271122Y286338D02*
X282056Y297272D01*
X285958D01*
X285958Y412272D02*
X285958D01*
X274686Y401000D02*
X285958Y412272D01*
X266000Y401000D02*
X274686D01*
X285830Y502832D02*
Y504517D01*
X284989Y501990D02*
X285830Y502832D01*
X297272Y515958D02*
Y515958D01*
X285830Y504517D02*
X297272Y515958D01*
X596000Y481516D02*
Y505650D01*
Y481516D02*
X604950Y472566D01*
X731350Y654000D02*
X738000D01*
X743930Y659930D02*
X763347D01*
X738000Y654000D02*
X743930Y659930D01*
X718650Y637000D02*
Y654000D01*
X752534Y647579D02*
X752709Y647404D01*
X763172D02*
X763347Y647230D01*
X709000Y613000D02*
X764996D01*
X783347Y631350D01*
Y652629D01*
X776047Y659930D02*
X783347Y652629D01*
X752709Y647404D02*
X763172D01*
X373350Y372000D02*
X375000D01*
X437728Y824042D02*
X449042Y812728D01*
X775958Y787272D02*
X787272Y775958D01*
X824042Y437728D02*
Y437728D01*
X787272Y25958D02*
X787272D01*
X775958Y412272D02*
X787272Y400958D01*
X812728Y449042D02*
X824042Y437728D01*
X786994Y25958D02*
X787272D01*
X412272D02*
X412272D01*
X412272D02*
X412272D01*
X37272D02*
X38725Y27412D01*
X43251D01*
X25958Y37272D02*
X37272Y25958D01*
X437728Y204042D02*
X449042Y192728D01*
X437728Y74042D02*
X449042Y62728D01*
X400958Y37272D02*
X412272Y25958D01*
X775958Y37272D02*
X787272Y25958D01*
X812728Y74042D02*
X824042Y62728D01*
X645958Y167272D02*
X657272Y155958D01*
X437728Y564042D02*
X449042Y552728D01*
X322728Y564042D02*
X334042Y552728D01*
X285958Y527272D02*
X297272Y515958D01*
X25958Y412272D02*
X37272Y400958D01*
X62728Y449042D02*
X74042Y437728D01*
X192728Y449042D02*
X204042Y437728D01*
X437728Y694042D02*
X449042Y682728D01*
X515958Y527272D02*
X527272Y515958D01*
X552728Y564042D02*
X564042Y552728D01*
X682728Y449042D02*
X694042Y437728D01*
X515958Y297272D02*
X527272Y285958D01*
X437728Y334042D02*
X449042Y322728D01*
X285958Y412272D02*
X297272Y400958D01*
X285958Y297272D02*
X297272Y285958D01*
X400958Y297272D02*
X412272Y285958D01*
X62728Y74042D02*
X74042Y62728D01*
X591000Y738000D02*
X591500Y738500D01*
X552350Y646000D02*
Y674850D01*
X527800Y687700D02*
X530500Y685000D01*
X531000D02*
X531500Y684500D01*
X512000Y682350D02*
X521350D01*
X524000Y685000D01*
X552350Y674850D02*
X552500Y675000D01*
X648000Y772000D02*
X655419D01*
X662000Y765419D01*
Y761350D02*
Y765419D01*
X634000Y762350D02*
Y770419D01*
D29*
X188357Y204620D02*
D03*
X171643Y155380D02*
D03*
X44928Y825500D02*
D03*
X55072Y774500D02*
D03*
X545072Y514500D02*
D03*
X534928Y565500D02*
D03*
X664928Y695500D02*
D03*
X675072Y644500D02*
D03*
X794928Y825500D02*
D03*
X805072Y774500D02*
D03*
X545072Y399500D02*
D03*
X534928Y450500D02*
D03*
X675072Y399500D02*
D03*
X664928Y450500D02*
D03*
X805072Y399500D02*
D03*
X794928Y450500D02*
D03*
X545072Y284500D02*
D03*
X534928Y335500D02*
D03*
X664928Y205500D02*
D03*
X675072Y154500D02*
D03*
X805072Y24500D02*
D03*
X794928Y75500D02*
D03*
X419928Y335500D02*
D03*
X430072Y284500D02*
D03*
Y154500D02*
D03*
X419928Y205500D02*
D03*
Y75500D02*
D03*
X430072Y24500D02*
D03*
X315072Y284500D02*
D03*
X304928Y335500D02*
D03*
X55072Y24500D02*
D03*
X44928Y75500D02*
D03*
X304928Y450500D02*
D03*
X315072Y399500D02*
D03*
X185072D02*
D03*
X174928Y450500D02*
D03*
X44928D02*
D03*
X55072Y399500D02*
D03*
X315072Y514500D02*
D03*
X304928Y565500D02*
D03*
X174928Y695500D02*
D03*
X185072Y644500D02*
D03*
X430072Y514500D02*
D03*
X419928Y565500D02*
D03*
Y695500D02*
D03*
X430072Y644500D02*
D03*
X419928Y825500D02*
D03*
X430072Y774500D02*
D03*
D30*
X686200Y835000D02*
D03*
X573800D02*
D03*
D31*
Y795000D02*
D03*
X686200D02*
D03*
D32*
X218000Y754000D02*
D03*
X287000D02*
D03*
X544000Y769000D02*
D03*
X715000D02*
D03*
D33*
X252000Y801500D02*
D03*
Y834500D02*
D03*
X227000Y801500D02*
D03*
Y834500D02*
D03*
X277000Y801500D02*
D03*
Y834500D02*
D03*
D34*
X438748Y625258D02*
D03*
X496570Y513080D02*
D03*
X398272Y503428D02*
D03*
X550211Y377700D02*
D03*
X532211D02*
D03*
X474218Y118618D02*
D03*
Y138430D02*
D03*
X430150Y435150D02*
D03*
Y414850D02*
D03*
X409850D02*
D03*
Y435150D02*
D03*
X442850Y447850D02*
D03*
Y402150D02*
D03*
X397150D02*
D03*
Y447850D02*
D03*
X569572Y383039D02*
D03*
X498604Y479234D02*
D03*
X498602Y470154D02*
D03*
X531000Y362091D02*
D03*
Y354091D02*
D03*
X469680Y531000D02*
D03*
X482050D02*
D03*
X368000Y320040D02*
D03*
X363474Y526288D02*
D03*
X355445Y526288D02*
D03*
X372974Y526288D02*
D03*
X661000Y485648D02*
D03*
X653000Y520446D02*
D03*
X661000D02*
D03*
X171000Y234950D02*
D03*
X189000Y234696D02*
D03*
X305054Y798322D02*
D03*
X205054D02*
D03*
X609092Y660951D02*
D03*
X652497Y613439D02*
D03*
X641726Y619638D02*
D03*
X734428Y695370D02*
D03*
X716454Y713343D02*
D03*
X439025Y728600D02*
D03*
X424942D02*
D03*
X414528Y734400D02*
D03*
X448310D02*
D03*
X709500Y476408D02*
D03*
Y464408D02*
D03*
X624840Y371080D02*
D03*
Y388270D02*
D03*
X667055Y249885D02*
D03*
X682919Y249345D02*
D03*
X688719Y255145D02*
D03*
X689280Y272110D02*
D03*
X436072Y118618D02*
D03*
X424072D02*
D03*
X192532Y122174D02*
D03*
X119417Y149823D02*
D03*
X201422Y364998D02*
D03*
X66802Y371348D02*
D03*
X135600Y454320D02*
D03*
X150230Y477816D02*
D03*
X170942Y483616D02*
D03*
X129800Y447765D02*
D03*
X363007Y257627D02*
D03*
X417068Y616458D02*
D03*
X495000Y661000D02*
D03*
X470980Y406718D02*
D03*
X605000Y417500D02*
D03*
X600800Y402500D02*
D03*
X605000Y355000D02*
D03*
X570000Y375050D02*
D03*
X492500Y447500D02*
D03*
X491100Y505000D02*
D03*
X478650Y389350D02*
D03*
X383481Y504389D02*
D03*
X389281Y510719D02*
D03*
X332500Y482500D02*
D03*
X377761Y498592D02*
D03*
X370002Y452910D02*
D03*
X369970Y444911D02*
D03*
X498573Y415280D02*
D03*
X425850Y483000D02*
D03*
X355750Y411160D02*
D03*
X349000Y371000D02*
D03*
X464526Y418450D02*
D03*
X480000Y432000D02*
D03*
X478000Y470000D02*
D03*
X458000Y486000D02*
D03*
X491173Y460272D02*
D03*
X693000Y376880D02*
D03*
X162000Y365000D02*
D03*
X431000Y360000D02*
D03*
X473000Y359341D02*
D03*
X498000Y382000D02*
D03*
X625000Y621000D02*
D03*
X596000Y592000D02*
D03*
X625000Y479000D02*
D03*
X371000Y257300D02*
D03*
X388000Y260000D02*
D03*
X387455Y367545D02*
D03*
X490000Y551000D02*
D03*
X374700Y468000D02*
D03*
X554000Y477000D02*
D03*
X707000Y637000D02*
D03*
X570677Y475717D02*
D03*
X541000Y480000D02*
D03*
Y470920D02*
D03*
X570567Y466946D02*
D03*
X474000Y229000D02*
D03*
X439000Y254000D02*
D03*
X596926Y429600D02*
D03*
X622000Y469000D02*
D03*
X551617Y591383D02*
D03*
X565008Y578012D02*
D03*
X459955Y273045D02*
D03*
X319357Y482827D02*
D03*
X471000Y661000D02*
D03*
X453000Y578000D02*
D03*
X259700Y359000D02*
D03*
X417000Y625000D02*
D03*
X492000Y298000D02*
D03*
X401000Y268000D02*
D03*
X271122Y286338D02*
D03*
X266000Y401000D02*
D03*
X284989Y501990D02*
D03*
X582000Y445000D02*
D03*
X799000Y361000D02*
D03*
X752534Y647579D02*
D03*
X625000Y455000D02*
D03*
X648000Y772000D02*
D03*
X634000Y770419D02*
D03*
X614000Y761000D02*
D03*
D35*
X454350Y452500D02*
D03*
Y447500D02*
D03*
Y442500D02*
D03*
Y437500D02*
D03*
Y432500D02*
D03*
Y427500D02*
D03*
Y422500D02*
D03*
Y417500D02*
D03*
Y412500D02*
D03*
Y407500D02*
D03*
Y402500D02*
D03*
Y397500D02*
D03*
X385650D02*
D03*
Y402500D02*
D03*
Y407500D02*
D03*
Y412500D02*
D03*
Y417500D02*
D03*
Y422500D02*
D03*
Y427500D02*
D03*
Y432500D02*
D03*
Y437500D02*
D03*
Y442500D02*
D03*
Y447500D02*
D03*
Y452500D02*
D03*
D36*
X447500Y390650D02*
D03*
X442500D02*
D03*
X437500D02*
D03*
X432500D02*
D03*
X427500D02*
D03*
X422500D02*
D03*
X417500D02*
D03*
X412500D02*
D03*
X407500D02*
D03*
X402500D02*
D03*
X397500D02*
D03*
X392500D02*
D03*
Y459350D02*
D03*
X397500D02*
D03*
X402500D02*
D03*
X407500D02*
D03*
X412500D02*
D03*
X417500D02*
D03*
X422500D02*
D03*
X427500D02*
D03*
X432500D02*
D03*
X437500D02*
D03*
X442500D02*
D03*
X447500D02*
D03*
D37*
X420000Y425000D02*
D03*
D38*
X207185Y179002D02*
D03*
X203043Y194457D02*
D03*
X152815Y180998D02*
D03*
X156957Y165543D02*
D03*
D39*
X74042Y812728D02*
D03*
X62728Y824042D02*
D03*
X25958Y787272D02*
D03*
X37272Y775958D02*
D03*
X527272Y515958D02*
D03*
X515958Y527272D02*
D03*
X552728Y564042D02*
D03*
X564042Y552728D02*
D03*
X694042Y682728D02*
D03*
X682728Y694042D02*
D03*
X645958Y657272D02*
D03*
X657272Y645958D02*
D03*
X812728Y824042D02*
D03*
X824042Y812728D02*
D03*
X787272Y775958D02*
D03*
X775958Y787272D02*
D03*
X515958Y412272D02*
D03*
X527272Y400958D02*
D03*
X564042Y437728D02*
D03*
X552728Y449042D02*
D03*
X657272Y400958D02*
D03*
X645958Y412272D02*
D03*
X682728Y449042D02*
D03*
X694042Y437728D02*
D03*
X775958Y412272D02*
D03*
X787272Y400958D02*
D03*
X824042Y437728D02*
D03*
X812728Y449042D02*
D03*
X527272Y285958D02*
D03*
X515958Y297272D02*
D03*
X552728Y334042D02*
D03*
X564042Y322728D02*
D03*
X694042Y192728D02*
D03*
X682728Y204042D02*
D03*
X645958Y167272D02*
D03*
X657272Y155958D02*
D03*
X787272Y25958D02*
D03*
X775958Y37272D02*
D03*
X812728Y74042D02*
D03*
X824042Y62728D02*
D03*
X449042Y322728D02*
D03*
X437728Y334042D02*
D03*
X400958Y297272D02*
D03*
X412272Y285958D02*
D03*
Y155958D02*
D03*
X400958Y167272D02*
D03*
X437728Y204042D02*
D03*
X449042Y192728D02*
D03*
Y62728D02*
D03*
X437728Y74042D02*
D03*
X400958Y37272D02*
D03*
X412272Y25958D02*
D03*
X297272Y285958D02*
D03*
X285958Y297272D02*
D03*
X322728Y334042D02*
D03*
X334042Y322728D02*
D03*
X37272Y25958D02*
D03*
X25958Y37272D02*
D03*
X62728Y74042D02*
D03*
X74042Y62728D02*
D03*
X334042Y437728D02*
D03*
X322728Y449042D02*
D03*
X285958Y412272D02*
D03*
X297272Y400958D02*
D03*
X167272D02*
D03*
X155958Y412272D02*
D03*
X192728Y449042D02*
D03*
X204042Y437728D02*
D03*
X74042D02*
D03*
X62728Y449042D02*
D03*
X25958Y412272D02*
D03*
X37272Y400958D02*
D03*
X297272Y515958D02*
D03*
X285958Y527272D02*
D03*
X322728Y564042D02*
D03*
X334042Y552728D02*
D03*
X204042Y682728D02*
D03*
X192728Y694042D02*
D03*
X155958Y657272D02*
D03*
X167272Y645958D02*
D03*
X412272Y515958D02*
D03*
X400958Y527272D02*
D03*
X437728Y564042D02*
D03*
X449042Y552728D02*
D03*
Y682728D02*
D03*
X437728Y694042D02*
D03*
X400958Y657272D02*
D03*
X412272Y645958D02*
D03*
X437728Y824042D02*
D03*
X449042Y812728D02*
D03*
X412272Y775958D02*
D03*
X400958Y787272D02*
D03*
D40*
X776047Y659930D02*
D03*
X763347Y672629D02*
D03*
Y659930D02*
D03*
X776047Y647230D02*
D03*
X763347D02*
D03*
X776047Y672629D02*
D03*
D41*
X354733Y392625D02*
D03*
X492655Y333189D02*
D03*
X510895Y374941D02*
D03*
X581809Y351985D02*
D03*
D42*
X530650Y588000D02*
D03*
X543350D02*
D03*
X341350Y251000D02*
D03*
X328650D02*
D03*
X654350Y727000D02*
D03*
X641650D02*
D03*
X527558Y254762D02*
D03*
X514858D02*
D03*
X611350Y456000D02*
D03*
X598650D02*
D03*
X468650Y440000D02*
D03*
X481350D02*
D03*
X749350Y361000D02*
D03*
X736650D02*
D03*
X731350Y654000D02*
D03*
X718650D02*
D03*
X539650Y646000D02*
D03*
X552350D02*
D03*
X368850Y418910D02*
D03*
X356150D02*
D03*
X718650Y637000D02*
D03*
X731350D02*
D03*
X491350Y382000D02*
D03*
X478650D02*
D03*
X373350Y357000D02*
D03*
X360650D02*
D03*
X472000Y460325D02*
D03*
X484700D02*
D03*
X485350Y424000D02*
D03*
X472650D02*
D03*
X373350Y372000D02*
D03*
X360650D02*
D03*
D43*
X634000Y481350D02*
D03*
Y468650D02*
D03*
X604000Y328350D02*
D03*
Y315650D02*
D03*
X474000Y220350D02*
D03*
Y207650D02*
D03*
X264000Y470350D02*
D03*
Y457650D02*
D03*
X355000Y571150D02*
D03*
Y583850D02*
D03*
X374000Y616650D02*
D03*
Y629350D02*
D03*
X342500Y503850D02*
D03*
Y491150D02*
D03*
X355000Y628850D02*
D03*
Y616150D02*
D03*
X332994Y364998D02*
D03*
Y377698D02*
D03*
X634000Y762350D02*
D03*
Y749650D02*
D03*
X662000Y761350D02*
D03*
Y748650D02*
D03*
X596000Y518350D02*
D03*
Y505650D02*
D03*
X584000Y394350D02*
D03*
Y381650D02*
D03*
X485000Y263650D02*
D03*
Y276350D02*
D03*
X254000Y273650D02*
D03*
Y286350D02*
D03*
X493000Y408350D02*
D03*
Y395650D02*
D03*
X258000Y386350D02*
D03*
Y373650D02*
D03*
X325000Y503850D02*
D03*
Y491150D02*
D03*
X470000Y585350D02*
D03*
Y572650D02*
D03*
X512000Y669650D02*
D03*
Y682350D02*
D03*
X463000Y361650D02*
D03*
Y374350D02*
D03*
X423000Y372350D02*
D03*
Y359650D02*
D03*
X450187Y473650D02*
D03*
Y486350D02*
D03*
X466000Y473650D02*
D03*
Y486350D02*
D03*
D44*
X601000Y759500D02*
D03*
X591500Y738500D02*
D03*
X610500D02*
D03*
D45*
X552500Y675000D02*
D03*
X531500Y684500D02*
D03*
Y665500D02*
D03*
D46*
X618350Y710000D02*
D03*
X585650D02*
D03*
M02*
